<?xml version="1.0" encoding="UTF-8"?>
<svg version="1.1" xmlns="http://www.w3.org/2000/svg" width="512" height="512">
<path d="M0 0 C92.73 0 185.46 0 281 0 C281.0928125 52.6865625 281.0928125 52.6865625 281.1875 106.4375 C281.21481201 117.52786865 281.24212402 128.6182373 281.27026367 140.04467773 C281.28381348 153.5880127 281.28381348 153.5880127 281.28633118 159.92835999 C281.28912597 164.35634369 281.30036786 168.78421947 281.31672668 173.21217346 C281.33732723 178.86325537 281.34346912 184.5141807 281.33921683 190.16529667 C281.34010581 192.23740106 281.3460409 194.30951101 281.35764539 196.38158309 C281.37261818 199.1857326 281.36895178 201.98927771 281.36076355 204.79344177 C281.37387054 206.00276163 281.37387054 206.00276163 281.38724232 207.23651218 C281.31033234 217.06947123 277.97971271 225.04642854 271 232 C260.46417601 240.03056291 250.24005035 240.28357742 237.5 240.125 C236.09115219 240.11495069 234.68229745 240.10582829 233.2734375 240.09765625 C229.8487795 240.07419969 226.42448061 240.04137384 223 240 C223.1053582 241.05608208 223.1053582 241.05608208 223.21284485 242.13349915 C223.94898128 250.09661061 224.16069039 257.98635427 224.16796875 265.98046875 C224.17129715 267.27390701 224.17462555 268.56734528 224.17805481 269.89997864 C224.18398657 272.61521238 224.1859006 275.33041455 224.18530273 278.0456543 C224.18520071 281.50167945 224.19892156 284.95750107 224.21607494 288.4134779 C224.22993587 291.74831087 224.22928469 295.08310742 224.23046875 298.41796875 C224.23765427 299.64629929 224.24483978 300.87462982 224.25224304 302.1401825 C224.2204087 314.16184207 222.51893269 323.05006349 214.109375 332.015625 C206.52470597 339.12251961 199.51950832 340.51110339 189.3684082 340.49682617 C183.000094 340.28181765 178.26315709 338.66408924 173 335 C172.071875 334.38125 171.14375 333.7625 170.1875 333.125 C163.21640804 326.3530821 159.9559605 319.01553309 159.68404865 309.24922085 C159.64012057 305.40365287 159.66891853 301.56033867 159.70703125 297.71484375 C159.71263536 296.04619226 159.7169016 294.37753578 159.71989441 292.70887756 C159.73127911 288.34406603 159.76069038 283.97956004 159.79400635 279.61486816 C159.83027992 274.36345991 159.84389879 269.11194876 159.86136627 263.86045074 C159.89033239 255.90675549 159.94786339 247.95372897 160 240 C146.14 240 132.28 240 118 240 C118.09539062 244.85332031 118.19078125 249.70664062 118.2890625 254.70703125 C118.34495623 257.80142113 118.40019859 260.89579578 118.453125 263.99023438 C118.53699653 268.89036141 118.62313697 273.79036758 118.72363281 278.69018555 C118.80459995 282.64525748 118.87468755 286.60039258 118.93757248 290.55579185 C118.96328258 292.0567491 118.99276086 293.55764719 119.02626419 295.0584507 C119.32066746 308.43767945 119.32390121 321.45642057 109.75 331.75 C101.86861699 339.18975379 92.93601054 340.63257942 82.44921875 340.40234375 C74.2853848 339.91352267 67.65458748 336.09831208 62 330.3125 C54.49538017 320.26423882 54.44969068 309.52355401 54.609375 297.51953125 C54.61685107 295.8537413 54.62253753 294.18794245 54.62652588 292.5221405 C54.64167494 288.17368562 54.68086159 283.82577961 54.7253418 279.47753906 C54.76652846 275.02611716 54.78458645 270.57460509 54.8046875 266.12304688 C54.84736846 257.41511491 54.91548645 248.70762606 55 240 C53.85168701 240.02356567 53.85168701 240.02356567 52.68017578 240.04760742 C49.16186108 240.11053879 45.64366538 240.14917429 42.125 240.1875 C40.92101562 240.21263672 39.71703125 240.23777344 38.4765625 240.26367188 C27.15425323 240.35597331 18.52121932 238.73153736 10 231 C9.443125 230.50886719 8.88625 230.01773438 8.3125 229.51171875 C-0.52004479 220.61292988 -0.50641059 207.71282799 -0.497715 196.00335979 C-0.48353326 194.05391367 -0.46898172 192.10447021 -0.45410156 190.1550293 C-0.45287425 188.04084967 -0.45341355 185.9266684 -0.45556259 183.81248951 C-0.45646048 178.18385437 -0.43338656 172.55556385 -0.40512085 166.92700958 C-0.38223145 161.63284801 -0.38126245 156.33876753 -0.37841797 151.04455566 C-0.35748264 135.59215867 -0.30163761 120.1398249 -0.25 104.6875 C-0.1675 70.140625 -0.085 35.59375 0 0 Z " fill="#97C024" transform="translate(115,172)"/>
<path d="M0 0 C2.67456055 0.41186523 2.67456055 0.41186523 4.62060547 2.74365234 C5.23009033 3.81881104 5.8395752 4.89396973 6.4675293 6.00170898 C6.80487595 6.58452133 7.1422226 7.16733368 7.48979187 7.76780701 C8.5685218 9.63992721 9.6212393 11.52535668 10.67456055 13.41186523 C11.36997799 14.6241213 12.067386 15.83523779 12.7668457 17.04516602 C15.22135726 21.30245295 17.63689511 25.58146712 20.05175781 29.86132812 C21.08652021 31.69326901 22.12455867 33.52332444 23.1628418 35.35327148 C23.76652588 36.42262939 24.37020996 37.4919873 24.9921875 38.59375 C26.43106813 41.00399512 27.9369994 43.21183787 29.67456055 45.41186523 C31.2369043 44.72350586 31.2369043 44.72350586 32.83081055 44.02124023 C42.6340512 39.78920235 52.21481352 36.55552091 62.67456055 34.41186523 C64.25817383 34.07348633 64.25817383 34.07348633 65.8737793 33.72827148 C94.28034304 28.66191018 124.653345 33.23064979 150.67456055 45.41186523 C150.91561523 44.75057617 151.15666992 44.08928711 151.4050293 43.40795898 C154.09703523 37.05482497 157.72752464 31.13237408 161.1315918 25.13989258 C162.20709768 23.23835733 163.27417053 21.3320382 164.3347168 19.42211914 C166.0336793 16.36621193 167.75770561 13.325656 169.48706055 10.28686523 C170.02564697 9.30854736 170.5642334 8.33022949 171.11914062 7.32226562 C171.63887451 6.42113037 172.1586084 5.51999512 172.6940918 4.59155273 C173.14888916 3.78443848 173.60368652 2.97732422 174.07226562 2.14575195 C175.67456055 0.41186523 175.67456055 0.41186523 178.29833984 0.08813477 C180.67456055 0.41186523 180.67456055 0.41186523 181.67456055 1.41186523 C181.29557085 6.66943432 179.9710554 10.27501989 177.32299805 14.79858398 C176.98587799 15.38170853 176.64875793 15.96483307 176.30142212 16.56562805 C175.22802637 18.4166017 174.13924704 20.25794525 173.04956055 22.09936523 C172.34148484 23.31425188 171.63444555 24.52974321 170.9284668 25.74584961 C169.19708968 28.72279042 167.45317818 31.69214688 165.7052002 34.65936279 C164.0127569 37.53719794 162.3323761 40.42200995 160.65112305 43.30639648 C160.07700684 44.29099854 159.50289062 45.27560059 158.91137695 46.29003906 C158.29915283 47.34034302 158.29915283 47.34034302 157.67456055 48.41186523 C158.32900146 48.86674316 158.98344238 49.32162109 159.65771484 49.7902832 C162.33643044 51.65508029 165.00589069 53.53272153 167.67456055 55.41186523 C168.58592773 56.04866211 169.49729492 56.68545898 170.4362793 57.34155273 C176.93519362 61.95847047 182.87656593 66.9446287 188.67456055 72.41186523 C189.3397168 73.01256836 190.00487305 73.61327148 190.69018555 74.23217773 C208.69283858 91.13710802 220.77818385 115.48649739 226.54956055 139.22436523 C226.75291016 140.0592749 226.95625977 140.89418457 227.16577148 141.75439453 C228.67325229 148.41461196 229.09446024 154.45066158 229.67456055 161.41186523 C137.60456055 161.41186523 45.53456055 161.41186523 -49.32543945 161.41186523 C-49.32543945 152.39406108 -49.32543945 152.39406108 -48.6262207 149.00170898 C-48.47185547 148.24736572 -48.31749023 147.49302246 -48.15844727 146.71582031 C-47.98667969 145.93489014 -47.81491211 145.15395996 -47.63793945 144.34936523 C-47.45714844 143.52009521 -47.27635742 142.6908252 -47.09008789 141.83642578 C-43.99673183 128.12052716 -39.00319836 115.74587574 -32.32543945 103.41186523 C-31.83172852 102.49663086 -31.33801758 101.58139648 -30.8293457 100.63842773 C-19.41212097 80.65019859 -0.26907993 58.8011166 21.67456055 50.41186523 C17.37205323 42.48692115 13.01239264 34.5953818 8.61206055 26.72436523 C7.71390625 25.11078125 7.71390625 25.11078125 6.79760742 23.46459961 C3.86074457 18.21170033 0.89393375 13.02907876 -2.43896484 8.01586914 C-3.69488953 5.74337529 -3.7850225 3.939572 -3.32543945 1.41186523 C-2.32543945 0.41186523 -2.32543945 0.41186523 0 0 Z M14.67456055 90.41186523 C12.19769826 93.81755088 11.43391646 96.34694184 11.73706055 100.47436523 C12.55232422 105.10896201 14.67521711 107.96406481 18.48706055 110.72436523 C23.16501465 112.19457938 26.5785153 111.98096565 30.92456055 109.72436523 C33.81124871 107.29692291 35.34296452 105.93667824 36.67456055 102.41186523 C36.96794445 97.53102389 36.41575126 94.35337776 33.36206055 90.47436523 C30.27531023 88.10546383 28.20565054 86.6601501 24.36206055 86.03686523 C20.56678163 86.56643904 17.64040954 88.05964017 14.67456055 90.41186523 Z M142.29956055 91.53686523 C140.02984654 95.5525131 140.00171966 98.89890807 140.67456055 103.41186523 C142.4029794 107.59645824 144.52278398 109.61905263 148.67456055 111.41186523 C153.68798804 111.94901818 156.68713997 111.53714082 160.67456055 108.41186523 C163.87774007 105.46840297 164.97916638 103.23678272 165.23706055 98.97436523 C165.00098089 93.91551546 163.38103601 91.78887621 159.67456055 88.41186523 C152.9898585 84.82495194 147.73856523 86.67038736 142.29956055 91.53686523 Z " fill="#97C024" transform="translate(165.325439453125,-0.411865234375)"/>
<path d="M0 0 C6.51912726 5.33186898 10.79354648 12.00320546 12.484375 20.3046875 C12.58147114 22.30331327 12.62354426 24.304865 12.63154602 26.30583191 C12.63870132 27.53520477 12.64585663 28.76457764 12.65322876 30.03120422 C12.65606883 31.39083837 12.65878058 32.75047279 12.66137695 34.11010742 C12.66764466 35.54435388 12.67429173 36.97859872 12.68128967 38.4128418 C12.70229777 43.12026852 12.71268972 47.82769544 12.72265625 52.53515625 C12.72670516 54.1582726 12.73082213 55.78138877 12.73500633 57.40450478 C12.75405167 65.03178188 12.7682835 72.65904936 12.7766183 80.28634566 C12.78638554 89.07835802 12.81269428 97.87011828 12.85311919 106.66204184 C12.88332357 113.46560601 12.8980913 120.26909809 12.90139931 127.07272798 C12.90374506 131.13245835 12.91264313 135.19191919 12.93786049 139.25157738 C12.96122189 143.0741423 12.9653424 146.89626176 12.95509911 150.7188797 C12.95460557 152.11643014 12.96087202 153.51400311 12.97465515 154.91148567 C13.0803844 166.27357744 11.23938632 174.12714873 3.40234375 182.515625 C-3.65411791 189.09782346 -11.56695181 191.83147742 -21.16015625 191.55078125 C-30.89827741 190.53336561 -37.46921654 186.35109596 -44.265625 179.5546875 C-50.42344448 170.66005936 -51.1037572 162.25262734 -51.04907227 151.65039062 C-51.05614353 150.1971703 -51.06489359 148.74395734 -51.07518005 147.29075623 C-51.09754685 143.37125817 -51.09476472 139.45216632 -51.08585858 135.53262901 C-51.08072348 132.24992375 -51.08806146 128.96729315 -51.09533066 125.68459558 C-51.11228871 117.93631022 -51.10880463 110.188222 -51.09204102 102.43994141 C-51.07511549 94.46789482 -51.09096916 86.49639566 -51.1232639 78.52440882 C-51.15001843 71.6578247 -51.15722028 64.79141039 -51.14874882 57.92477942 C-51.14383764 53.83323856 -51.1459367 49.74202701 -51.16653633 45.65052795 C-51.18498678 41.80229224 -51.17882219 37.95484003 -51.15433693 34.10664558 C-51.14935887 32.70146633 -51.15274009 31.29622638 -51.16548538 29.89109612 C-51.2388118 21.10656244 -50.27087792 14.76959993 -45.515625 7.3046875 C-44.95875 6.3971875 -44.401875 5.4896875 -43.828125 4.5546875 C-31.71404189 -7.23198796 -14.14035992 -9.52937299 0 0 Z " fill="#97C024" transform="translate(90.515625,172.6953125)"/>
<path d="M0 0 C7.63442907 5.47313295 13.16059508 11.57146908 15 21 C15.09515255 23.01357581 15.13487591 25.03002229 15.14044189 27.0458374 C15.14615204 28.28506958 15.15186218 29.52430176 15.15774536 30.80108643 C15.15899064 32.17175283 15.16011575 33.54241935 15.16113281 34.91308594 C15.16576297 36.35880662 15.17078789 37.80452609 15.17617798 39.25024414 C15.18928583 43.1760386 15.19574389 47.10181598 15.20018864 51.0276289 C15.20312224 53.48206753 15.20722762 55.93650152 15.21169281 58.39093781 C15.22536409 66.07534696 15.2350323 73.75974547 15.2388947 81.44416595 C15.24337333 90.30519244 15.26091368 99.16606451 15.2898953 108.02704406 C15.31153626 114.88239791 15.32160029 121.73770839 15.32293582 128.59309602 C15.32398221 132.68459911 15.32985442 136.77595698 15.34775543 140.86742401 C15.36427775 144.71865911 15.36637158 148.56964045 15.35761642 152.42089844 C15.35684824 153.83014863 15.3611598 155.23941271 15.37107468 156.64862823 C15.45037431 168.62731064 13.92504157 175.82818298 5.546875 184.7265625 C-1.38637094 190.91544155 -9.15033122 193.34521572 -18.28125 193.2109375 C-27.43772576 192.50052128 -34.55863684 188.86435013 -40.72265625 182.11328125 C-47.89293784 173.14602491 -48.4439846 164.81173947 -48.40405273 153.66455078 C-48.40976298 152.22148106 -48.41672976 150.77841584 -48.42485046 149.33535767 C-48.4427263 145.43439226 -48.4416239 141.53365248 -48.43590808 137.63265848 C-48.43280768 134.36746203 -48.43891821 131.10230838 -48.44494683 127.83711803 C-48.45897255 120.12916845 -48.45744747 112.42132974 -48.44604492 104.71337891 C-48.43456944 96.78121141 -48.44863411 88.84938225 -48.4754414 80.91725934 C-48.4976479 74.08894867 -48.50422455 67.26074382 -48.49836498 60.43239963 C-48.49500554 56.36210898 -48.49734247 52.29203508 -48.51461601 48.22177505 C-48.53016204 44.39172535 -48.52604575 40.56217397 -48.50731087 36.7321434 C-48.50364582 35.33341309 -48.50667212 33.93464522 -48.51719666 32.53594971 C-48.58611313 22.61289161 -47.3430285 15.11286712 -41.875 6.75 C-30.22109788 -4.39721072 -14.48156151 -7.78331764 0 0 Z " fill="#97C024" transform="translate(456,171)"/>
</svg>
