<?xml version="1.0" encoding="UTF-8"?>
<svg version="1.1" xmlns="http://www.w3.org/2000/svg" width="512" height="512">
<path d="M0 0 C3.91696182 0.0137153 7.83377012 -0.00744703 11.75070024 -0.02387953 C19.40169249 -0.05041742 27.05232957 -0.04486053 34.70333517 -0.02740368 C40.92706918 -0.01379699 47.15070436 -0.01203989 53.37444901 -0.01854658 C54.70829411 -0.01992568 54.70829411 -0.01992568 56.06908557 -0.02133264 C57.87611309 -0.02325119 59.68314057 -0.02519647 61.49016804 -0.02716818 C78.39430681 -0.04423587 95.29824965 -0.02467104 112.20235628 0.00763401 C126.6748627 0.03443684 141.14708025 0.02977952 155.61958146 0.00212145 C172.46741902 -0.03006147 189.31508531 -0.0425883 206.16294932 -0.02420497 C207.96295155 -0.02229388 209.76295381 -0.02040765 211.56295609 -0.01854658 C212.44835681 -0.01762093 213.33375753 -0.01669528 214.24598858 -0.01574157 C220.45490722 -0.0105831 226.66371629 -0.01925742 232.87261796 -0.0334239 C240.44979884 -0.05033397 248.02660729 -0.04552743 255.60374606 -0.01373944 C259.46228614 0.00192003 263.32020761 0.00839456 267.17874169 -0.01163435 C293.60597182 -0.13737343 312.50755235 3.58978891 331.96870255 22.78434801 C350.16450765 41.26897541 351.88104491 62.15776536 351.75305057 86.81564546 C351.73933527 90.73260728 351.76049759 94.64941558 351.77693009 98.56634569 C351.80346798 106.21733795 351.79791109 113.86797503 351.78045425 121.51898062 C351.76684756 127.74271463 351.76509046 133.96634982 351.77159715 140.19009447 C351.77251655 141.07932453 351.77343594 141.9685546 351.7743832 142.88473102 C351.77630175 144.69175854 351.77824704 146.49878603 351.78021875 148.30581349 C351.79728644 165.20995226 351.77772161 182.11389511 351.74541655 199.01800174 C351.71861372 213.49050815 351.72327105 227.96272571 351.75092912 242.43522692 C351.78311204 259.28306448 351.79563887 276.13073077 351.77725554 292.97859478 C351.77534445 294.77859701 351.77345822 296.57859927 351.77159715 298.37860155 C351.77067149 299.26400227 351.76974584 300.14940299 351.76879214 301.06163403 C351.76363367 307.27055268 351.77230798 313.47936175 351.78647447 319.68826342 C351.80338453 327.2654443 351.79857799 334.84225275 351.76679 342.41939151 C351.75113054 346.27793159 351.744656 350.13585307 351.76468492 353.99438715 C351.89042399 380.42161727 348.16326166 399.32319781 328.96870255 418.78434801 C310.48407516 436.98015311 289.5952852 438.69669036 264.93740511 438.56869602 C261.02044329 438.55498073 257.10363499 438.57614305 253.18670487 438.59257555 C245.53571262 438.61911344 237.88507554 438.61355655 230.23406994 438.5960997 C224.01033593 438.58249301 217.78670075 438.58073591 211.56295609 438.5872426 C210.229111 438.5886217 210.229111 438.5886217 208.86831954 438.59002866 C207.06129202 438.59194721 205.25426453 438.59389249 203.44723707 438.59586421 C186.5430983 438.61293189 169.63915546 438.59336707 152.73504883 438.56106201 C138.26254241 438.53425918 123.79032486 438.5389165 109.31782365 438.56657457 C92.46998609 438.59875749 75.6223198 438.61128433 58.77445579 438.59290099 C56.97445356 438.5909899 55.1744513 438.58910367 53.37444901 438.5872426 C52.04634794 438.58585412 52.04634794 438.58585412 50.69141653 438.58443759 C44.48249789 438.57927912 38.27368882 438.58795344 32.06478715 438.60211992 C24.48760627 438.61902999 16.91079782 438.61422345 9.33365905 438.58243546 C5.47511897 438.566776 1.6171975 438.56030146 -2.24133658 438.58033037 C-28.23307444 438.70402002 -47.09679313 435.013563 -66.36723495 416.48747301 C-69.67442321 413.13179225 -72.44799354 409.71295076 -75.03129745 405.78434801 C-75.44508651 405.23262926 -75.85887557 404.68091051 -76.2852037 404.11247301 C-87.43637719 388.31206417 -86.91162388 370.24312114 -86.81564546 351.75305057 C-86.80193016 347.83608875 -86.82309248 343.91928044 -86.83952498 340.00235033 C-86.86606287 332.35135807 -86.86050598 324.70072099 -86.84304914 317.0497154 C-86.82944245 310.82598139 -86.82768535 304.6023462 -86.83419204 298.37860155 C-86.83511144 297.48937149 -86.83603083 296.60014143 -86.83697809 295.683965 C-86.83889664 293.87693748 -86.84084193 292.06990999 -86.84281364 290.26288253 C-86.85988133 273.35874376 -86.8403165 256.45480091 -86.80801144 239.55069429 C-86.78120861 225.07818787 -86.78586594 210.60597031 -86.81352401 196.1334691 C-86.84570693 179.28563154 -86.85823376 162.43796526 -86.83985043 145.59010124 C-86.83793934 143.79009901 -86.83605311 141.99009675 -86.83419204 140.19009447 C-86.83326638 139.30469375 -86.83234073 138.41929303 -86.83138703 137.50706199 C-86.82622856 131.29814335 -86.83490288 125.08933427 -86.84906936 118.88043261 C-86.86597943 111.30325173 -86.86117288 103.72644328 -86.82938489 96.14930451 C-86.81372543 92.29076443 -86.80725089 88.43284295 -86.82727981 84.57430887 C-86.95301889 58.14707875 -83.22585655 39.24549821 -64.03129745 19.78434801 C-45.54667005 1.58854292 -24.65788009 -0.12799434 0 0 Z " fill="#5D3A7E" transform="translate(124.03129744529724,34.215651988983154)"/>
<path d="M0 0 C1.11968674 -0.00571014 2.23937347 -0.01142029 3.39299011 -0.01730347 C4.63281647 -0.01842133 5.87264282 -0.01953918 7.15003967 -0.02069092 C9.0966172 -0.02813828 9.0966172 -0.02813828 11.08251953 -0.03573608 C14.65793452 -0.04889621 18.23333068 -0.05531464 21.80876613 -0.05974674 C24.04868684 -0.06267795 26.28860244 -0.06678334 28.52852058 -0.07125092 C35.55301577 -0.08494913 42.57749923 -0.09459852 49.60200685 -0.09845281 C57.67681349 -0.10290832 65.75144871 -0.12032844 73.82620329 -0.1494534 C80.08293203 -0.17122494 86.33961319 -0.18116562 92.59637934 -0.18249393 C96.32384071 -0.18353304 100.05114151 -0.18924425 103.77856255 -0.20731354 C154.09987872 -0.43730621 154.09987872 -0.43730621 173.83778381 17.14044189 C174.92013707 17.99585012 176.00338136 18.85013293 177.08778381 19.70294189 C187.05079509 28.5337928 192.07312663 40.70642255 193.04017639 53.90216064 C193.6797665 72.26141227 191.92562422 86.44776539 180.46278381 101.45294189 C175.15572639 106.88635783 169.05291909 111.18563812 162.56434631 115.09747314 C160.96046704 116.06633234 159.39687753 117.10104608 157.83778381 118.14044189 C158.74657288 118.37827393 158.74657288 118.37827393 159.67372131 118.62091064 C175.2998675 122.97219135 188.16610809 132.21461412 196.83778381 146.14044189 C206.37882012 163.2620276 207.19626239 186.53597876 202.41542053 205.18536377 C197.719368 221.07969543 185.46887061 234.38919198 171.07215881 242.23419189 C169.68514757 242.95989104 168.29447698 243.67863795 166.90028381 244.39044189 C165.93409119 244.8849585 165.93409119 244.8849585 164.94837952 245.38946533 C144.34901181 255.46611185 121.30226581 255.73643414 98.88487339 255.57894921 C95.2165883 255.55730135 91.54829789 255.55823478 87.87995911 255.55625916 C81.74813004 255.54986989 75.6165048 255.52882289 69.48475647 255.49713135 C61.60815807 255.45647578 53.73169024 255.43938031 45.85499954 255.42982197 C39.05957692 255.42154468 32.26418192 255.40433036 25.46878338 255.38478446 C24.01391779 255.38073538 22.55905132 255.37699583 21.10418415 255.3735621 C16.34507677 255.36232096 11.58609839 255.34219198 6.82704163 255.31744385 C5.01645012 255.31341049 5.01645012 255.31341049 3.16928101 255.30929565 C1.53411781 255.2985627 1.53411781 255.2985627 -0.13407898 255.28761292 C-1.08666973 255.28333943 -2.03926048 255.27906595 -3.02071762 255.27466297 C-5.16221619 255.14044189 -5.16221619 255.14044189 -6.16221619 254.14044189 C-6.25948451 252.78613251 -6.28777016 251.42679044 -6.28805733 250.06899261 C-6.29066507 249.18631918 -6.29327282 248.30364575 -6.29595959 247.39422464 C-6.29372887 246.41340969 -6.29149815 245.43259473 -6.28919983 244.42205811 C-6.29075982 243.3887705 -6.29231981 242.35548289 -6.29392707 241.29088354 C-6.29794194 237.79996696 -6.29474555 234.30909324 -6.29161072 230.81817627 C-6.29296454 228.32707188 -6.29474437 225.8359677 -6.29692078 223.34486389 C-6.30102122 217.26395481 -6.30040178 211.1830628 -6.29750814 205.10215437 C-6.29525431 200.1622537 -6.29494149 195.22235649 -6.29603195 190.28245544 C-6.29618518 189.58071326 -6.29633842 188.87897108 -6.29649629 188.15596399 C-6.296816 186.73061025 -6.29714022 185.30525651 -6.29746889 183.87990278 C-6.30032383 170.49872461 -6.29703643 157.11755328 -6.29166852 143.73637623 C-6.28720047 132.24231787 -6.2879764 120.7482696 -6.29258728 109.25421143 C-6.29793279 95.92253849 -6.30004914 82.59087156 -6.29697502 69.25919771 C-6.29665645 67.83894126 -6.29634208 66.4186848 -6.29603195 64.99842834 C-6.29580054 63.95010205 -6.29580054 63.95010205 -6.29556445 62.88059744 C-6.29469922 57.94378856 -6.29616229 53.00698347 -6.29851151 48.07017517 C-6.30160087 41.43171823 -6.29941708 34.7932775 -6.29361725 28.1548214 C-6.2922889 25.71060404 -6.29268501 23.26638508 -6.29487991 20.82216835 C-6.29758851 17.50103195 -6.29421386 14.17995804 -6.28919983 10.85882568 C-6.29143055 9.87801073 -6.29366127 8.89719577 -6.29595959 7.88665915 C-6.29335184 7.00398571 -6.2907441 6.12131228 -6.28805733 5.21189117 C-6.28789497 4.44425902 -6.28773262 3.67662686 -6.28756535 2.88573313 C-6.01482475 -0.91175359 -3.16657145 0.00962537 0 0 Z " fill="#FEFEFE" transform="translate(163.16221618652344,129.85955810546875)"/>
<path d="M0 0 C21.8994099 -0.20054405 21.8994099 -0.20054405 31.30859375 -0.24414062 C37.703176 -0.27391085 44.09739679 -0.30894513 50.49169922 -0.37719727 C55.65295216 -0.43193671 60.81381692 -0.46150818 65.97533798 -0.47438622 C67.93433611 -0.48355139 69.89331547 -0.50144677 71.85214615 -0.52865028 C85.51514197 -0.71067221 99.83255009 -0.30800148 110.625 9.47265625 C118.82590745 18.95495549 120.97431379 27.51650196 121 40 C121.02320313 41.10859375 121.04640625 42.2171875 121.0703125 43.359375 C120.85368461 53.22797907 117.08411325 63.59461507 109.8125 70.5625 C95.78706128 80.71454361 78.51817266 80.29836057 62.01171875 80.1953125 C60.41654602 80.19236365 58.82137135 80.19032841 57.22619629 80.18920898 C51.37993425 80.17881912 45.53371392 80.1508971 39.6875 80.125 C26.590625 80.08375 13.49375 80.0425 0 80 C0 53.6 0 27.2 0 0 Z " fill="#5D3A7E" transform="translate(202,269)"/>
<path d="M0 0 C18.48570457 -0.08021762 18.48570457 -0.08021762 26.4296875 -0.09765625 C31.82784001 -0.10956289 37.22592399 -0.12357354 42.62402344 -0.15087891 C46.98123674 -0.17277854 51.33837643 -0.18460433 55.69564056 -0.18975449 C57.34922187 -0.19341976 59.00279963 -0.20057612 60.65634918 -0.21146011 C88.75815709 -0.38889729 88.75815709 -0.38889729 100.25 7.125 C108.06518552 15.29542123 109.21944962 23.30060501 109.3125 34.1875 C109.35600586 35.85522461 109.35600586 35.85522461 109.40039062 37.55664062 C109.45447373 44.58328378 108.6768259 48.99288975 105 55 C104.5875 55.86625 104.175 56.7325 103.75 57.625 C98.16376294 65.20632173 89.31619733 68.7285409 80.31491089 70.54051208 C76.6078043 71.05436321 72.98335587 71.13274076 69.25048828 71.11352539 C68.49858719 71.11367142 67.7466861 71.11381744 66.97200012 71.1139679 C64.50474082 71.11327528 62.0375585 71.10551358 59.5703125 71.09765625 C57.85252931 71.09578975 56.13474558 71.09436694 54.41696167 71.09336853 C49.90920527 71.08956159 45.4014814 71.07974696 40.89373779 71.06866455 C35.47798332 71.05660646 30.06221793 71.0520395 24.64645386 71.04621124 C16.43094665 71.03653416 8.21551075 71.01736487 0 71 C0 47.57 0 24.14 0 0 Z " fill="#5D3A7E" transform="translate(202,166)"/>
</svg>
