<?xml version="1.0" encoding="UTF-8"?>
<svg version="1.1" xmlns="http://www.w3.org/2000/svg" width="512" height="512">
<path d="M0 0 C1.84390468 -0.00435203 3.68780755 -0.00953681 5.53170776 -0.01548767 C10.52151134 -0.02883709 15.51123897 -0.02946079 20.50105691 -0.02692437 C24.67573501 -0.02585176 28.85039792 -0.03074551 33.02507275 -0.03552979 C42.87951977 -0.04661126 52.73392867 -0.04707024 62.58837891 -0.04101562 C72.732959 -0.03497828 82.87740032 -0.04728394 93.02195674 -0.06858569 C101.7509249 -0.08623672 110.47984902 -0.09219748 119.20883435 -0.08894795 C124.41372433 -0.08714031 129.61851533 -0.08971918 134.82338905 -0.10366249 C139.72118791 -0.11629304 144.61877145 -0.11424751 149.51656723 -0.1012516 C151.30631141 -0.09889751 153.096071 -0.10157829 154.8857975 -0.10987473 C167.58405248 -0.16445921 179.20563268 0.59951613 190.5065918 7.0246582 C191.13887695 7.37536377 191.77116211 7.72606934 192.42260742 8.08740234 C205.22633993 15.34601784 212.30954893 24.49911898 219.8347168 36.99731445 C221.69256795 40.0656946 223.61627655 43.07865437 225.5690918 46.0871582 C227.83346319 49.62587314 229.80007914 53.14838271 231.60424805 56.93481445 C233.29916068 60.19929249 235.22047802 63.32154151 237.1315918 66.4621582 C240.01956706 71.21043501 242.78353585 75.98361197 245.3815918 80.8996582 C248.2721553 86.3551815 251.4396394 91.57906193 254.7097168 96.8137207 C257.47934032 101.30197125 260.02565899 105.91435565 262.59057617 110.52148438 C265.14160107 115.09652271 267.77799754 119.60575114 270.5300293 124.0637207 C271.8190918 126.2746582 271.8190918 126.2746582 273.11206055 128.9309082 C275.89343793 134.37909822 279.16062988 139.53737207 282.34838867 144.75512695 C285.06866693 149.24239447 287.60287069 153.73282181 289.89599609 158.4519043 C291.33734714 161.29801033 293.04558133 163.95947542 294.7565918 166.6496582 C298.11887376 172.06424214 301.21010427 177.45820572 303.8190918 183.2746582 C304.18905273 184.07645508 304.55901367 184.87825195 304.94018555 185.7043457 C311.28173832 200.98911393 311.23038994 218.53557879 305.5690918 233.9621582 C304.68120597 236.07863024 303.7648785 238.1834187 302.8190918 240.2746582 C302.3756543 241.25950195 301.9322168 242.2443457 301.4753418 243.2590332 C298.46842 249.57356898 294.90887763 255.37681579 291.06835938 261.2019043 C288.41010185 265.26033845 286.19581139 269.36222385 284.1159668 273.7355957 C282.57259541 276.75725654 280.81046859 279.58854051 279.0065918 282.4621582 C276.07316959 287.14572725 273.37608124 291.87679833 270.8190918 296.7746582 C267.75043171 302.64266643 264.41199318 308.27073202 260.89331055 313.8840332 C258.15129248 318.36627743 255.59703856 322.94315006 253.04077148 327.53295898 C250.51781815 332.05608167 247.89769866 336.50588665 245.20581055 340.9309082 C243.715791 343.4492511 242.32624131 346.00813391 240.9440918 348.5871582 C238.69266437 352.7709131 236.27632546 356.80936631 233.7565918 360.8371582 C231.43348162 364.56290094 229.26644901 368.24745854 227.3815918 372.2121582 C224.14636903 378.9356994 219.93159348 385.06544278 215.8190918 391.2746582 C215.1178418 392.33555664 214.4165918 393.39645508 213.6940918 394.48950195 C204.62925877 407.95455601 189.69447059 417.02859336 173.9890722 420.85356259 C170.56621948 421.51778438 167.16519653 421.55720714 163.69343567 421.54208374 C162.91581412 421.54661485 162.13819258 421.55114597 161.33700675 421.55581439 C158.75260413 421.56839167 156.16841405 421.56684236 153.58398438 421.56518555 C151.72214489 421.57117505 149.86030789 421.57798156 147.99847412 421.58554077 C142.95483405 421.60316692 137.9112619 421.60789478 132.867594 421.60917234 C129.71155932 421.61059663 126.55554176 421.61487154 123.39951134 421.62016678 C112.37489099 421.63865719 101.35031893 421.64683879 90.32568359 421.64526367 C80.07261526 421.64406316 69.81975774 421.66515042 59.56674272 421.696751 C50.7452098 421.72296418 41.92374552 421.73362883 33.10217398 421.73235285 C27.84186776 421.73184462 22.5817489 421.73745057 17.3214817 421.75870895 C12.36947756 421.77817593 7.41783786 421.77815826 2.46582031 421.76367569 C0.65714163 421.76159682 -1.15156038 421.76623294 -2.96019936 421.77839661 C-16.21065239 421.86167721 -27.39602334 420.3886242 -39.1809082 413.7746582 C-40.2121582 413.2074707 -41.2434082 412.6402832 -42.3059082 412.0559082 C-45.1325056 410.30464678 -47.63315453 408.40697118 -50.1809082 406.2746582 C-50.80094727 405.77063477 -51.42098633 405.26661133 -52.05981445 404.74731445 C-57.55215758 400.14699922 -61.17412631 395.42023299 -64.55981445 389.1340332 C-67.05756083 384.72836971 -69.79309343 380.4731377 -72.52709961 376.2109375 C-74.58943153 372.96214112 -76.5006069 369.72482808 -78.18481445 366.26293945 C-80.187139 362.1495283 -82.57365954 358.36185648 -85.0559082 354.5246582 C-88.70224948 348.80507716 -91.89543464 343.03641789 -94.83325195 336.9152832 C-96.07572712 334.48075216 -97.42776773 332.32256857 -98.9934082 330.0871582 C-102.40116183 325.18962746 -105.04098808 319.94135296 -107.7824707 314.6550293 C-110.5010714 309.45317973 -113.48128553 304.51486557 -116.7043457 299.60668945 C-117.9927162 297.57188208 -119.08460418 295.57064666 -120.1184082 293.3996582 C-121.81596047 289.83841025 -123.83468176 286.55390948 -125.9309082 283.2121582 C-129.32217179 277.78487578 -132.36268474 272.25119598 -135.32055664 266.57885742 C-137.10619026 263.18755817 -138.97354756 259.96922398 -141.1809082 256.8371582 C-153.08877388 239.56099243 -159.54952185 219.65997987 -156.1809082 198.7121582 C-153.83652662 186.13865869 -147.41397576 175.3169315 -141.0168457 164.4074707 C-139.53562882 161.87994742 -138.09216775 159.34144571 -136.6809082 156.7746582 C-127.11031468 139.50247595 -127.11031468 139.50247595 -123.0559082 133.6496582 C-120.82016777 130.39220843 -119.03197619 127.07887346 -117.3059082 123.5246582 C-114.63931119 118.0390872 -111.56655146 112.93298198 -108.32543945 107.77075195 C-105.53084316 103.27329948 -102.97873003 98.64203034 -100.40307617 94.01708984 C-97.87984476 89.49378941 -95.25966734 85.04368008 -92.56762695 80.6184082 C-91.0776074 78.1000653 -89.68805772 75.5411825 -88.3059082 72.9621582 C-86.05448078 68.7784033 -83.63814186 64.73995009 -81.1184082 60.7121582 C-78.73212568 56.88595567 -76.51426294 53.08619776 -74.5559082 49.0246582 C-72.58896151 44.94603965 -70.28736627 41.28586092 -67.71606445 37.5637207 C-66.09507335 35.14667035 -64.63812492 32.66839832 -63.1809082 30.1496582 C-54.44331863 15.66130814 -39.76218416 5.99759599 -23.61531067 1.21955872 C-15.88772704 -0.44143921 -7.86523145 -0.01227083 0 0 Z M62.8190918 92.2746582 C59.01495813 98.68814323 58.24163226 104.46728491 58.31738281 111.80810547 C58.31197983 112.82069427 58.30657684 113.83328308 58.30101013 114.8765564 C58.28858028 118.19836338 58.30497503 121.51929395 58.32299805 124.84106445 C58.32284294 127.16316269 58.321352 129.48526119 58.31858826 131.80735779 C58.31720687 136.66335558 58.3297201 141.51905709 58.35253906 146.375 C58.38093833 152.58782388 58.37817836 158.80015637 58.36544895 165.0130167 C58.35848245 169.80437897 58.36629198 174.59562839 58.37870598 179.38697624 C58.38320988 181.67742416 58.38356659 183.96788423 58.37964058 186.25833321 C58.37671849 189.46267521 58.3932832 192.66634818 58.41503906 195.87060547 C58.41053741 196.8095314 58.40603577 197.74845734 58.40139771 198.71583557 C58.4743554 205.20881071 59.22095891 211.16280359 63.5378418 216.33325195 C64.1256543 216.78829102 64.7134668 217.24333008 65.3190918 217.7121582 C66.20081055 218.42178711 66.20081055 218.42178711 67.1003418 219.14575195 C71.30043556 221.9044499 75.9841587 221.96312764 80.8190918 221.2746582 C86.41958051 218.99516104 89.96704209 215.63651165 92.8190918 210.2746582 C93.699385 207.42015473 93.94948288 204.84795379 93.96626282 201.86799622 C93.97341812 200.99201782 93.98057343 200.11603943 93.98794556 199.21351624 C93.99063446 198.2602092 93.99332336 197.30690216 93.99609375 196.32470703 C94.00266495 195.31445465 94.00923615 194.30420227 94.01600647 193.26333618 C94.03571915 189.91945316 94.04739802 186.57561503 94.05737305 183.23168945 C94.06144857 182.08817205 94.0655241 180.94465466 94.06972313 179.76648521 C94.09057588 173.71314042 94.10488069 167.65981824 94.11425781 161.60644531 C94.12531643 155.36329984 94.15971274 149.12051134 94.19942951 142.87749195 C94.22561127 138.06895803 94.2339511 133.26050895 94.23753929 128.45191002 C94.24240169 126.15109536 94.25400572 123.85028441 94.27257729 121.54953957 C94.29699957 118.32326835 94.2959976 115.09791794 94.2890625 111.87158203 C94.30187256 110.92839615 94.31468262 109.98521027 94.32788086 109.01344299 C94.2671006 101.22246258 92.36562178 95.18497818 87.1940918 89.2746582 C78.97957296 84.40679519 69.5615469 85.35477007 62.8190918 92.2746582 Z M-4.1809082 125.2746582 C-4.1809082 125.9346582 -4.1809082 126.5946582 -4.1809082 127.2746582 C-4.76098633 127.53118164 -5.34106445 127.78770508 -5.9387207 128.05200195 C-12.19316469 131.46252629 -16.78221007 137.62558954 -20.48950195 143.57543945 C-21.78734016 145.64658541 -23.12406231 147.63349251 -24.52856445 149.63012695 C-31.9475486 160.44788632 -35.81834302 171.65823447 -39.1809082 184.2746582 C-39.36766113 184.95834473 -39.55441406 185.64203125 -39.74682617 186.34643555 C-47.46101252 215.25360955 -41.4229842 247.12709229 -26.69262695 272.8762207 C-24.81210875 275.85978189 -22.77728629 278.66927073 -20.57543945 281.4230957 C-19.1809082 283.2746582 -19.1809082 283.2746582 -17.87231445 285.6262207 C-15.73497322 288.97291205 -13.14791037 291.52343251 -10.3059082 294.2746582 C-9.78899414 294.78254883 -9.27208008 295.29043945 -8.73950195 295.8137207 C-7.70971909 296.82534618 -6.67677495 297.83376415 -5.640625 298.83886719 C-4.32295892 300.1349358 -3.04422306 301.47029623 -1.77075195 302.80981445 C19.72959476 323.27243704 51.09651014 332.77071769 80.2175293 332.42700195 C103.53584182 331.84380315 127.3305165 323.37092003 145.8190918 309.2746582 C147.6075598 308.0823462 149.39903665 306.89452986 151.1940918 305.7121582 C155.10621293 302.97367341 158.08367366 300.0031076 161.09643555 296.3137207 C162.94492813 294.12570908 164.93474897 292.18861232 167.0065918 290.2121582 C169.90571113 287.35199057 171.99147554 284.70079175 173.83862305 281.0871582 C174.94886295 279.03476253 176.26633225 277.22917144 177.6315918 275.3371582 C186.81006426 261.66216135 192.82424942 243.55075848 194.8190918 227.2746582 C194.9531543 226.18411133 195.0872168 225.09356445 195.2253418 223.9699707 C196.77053416 207.64009692 194.46365931 191.88164254 189.47485352 176.32055664 C188.85883167 174.39864186 188.27719062 172.4658034 187.69799805 170.5324707 C184.97315447 162.0656557 181.00597918 155.12151609 175.94799805 147.89135742 C174.90579426 146.39882423 173.89230649 144.88634876 172.8815918 143.37231445 C169.23267885 138.07378878 165.19271902 133.35444801 160.6940918 128.7746582 C160.20320068 128.2698291 159.71230957 127.765 159.20654297 127.24487305 C155.54192125 123.62750906 151.83661478 120.84044376 146.6940918 119.8762207 C139.92749721 119.96080314 135.76419403 122.04535674 131.0065918 126.8996582 C128.01558717 130.50743318 126.92901096 133.37192806 126.4987793 138.0012207 C127.32065426 143.8345284 130.73051038 147.49923118 134.8815918 151.3996582 C140.27209312 156.4814524 140.27209312 156.4814524 141.8190918 160.2746582 C142.4790918 160.2746582 143.1390918 160.2746582 143.8190918 160.2746582 C144.05885742 160.78512695 144.29862305 161.2955957 144.5456543 161.8215332 C145.56774327 163.79046533 146.69006013 165.70721616 147.8425293 167.6027832 C159.25075139 186.45104487 163.05752603 209.1933698 158.5065918 230.8996582 C157.96701961 233.03059535 157.40671852 235.15646886 156.8190918 237.2746582 C156.51165039 238.57209961 156.51165039 238.57209961 156.19799805 239.89575195 C152.10514673 255.78414992 141.52254544 269.23006695 128.8190918 279.2746582 C128.1590918 279.6046582 127.4990918 279.9346582 126.8190918 280.2746582 C126.8190918 280.9346582 126.8190918 281.5946582 126.8190918 282.2746582 C126.1797168 282.5015332 125.5403418 282.7284082 124.8815918 282.9621582 C122.4084774 284.02206437 120.40574215 285.13241261 118.1315918 286.5246582 C99.02908694 297.20051913 76.15269121 299.85018917 55.0690918 294.4621582 C52.64550512 293.75633286 50.22817469 293.02850263 47.8190918 292.2746582 C46.80588867 291.96399414 45.79268555 291.65333008 44.7487793 291.33325195 C39.06831441 289.44240083 34.43263878 286.97967263 29.59643555 283.4465332 C27.89562204 282.09117196 27.89562204 282.09117196 25.8190918 282.2746582 C25.8190918 281.6146582 25.8190918 280.9546582 25.8190918 280.2746582 C24.32394705 278.9893065 22.77089061 277.77092014 21.1940918 276.5871582 C16.79180733 273.13839246 13.17212925 269.73621351 9.8190918 265.2746582 C9.24416992 264.51282227 8.66924805 263.75098633 8.0769043 262.96606445 C-5.28827568 244.58177183 -9.51556674 222.56297746 -6.93041992 200.09790039 C-6.2819079 196.08253845 -5.27558191 192.18786096 -4.1809082 188.2746582 C-3.98754883 187.42258789 -3.79418945 186.57051758 -3.5949707 185.69262695 C-1.91480007 178.93921383 1.43635205 173.29646466 4.97924805 167.3762207 C6.36719334 165.0364573 7.65270691 162.72829688 8.8190918 160.2746582 C9.4790918 160.2746582 10.1390918 160.2746582 10.8190918 160.2746582 C11.3140918 159.4702832 11.8090918 158.6659082 12.3190918 157.8371582 C14.36797613 154.52140646 16.97231431 152.33790468 19.9440918 149.8371582 C24.05294104 146.20636358 26.32165375 143.94545198 26.8190918 138.2746582 C26.91889253 133.06838655 26.50416384 129.39568518 23.7565918 124.8996582 C19.50463081 121.10003349 15.47658717 118.7175741 9.8190918 117.7746582 C4.43181416 118.67253781 -0.60693691 121.05892117 -4.1809082 125.2746582 Z " fill="#5BBB63" transform="translate(181.180908203125,43.725341796875)"/>
<path d="M0 0 C1.84390468 -0.00435203 3.68780755 -0.00953681 5.53170776 -0.01548767 C10.52151134 -0.02883709 15.51123897 -0.02946079 20.50105691 -0.02692437 C24.67573501 -0.02585176 28.85039792 -0.03074551 33.02507275 -0.03552979 C42.87951977 -0.04661126 52.73392867 -0.04707024 62.58837891 -0.04101562 C72.732959 -0.03497828 82.87740032 -0.04728394 93.02195674 -0.06858569 C101.7509249 -0.08623672 110.47984902 -0.09219748 119.20883435 -0.08894795 C124.41372433 -0.08714031 129.61851533 -0.08971918 134.82338905 -0.10366249 C139.72118791 -0.11629304 144.61877145 -0.11424751 149.51656723 -0.1012516 C151.30631141 -0.09889751 153.096071 -0.10157829 154.8857975 -0.10987473 C167.58405248 -0.16445921 179.20563268 0.59951613 190.5065918 7.0246582 C191.13887695 7.37536377 191.77116211 7.72606934 192.42260742 8.08740234 C205.22633993 15.34601784 212.30954893 24.49911898 219.8347168 36.99731445 C221.69256795 40.0656946 223.61627655 43.07865437 225.5690918 46.0871582 C227.83346319 49.62587314 229.80007914 53.14838271 231.60424805 56.93481445 C233.29916068 60.19929249 235.22047802 63.32154151 237.1315918 66.4621582 C240.01956706 71.21043501 242.78353585 75.98361197 245.3815918 80.8996582 C248.2721553 86.3551815 251.4396394 91.57906193 254.7097168 96.8137207 C257.47934032 101.30197125 260.02565899 105.91435565 262.59057617 110.52148438 C265.14160107 115.09652271 267.77799754 119.60575114 270.5300293 124.0637207 C271.8190918 126.2746582 271.8190918 126.2746582 273.11206055 128.9309082 C275.89343793 134.37909822 279.16062988 139.53737207 282.34838867 144.75512695 C285.06866693 149.24239447 287.60287069 153.73282181 289.89599609 158.4519043 C291.33734714 161.29801033 293.04558133 163.95947542 294.7565918 166.6496582 C298.11887376 172.06424214 301.21010427 177.45820572 303.8190918 183.2746582 C304.18905273 184.07645508 304.55901367 184.87825195 304.94018555 185.7043457 C311.28173832 200.98911393 311.23038994 218.53557879 305.5690918 233.9621582 C304.68120597 236.07863024 303.7648785 238.1834187 302.8190918 240.2746582 C302.3756543 241.25950195 301.9322168 242.2443457 301.4753418 243.2590332 C298.46842 249.57356898 294.90887763 255.37681579 291.06835938 261.2019043 C288.41010185 265.26033845 286.19581139 269.36222385 284.1159668 273.7355957 C282.57259541 276.75725654 280.81046859 279.58854051 279.0065918 282.4621582 C276.07316959 287.14572725 273.37608124 291.87679833 270.8190918 296.7746582 C267.75043171 302.64266643 264.41199318 308.27073202 260.89331055 313.8840332 C258.15129248 318.36627743 255.59703856 322.94315006 253.04077148 327.53295898 C250.51781815 332.05608167 247.89769866 336.50588665 245.20581055 340.9309082 C243.715791 343.4492511 242.32624131 346.00813391 240.9440918 348.5871582 C238.69266437 352.7709131 236.27632546 356.80936631 233.7565918 360.8371582 C231.43348162 364.56290094 229.26644901 368.24745854 227.3815918 372.2121582 C224.14636903 378.9356994 219.93159348 385.06544278 215.8190918 391.2746582 C215.1178418 392.33555664 214.4165918 393.39645508 213.6940918 394.48950195 C204.62925877 407.95455601 189.69447059 417.02859336 173.9890722 420.85356259 C170.56621948 421.51778438 167.16519653 421.55720714 163.69343567 421.54208374 C162.91581412 421.54661485 162.13819258 421.55114597 161.33700675 421.55581439 C158.75260413 421.56839167 156.16841405 421.56684236 153.58398438 421.56518555 C151.72214489 421.57117505 149.86030789 421.57798156 147.99847412 421.58554077 C142.95483405 421.60316692 137.9112619 421.60789478 132.867594 421.60917234 C129.71155932 421.61059663 126.55554176 421.61487154 123.39951134 421.62016678 C112.37489099 421.63865719 101.35031893 421.64683879 90.32568359 421.64526367 C80.07261526 421.64406316 69.81975774 421.66515042 59.56674272 421.696751 C50.7452098 421.72296418 41.92374552 421.73362883 33.10217398 421.73235285 C27.84186776 421.73184462 22.5817489 421.73745057 17.3214817 421.75870895 C12.36947756 421.77817593 7.41783786 421.77815826 2.46582031 421.76367569 C0.65714163 421.76159682 -1.15156038 421.76623294 -2.96019936 421.77839661 C-16.21065239 421.86167721 -27.39602334 420.3886242 -39.1809082 413.7746582 C-40.2121582 413.2074707 -41.2434082 412.6402832 -42.3059082 412.0559082 C-45.1325056 410.30464678 -47.63315453 408.40697118 -50.1809082 406.2746582 C-50.80094727 405.77063477 -51.42098633 405.26661133 -52.05981445 404.74731445 C-57.55215758 400.14699922 -61.17412631 395.42023299 -64.55981445 389.1340332 C-67.05756083 384.72836971 -69.79309343 380.4731377 -72.52709961 376.2109375 C-74.58943153 372.96214112 -76.5006069 369.72482808 -78.18481445 366.26293945 C-80.187139 362.1495283 -82.57365954 358.36185648 -85.0559082 354.5246582 C-88.70224948 348.80507716 -91.89543464 343.03641789 -94.83325195 336.9152832 C-96.07572712 334.48075216 -97.42776773 332.32256857 -98.9934082 330.0871582 C-102.40116183 325.18962746 -105.04098808 319.94135296 -107.7824707 314.6550293 C-110.5010714 309.45317973 -113.48128553 304.51486557 -116.7043457 299.60668945 C-117.9927162 297.57188208 -119.08460418 295.57064666 -120.1184082 293.3996582 C-121.81596047 289.83841025 -123.83468176 286.55390948 -125.9309082 283.2121582 C-129.32217179 277.78487578 -132.36268474 272.25119598 -135.32055664 266.57885742 C-137.10619026 263.18755817 -138.97354756 259.96922398 -141.1809082 256.8371582 C-153.08877388 239.56099243 -159.54952185 219.65997987 -156.1809082 198.7121582 C-153.83652662 186.13865869 -147.41397576 175.3169315 -141.0168457 164.4074707 C-139.53562882 161.87994742 -138.09216775 159.34144571 -136.6809082 156.7746582 C-127.11031468 139.50247595 -127.11031468 139.50247595 -123.0559082 133.6496582 C-120.82016777 130.39220843 -119.03197619 127.07887346 -117.3059082 123.5246582 C-114.63931119 118.0390872 -111.56655146 112.93298198 -108.32543945 107.77075195 C-105.53084316 103.27329948 -102.97873003 98.64203034 -100.40307617 94.01708984 C-97.87984476 89.49378941 -95.25966734 85.04368008 -92.56762695 80.6184082 C-91.0776074 78.1000653 -89.68805772 75.5411825 -88.3059082 72.9621582 C-86.05448078 68.7784033 -83.63814186 64.73995009 -81.1184082 60.7121582 C-78.73212568 56.88595567 -76.51426294 53.08619776 -74.5559082 49.0246582 C-72.58896151 44.94603965 -70.28736627 41.28586092 -67.71606445 37.5637207 C-66.09507335 35.14667035 -64.63812492 32.66839832 -63.1809082 30.1496582 C-54.44331863 15.66130814 -39.76218416 5.99759599 -23.61531067 1.21955872 C-15.88772704 -0.44143921 -7.86523145 -0.01227083 0 0 Z M-51.4309082 35.1496582 C-53.95638012 38.70733935 -55.82992323 42.44598004 -57.7043457 46.3762207 C-59.51362871 49.92777623 -61.54601064 53.30939583 -63.6184082 56.7121582 C-66.22685146 60.99570945 -68.76832619 65.27904895 -71.1184082 69.7121582 C-73.60878029 74.36686481 -76.36021669 78.81631341 -79.1809082 83.2746582 C-82.55063076 88.60368079 -85.74270875 93.9648492 -88.70825195 99.5324707 C-93.0061991 107.5355447 -97.64777846 115.35961186 -102.20654297 123.21630859 C-105.98851106 129.73453027 -109.75382339 136.25911767 -113.4309082 142.8371582 C-117.49411528 150.10199486 -121.6449842 157.31541396 -125.8059082 164.5246582 C-126.42755859 165.60175049 -127.04920898 166.67884277 -127.68969727 167.78857422 C-128.2978125 168.84101318 -128.90592773 169.89345215 -129.5324707 170.9777832 C-130.13349609 172.02256836 -130.73452148 173.06735352 -131.35375977 174.14379883 C-132.57694678 176.2397569 -133.82404623 178.32193247 -135.09399414 180.38989258 C-143.93160483 194.91048126 -145.67977903 210.35721483 -142.44262695 227.09106445 C-139.55358655 235.31695039 -134.43857452 242.73117721 -129.8059082 250.07543945 C-127.32115985 254.01919445 -125.065883 258.04531087 -122.87231445 262.1574707 C-112.93988754 280.46249767 -102.2339314 298.38601602 -91.61450195 316.2980957 C-91.03756592 317.27141846 -90.46062988 318.24474121 -89.86621094 319.24755859 C-88.78564814 321.06822003 -87.70328927 322.88781741 -86.61865234 324.70605469 C-82.98855202 330.81726508 -79.56262315 337.0232274 -76.1809082 343.2746582 C-56.30880186 383.46795937 -56.30880186 383.46795937 -20.55403137 407.35002136 C-13.01597395 408.95105688 -5.21953327 408.56168524 2.44921875 408.54931641 C4.23401095 408.55366875 6.01880128 408.55885363 7.80358887 408.56480408 C12.63224125 408.57815017 17.46081514 408.57877757 22.28948236 408.57624078 C26.32995293 408.57516793 30.37040782 408.58006252 34.41087502 408.5848462 C43.94889615 408.59592653 53.4868779 408.5963873 63.02490234 408.59033203 C72.8422948 408.58429491 82.65954385 408.59660003 92.47691184 408.6179021 C100.92562784 408.63555576 109.37429834 408.64151347 117.82303208 408.63826436 C122.86024928 408.63645712 127.8973642 408.63903148 132.93456459 408.6529789 C137.67477688 408.66561375 142.41476676 408.66355993 147.15497589 408.65056801 C148.88666804 408.64821483 150.61837612 408.65089133 152.35004997 408.65919113 C170.38252827 408.73933306 184.92654265 405.61512459 198.47143555 392.8215332 C204.73069375 386.03112331 209.14681101 377.94648917 213.43237305 369.8215332 C215.10743868 366.74507463 216.97991963 363.83468734 218.9362793 360.9309082 C220.05427788 359.14623051 220.05427788 359.14623051 219.8190918 356.2746582 C220.4790918 356.2746582 221.1390918 356.2746582 221.8190918 356.2746582 C222.0872168 355.70360352 222.3553418 355.13254883 222.6315918 354.54418945 C225.66511774 348.26758479 229.15542623 342.39723076 232.8503418 336.48950195 C234.58049995 333.66426353 236.19449512 330.81991115 237.7565918 327.8996582 C240.14406902 323.43696236 242.69650814 319.10118958 245.3190918 314.7746582 C248.42831085 309.63838484 251.40693891 304.46137693 254.25268555 299.1730957 C260.2352691 288.10307826 266.57918391 277.25343451 273.00512695 266.43652344 C276.7081246 260.19104739 280.33374295 253.91002548 283.8449707 247.5546875 C285.83298565 243.96721144 287.9490908 240.51778321 290.1940918 237.0871582 C297.04709405 225.60837944 297.2422054 210.94720273 295.33862305 198.0090332 C290.68497795 179.96139436 277.98057479 162.99877573 268.52075195 147.13696289 C261.04762455 134.5666694 253.68471182 121.93634213 246.63549805 109.12329102 C242.65934127 101.9245233 238.50768771 94.83116095 234.35131836 87.73535156 C230.54275911 81.23274534 226.7581963 74.7171114 222.99780273 68.18652344 C221.10164893 64.89369634 219.20086479 61.60357588 217.29956055 58.3137207 C215.16005195 54.60958371 213.03635027 50.89751361 210.93237305 47.1730957 C201.93177608 31.34602395 191.41599599 20.11189437 173.64984989 14.22441006 C169.68047964 13.24029238 166.02919002 12.9864599 161.97227478 13.00050354 C161.21254744 12.99526686 160.45282009 12.99003018 159.67007071 12.98463482 C157.14018172 12.96970815 154.6104963 12.96893128 152.08056641 12.96826172 C150.2599046 12.96063509 148.43924601 12.95220673 146.61859131 12.94303894 C141.68226656 12.92113185 136.74600375 12.91229968 131.80963588 12.9072125 C128.72043489 12.90356327 125.63124997 12.89732015 122.54205513 12.89021111 C111.74970923 12.86572604 100.95741131 12.85266755 90.16503906 12.84912109 C80.1306604 12.84549054 70.09658849 12.81562713 60.06230348 12.77371651 C51.42845877 12.73892917 42.79471526 12.72357116 34.16080099 12.72287506 C29.01273668 12.72208487 23.86498477 12.71346614 18.71699333 12.6848774 C13.86835781 12.65855303 9.02029044 12.65657115 4.1716156 12.67253304 C2.40205195 12.67433638 0.63245455 12.66775876 -1.13703728 12.65171432 C-21.41086754 12.47924444 -38.4829684 18.71573461 -51.4309082 35.1496582 Z " fill="#54A572" transform="translate(181.180908203125,43.725341796875)"/>
<path d="M0 0 C0.66 0.33 1.32 0.66 2 1 C-3.01829651 6.9219126 -8.16430096 12.86553567 -14 18 C-14.66 18 -15.32 18 -16 18 C-14.40826182 9.69763837 -6.4218385 4.69507748 0 0 Z " fill="#71B389" transform="translate(136,55)"/>
<path d="M0 0 C0.33 0 0.66 0 1 0 C1.86598345 8.48663781 -1.20983831 17.41967661 -5 25 C-5.66 25 -6.32 25 -7 25 C-4.74868611 16.64284994 -2.39214186 8.31785366 0 0 Z " fill="#82C989" transform="translate(374,278)"/>
<path d="M0 0 C0 3.86661175 -1.13700022 4.67134959 -3.6875 7.5 C-4.71423828 8.66015625 -4.71423828 8.66015625 -5.76171875 9.84375 C-8.02452163 12.02362293 -10.25120735 13.49803274 -13 15 C-11.67064278 11.0532555 -10.05426964 8.69284433 -7.0625 5.8125 C-6.02802734 4.80123047 -6.02802734 4.80123047 -4.97265625 3.76953125 C-3 2 -3 2 0 0 Z " fill="#83CF88" transform="translate(205,189)"/>
<path d="M0 0 C0 0.66 0 1.32 0 2 C-2.18109952 3.01643473 -4.36816462 4.01288256 -6.5625 5 C-7.17158203 5.28617187 -7.78066406 5.57234375 -8.40820312 5.8671875 C-12.77423025 7.807644 -16.25080495 8.29338657 -21 8 C-17.24118131 6.01457269 -13.31647506 4.45310017 -9.375 2.875 C-8.694375 2.59785156 -8.01375 2.32070313 -7.3125 2.03515625 C-2.23964748 0 -2.23964748 0 0 0 Z " fill="#8CCF91" transform="translate(309,364)"/>
<path d="M0 0 C0.640625 1.76171875 0.640625 1.76171875 1 4 C0.109375 5.89453125 0.109375 5.89453125 -1.25 7.8125 C-3.6885597 11.43298 -5.39521957 14.94581786 -7 19 C-7.33 19 -7.66 19 -8 19 C-7.83112554 11.56952384 -3.86815652 6.15067185 0 0 Z " fill="#84D189" transform="translate(186,210)"/>
<path d="M0 0 C0 3.31645076 -0.79300147 4.40547863 -2.64453125 7.0390625 C-4.41903398 9.60621054 -6.07965035 12.23903239 -7.75 14.875 C-8.67039063 16.32519531 -8.67039063 16.32519531 -9.609375 17.8046875 C-10.06828125 18.52914062 -10.5271875 19.25359375 -11 20 C-11.33 19.34 -11.66 18.68 -12 18 C-9.08826352 11.16818251 -5.03988894 5.39988101 0 0 Z " fill="#8ECC92" transform="translate(164,181)"/>
<path d="M0 0 C2.57745966 2.3613852 4.31894325 4.88910718 6.125 7.875 C6.64320313 8.71804687 7.16140625 9.56109375 7.6953125 10.4296875 C8.99730279 12.99468633 9.58375872 15.16752888 10 18 C7.25376277 15.49036167 5.32948572 12.67889094 3.3125 9.5625 C2.37857422 8.14130859 2.37857422 8.14130859 1.42578125 6.69140625 C0 4 0 4 0 0 Z " fill="#81BE9B" transform="translate(473,207)"/>
<path d="M0 0 C6.76761128 0.94457629 12.8600433 1.93002165 19 5 C19 5.33 19 5.66 19 6 C12.51527007 5.26309887 6.30760257 3.64681249 0 2 C0 1.34 0 0.68 0 0 Z " fill="#82BE9C" transform="translate(349,44)"/>
<path d="M0 0 C0.66 0 1.32 0 2 0 C3.5333805 2.59748082 5.05179668 5.20187896 6.5625 7.8125 C7.00013672 8.55048828 7.43777344 9.28847656 7.88867188 10.04882812 C8.29794922 10.76103516 8.70722656 11.47324219 9.12890625 12.20703125 C9.70233765 13.18893433 9.70233765 13.18893433 10.28735352 14.19067383 C11 16 11 16 10 19 C5.86846695 12.84231786 2.27141942 7.08148409 0 0 Z " fill="#8BC1A0" transform="translate(88,382)"/>
<path d="M0 0 C3.39356411 3.04098602 5.19602323 6.0145626 7.125 10.125 C9.08374704 14.39867736 9.08374704 14.39867736 12 18 C11.01 18 10.02 18 9 18 C7.49480613 15.37785672 5.99568681 12.75255792 4.5 10.125 C3.85611328 9.00544922 3.85611328 9.00544922 3.19921875 7.86328125 C2.79316406 7.14785156 2.38710937 6.43242187 1.96875 5.6953125 C1.59169922 5.03547363 1.21464844 4.37563477 0.82617188 3.69580078 C0 2 0 2 0 0 Z " fill="#7FBF94" transform="translate(75,359)"/>
<path d="M0 0 C4.48905483 5.15409999 8.60150096 11.22265848 10 18 C7.04727473 15.22700584 4.84228026 12.46599962 2.75 9 C1.96882813 7.7315625 1.96882813 7.7315625 1.171875 6.4375 C0 4 0 4 0 0 Z " fill="#7CB390" transform="translate(416,108)"/>
<path d="M0 0 C1.6136731 3.0959158 2.94604982 6.23727172 4.1875 9.5 C4.55230469 10.4384375 4.91710937 11.376875 5.29296875 12.34375 C6.02361424 15.08871647 5.97149097 16.3763556 5 19 C-0.74031891 6.51480638 -0.74031891 6.51480638 0 0 Z " fill="#8DCE92" transform="translate(142,286)"/>
<path d="M0 0 C4.33333333 4.33333333 8.66666667 8.66666667 13 13 C12.01 13.495 12.01 13.495 11 14 C6.90261949 10.65073672 2.98901176 7.4237374 0 3 C0 2.01 0 1.02 0 0 Z " fill="#89C19C" transform="translate(120,436)"/>
<path d="M0 0 C0.33 0.99 0.66 1.98 1 3 C-0.21741979 4.46815389 -1.44948761 5.92416847 -2.6875 7.375 C-3.37199219 8.18710937 -4.05648438 8.99921875 -4.76171875 9.8359375 C-7.09861313 12.09534323 -8.9302743 13.02155853 -12 14 C-8 9.33333333 -4 4.66666667 0 0 Z " fill="#8DC2A4" transform="translate(394,436)"/>
<path d="M0 0 C0.66 0 1.32 0 2 0 C4.4793824 6.24273068 5.31985731 11.28299653 5 18 C3.31099986 14.89370844 2.29373333 11.84794949 1.375 8.4375 C1.11460937 7.48746094 0.85421875 6.53742188 0.5859375 5.55859375 C0 3 0 3 0 0 Z " fill="#89CA8E" transform="translate(370,218)"/>
<path d="M0 0 C2.61371215 2.3932786 4.40088665 4.98397046 6.25 8 C6.79140625 8.86625 7.3328125 9.7325 7.890625 10.625 C9 13 9 13 8 16 C6.65543396 14.09119643 5.32469479 12.17264729 4 10.25 C3.2575 9.18265625 2.515 8.1153125 1.75 7.015625 C0 4 0 4 0 0 Z " fill="#7BB897" transform="translate(459,183)"/>
<path d="M0 0 C3.5814782 4.19897444 6.81831513 8.21416538 7.1875 13.875 C7.125625 14.57625 7.06375 15.2775 7 16 C3.04961337 11.25953605 0 6.21355834 0 0 Z " fill="#88CD8D" transform="translate(330,213)"/>
<path d="M0 0 C2.81158409 2.49824489 4.44837831 5.278476 6.25 8.5625 C6.79140625 9.53316406 7.3328125 10.50382813 7.890625 11.50390625 C8.25671875 12.32761719 8.6228125 13.15132812 9 14 C8.67 14.66 8.34 15.32 8 16 C6.84072025 14.46841892 5.69812453 12.92420207 4.5625 11.375 C3.60537109 10.08722656 3.60537109 10.08722656 2.62890625 8.7734375 C0.86822073 5.77562762 0.35742365 3.43328069 0 0 Z " fill="#83BC96" transform="translate(431,134)"/>
<path d="M0 0 C0.33 0.66 0.66 1.32 1 2 C-0.109375 4.49609375 -0.109375 4.49609375 -1.75 7.4375 C-2.28109375 8.40558594 -2.8121875 9.37367188 -3.359375 10.37109375 C-4.75899764 12.61382241 -6.03853093 14.25712839 -8 16 C-7.43555175 11.65136348 -5.84572036 8.82172345 -3.4375 5.1875 C-2.79683594 4.21167969 -2.15617187 3.23585938 -1.49609375 2.23046875 C-0.75552734 1.12638672 -0.75552734 1.12638672 0 0 Z " fill="#87BD9B" transform="translate(424,385)"/>
<path d="M0 0 C0.33 0.66 0.66 1.32 1 2 C-0.618652 6.34777457 -3.03340143 10.44008172 -6 14 C-6.66 13.67 -7.32 13.34 -8 13 C-5.36 8.71 -2.72 4.42 0 0 Z " fill="#81B993" transform="translate(85,131)"/>
<path d="M0 0 C1.9375 0.375 1.9375 0.375 4 1 C4.33 1.66 4.66 2.32 5 3 C6.65438613 3.69658363 8.32254318 4.36096883 10 5 C10.99 5.66 11.98 6.32 13 7 C13 7.66 13 8.32 13 9 C8.33138019 7.39516194 3.90741833 5.02509806 0 2 C0 1.34 0 0.68 0 0 Z " fill="#84D089" transform="translate(207,324)"/>
<path d="M0 0 C0.71484375 1.671875 0.71484375 1.671875 1 4 C-0.43359375 6.578125 -0.43359375 6.578125 -2.4375 9.25 C-3.09621094 10.14203125 -3.75492187 11.0340625 -4.43359375 11.953125 C-4.95050781 12.62859375 -5.46742187 13.3040625 -6 14 C-6.33 13.34 -6.66 12.68 -7 12 C-5.8203125 9.43359375 -5.8203125 9.43359375 -4.125 6.4375 C-3.57070312 5.44621094 -3.01640625 4.45492187 -2.4453125 3.43359375 C-1 1 -1 1 0 0 Z " fill="#82C296" transform="translate(97,110)"/>
<path d="M0 0 C1.25955231 3.77865693 0.48087189 5.03411786 -0.9375 8.6875 C-1.31777344 9.68136719 -1.69804687 10.67523438 -2.08984375 11.69921875 C-2.39019531 12.45847656 -2.69054687 13.21773437 -3 14 C-3.33 14 -3.66 14 -4 14 C-3.66009167 8.62007164 -3.31442207 4.46726453 0 0 Z " fill="#8DCC97" transform="translate(147,210)"/>
<path d="M0 0 C2.94995547 3.45856848 5.22675738 6.80021485 7 11 C6.67 11.66 6.34 12.32 6 13 C4.99193149 11.40089132 3.99379615 9.79551738 3 8.1875 C2.443125 7.29417969 1.88625 6.40085937 1.3125 5.48046875 C0 3 0 3 0 0 Z " fill="#89BD9D" transform="translate(62,336)"/>
<path d="M0 0 C1 3 1 3 -0.21484375 5.48046875 C-0.78332031 6.37378906 -1.35179687 7.26710938 -1.9375 8.1875 C-2.50339844 9.08855469 -3.06929688 9.98960937 -3.65234375 10.91796875 C-4.09707031 11.60503906 -4.54179687 12.29210937 -5 13 C-6 10 -6 10 -4.78515625 7.51953125 C-4.21667969 6.62621094 -3.64820313 5.73289062 -3.0625 4.8125 C-2.49660156 3.91144531 -1.93070312 3.01039063 -1.34765625 2.08203125 C-0.90292969 1.39496094 -0.45820313 0.70789063 0 0 Z " fill="#7EBF93" transform="translate(467,310)"/>
<path d="M0 0 C1 2 1 2 0.3125 4.25 C-1.18526213 7.38816827 -3.01250158 10.15125227 -5 13 C-5.33 12.34 -5.66 11.68 -6 11 C-5.0390625 8.65234375 -5.0390625 8.65234375 -3.625 5.9375 C-2.93277344 4.58978516 -2.93277344 4.58978516 -2.2265625 3.21484375 C-1 1 -1 1 0 0 Z " fill="#94C8A6" transform="translate(110,87)"/>
<path d="M0 0 C0.33 0.99 0.66 1.98 1 3 C-0.21484375 5.26171875 -0.21484375 5.26171875 -1.9375 7.6875 C-2.50339844 8.49574219 -3.06929688 9.30398438 -3.65234375 10.13671875 C-4.09707031 10.75160156 -4.54179687 11.36648438 -5 12 C-5.33 11.01 -5.66 10.02 -6 9 C-5.34 9 -4.68 9 -4 9 C-3.896875 8.2575 -3.79375 7.515 -3.6875 6.75 C-2.95746496 3.82985982 -1.93210602 2.26812446 0 0 Z " fill="#92C6A8" transform="translate(409,411)"/>
<path d="M0 0 C2.33524782 2.25740623 4.18705073 4.2805761 6 7 C5.625 9.1875 5.625 9.1875 5 11 C4.15841464 9.73461631 3.32700252 8.46246221 2.5 7.1875 C1.80390625 6.12595703 1.80390625 6.12595703 1.09375 5.04296875 C0 3 0 3 0 0 Z " fill="#89BD9E" transform="translate(105,411)"/>
<path d="M0 0 C0.66 0.33 1.32 0.66 2 1 C-1.27681643 3.75550472 -4.54173703 6.47280783 -8 9 C-8.66 8.67 -9.32 8.34 -10 8 C-6.7 5.36 -3.4 2.72 0 0 Z " fill="#93D099" transform="translate(331,349)"/>
<path d="M0 0 C-1.43011973 0.86646667 -2.86940619 1.71781829 -4.3125 2.5625 C-5.51326172 3.27599609 -5.51326172 3.27599609 -6.73828125 4.00390625 C-9 5 -9 5 -12 4 C-10.56988027 3.13353333 -9.13059381 2.28218171 -7.6875 1.4375 C-6.48673828 0.72400391 -6.48673828 0.72400391 -5.26171875 -0.00390625 C-3 -1 -3 -1 0 0 Z " fill="#81CE92" transform="translate(303,329)"/>
<path d="M0 0 C4.59306496 1.4859916 7.43569245 3.85014682 11 7 C7.33815476 7 5.97194 6.080358 3 4 C1.1875 1.8125 1.1875 1.8125 0 0 Z " fill="#93D496" transform="translate(182,349)"/>
<path d="M0 0 C0.66 0 1.32 0 2 0 C2.69710731 1.28650706 3.38242876 2.57940665 4.0625 3.875 C4.63677734 4.95394531 4.63677734 4.95394531 5.22265625 6.0546875 C5.47917969 6.69664063 5.73570312 7.33859375 6 8 C5.67 8.66 5.34 9.32 5 10 C4.16121545 8.71186658 3.32913217 7.41936744 2.5 6.125 C2.0359375 5.40570313 1.571875 4.68640625 1.09375 3.9453125 C0 2 0 2 0 0 Z " fill="#79BA8E" transform="translate(405,90)"/>
<path d="M0 0 C3.24299151 2.38957269 5.50902342 4.2047869 7 8 C6.01 8 5.02 8 4 8 C0 2.74285714 0 2.74285714 0 0 Z " fill="#8AC88D" transform="translate(350,181)"/>
<path d="M0 0 C1 3 1 3 0.22265625 4.82421875 C-0.8515625 6.54947917 -1.92578125 8.27473958 -3 10 C-3.75 8.375 -3.75 8.375 -4 6 C-2.0625 2.75 -2.0625 2.75 0 0 Z " fill="#8CC59D" transform="translate(452,336)"/>
<path d="M0 0 C0.6875 1.75 0.6875 1.75 1 4 C-0.3125 6.25 -0.3125 6.25 -2 8 C-2.66 8 -3.32 8 -4 8 C-2.87548273 5.0280615 -1.77706209 2.66559313 0 0 Z " fill="#7BB793" transform="translate(55,183)"/>
<path d="M0 0 C3.91402949 1.26941497 5.79072873 2.51167694 8 6 C7.67 6.66 7.34 7.32 7 8 C5.83035398 6.8572081 4.66435444 5.71068285 3.5 4.5625 C2.8503125 3.92441406 2.200625 3.28632813 1.53125 2.62890625 C0 1 0 1 0 0 Z " fill="#88CE8D" transform="translate(338,169)"/>
</svg>
