<?xml version="1.0" encoding="UTF-8"?>
<!DOCTYPE svg PUBLIC "-//W3C//DTD SVG 1.1//EN" "http://www.w3.org/Graphics/SVG/1.1/DTD/svg11.dtd">
<svg xmlns="http://www.w3.org/2000/svg" version="1.1" width="512px" height="512px" style="shape-rendering:geometricPrecision; text-rendering:geometricPrecision; image-rendering:optimizeQuality; fill-rule:evenodd; clip-rule:evenodd" xmlns:xlink="http://www.w3.org/1999/xlink">
<g><path style="opacity:0.927" fill="#fdfcfb" d="M 255.5,2.5 C 256.873,2.34332 258.207,2.50999 259.5,3C 283.167,26.6667 306.833,50.3333 330.5,74C 365.171,74.1668 399.838,74.6668 434.5,75.5C 435.327,110.458 435.827,145.458 436,180.5C 459.637,204.361 483.637,228.027 508,251.5C 508.667,252.5 508.667,253.5 508,254.5C 483.5,279 459,303.5 434.5,328C 435.831,362.137 435.831,396.304 434.5,430.5C 399.838,431.333 365.171,431.833 330.5,432C 306.833,455.667 283.167,479.333 259.5,503C 258.167,503.667 256.833,503.667 255.5,503C 231.833,479.333 208.167,455.667 184.5,432C 149.502,431.5 114.502,431.333 79.5,431.5C 79.6667,396.498 79.5,361.498 79,326.5C 55.2387,302.571 31.4054,278.905 7.5,255.5C 6.57211,254.232 6.40544,252.899 7,251.5C 30.9799,227.771 54.9799,203.771 79,179.5C 79.3333,144.833 79.6667,110.167 80,75.5C 114.762,74.6702 149.595,74.1702 184.5,74C 208.368,50.2986 232.035,26.4653 255.5,2.5 Z M 248.5,231.5 C 251.531,233.873 254.531,236.206 257.5,238.5C 260.428,236.417 263.261,234.084 266,231.5C 266.499,235.486 266.666,239.486 266.5,243.5C 270.884,243.174 275.217,243.508 279.5,244.5C 276.317,246.849 273.651,249.682 271.5,253C 273.83,256.328 276.496,259.328 279.5,262C 275.179,262.499 270.846,262.666 266.5,262.5C 266.666,266.846 266.499,271.179 266,275.5C 263.933,272.891 261.766,270.391 259.5,268C 258.167,267.333 256.833,267.333 255.5,268C 253.234,270.391 251.067,272.891 249,275.5C 248.667,271.5 248.333,267.5 248,263.5C 243.92,262.7 239.753,262.2 235.5,262C 238.504,259.328 241.17,256.328 243.5,253C 241.349,249.682 238.683,246.849 235.5,244.5C 239.783,243.508 244.116,243.174 248.5,243.5C 248.5,239.5 248.5,235.5 248.5,231.5 Z"/></g>
<g><path style="opacity:1" fill="#efa727" d="M 313.5,75.5 C 298.676,76.4961 283.676,76.8294 268.5,76.5C 268.5,121.5 268.5,166.5 268.5,211.5C 264.853,214.811 261.187,218.145 257.5,221.5C 253.479,218.146 249.812,214.479 246.5,210.5C 246.5,165.833 246.5,121.167 246.5,76.5C 231.167,76.5 215.833,76.5 200.5,76.5C 219.146,57.1877 238.146,38.1877 257.5,19.5C 275.854,38.521 294.521,57.1877 313.5,75.5 Z"/></g>
<g><path style="opacity:1" fill="#fae4bd" d="M 313.5,75.5 C 314.043,75.56 314.376,75.8933 314.5,76.5C 299.515,77.4993 284.515,77.8327 269.5,77.5C 269.832,122.336 269.499,167.003 268.5,211.5C 268.5,166.5 268.5,121.5 268.5,76.5C 283.676,76.8294 298.676,76.4961 313.5,75.5 Z"/></g>
<g><path style="opacity:1" fill="#f9e2b9" d="M 200.5,76.5 C 215.833,76.5 231.167,76.5 246.5,76.5C 246.5,121.167 246.5,165.833 246.5,210.5C 245.501,166.336 245.168,122.003 245.5,77.5C 230.324,77.8294 215.324,77.4961 200.5,76.5 Z"/></g>
<g><path style="opacity:1" fill="#eef6db" d="M 92.5,87.5 C 119.328,86.5021 146.328,86.1688 173.5,86.5C 173.737,87.791 173.404,88.791 172.5,89.5C 146.188,87.5088 119.521,86.8421 92.5,87.5 Z"/></g>
<g><path style="opacity:1" fill="#eddae8" d="M 422.5,87.5 C 395.479,86.8421 368.812,87.5088 342.5,89.5C 341.596,88.791 341.263,87.791 341.5,86.5C 368.672,86.1688 395.672,86.5021 422.5,87.5 Z"/></g>
<g><path style="opacity:1" fill="#c1e07b" d="M 92.5,88.5 C 92.5,88.1667 92.5,87.8333 92.5,87.5C 119.521,86.8421 146.188,87.5088 172.5,89.5C 172.167,89.5 171.833,89.5 171.5,89.5C 145.339,88.5022 119.005,88.1688 92.5,88.5 Z"/></g>
<g><path style="opacity:1" fill="#c68bb8" d="M 422.5,87.5 C 423.833,114.5 423.833,141.5 422.5,168.5C 422.5,141.833 422.5,115.167 422.5,88.5C 395.995,88.1688 369.661,88.5022 343.5,89.5C 343.167,89.5 342.833,89.5 342.5,89.5C 368.812,87.5088 395.479,86.8421 422.5,87.5 Z"/></g>
<g><path style="opacity:1" fill="#f2f8e4" d="M 92.5,87.5 C 92.5,87.8333 92.5,88.1667 92.5,88.5C 91.5021,114.995 91.1688,141.661 91.5,168.5C 90.8334,155.171 90.5001,141.671 90.5,128C 90.5007,114.15 91.1674,100.65 92.5,87.5 Z"/></g>
<g><path style="opacity:1" fill="#ebf4d5" d="M 235.5,87.5 C 236.498,124.663 236.832,161.996 236.5,199.5C 235.209,199.737 234.209,199.404 233.5,198.5C 233.833,198.5 234.167,198.5 234.5,198.5C 235.498,161.67 235.832,124.67 235.5,87.5 Z"/></g>
<g><path style="opacity:1" fill="#d1e89d" d="M 92.5,88.5 C 92.3334,114.835 92.5,141.169 93,167.5C 94.0391,166.29 95.2058,165.29 96.5,164.5C 96.0334,167.297 94.3667,168.631 91.5,168.5C 91.1688,141.661 91.5021,114.995 92.5,88.5 Z"/></g>
<g><path style="opacity:1" fill="#9ccd2a" d="M 188.5,88.5 C 203.833,88.5 219.167,88.5 234.5,88.5C 234.5,125.167 234.5,161.833 234.5,198.5C 234.167,198.5 233.833,198.5 233.5,198.5C 207.854,172.521 182.188,146.521 156.5,120.5C 166.854,109.479 177.521,98.8123 188.5,88.5 Z"/></g>
<g><path style="opacity:1" fill="#e0c1d9" d="M 325.5,87.5 C 310.324,87.1706 295.324,87.5039 280.5,88.5C 279.833,106.664 279.5,124.997 279.5,143.5C 279.5,162.179 280.167,180.512 281.5,198.5C 280.791,199.404 279.791,199.737 278.5,199.5C 278.333,162.165 278.5,124.832 279,87.5C 294.598,86.1697 310.098,86.1697 325.5,87.5 Z"/></g>
<g><path style="opacity:1" fill="#ac5698" d="M 280.5,88.5 C 280.168,125.004 280.502,161.337 281.5,197.5C 281.5,197.833 281.5,198.167 281.5,198.5C 280.167,180.512 279.5,162.179 279.5,143.5C 279.5,124.997 279.833,106.664 280.5,88.5 Z"/></g>
<g><path style="opacity:1" fill="#9ccd2b" d="M 92.5,88.5 C 119.005,88.1688 145.339,88.5022 171.5,89.5C 162.225,99.0375 152.725,108.371 143,117.5C 141.096,120.068 141.43,122.401 144,124.5C 173.307,154.14 202.974,183.474 233,212.5C 233.513,213.527 234.013,214.527 234.5,215.5C 234.5,220.5 234.5,225.5 234.5,230.5C 229.5,230.5 224.5,230.5 219.5,230.5C 188.5,200.167 157.833,169.5 127.5,138.5C 125.833,135.833 124.167,135.833 122.5,138.5C 113.5,146.833 104.833,155.5 96.5,164.5C 95.2058,165.29 94.0391,166.29 93,167.5C 92.5,141.169 92.3334,114.835 92.5,88.5 Z"/></g>
<g><path style="opacity:1" fill="#bddd72" d="M 188.5,88.5 C 203.991,87.5037 219.658,87.1704 235.5,87.5C 235.832,124.67 235.498,161.67 234.5,198.5C 234.5,161.833 234.5,125.167 234.5,88.5C 219.167,88.5 203.833,88.5 188.5,88.5 Z"/></g>
<g><path style="opacity:1" fill="#932479" d="M 325.5,87.5 C 329.779,91.1125 333.779,95.1125 337.5,99.5C 338.5,101.167 339.833,102.5 341.5,103.5C 342.167,103.5 342.5,103.833 342.5,104.5C 343.5,106.167 344.833,107.5 346.5,108.5C 348.806,110.139 350.806,112.139 352.5,114.5C 353.5,116.167 354.833,117.5 356.5,118.5C 357.412,119.738 357.579,121.072 357,122.5C 331.965,147.702 306.799,172.702 281.5,197.5C 280.502,161.337 280.168,125.004 280.5,88.5C 295.324,87.5039 310.324,87.1706 325.5,87.5 Z"/></g>
<g><path style="opacity:1" fill="#932479" d="M 422.5,168.5 C 411.854,158.521 401.521,148.188 391.5,137.5C 390.635,136.417 389.635,136.251 388.5,137C 357.827,168.533 326.827,199.699 295.5,230.5C 290.167,230.5 284.833,230.5 279.5,230.5C 279.5,225.167 279.5,219.833 279.5,214.5C 310.799,183.702 341.965,152.702 373,121.5C 373.315,120.092 372.982,118.759 372,117.5C 361.968,108.634 352.468,99.3007 343.5,89.5C 369.661,88.5022 395.995,88.1688 422.5,88.5C 422.5,115.167 422.5,141.833 422.5,168.5 Z"/></g>
<g><path style="opacity:1" fill="#d6aacb" d="M 337.5,99.5 C 339.833,99.8333 341.167,101.167 341.5,103.5C 339.833,102.5 338.5,101.167 337.5,99.5 Z"/></g>
<g><path style="opacity:1" fill="#d6a9cb" d="M 342.5,104.5 C 344.833,104.833 346.167,106.167 346.5,108.5C 344.833,107.5 343.5,106.167 342.5,104.5 Z"/></g>
<g><path style="opacity:1" fill="#d6aacb" d="M 352.5,114.5 C 354.833,114.833 356.167,116.167 356.5,118.5C 354.833,117.5 353.5,116.167 352.5,114.5 Z"/></g>
<g><path style="opacity:1" fill="#d5eaa4" d="M 127.5,138.5 C 125.833,137.167 124.167,137.167 122.5,138.5C 124.167,135.833 125.833,135.833 127.5,138.5 Z"/></g>
<g><path style="opacity:1" fill="#9ccd2a" d="M 172.5,199.5 C 173.833,201.5 175.5,203.167 177.5,204.5C 186.14,212.473 194.473,220.806 202.5,229.5C 166.004,230.498 129.337,230.832 92.5,230.5C 92.5,214.833 92.5,199.167 92.5,183.5C 103.173,172.993 114.007,162.66 125,152.5C 141.327,167.66 157.161,183.327 172.5,199.5 Z"/></g>
<g><path style="opacity:1" fill="#932279" d="M 421.5,183.5 C 422.484,199.089 422.817,214.756 422.5,230.5C 385.33,230.832 348.33,230.498 311.5,229.5C 337.506,203.661 363.672,177.994 390,152.5C 401.011,162.344 411.511,172.678 421.5,183.5 Z"/></g>
<g><path style="opacity:1" fill="#dab4d2" d="M 421.5,183.5 C 423.484,198.798 424.151,214.464 423.5,230.5C 423.167,230.5 422.833,230.5 422.5,230.5C 422.817,214.756 422.484,199.089 421.5,183.5 Z"/></g>
<g><path style="opacity:1" fill="#c890bc" d="M 78.5,197.5 C 79.209,196.596 80.209,196.263 81.5,196.5C 81.5,211.5 81.5,226.5 81.5,241.5C 81.1612,226.638 80.1612,211.972 78.5,197.5 Z"/></g>
<g><path style="opacity:1" fill="#dcedb3" d="M 172.5,199.5 C 175.167,200.167 176.833,201.833 177.5,204.5C 175.5,203.167 173.833,201.5 172.5,199.5 Z"/></g>
<g><path style="opacity:1" fill="#b8b7d3" d="M 435.5,197.5 C 438.833,198.167 440.833,200.167 441.5,203.5C 439.167,201.833 437.167,199.833 435.5,197.5 Z"/></g>
<g><path style="opacity:1" fill="#7473a8" d="M 435.5,197.5 C 434.504,211.99 434.171,226.657 434.5,241.5C 434.167,241.5 433.833,241.5 433.5,241.5C 433.167,226.485 433.501,211.485 434.5,196.5C 435.107,196.624 435.44,196.957 435.5,197.5 Z"/></g>
<g><path style="opacity:1" fill="#94257a" d="M 77.5,199.5 C 79.1741,213.706 80.1741,228.206 80.5,243C 125.499,243.5 170.499,243.667 215.5,243.5C 215.284,245.681 216.117,247.347 218,248.5C 218.986,247.829 220.153,247.829 221.5,248.5C 222.649,250.149 223.982,251.649 225.5,253C 222.549,256.954 219.216,260.621 215.5,264C 170.835,264.5 126.168,264.667 81.5,264.5C 81.1612,279.362 80.1612,294.028 78.5,308.5C 60.3273,290.161 42.3273,271.661 24.5,253C 41.6606,234.673 59.3273,216.839 77.5,199.5 Z"/></g>
<g><path style="opacity:1" fill="#282678" d="M 435.5,197.5 C 437.167,199.833 439.167,201.833 441.5,203.5C 449.248,211.915 457.248,219.915 465.5,227.5C 467.167,229.833 469.167,231.833 471.5,233.5C 477.698,240.197 484.031,246.697 490.5,253C 487.931,255.067 485.931,257.567 484.5,260.5C 482.973,260.427 481.973,261.094 481.5,262.5C 480.833,263.5 480.167,264.5 479.5,265.5C 477.973,265.427 476.973,266.094 476.5,267.5C 475.833,268.5 475.167,269.5 474.5,270.5C 472.973,270.427 471.973,271.094 471.5,272.5C 468.48,274.523 466.146,277.19 464.5,280.5C 462.5,280.5 461.5,281.5 461.5,283.5C 460.317,284.504 458.984,285.338 457.5,286C 455.085,288.846 452.751,291.68 450.5,294.5C 448.167,294.833 446.833,296.167 446.5,298.5C 443.833,299.833 441.833,301.833 440.5,304.5C 438.167,304.833 436.833,306.167 436.5,308.5C 436.167,308.5 435.833,308.5 435.5,308.5C 434.833,293.833 434.167,279.167 433.5,264.5C 388.495,264.833 343.495,264.5 298.5,263.5C 295.812,260.146 292.812,257.146 289.5,254.5C 289.557,253.391 289.89,252.391 290.5,251.5C 292.5,248.833 294.833,246.5 297.5,244.5C 343.47,244.178 389.137,243.178 434.5,241.5C 434.171,226.657 434.504,211.99 435.5,197.5 Z"/></g>
<g><path style="opacity:1" fill="#b8b7d2" d="M 465.5,227.5 C 468.833,228.167 470.833,230.167 471.5,233.5C 469.167,231.833 467.167,229.833 465.5,227.5 Z"/></g>
<g><path style="opacity:1" fill="#cbe591" d="M 202.5,229.5 C 203.338,229.842 203.672,230.508 203.5,231.5C 166.33,231.832 129.33,231.498 92.5,230.5C 129.337,230.832 166.004,230.498 202.5,229.5 Z"/></g>
<g><path style="opacity:1" fill="#c7e388" d="M 234.5,215.5 C 235.488,220.64 235.821,225.974 235.5,231.5C 229.974,231.821 224.64,231.488 219.5,230.5C 224.5,230.5 229.5,230.5 234.5,230.5C 234.5,225.5 234.5,220.5 234.5,215.5 Z"/></g>
<g><path style="opacity:1" fill="#ebf5d4" d="M 92.5,183.5 C 92.5,199.167 92.5,214.833 92.5,230.5C 129.33,231.498 166.33,231.832 203.5,231.5C 166.336,232.664 129.002,232.831 91.5,232C 90.3427,216.241 90.176,200.408 91,184.5C 91.3826,183.944 91.8826,183.611 92.5,183.5 Z"/></g>
<g><path style="opacity:1" fill="#e2c4db" d="M 279.5,214.5 C 279.5,219.833 279.5,225.167 279.5,230.5C 284.833,230.5 290.167,230.5 295.5,230.5C 290.265,232.45 284.598,233.117 278.5,232.5C 278.177,226.31 278.51,220.31 279.5,214.5 Z"/></g>
<g><path style="opacity:1" fill="#e2c4db" d="M 311.5,229.5 C 348.33,230.498 385.33,230.832 422.5,230.5C 422.833,230.5 423.167,230.5 423.5,230.5C 404.845,231.833 385.845,232.5 366.5,232.5C 347.5,232.167 328.5,231.833 309.5,231.5C 309.855,230.478 310.522,229.811 311.5,229.5 Z"/></g>
<g><path style="opacity:1" fill="#ae5999" d="M 78.5,197.5 C 80.1612,211.972 81.1612,226.638 81.5,241.5C 126.168,241.333 170.835,241.5 215.5,242C 217.706,244.037 219.706,246.203 221.5,248.5C 220.153,247.829 218.986,247.829 218,248.5C 216.117,247.347 215.284,245.681 215.5,243.5C 170.499,243.667 125.499,243.5 80.5,243C 80.1741,228.206 79.1741,213.706 77.5,199.5C 77.8333,198.833 78.1667,198.167 78.5,197.5 Z"/></g>
<g><path style="opacity:1" fill="#414088" d="M 433.5,241.5 C 433.833,241.5 434.167,241.5 434.5,241.5C 389.137,243.178 343.47,244.178 297.5,244.5C 297.611,243.883 297.944,243.383 298.5,243C 343.669,242.833 388.669,242.333 433.5,241.5 Z"/></g>
<g><path style="opacity:1" fill="#9d9cc1" d="M 290.5,251.5 C 289.89,252.391 289.557,253.391 289.5,254.5C 288.115,253.053 288.448,252.053 290.5,251.5 Z"/></g>
<g><path style="opacity:1" fill="#a6a5c7" d="M 484.5,260.5 C 484.027,261.906 483.027,262.573 481.5,262.5C 481.973,261.094 482.973,260.427 484.5,260.5 Z"/></g>
<g><path style="opacity:1" fill="#c890bc" d="M 81.5,264.5 C 81.5,279.5 81.5,294.5 81.5,309.5C 80.209,309.737 79.209,309.404 78.5,308.5C 80.1612,294.028 81.1612,279.362 81.5,264.5 Z"/></g>
<g><path style="opacity:1" fill="#a3a1c5" d="M 479.5,265.5 C 479.027,266.906 478.027,267.573 476.5,267.5C 476.973,266.094 477.973,265.427 479.5,265.5 Z"/></g>
<g><path style="opacity:1" fill="#7372a7" d="M 433.5,264.5 C 434.167,279.167 434.833,293.833 435.5,308.5C 435.44,309.043 435.107,309.376 434.5,309.5C 433.501,294.515 433.167,279.515 433.5,264.5 Z"/></g>
<g><path style="opacity:1" fill="#a4a3c6" d="M 474.5,270.5 C 474.027,271.906 473.027,272.573 471.5,272.5C 471.973,271.094 472.973,270.427 474.5,270.5 Z"/></g>
<g><path style="opacity:1" fill="#b5b5d0" d="M 92.5,275.5 C 129.33,274.502 166.33,274.168 203.5,274.5C 203.737,275.791 203.404,276.791 202.5,277.5C 166.182,275.506 129.515,274.84 92.5,275.5 Z"/></g>
<g><path style="opacity:1" fill="#fae1b6" d="M 422.5,275.5 C 385.33,275.168 348.33,275.502 311.5,276.5C 310.957,276.44 310.624,276.107 310.5,275.5C 347.998,274.17 385.331,274.17 422.5,275.5 Z"/></g>
<g><path style="opacity:1" fill="#30307e" d="M 92.5,276.5 C 92.5,276.167 92.5,275.833 92.5,275.5C 129.515,274.84 166.182,275.506 202.5,277.5C 201.833,277.5 201.5,277.833 201.5,278.5C 201.167,278.5 200.833,278.5 200.5,278.5C 164.849,276.506 128.849,275.84 92.5,276.5 Z"/></g>
<g><path style="opacity:1" fill="#19186f" d="M 92.5,276.5 C 128.849,275.84 164.849,276.506 200.5,278.5C 199.5,279.167 198.5,279.833 197.5,280.5C 196.668,279.671 197.001,278.838 198.5,278C 163.502,277.5 128.502,277.333 93.5,277.5C 93.8293,292.343 93.496,307.01 92.5,321.5C 92.5,306.5 92.5,291.5 92.5,276.5 Z"/></g>
<g><path style="opacity:1" fill="#262577" d="M 197.5,280.5 C 195.42,282.573 193.754,284.907 192.5,287.5C 190.145,288.522 188.478,290.188 187.5,292.5C 183.564,294.766 180.231,297.766 177.5,301.5C 175.5,302.833 173.833,304.5 172.5,306.5C 162.167,316.167 152.167,326.167 142.5,336.5C 140.117,337.885 138.45,339.885 137.5,342.5C 135.251,343.08 133.585,344.413 132.5,346.5C 130.5,347.833 128.833,349.5 127.5,351.5C 126.527,352.984 125.193,353.484 123.5,353C 112.965,342.632 102.631,332.132 92.5,321.5C 93.496,307.01 93.8293,292.343 93.5,277.5C 128.502,277.333 163.502,277.5 198.5,278C 197.001,278.838 196.668,279.671 197.5,280.5 Z"/></g>
<g><path style="opacity:1" fill="#272577" d="M 231.5,294.5 C 229.5,295.833 227.833,297.5 226.5,299.5C 224.5,300.833 222.833,302.5 221.5,304.5C 219.5,305.833 217.833,307.5 216.5,309.5C 214.5,310.833 212.833,312.5 211.5,314.5C 209.5,315.833 207.833,317.5 206.5,319.5C 204.833,320.5 203.5,321.833 202.5,323.5C 200.167,325.167 198.167,327.167 196.5,329.5C 194.5,330.833 192.833,332.5 191.5,334.5C 189.5,335.833 187.833,337.5 186.5,339.5C 184.833,340.5 183.5,341.833 182.5,343.5C 180.5,344.833 178.833,346.5 177.5,348.5C 175.167,350.167 173.167,352.167 171.5,354.5C 169.5,355.833 167.833,357.5 166.5,359.5C 163.5,362.5 160.5,365.5 157.5,368.5C 155.5,369.833 153.833,371.5 152.5,373.5C 150.5,374.833 148.833,376.5 147.5,378.5C 145.203,380.294 143.037,382.294 141,384.5C 140.415,385.998 140.915,386.998 142.5,387.5C 151.167,396.5 159.833,405.5 168.5,414.5C 143.728,416.476 118.728,417.142 93.5,416.5C 93.5318,390.655 93.5318,364.988 93.5,339.5C 93.8333,339.5 94.1667,339.5 94.5,339.5C 104.174,350.007 114.34,360.007 125,369.5C 156.145,338.355 187.312,307.188 218.5,276C 224.157,275.501 229.824,275.334 235.5,275.5C 235.828,280.875 235.495,286.208 234.5,291.5C 233.145,292.188 232.145,293.188 231.5,294.5 Z"/></g>
<g><path style="opacity:1" fill="#efa726" d="M 421.5,338.5 C 422.498,364.661 422.831,390.995 422.5,417.5C 396.498,417.667 370.498,417.5 344.5,417C 345.823,416.184 346.489,415.017 346.5,413.5C 355.479,404.187 364.479,394.854 373.5,385.5C 342.514,354.014 311.347,322.68 280,291.5C 279.501,286.177 279.334,280.844 279.5,275.5C 285.176,275.334 290.843,275.501 296.5,276C 326.914,307.413 357.581,338.413 388.5,369C 389.635,369.749 390.635,369.583 391.5,368.5C 401.494,358.506 411.494,348.506 421.5,338.5 Z"/></g>
<g><path style="opacity:1" fill="#efa724" d="M 311.5,276.5 C 348.33,275.502 385.33,275.168 422.5,275.5C 422.667,290.837 422.5,306.17 422,321.5C 411.988,332.846 401.321,343.512 390,353.5C 363.672,328.006 337.506,302.339 311.5,276.5 Z"/></g>
<g><path style="opacity:1" fill="#aaa9ca" d="M 464.5,280.5 C 463.833,281.833 462.833,282.833 461.5,283.5C 461.5,281.5 462.5,280.5 464.5,280.5 Z"/></g>
<g><path style="opacity:1" fill="#abaaca" d="M 200.5,278.5 C 200.833,278.5 201.167,278.5 201.5,278.5C 198.833,281.833 195.833,284.833 192.5,287.5C 193.754,284.907 195.42,282.573 197.5,280.5C 198.5,279.833 199.5,279.167 200.5,278.5 Z"/></g>
<g><path style="opacity:1" fill="#9dcd2d" d="M 268.5,294.5 C 268.5,339.5 268.5,384.5 268.5,429.5C 283.515,429.167 298.515,429.501 313.5,430.5C 312.807,431.518 312.141,432.518 311.5,433.5C 293.521,451.145 275.521,468.812 257.5,486.5C 238.813,468.145 220.146,449.812 201.5,431.5C 216.129,429.516 231.129,428.85 246.5,429.5C 246.5,384.5 246.5,339.5 246.5,294.5C 250.147,291.189 253.813,287.855 257.5,284.5C 261.187,287.855 264.853,291.189 268.5,294.5 Z"/></g>
<g><path style="opacity:1" fill="#aaa8c9" d="M 187.5,292.5 C 184.769,296.234 181.436,299.234 177.5,301.5C 180.231,297.766 183.564,294.766 187.5,292.5 Z"/></g>
<g><path style="opacity:1" fill="#a9a8c9" d="M 450.5,294.5 C 449.5,296.167 448.167,297.5 446.5,298.5C 446.833,296.167 448.167,294.833 450.5,294.5 Z"/></g>
<g><path style="opacity:1" fill="#ebf5d3" d="M 268.5,294.5 C 269.499,338.997 269.832,383.664 269.5,428.5C 284.848,428.167 300.181,428.501 315.5,429.5C 315.035,431.808 313.701,433.142 311.5,433.5C 312.141,432.518 312.807,431.518 313.5,430.5C 298.515,429.501 283.515,429.167 268.5,429.5C 268.5,384.5 268.5,339.5 268.5,294.5 Z"/></g>
<g><path style="opacity:1" fill="#e3f1c1" d="M 246.5,294.5 C 246.5,339.5 246.5,384.5 246.5,429.5C 231.129,428.85 216.129,429.516 201.5,431.5C 200.596,430.791 200.263,429.791 200.5,428.5C 215.5,428.5 230.5,428.5 245.5,428.5C 245.168,383.664 245.501,338.997 246.5,294.5 Z"/></g>
<g><path style="opacity:1" fill="#bfbed7" d="M 231.5,294.5 C 230.833,297.167 229.167,298.833 226.5,299.5C 227.833,297.5 229.5,295.833 231.5,294.5 Z"/></g>
<g><path style="opacity:1" fill="#bfbdd7" d="M 226.5,299.5 C 225.833,302.167 224.167,303.833 221.5,304.5C 222.833,302.5 224.5,300.833 226.5,299.5 Z"/></g>
<g><path style="opacity:1" fill="#a9a7c9" d="M 177.5,301.5 C 176.833,304.167 175.167,305.833 172.5,306.5C 173.833,304.5 175.5,302.833 177.5,301.5 Z"/></g>
<g><path style="opacity:1" fill="#a9a8c9" d="M 440.5,304.5 C 439.5,306.167 438.167,307.5 436.5,308.5C 436.833,306.167 438.167,304.833 440.5,304.5 Z"/></g>
<g><path style="opacity:1" fill="#bcbbd4" d="M 221.5,304.5 C 220.833,307.167 219.167,308.833 216.5,309.5C 217.833,307.5 219.5,305.833 221.5,304.5 Z"/></g>
<g><path style="opacity:1" fill="#fae4bb" d="M 281.5,307.5 C 279.506,344.152 278.84,381.152 279.5,418.5C 278.502,381.337 278.168,344.004 278.5,306.5C 279.791,306.263 280.791,306.596 281.5,307.5 Z"/></g>
<g><path style="opacity:1" fill="#d4d4e4" d="M 233.5,307.5 C 234.209,306.596 235.209,306.263 236.5,306.5C 236.832,344.004 236.498,381.337 235.5,418.5C 236.16,381.152 235.494,344.152 233.5,307.5 Z"/></g>
<g><path style="opacity:1" fill="#18176d" d="M 234.5,309.5 C 234.5,345.5 234.5,381.5 234.5,417.5C 219.5,417.5 204.5,417.5 189.5,417.5C 203.99,416.504 218.657,416.171 233.5,416.5C 233.168,380.663 233.502,344.996 234.5,309.5 Z"/></g>
<g><path style="opacity:1" fill="#66659f" d="M 233.5,308.5 C 233.5,308.167 233.5,307.833 233.5,307.5C 235.494,344.152 236.16,381.152 235.5,418.5C 219.658,418.83 203.991,418.496 188.5,417.5C 188.833,417.5 189.167,417.5 189.5,417.5C 204.5,417.5 219.5,417.5 234.5,417.5C 234.5,381.5 234.5,345.5 234.5,309.5C 234.5,308.833 234.167,308.5 233.5,308.5 Z"/></g>
<g><path style="opacity:1" fill="#bcbbd5" d="M 216.5,309.5 C 215.833,312.167 214.167,313.833 211.5,314.5C 212.833,312.5 214.5,310.833 216.5,309.5 Z"/></g>
<g><path style="opacity:1" fill="#f2bb56" d="M 281.5,307.5 C 281.5,307.833 281.5,308.167 281.5,308.5C 280.502,344.663 280.168,380.996 280.5,417.5C 295.833,417.5 311.167,417.5 326.5,417.5C 311.009,418.496 295.342,418.83 279.5,418.5C 278.84,381.152 279.506,344.152 281.5,307.5 Z"/></g>
<g><path style="opacity:1" fill="#efa724" d="M 281.5,308.5 C 306.826,333.326 331.992,358.326 357,383.5C 357.667,384.833 357.667,386.167 357,387.5C 346.992,397.675 336.825,407.675 326.5,417.5C 311.167,417.5 295.833,417.5 280.5,417.5C 280.168,380.996 280.502,344.663 281.5,308.5 Z"/></g>
<g><path style="opacity:1" fill="#262577" d="M 233.5,308.5 C 234.167,308.5 234.5,308.833 234.5,309.5C 233.502,344.996 233.168,380.663 233.5,416.5C 218.657,416.171 203.99,416.504 189.5,417.5C 189.167,417.5 188.833,417.5 188.5,417.5C 177.521,407.188 166.854,396.521 156.5,385.5C 181.854,359.479 207.521,333.812 233.5,308.5 Z"/></g>
<g><path style="opacity:1" fill="#bdbbd5" d="M 211.5,314.5 C 210.833,317.167 209.167,318.833 206.5,319.5C 207.833,317.5 209.5,315.833 211.5,314.5 Z"/></g>
<g><path style="opacity:1" fill="#abaaca" d="M 172.5,306.5 C 163.758,316.746 154.425,326.579 144.5,336C 143.906,336.464 143.239,336.631 142.5,336.5C 152.167,326.167 162.167,316.167 172.5,306.5 Z"/></g>
<g><path style="opacity:1" fill="#c0bed7" d="M 202.5,323.5 C 201.5,326.5 199.5,328.5 196.5,329.5C 198.167,327.167 200.167,325.167 202.5,323.5 Z"/></g>
<g><path style="opacity:1" fill="#bdbcd5" d="M 196.5,329.5 C 195.833,332.167 194.167,333.833 191.5,334.5C 192.833,332.5 194.5,330.833 196.5,329.5 Z"/></g>
<g><path style="opacity:1" fill="#bdbcd5" d="M 191.5,334.5 C 190.833,337.167 189.167,338.833 186.5,339.5C 187.833,337.5 189.5,335.833 191.5,334.5 Z"/></g>
<g><path style="opacity:1" fill="#cbcade" d="M 94.5,339.5 C 94.1667,339.5 93.8333,339.5 93.5,339.5C 92.5007,364.759 92.1674,390.759 92.5,417.5C 92.5,417.833 92.5,418.167 92.5,418.5C 90.5087,391.854 89.842,364.854 90.5,337.5C 92.4832,337.157 93.8166,337.824 94.5,339.5 Z"/></g>
<g><path style="opacity:1" fill="#f9e1b4" d="M 421.5,338.5 C 421.56,337.957 421.893,337.624 422.5,337.5C 423.829,364.664 423.829,391.664 422.5,418.5C 422.5,418.167 422.5,417.833 422.5,417.5C 422.831,390.995 422.498,364.661 421.5,338.5 Z"/></g>
<g><path style="opacity:1" fill="#aba9ca" d="M 137.5,342.5 C 136.415,344.587 134.749,345.92 132.5,346.5C 133.585,344.413 135.251,343.08 137.5,342.5 Z"/></g>
<g><path style="opacity:1" fill="#bab9d3" d="M 182.5,343.5 C 181.833,346.167 180.167,347.833 177.5,348.5C 178.833,346.5 180.5,344.833 182.5,343.5 Z"/></g>
<g><path style="opacity:1" fill="#a9a7c9" d="M 132.5,346.5 C 131.833,349.167 130.167,350.833 127.5,351.5C 128.833,349.5 130.5,347.833 132.5,346.5 Z"/></g>
<g><path style="opacity:1" fill="#c0bfd7" d="M 177.5,348.5 C 176.5,351.5 174.5,353.5 171.5,354.5C 173.167,352.167 175.167,350.167 177.5,348.5 Z"/></g>
<g><path style="opacity:1" fill="#bebdd6" d="M 171.5,354.5 C 170.833,357.167 169.167,358.833 166.5,359.5C 167.833,357.5 169.5,355.833 171.5,354.5 Z"/></g>
<g><path style="opacity:1" fill="#bab9d4" d="M 157.5,368.5 C 156.833,371.167 155.167,372.833 152.5,373.5C 153.833,371.5 155.5,369.833 157.5,368.5 Z"/></g>
<g><path style="opacity:1" fill="#bab9d4" d="M 152.5,373.5 C 151.833,376.167 150.167,377.833 147.5,378.5C 148.833,376.5 150.5,374.833 152.5,373.5 Z"/></g>
<g><path style="opacity:1" fill="#bdbbd5" d="M 147.5,378.5 C 146.627,380.886 145.127,382.886 143,384.5C 142.517,385.448 142.351,386.448 142.5,387.5C 140.915,386.998 140.415,385.998 141,384.5C 143.037,382.294 145.203,380.294 147.5,378.5 Z"/></g>
<g><path style="opacity:1" fill="#19186e" d="M 93.5,339.5 C 93.5318,364.988 93.5318,390.655 93.5,416.5C 118.728,417.142 143.728,416.476 168.5,414.5C 169.5,414.833 170.167,415.5 170.5,416.5C 144.672,417.498 118.672,417.831 92.5,417.5C 92.1674,390.759 92.5007,364.759 93.5,339.5 Z"/></g>
<g><path style="opacity:1" fill="#525193" d="M 170.5,416.5 C 171.167,416.5 171.833,416.5 172.5,416.5C 146.188,418.491 119.521,419.158 92.5,418.5C 92.5,418.167 92.5,417.833 92.5,417.5C 118.672,417.831 144.672,417.498 170.5,416.5 Z"/></g>
<g><path style="opacity:1" fill="#f2b84f" d="M 346.5,413.5 C 346.489,415.017 345.823,416.184 344.5,417C 370.498,417.5 396.498,417.667 422.5,417.5C 422.5,417.833 422.5,418.167 422.5,418.5C 395.479,419.158 368.812,418.491 342.5,416.5C 343.833,415.5 345.167,414.5 346.5,413.5 Z"/></g>
<g><path style="opacity:1" fill="#cecee0" d="M 172.5,416.5 C 173.404,417.209 173.737,418.209 173.5,419.5C 146.328,419.831 119.328,419.498 92.5,418.5C 119.521,419.158 146.188,418.491 172.5,416.5 Z"/></g>
<g><path style="opacity:1" fill="#fbeacc" d="M 342.5,416.5 C 368.812,418.491 395.479,419.158 422.5,418.5C 395.672,419.498 368.672,419.831 341.5,419.5C 341.263,418.209 341.596,417.209 342.5,416.5 Z"/></g>
</svg>
