<?xml version="1.0" encoding="UTF-8"?>
<svg version="1.1" xmlns="http://www.w3.org/2000/svg" width="521" height="512">
<path d="M0 0 C0.73089844 0.01256836 1.46179688 0.02513672 2.21484375 0.03808594 C28.37037303 0.57120613 53.77244078 6.27761378 78 16 C78.99902344 16.37640625 79.99804688 16.7528125 81.02734375 17.140625 C95.00233698 22.58492963 107.83468443 30.60402856 120.15625 39.06640625 C122.79555149 40.95323214 122.79555149 40.95323214 125 42 C125 42.66 125 43.32 125 44 C125.70125 44.226875 126.4025 44.45375 127.125 44.6875 C130.74128535 46.33841288 133.08769976 48.2908835 136 51 C136 51.66 136 52.32 136 53 C136.61875 53.309375 137.2375 53.61875 137.875 53.9375 C139.25 54.625 140.625 55.3125 142 56 C142 56.66 142 57.32 142 58 C142.88969482 58.40182495 142.88969482 58.40182495 143.79736328 58.81176758 C146.02162882 60.01166786 147.46962139 61.22534255 149.2421875 63.01171875 C149.83386719 63.60533203 150.42554688 64.19894531 151.03515625 64.81054688 C151.64230469 65.42994141 152.24945313 66.04933594 152.875 66.6875 C153.47441406 67.28755859 154.07382812 67.88761719 154.69140625 68.50585938 C166 79.9248407 166 79.9248407 166 83 C166.66 83 167.32 83 168 83 C169.26171875 84.3984375 169.26171875 84.3984375 170.6875 86.375 C171.48087769 87.46965576 171.48087769 87.46965576 172.2902832 88.58642578 C173.13659302 89.78114502 173.13659302 89.78114502 174 91 C174.87241333 92.22372314 174.87241333 92.22372314 175.76245117 93.47216797 C184.68547391 106.10118768 192.42543739 119.00443871 199 133 C199.45802002 133.95011963 199.45802002 133.95011963 199.92529297 134.91943359 C205.01809175 145.5264854 208.37264879 156.3835131 211.39111328 167.74169922 C211.92309565 169.71476936 212.49532468 171.67689919 213.07421875 173.63671875 C216.24365872 185.15101331 217.30362074 197.06687152 218.1875 208.9375 C218.31318359 210.62407715 218.31318359 210.62407715 218.44140625 212.34472656 C220.01915765 235.3785368 218.18500702 258.50761073 213 281 C212.73147217 282.19713623 212.73147217 282.19713623 212.45751953 283.41845703 C208.23299124 301.92573485 201.03510083 319.33626373 192 336 C191.63181152 336.68126953 191.26362305 337.36253906 190.88427734 338.06445312 C184.91324136 348.97050107 177.91939728 358.78692638 170.14819336 368.48217773 C168.91701901 370.0135054 168.91701901 370.0135054 168 372 C167.34 372 166.68 372 166 372 C165.7834375 372.53367187 165.566875 373.06734375 165.34375 373.6171875 C163.51056006 376.86790222 161.04539717 379.42842648 158.5 382.125 C157.69477905 382.98496582 157.69477905 382.98496582 156.87329102 383.86230469 C155.25596516 385.58177492 153.62996527 387.29251385 152 389 C151.13246094 389.91007812 150.26492188 390.82015625 149.37109375 391.7578125 C143.6093902 397.65824086 137.49925644 402.92934538 131 408 C130.47519043 408.41233887 129.95038086 408.82467773 129.40966797 409.24951172 C127.80086498 410.50893063 126.18369514 411.75658566 124.5625 413 C123.59441406 413.7425 122.62632812 414.485 121.62890625 415.25 C119.2881686 416.80817305 117.74254882 417.58505172 115 418 C115 418.66 115 419.32 115 420 C112.92435397 421.46753449 110.87388708 422.77674519 108.6875 424.0625 C108.02322998 424.45663086 107.35895996 424.85076172 106.67456055 425.25683594 C98.39014336 430.0692971 89.72856592 434.06962845 81 438 C79.91847656 438.495 78.83695312 438.99 77.72265625 439.5 C48.74641495 452.21933774 16.33301466 455.69488541 -15 455 C-15.73089844 454.98743164 -16.46179688 454.97486328 -17.21484375 454.96191406 C-60.54452572 454.07873835 -101.75086201 439.53342015 -136.8671875 414.5 C-138.7562951 413.17139685 -140.6737719 411.92176522 -142.625 410.6875 C-143.40875 410.130625 -144.1925 409.57375 -145 409 C-145 408.34 -145 407.68 -145 407 C-145.56203125 406.7421875 -146.1240625 406.484375 -146.703125 406.21875 C-149.26704579 404.85830223 -151.45226365 403.27211038 -153.75 401.5 C-154.54921875 400.8915625 -155.3484375 400.283125 -156.171875 399.65625 C-157.07679688 398.83640625 -157.07679688 398.83640625 -158 398 C-158 397.34 -158 396.68 -158 396 C-158.58265625 395.7421875 -159.1653125 395.484375 -159.765625 395.21875 C-162.1802903 393.90165983 -163.81740177 392.44911616 -165.75 390.5 C-166.36359375 389.8915625 -166.9771875 389.283125 -167.609375 388.65625 C-169 387 -169 387 -169 385 C-169.82177734 384.690625 -169.82177734 384.690625 -170.66015625 384.375 C-173.89206965 382.47577877 -176.05559506 379.83644296 -178.4375 377 C-178.95755615 376.38479492 -179.4776123 375.76958984 -180.01342773 375.13574219 C-203.67131948 346.71942425 -220.93462689 314.33332935 -228.75 278.0625 C-228.94899902 277.14654053 -229.14799805 276.23058105 -229.35302734 275.28686523 C-232.38106203 260.30654084 -233.33988708 245.2014105 -233.26074219 229.94775391 C-233.25000032 227.50007387 -233.26073762 225.05312726 -233.2734375 222.60546875 C-233.28809147 207.34973558 -232.05988709 192.19209262 -228.875 177.25 C-228.66472168 176.25685791 -228.45444336 175.26371582 -228.23779297 174.24047852 C-224.559817 157.75976711 -218.56205474 142.06795561 -211 127 C-210.37351562 125.67548828 -210.37351562 125.67548828 -209.734375 124.32421875 C-200.60298093 105.23960515 -186.49943706 84.68367722 -171 70 C-170.34 70 -169.68 70 -169 70 C-168.73574219 69.40960938 -168.47148437 68.81921875 -168.19921875 68.2109375 C-164.98305197 62.28145739 -158.44096914 56.91922052 -153 53 C-152.34 53 -151.68 53 -151 53 C-151 52.34 -151 51.68 -151 51 C-149.07412421 49.36860063 -147.15673283 47.86276775 -145.125 46.375 C-144.56941406 45.95476562 -144.01382813 45.53453125 -143.44140625 45.1015625 C-139.26235288 42 -139.26235288 42 -137 42 C-137 41.34 -137 40.68 -137 40 C-135.50634766 38.85839844 -135.50634766 38.85839844 -133.4140625 37.609375 C-132.65351563 37.15022705 -131.89296875 36.6910791 -131.109375 36.21801758 C-130.28953125 35.73357178 -129.4696875 35.24912598 -128.625 34.75 C-127.79226562 34.25201904 -126.95953125 33.75403809 -126.1015625 33.2409668 C-124.45615249 32.25709517 -122.80937576 31.27550503 -121.16113281 30.29638672 C-118.74449548 28.84673192 -116.37582486 27.32782292 -114 25.8125 C-79.96044812 5.63232274 -38.96732101 -0.86419462 0 0 Z " fill="#393939" transform="translate(266,25)"/>
<path d="M0 0 C1.14210938 -0.01611328 2.28421875 -0.03222656 3.4609375 -0.04882812 C22.11362442 -0.05942624 37.85026542 6.99159937 51.17919922 19.83886719 C71.09071072 40.13368033 75.625 66.96153578 75.625 94.3125 C34.375 94.3125 -6.875 94.3125 -49.375 94.3125 C-47.16250658 116.77038953 -47.16250658 116.77038953 -36.375 135.3125 C-35.85164063 135.95960938 -35.32828125 136.60671875 -34.7890625 137.2734375 C-28.42764922 144.37960161 -17.87772613 149.68296501 -8.37402344 150.60302734 C-4.95728873 150.65244512 -1.54211814 150.68380582 1.875 150.6875 C3.05191406 150.71199219 4.22882813 150.73648438 5.44140625 150.76171875 C17.77021686 150.8028605 27.4385332 146.77463912 36.6015625 138.53515625 C41.9354563 132.98563696 42.76584465 129.17517722 45.625 121.3125 C54.535 121.3125 63.445 121.3125 72.625 121.3125 C70.28567778 137.68775552 62.58033508 151.50240596 49.3125 161.5 C35.1207582 171.36663954 20.24478727 175.50291895 3.08959961 175.55273438 C1.09281407 175.56235396 -0.9038302 175.59351161 -2.90039062 175.625 C-21.99785669 175.70119937 -39.91966684 169.2576308 -54.0625 156.125 C-74.19316807 134.51775481 -79.53074156 105.56346574 -78.52294922 76.96923828 C-77.16069805 52.50716375 -66.13088911 33.27132994 -48.5 16.5625 C-43.54555371 12.20719605 -38.30017337 9.16181131 -32.375 6.3125 C-31.6015625 5.92191406 -30.828125 5.53132812 -30.03125 5.12890625 C-20.34798249 0.47480056 -10.61262614 -0.02974391 0 0 Z " fill="#FCFCFC" transform="translate(172.375,164.6875)"/>
<path d="M0 0 C5.12236865 -0.29834584 10.23962193 -0.51507881 15.36865234 -0.65917969 C17.10945731 -0.71926314 18.84966307 -0.80097017 20.58837891 -0.90527344 C34.98349812 -1.74670734 34.98349812 -1.74670734 39.72436523 2.35986328 C41.79914768 5.47817535 43.4034696 8.61497362 45 12 C46.14324336 13.76030777 47.32065978 15.49901252 48.53515625 17.2109375 C49.10983643 18.05293701 49.6845166 18.89493652 50.27661133 19.76245117 C50.86595459 20.62459229 51.45529785 21.4867334 52.0625 22.375 C53.35938839 24.27473044 54.65626295 26.17447033 55.953125 28.07421875 C56.61376953 29.04149902 57.27441406 30.0087793 57.95507812 31.00537109 C61.40980251 36.06454604 64.86112359 41.12604076 68.3125 46.1875 C68.9526001 47.12577637 69.5927002 48.06405273 70.25219727 49.03076172 C71.14249634 50.3361792 71.14249634 50.3361792 72.05078125 51.66796875 C72.83449097 52.81688599 72.83449097 52.81688599 73.6340332 53.98901367 C74.76464931 55.65351498 75.88384487 57.32576731 77 59 C80.6643144 57.77856187 81.20084258 56.65420902 83.3359375 53.50390625 C83.98151611 52.56168213 84.62709473 51.61945801 85.29223633 50.64868164 C85.97954834 49.6302417 86.66686035 48.61180176 87.375 47.5625 C88.82284368 45.44697493 90.27207919 43.33240178 91.72265625 41.21875 C92.44469238 40.16429687 93.16672852 39.10984375 93.91064453 38.0234375 C96.81379901 33.82237824 99.80260823 29.68743864 102.8125 25.5625 C107.54049926 19.06863914 112.14563591 12.50154263 116.66333008 5.85961914 C119.91019881 1.08980119 119.91019881 1.08980119 121 0 C123.52094076 -0.08847743 126.01430893 -0.11527301 128.53515625 -0.09765625 C129.66503212 -0.09553383 129.66503212 -0.09553383 130.81773376 -0.09336853 C133.2326956 -0.08775376 135.64756601 -0.07519883 138.0625 -0.0625 C139.69596221 -0.0574869 141.32942586 -0.05292366 142.96289062 -0.04882812 C146.97529585 -0.03777954 150.98763241 -0.02050506 155 0 C153.6591927 2.84502179 152.14231862 5.31949007 150.26953125 7.84375 C149.72167969 8.58496094 149.17382812 9.32617188 148.609375 10.08984375 C148.01640625 10.88519531 147.4234375 11.68054688 146.8125 12.5 C146.19246094 13.33660156 145.57242188 14.17320312 144.93359375 15.03515625 C139.85422348 21.87904671 134.73698954 28.69463619 129.61523438 35.50683594 C124.73067747 42.00861143 119.894852 48.54496879 115.0871582 55.10375977 C112.25438153 58.96316944 109.40003917 62.80220658 106.4921875 66.60546875 C105.9355542 67.33604492 105.3789209 68.06662109 104.80541992 68.81933594 C103.75640152 70.19270001 102.70217787 71.56210981 101.6418457 72.92675781 C98.43905233 77.07691901 98.43905233 77.07691901 97 82 C98.65726864 84.72466281 98.65726864 84.72466281 101.125 87.5625 C105.51677879 92.989726 109.53662106 98.58549436 113.4375 104.375 C117.80481151 110.82988769 122.26996627 117.18267366 126.91040039 123.44360352 C130.81277285 128.71656533 134.59660807 134.06746103 138.3659668 139.43603516 C142.67121669 145.55853095 147.0490795 151.62665255 151.46044922 157.6730957 C154.15476919 161.38132856 156.80084451 165.11875859 159.3828125 168.90625 C159.88441895 169.64166016 160.38602539 170.37707031 160.90283203 171.13476562 C162 173 162 173 162 175 C157.02006155 175.29842901 152.04539006 175.51510815 147.05859375 175.65917969 C145.36626527 175.71925089 143.67455273 175.80094958 141.984375 175.90527344 C128.1429889 176.73771529 128.1429889 176.73771529 123.56396484 173.0246582 C121.85585559 170.45608491 120.45441381 167.84988932 119.1036377 165.07977295 C116.84036893 160.81470918 113.96380139 156.91920306 111.2265625 152.94921875 C109.97461793 151.09831903 108.72465126 149.24608007 107.4765625 147.39257812 C105.55285993 144.54296534 103.62901607 141.69344802 101.70507812 138.84399414 C98.02560105 133.39398056 94.34969652 127.94158832 90.67736816 122.48675537 C89.07581994 120.11240564 87.46785027 117.7425317 85.85839844 115.37353516 C84.93409355 114.00563603 84.00992967 112.63764162 83.0859375 111.26953125 C82.66518951 110.65422043 82.24444153 110.03890961 81.8109436 109.404953 C79 105.22699512 79 105.22699512 79 103 C78.34 103 77.68 103 77 103 C76.58947388 104.10518478 76.58947388 104.10518478 76.1706543 105.23269653 C75.07017116 107.83412278 73.85217664 109.946765 72.26953125 112.27685547 C71.72135742 113.08895477 71.17318359 113.90105408 70.60839844 114.73776245 C70.01575195 115.60547272 69.42310547 116.47318298 68.8125 117.3671875 C68.19536133 118.27896759 67.57822266 119.19074768 66.94238281 120.13015747 C64.9660132 123.04813403 62.98320709 125.96166733 61 128.875 C59.69616845 130.79657236 58.39277857 132.71844449 57.08984375 134.640625 C55.17635662 137.46345439 53.26261512 140.28610512 51.34716797 143.10760498 C48.11667915 147.86773917 44.89200732 152.63128671 41.7059021 157.42127991 C40.87722443 158.66196368 40.0414211 159.89792553 39.19766235 161.12840271 C37.47294244 163.6598232 35.95086681 166.10685792 34.66943359 168.89379883 C33.33913797 171.65517006 32.48211612 173.18488682 30 175 C24.16584363 176.09537029 18.52844876 175.84943143 12.625 175.5625 C11.01443431 175.51732125 9.40374745 175.47626251 7.79296875 175.43945312 C3.85897577 175.34059804 -0.06918014 175.18553571 -4 175 C-2.8330317 171.88486149 -1.61816141 169.19343512 0.328125 166.49609375 C0.79081787 165.84842041 1.25351074 165.20074707 1.73022461 164.53344727 C2.23175049 163.84178467 2.73327637 163.15012207 3.25 162.4375 C4.34040333 160.91446297 5.43022328 159.39100814 6.51953125 157.8671875 C7.09010254 157.07151367 7.66067383 156.27583984 8.24853516 155.45605469 C11.17803912 151.3480522 14.05376638 147.20268883 16.9375 143.0625 C21.97069899 135.85420538 27.07707053 128.70351287 32.23925781 121.5871582 C36.42963641 115.80589304 40.57414571 109.99381619 44.66113281 104.13891602 C47.06046199 100.70813346 49.49586073 97.32295598 52.04296875 94 C52.75900269 93.05012207 52.75900269 93.05012207 53.48950195 92.08105469 C54.38838236 90.89310701 55.30159339 89.71581753 56.23120117 88.55175781 C57.6077252 86.8011202 57.6077252 86.8011202 59 84 C58.24078299 78.92168179 53.78722578 74.39962145 50.75 70.375 C49.47514579 68.66545006 48.20040948 66.95581219 46.92578125 65.24609375 C46.27303223 64.37452637 45.6202832 63.50295898 44.94775391 62.60498047 C41.92554297 58.56299116 38.93062911 54.50104754 35.9375 50.4375 C35.35838867 49.6522998 34.77927734 48.86709961 34.18261719 48.05810547 C29.72096409 42.00086957 25.3097614 35.90842235 20.91845703 29.80004883 C18.02089339 25.77585209 15.09884673 21.77183019 12.14453125 17.7890625 C11.50515625 16.92667969 10.86578125 16.06429687 10.20703125 15.17578125 C8.97150226 13.51227521 7.73334264 11.85071881 6.4921875 10.19140625 C5.65494141 9.06412109 5.65494141 9.06412109 4.80078125 7.9140625 C4.30747314 7.2535791 3.81416504 6.5930957 3.3059082 5.91259766 C2.00462237 4.00676979 0.98047786 2.08630833 0 0 Z " fill="#FCFCFC" transform="translate(260,165)"/>
<path d="M0 0 C10.03152773 8.00611451 17.01989407 18.77443329 19.05078125 31.63671875 C19.05078125 33.94671875 19.05078125 36.25671875 19.05078125 38.63671875 C-12.62921875 38.63671875 -44.30921875 38.63671875 -76.94921875 38.63671875 C-76.94921875 24.59236657 -72.21066837 13.14331068 -62.63671875 2.82421875 C-45.08319693 -13.51466205 -19.12205018 -13.87834355 0 0 Z " fill="#3D3D3D" transform="translate(199.94921875,198.36328125)"/>
</svg>
