<?xml version="1.0" encoding="UTF-8"?>
<!DOCTYPE svg PUBLIC "-//W3C//DTD SVG 1.1//EN" "http://www.w3.org/Graphics/SVG/1.1/DTD/svg11.dtd">
<svg xmlns="http://www.w3.org/2000/svg" version="1.1" width="512px" height="512px" style="shape-rendering:geometricPrecision; text-rendering:geometricPrecision; image-rendering:optimizeQuality; fill-rule:evenodd; clip-rule:evenodd" xmlns:xlink="http://www.w3.org/1999/xlink">
<g><path style="opacity:0.954" fill="#000000" d="M 241.5,18.5 C 322.597,14.1035 389.263,42.4368 441.5,103.5C 490.13,165.588 506.464,235.755 490.5,314C 470.763,392.702 424.263,448.869 351,482.5C 345.872,484.416 340.705,486.249 335.5,488C 328.784,489.577 323.284,487.744 319,482.5C 318.667,455.5 318.333,428.5 318,401.5C 316.618,387.467 311.118,375.3 301.5,365C 316.807,361.997 331.973,358.163 347,353.5C 370.526,344.303 387.526,328.303 398,305.5C 408.094,279.735 410.928,253.069 406.5,225.5C 403.07,210.539 396.403,197.206 386.5,185.5C 385.257,180.959 385.757,176.625 388,172.5C 390.946,154.661 389.446,137.328 383.5,120.5C 374.314,119.699 365.481,121.032 357,124.5C 345.766,129.196 335.266,135.029 325.5,142C 323.343,143.29 321.01,144.124 318.5,144.5C 299.74,139.777 280.573,137.111 261,136.5C 241.704,137.087 222.704,139.753 204,144.5C 195.249,140.788 186.916,136.121 179,130.5C 170.836,126.33 162.336,123.164 153.5,121C 148.511,120.501 143.511,120.334 138.5,120.5C 136.476,128.452 134.643,136.452 133,144.5C 132.333,151.167 132.333,157.833 133,164.5C 134.282,170.149 135.782,175.816 137.5,181.5C 136.939,183.725 135.939,185.725 134.5,187.5C 131.651,190.515 128.985,193.682 126.5,197C 120.162,208.763 115.996,221.263 114,234.5C 108.098,312.383 143.598,355.383 220.5,363.5C 216.305,368.612 212.638,374.279 209.5,380.5C 207.871,386.891 205.871,393.058 203.5,399C 189.241,404.854 174.574,405.854 159.5,402C 152.648,398.501 146.482,394.001 141,388.5C 135.43,378.296 128.263,369.129 119.5,361C 113.054,357.511 106.221,355.011 99,353.5C 90.555,354.129 89.3883,357.296 95.5,363C 100.91,365.75 105.744,369.25 110,373.5C 118.163,384.508 124.663,396.508 129.5,409.5C 138.477,422.66 150.81,430.827 166.5,434C 179.176,434.561 191.843,434.395 204.5,433.5C 204.667,449.17 204.5,464.837 204,480.5C 202.084,484.085 199.251,486.585 195.5,488C 192.5,488.667 189.5,488.667 186.5,488C 109.163,458.828 58.4961,404.661 34.5,325.5C 13.3899,238.326 31.5566,160.992 89,93.5C 121.256,59.0391 160.422,35.8724 206.5,24C 218.438,22.3327 230.105,20.4994 241.5,18.5 Z"/></g>
</svg>
