<?xml version="1.0" encoding="UTF-8"?>
<!DOCTYPE svg PUBLIC "-//W3C//DTD SVG 1.1//EN" "http://www.w3.org/Graphics/SVG/1.1/DTD/svg11.dtd">
<svg xmlns="http://www.w3.org/2000/svg" version="1.1" width="512px" height="512px" style="shape-rendering:geometricPrecision; text-rendering:geometricPrecision; image-rendering:optimizeQuality; fill-rule:evenodd; clip-rule:evenodd" xmlns:xlink="http://www.w3.org/1999/xlink">
<g><path style="opacity:0.973" fill="#022e3b" d="M 204.5,269.5 C 198.773,272.021 193.107,274.855 187.5,278C 175.953,282.856 164.286,283.522 152.5,280C 149.167,278.056 146,275.889 143,273.5C 136.974,265.126 131.307,256.46 126,247.5C 117.097,231.937 109.097,215.937 102,199.5C 101.333,194.167 101.333,188.833 102,183.5C 105.268,179.056 108.768,174.723 112.5,170.5C 145.487,153.165 180.82,144.498 218.5,144.5C 267.539,144.415 310.873,159.915 348.5,191C 374.202,205.264 399.868,205.931 425.5,193C 430.97,188.699 436.304,184.199 441.5,179.5C 443.369,175.864 445.702,172.531 448.5,169.5C 449.429,168.311 449.762,166.978 449.5,165.5C 450.5,165.5 451.5,165.5 452.5,165.5C 454.165,160.09 455.998,154.757 458,149.5C 462.367,127.575 454.867,111.242 435.5,100.5C 421.235,95.3695 407.901,96.8695 395.5,105C 391.833,105.667 388.167,105.667 384.5,105C 378.299,97.2653 373.966,88.5986 371.5,79C 373.409,72.2527 377.409,67.0861 383.5,63.5C 391.176,59.4249 399.176,56.5916 407.5,55C 442.031,52.0007 469.365,64.5007 489.5,92.5C 497.919,106.259 503.252,121.093 505.5,137C 507.666,158.852 506.166,180.352 501,201.5C 489.359,234.45 474.193,265.784 455.5,295.5C 442.759,312.235 430.426,329.235 418.5,346.5C 409.536,362.816 403.036,379.816 399,397.5C 398.583,404.714 397.749,411.88 396.5,419C 398.036,431.821 399.369,444.654 400.5,457.5C 379.823,457.833 359.156,457.5 338.5,456.5C 334.274,452.825 330.941,448.492 328.5,443.5C 317.606,431.77 305.939,420.937 293.5,411C 283.655,405.077 273.321,400.243 262.5,396.5C 246.98,394.344 233.813,399.01 223,410.5C 219.145,416.228 215.312,421.894 211.5,427.5C 207.557,436.633 204.557,445.967 202.5,455.5C 185.5,455.5 168.5,455.5 151.5,455.5C 151.823,451.774 151.489,448.107 150.5,444.5C 148.517,440.048 147.017,435.381 146,430.5C 142.961,424.332 139.795,418.332 136.5,412.5C 131.664,409.783 126.664,407.283 121.5,405C 118.167,404.333 114.833,404.333 111.5,405C 108.648,406.591 105.648,407.924 102.5,409C 89.0772,421.73 81.0772,437.23 78.5,455.5C 57.1667,455.5 35.8333,455.5 14.5,455.5C 13.2649,436.338 11.9315,417.171 10.5,398C 11.8796,384.2 12.7129,370.366 13,356.5C 15.0775,342.063 17.7442,327.73 21,313.5C 26.2126,300.738 31.7126,288.071 37.5,275.5C 38.325,274.614 39.325,274.281 40.5,274.5C 40.9172,271.657 41.9172,268.99 43.5,266.5C 57.9797,245.505 76.9797,230.338 100.5,221C 103.579,219.91 105.912,220.743 107.5,223.5C 111.019,232.597 114.686,241.597 118.5,250.5C 119.5,250.5 120.5,250.5 121.5,250.5C 125.939,263.699 133.606,274.699 144.5,283.5C 145.689,284.429 147.022,284.762 148.5,284.5C 148.5,285.5 148.5,286.5 148.5,287.5C 157.306,289.468 166.306,289.968 175.5,289C 186.51,284.495 196.177,277.995 204.5,269.5 Z M 319.5,239.5 C 324.914,240.526 329.914,242.526 334.5,245.5C 332.852,249.071 331.519,252.738 330.5,256.5C 334.741,272.576 344.741,277.743 360.5,272C 365.939,267.853 368.606,262.353 368.5,255.5C 372.356,256.508 376.023,258.008 379.5,260C 361.643,283.131 342.643,284.297 322.5,263.5C 319.733,255.833 318.733,247.833 319.5,239.5 Z M 206.5,267.5 C 206.639,265.663 207.306,265.33 208.5,266.5C 208.043,267.298 207.376,267.631 206.5,267.5 Z M 206.5,267.5 C 206.167,268.5 205.5,269.167 204.5,269.5C 204.5,268.167 205.167,267.5 206.5,267.5 Z"/></g>
<g><path style="opacity:0.004" fill="#00ff00" d="M 391.5,134.5 C 392.525,134.897 392.692,135.563 392,136.5C 391.536,135.906 391.369,135.239 391.5,134.5 Z"/></g>
</svg>
