<?xml version="1.0" encoding="UTF-8"?>
<svg version="1.1" xmlns="http://www.w3.org/2000/svg" width="512" height="512">
<path d="M0 0 C0.89292556 -0.00906223 1.78585113 -0.01812445 2.70583504 -0.02746129 C5.69832136 -0.05278495 8.69008135 -0.04950657 11.68266296 -0.04620361 C13.82803789 -0.05817202 15.9734042 -0.07178262 18.11875916 -0.08691406 C23.94737273 -0.12227158 29.77575147 -0.13162637 35.60446191 -0.13417721 C40.4702567 -0.13797497 45.33599676 -0.15268981 50.20177048 -0.16686559 C61.68224591 -0.19944316 73.16259585 -0.20920264 84.64311218 -0.20635986 C96.48523398 -0.20395685 108.32662682 -0.2461607 120.16856414 -0.30933452 C130.33604433 -0.36164227 140.50328633 -0.38309522 150.67090005 -0.38053823 C156.74337802 -0.37951838 162.81520833 -0.39091617 168.88755226 -0.43325043 C174.59982966 -0.4719866 180.31084072 -0.47228636 186.02316284 -0.4431839 C188.11776263 -0.43900167 190.21244135 -0.44844627 192.30690575 -0.47262573 C208.11230601 -0.64324966 208.11230601 -0.64324966 213.07898521 2.24459076 C215.11272491 4.24027842 216.59516483 6.1511193 218.13847351 8.53485107 C219.28745303 9.84227601 220.45182186 11.13652011 221.63847351 12.40985107 C224.13847351 15.26889363 224.13847351 15.26889363 224.13847351 17.53485107 C225.12847351 17.86485107 226.11847351 18.19485107 227.13847351 18.53485107 C228.59754372 20.14644736 229.98389972 21.82459775 231.32597351 23.53485107 C234.96227535 28.10705355 238.73253233 32.4754252 242.70487976 36.75750732 C244.13847351 38.53485107 244.13847351 38.53485107 244.13847351 40.53485107 C244.71339539 40.76301514 245.28831726 40.9911792 245.88066101 41.22625732 C248.746827 42.8874435 250.23115118 44.85882956 252.26347351 47.47235107 C256.294414 52.54095941 260.53851313 57.33466269 264.91972351 62.10125732 C267.42221595 64.84606858 269.78676651 67.66054252 272.13847351 70.53485107 C272.67601257 71.14328857 273.21355164 71.75172607 273.76737976 72.37860107 C274.3229657 73.00766357 274.87855164 73.63672607 275.45097351 74.28485107 C275.96273132 74.85719482 276.47448914 75.42953857 277.00175476 76.01922607 C278.13847351 77.53485107 278.13847351 77.53485107 278.13847351 79.53485107 C278.73917664 79.80200928 279.33987976 80.06916748 279.95878601 80.34442139 C282.18495945 81.56023923 283.38505716 82.6623568 285.01347351 84.58172607 C285.52394226 85.17985107 286.03441101 85.77797607 286.56034851 86.39422607 C287.08112976 87.01813232 287.60191101 87.64203857 288.13847351 88.28485107 C288.65925476 88.89328857 289.18003601 89.50172607 289.71659851 90.12860107 C291.22489972 91.91113887 292.7121647 93.68569024 294.13847351 95.53485107 C295.15871565 96.68085376 295.15871565 96.68085376 296.19956875 97.85000801 C299.44426347 102.80258786 298.69134111 108.72490044 298.65313721 114.4269104 C298.66008274 115.74129628 298.66702826 117.05568217 298.67418426 118.40989792 C298.69281247 122.05233354 298.68650621 125.69436262 298.67603123 129.33681512 C298.66903958 133.26740578 298.68503696 137.19791291 298.69802856 141.128479 C298.71967513 148.82668277 298.71953989 156.52473876 298.71140302 164.22296296 C298.70510363 170.48039401 298.7062395 176.73778196 298.71267509 182.99521255 C298.71357675 183.88575615 298.7144784 184.77629975 298.71540738 185.69382951 C298.71725859 187.50296847 298.71912115 189.31210742 298.72099494 191.12124635 C298.737576 208.08844394 298.72885194 225.05555839 298.71200936 242.02275099 C298.69731536 257.5431679 298.71193603 273.06339117 298.74077953 288.58378313 C298.77017831 304.52172775 298.7811442 320.45958302 298.77159733 336.39755356 C298.77057478 338.20065505 298.76958017 340.00375655 298.76861382 341.80685806 C298.76813743 342.69400595 298.76766104 343.58115383 298.76717021 344.49518498 C298.76500654 350.7432628 298.77480777 356.99125598 298.78938484 363.23931503 C298.80690821 370.85649286 298.80679099 378.47342389 298.78403319 386.09059201 C298.77289035 389.97623724 298.76972893 393.86144768 298.78833389 397.74707413 C298.80825258 401.96134875 298.78935517 406.17456408 298.7666626 410.38882446 C298.77849833 411.61431436 298.79033405 412.83980427 298.80252844 414.10243022 C298.72410875 421.26056691 297.90267048 426.05913327 293.13847351 431.53485107 C292.45433065 432.34909735 291.7701878 433.16334362 291.06531334 434.00226402 C286.32107456 436.48649936 281.58300568 436.09132709 276.30903625 436.0562439 C275.09688804 436.06389499 273.88473983 436.07154608 272.63585985 436.07942903 C269.2741037 436.09650091 265.91322204 436.09562068 262.55149078 436.08706784 C258.92491544 436.08213712 255.2984432 436.10015696 251.67190552 436.11514282 C244.56813899 436.1406521 237.4645236 436.14422232 230.36071898 436.1395423 C224.58666249 436.13597719 218.81265192 436.13947253 213.03860092 436.14799118 C211.80622525 436.14977675 211.80622525 436.14977675 210.54895311 436.15159839 C208.87993189 436.15402188 207.21091068 436.15645014 205.54188947 436.15888314 C189.88666154 436.18064029 174.23151975 436.17630637 158.57628696 436.16411345 C144.25463579 436.15377561 129.93325671 436.17628328 115.61165936 436.21430989 C100.90659011 436.25305537 86.20164962 436.26958064 71.49652898 436.26206338 C63.24057716 436.2582374 54.9848569 436.26323299 46.72894669 436.29149246 C39.70017119 436.31530795 32.67176976 436.31814427 25.64298917 436.29391213 C22.05712217 436.28212509 18.47193955 436.27995907 14.88611794 436.30391693 C10.99769799 436.32959445 7.11031756 436.30872814 3.22187805 436.28329468 C2.0900669 436.29804325 0.95825574 436.31279182 -0.20785272 436.32798731 C-6.2647571 436.24448165 -9.9993974 435.64616581 -14.46211493 431.4069761 C-18.13548466 426.49276244 -19.23692004 422.49942424 -19.24463654 416.40017128 C-19.25207581 415.35249946 -19.25207581 415.35249946 -19.25966537 414.28366256 C-19.27261733 411.94359189 -19.26423835 409.60409222 -19.25593567 407.26400757 C-19.26082477 405.56923371 -19.26701466 403.87446319 -19.27439356 402.17969835 C-19.29081377 397.52260248 -19.28847091 392.86567566 -19.28301859 388.20856094 C-19.28035097 383.18595038 -19.29487515 378.16338514 -19.30711365 373.14079285 C-19.32818103 363.30096987 -19.33270775 353.4612058 -19.33092576 343.62136294 C-19.32961881 335.62433167 -19.33341885 327.62731879 -19.34085083 319.63029099 C-19.34294999 317.32790673 -19.3450476 315.02552247 -19.34714365 312.72313821 C-19.34818718 311.57722425 -19.34923071 310.43131029 -19.35030586 309.25067167 C-19.36921345 287.5722678 -19.36815641 265.89389777 -19.36133653 244.21548907 C-19.35576047 224.37868551 -19.3765883 204.54201108 -19.409697 184.7052377 C-19.44342061 164.34217452 -19.458604 143.97917323 -19.45397997 123.6160816 C-19.45173397 112.18161475 -19.45699766 100.74726726 -19.48187256 89.31282425 C-19.50286847 79.57848999 -19.5064946 69.84434053 -19.48757297 60.10999872 C-19.4784047 55.14288857 -19.4773056 50.17612314 -19.49792862 45.20903969 C-19.51660086 40.6615372 -19.51217735 36.11466268 -19.4893828 31.56718437 C-19.48518756 29.92254765 -19.48942811 28.27786314 -19.50297874 26.63327689 C-19.62600241 10.61056119 -19.62600241 10.61056119 -13.86152649 4.53485107 C-13.11617047 3.72088238 -12.37081446 2.90691368 -11.60287189 2.06827927 C-7.70500915 -0.11207079 -4.39994395 -0.03275467 0 0 Z M0.13847351 18.53485107 C0.13847351 107.63485107 0.13847351 196.73485107 0.13847351 288.53485107 C92.20847351 288.53485107 184.27847351 288.53485107 279.13847351 288.53485107 C279.13847351 230.78485107 279.13847351 173.03485107 279.13847351 113.53485107 C252.73847351 113.53485107 226.33847351 113.53485107 199.13847351 113.53485107 C184.96416185 85.18622775 195.50275662 50.22748197 195.13847351 18.53485107 C130.78847351 18.53485107 66.43847351 18.53485107 0.13847351 18.53485107 Z M112.13847351 325.53485107 C106.86506957 332.76694791 106.49628213 338.71316951 107.13847351 347.53485107 C107.82151592 350.58263339 108.7018259 352.71476502 110.13847351 355.53485107 C111.12847351 355.86485107 112.11847351 356.19485107 113.13847351 356.53485107 C113.59286804 357.44944092 113.59286804 357.44944092 114.05644226 358.38250732 C117.73656541 365.70289669 127.8862813 368.82619567 135.07206726 371.41375732 C145.19069137 375.11317786 145.19069137 375.11317786 148.13847351 379.53485107 C148.68379193 382.60011459 148.68173244 385.46893437 148.13847351 388.53485107 C145.95688206 391.29054554 144.26669858 392.97073854 141.13847351 394.53485107 C131.67900648 395.13654814 123.00427277 395.37577468 114.20487976 391.40985107 C112.05205457 390.33988912 112.05205457 390.33988912 109.13847351 390.53485107 C108.63102928 392.42870545 108.13282777 394.32503774 107.63847351 396.22235107 C107.36003601 397.27809326 107.08159851 398.33383545 106.79472351 399.42156982 C106.19930201 402.2462778 106.01060859 404.66321815 106.13847351 407.53485107 C108.34557334 408.18488733 110.55421243 408.82969852 112.76347351 409.47235107 C113.99323914 409.83199951 115.22300476 410.19164795 116.49003601 410.56219482 C130.71448027 414.35436465 144.82575512 413.01868951 157.88066101 406.05047607 C164.14082398 401.84815214 169.06666804 395.47141494 170.67362976 388.07000732 C171.84153833 379.98535866 170.23921714 373.99804266 165.59159851 367.30828857 C159.17181931 359.44553148 151.62828905 356.19594849 142.27128601 352.72235107 C130.25654642 348.16813557 130.25654642 348.16813557 128.13847351 343.53485107 C127.64645084 339.5986697 127.45257835 337.47478148 129.82597351 334.22235107 C135.58582022 330.01921969 141.24310274 329.9137276 148.13847351 330.53485107 C151.09006924 331.18782558 153.94255802 331.97334272 156.82597351 332.87860107 C159.21884439 333.67135292 159.21884439 333.67135292 162.13847351 333.53485107 C164.37738493 328.08358848 165.61453645 323.40294614 166.13847351 317.53485107 C147.91338291 310.99251086 126.11231941 310.20869751 112.13847351 325.53485107 Z M187.13847351 316.53485107 C187.13847351 347.55485107 187.13847351 378.57485107 187.13847351 410.53485107 C193.73847351 410.53485107 200.33847351 410.53485107 207.13847351 410.53485107 C207.13847351 398.98485107 207.13847351 387.43485107 207.13847351 375.53485107 C208.62347351 376.02985107 208.62347351 376.02985107 210.13847351 376.53485107 C222.04078775 377.64801715 234.6198201 375.89942663 244.12284851 368.34735107 C250.59393823 362.52838668 254.31847208 356.12067278 255.59550476 347.42156982 C256.03012109 338.98192724 254.07589965 332.41305775 249.13847351 325.53485107 C239.44798782 315.96152152 228.75176536 314.29290992 215.51542664 314.26141357 C213.87477234 314.27301514 213.87477234 314.27301514 212.20097351 314.28485107 C211.11107117 314.2771167 210.02116882 314.26938232 208.89823914 314.26141357 C207.81349304 314.2639917 206.72874695 314.26656982 205.61112976 314.26922607 C204.17652405 314.27260986 204.17652405 314.27260986 202.7129364 314.27606201 C197.4808282 314.65486364 192.31290151 315.67244641 187.13847351 316.53485107 Z M69.13847351 315.53485107 C69.12389099 317.52258545 69.10930847 319.51031982 69.09428406 321.55828857 C69.04250102 328.14817866 68.97717996 334.73782754 68.9027586 341.32749939 C68.8581559 345.32026119 68.81887805 349.31292333 68.79203796 353.30584717 C68.76590348 357.1639862 68.72543082 361.02173963 68.67528725 364.87963867 C68.65868673 366.34667134 68.64713021 367.8137706 68.6408596 369.28088379 C68.55950722 386.57517146 68.55950722 386.57517146 63.72250366 392.17376709 C61.04871931 394.47122655 58.5010652 394.65787808 55.12675476 394.63250732 C53.99076843 394.62767334 53.99076843 394.62767334 52.83183289 394.6227417 C51.6533075 394.61017334 51.6533075 394.61017334 50.45097351 394.59735107 C49.65368835 394.59283936 48.8564032 394.58832764 48.03495789 394.5836792 C46.06943094 394.57190958 44.10394266 394.55397456 42.13847351 394.53485107 C41.47847351 399.81485107 40.81847351 405.09485107 40.13847351 410.53485107 C52.67339801 413.93415263 64.88644197 413.78327043 76.38847351 407.34735107 C84.29685516 401.91533135 86.6942319 395.69494847 88.54512024 386.48400879 C89.54506818 379.82869516 89.50754088 373.21941799 89.43144226 366.51141357 C89.42582825 365.02927079 89.42156672 363.54712233 89.4185791 362.06497192 C89.407272 358.2147816 89.3779319 354.36494552 89.34446716 350.51489258 C89.31345627 346.56586495 89.30000837 342.61677857 89.28495789 338.66766357 C89.25304417 330.95654795 89.20039732 323.24579481 89.13847351 315.53485107 C82.53847351 315.53485107 75.93847351 315.53485107 69.13847351 315.53485107 Z " fill="#FF0202" transform="translate(114.86152648925781,34.46514892578125)"/>
<path d="M0 0 C1.89453125 0.25390625 1.89453125 0.25390625 4 1 C8.27510418 8.24621906 8.65502088 17.97574965 7.0625 26 C5.21288558 32.60091753 1.63093736 37.06266792 -3 42 C-3.58910156 42.64453125 -4.17820312 43.2890625 -4.78515625 43.953125 C-6.12733241 45.36455349 -7.55570468 46.69325662 -9 48 C-9.66 48 -10.32 48 -11 48 C-11 48.66 -11 49.32 -11 50 C-12.65071396 51.02611949 -14.31970006 52.02308143 -16 53 C-17.01101827 53.98885897 -18.00987583 54.99022076 -19 56 C-20.28755031 57.08822244 -21.57949846 58.17125552 -22.875 59.25 C-29.99490385 65.50837471 -29.99490385 65.50837471 -32.625 74.3125 C-32.02715471 85.48366633 -27.88804486 97.12168287 -22.91796875 107.03125 C-22 109 -22 109 -22 111 C-28.66834026 110.06917905 -33.4438326 103.38403335 -37.30712891 98.26953125 C-38.57833263 96.47397425 -39.80059989 94.65672293 -41 92.8125 C-41.37342529 92.24313721 -41.74685059 91.67377441 -42.1315918 91.0871582 C-46.79310969 83.61471807 -48.36279811 75.55381999 -46.5703125 66.93359375 C-42.99011529 55.99410228 -34.97091103 48.69195712 -26 42 C-24.91525391 41.17242187 -24.91525391 41.17242187 -23.80859375 40.328125 C-19.33058287 37 -19.33058287 37 -17 37 C-17 36.34 -17 35.68 -17 35 C-15.02053408 33.63636792 -13.0180755 32.30581356 -11 31 C-10.4225 30.4225 -9.845 29.845 -9.25 29.25 C-8.8375 28.8375 -8.425 28.425 -8 28 C-7.34 28 -6.68 28 -6 28 C-5.731875 27.29875 -5.46375 26.5975 -5.1875 25.875 C-4 23 -4 23 -2.46875 20.26953125 C-0.82500183 16.61044291 -0.50502947 13.80427775 -0.3125 9.8125 C-0.24675781 8.60207031 -0.18101562 7.39164062 -0.11328125 6.14453125 C-0.03953129 4.0973341 0 2.04852513 0 0 Z " fill="#FF0202" transform="translate(263,86)"/>
<path d="M0 0 C-1 2 -1 2 -3.80078125 3.03515625 C-4.95964844 3.37417969 -6.11851562 3.71320313 -7.3125 4.0625 C-8.46363281 4.40410156 -9.61476562 4.74570312 -10.80078125 5.09765625 C-13.1942965 5.7727503 -15.58204018 6.4208837 -18 7 C-18 7.66 -18 8.32 -18 9 C17.45084369 19.20657688 68.00330699 18.14173643 103 7 C106.24849977 5.27773504 106.24849977 5.27773504 107 2 C107.99 2 108.98 2 110 2 C110.93292 4.96838182 111.18847462 6.52080137 110.03515625 9.453125 C102.2901149 19.14557598 82.24400507 20.47201435 70.82958984 21.91845703 C57.0635214 23.41915396 43.20677881 23.39804658 29.375 23.4375 C27.65183563 23.44703201 27.65183563 23.44703201 25.89385986 23.45675659 C-15.84791992 23.60021066 -15.84791992 23.60021066 -30.0625 15.1875 C-32 13 -32 13 -32.625 10 C-32 7 -32 7 -30.25 4.75 C-25.38318375 2.12940663 -20.44319846 1.643164 -15 1 C-14.06671875 0.88785156 -13.1334375 0.77570313 -12.171875 0.66015625 C-8.0905009 0.21413782 -4.10831123 -0.04347419 0 0 Z " fill="#FF0202" transform="translate(200,259)"/>
<path d="M0 0 C1.4550293 0.01353516 1.4550293 0.01353516 2.93945312 0.02734375 C5.31406407 0.05073893 7.68814776 0.08351824 10.0625 0.125 C5.98771815 2.84152123 1.69033979 3.73472528 -3.00390625 5.02734375 C-6.21074352 5.90122704 -6.21074352 5.90122704 -7.9375 9.125 C-1.65395527 10.04524032 4.47798947 10.30016585 10.82421875 10.328125 C12.36394096 10.33667511 12.36394096 10.33667511 13.93476868 10.34539795 C16.10567203 10.35481115 18.27658944 10.36136723 20.44750977 10.36523438 C23.69509518 10.37483764 26.94201862 10.40585389 30.18945312 10.4375 C43.0037479 10.50153664 55.29140504 9.64945381 67.92398071 7.48474121 C70.96275282 6.97355968 74.01022434 6.54727279 77.0625 6.125 C76.14155318 9.21226489 75.45296986 10.82238586 72.875 12.8203125 C63.87169209 17.39699402 54.98144086 18.9551617 45.0625 20.125 C44.33208496 20.2192627 43.60166992 20.31352539 42.84912109 20.41064453 C35.60949711 21.25746391 28.36739849 21.34536311 21.08789062 21.36523438 C18.96183354 21.37488949 16.83676723 21.40599164 14.7109375 21.4375 C2.84364146 21.52798398 -14.81226724 21.60248433 -24 13.25 C-24.9375 11.125 -24.9375 11.125 -25 8.625 C-23.45386963 4.98704618 -21.38342159 3.97558752 -17.9375 2.125 C-11.90452647 -0.0780084 -6.37946078 -0.11337388 0 0 Z " fill="#FF0202" transform="translate(208.9375,198.875)"/>
<path d="M0 0 C0 0.66 0 1.32 0 2 C-0.61875 2.0825 -1.2375 2.165 -1.875 2.25 C-4.18346804 2.78810733 -4.18346804 2.78810733 -5 5 C-5.33 5.66 -5.66 6.32 -6 7 C-7.32594105 7.36162029 -8.65938457 7.69728039 -10 8 C-10.33 8.99 -10.66 9.98 -11 11 C-12.63671875 12.578125 -12.63671875 12.578125 -14.6875 14.25 C-22.23678368 20.4961349 -22.23678368 20.4961349 -26.375 29.125 C-26.79639266 35.90239866 -21.67899928 41.67995333 -18 47 C-16.0027731 50.9944538 -16.49460096 55.65816275 -17 60 C-19.18689725 66.07052513 -23.01644346 70.97074152 -28 75 C-30.18359375 74.6484375 -30.18359375 74.6484375 -32 74 C-31.505 72.80375 -31.01 71.6075 -30.5 70.375 C-29.16155157 66.77393636 -28.45913624 63.87619031 -29 60 C-30.2912354 58.37514541 -30.2912354 58.37514541 -32 57 C-33.01866229 55.34467377 -34.01810813 53.67739862 -35 52 C-35.73669922 51.09314453 -35.73669922 51.09314453 -36.48828125 50.16796875 C-40.59072189 44.28462365 -41.80431843 36.00906057 -41 29 C-38.1498794 20.78674924 -32.50332683 16.01513903 -25.25 11.5 C-24.63455322 11.11126709 -24.01910645 10.72253418 -23.38500977 10.32202148 C-6.92277513 0 -6.92277513 0 0 0 Z " fill="#FF0202" transform="translate(284,129)"/>
<path d="M0 0 C4.07978581 3.51245363 5.19737647 6.16892936 5.8125 11.5 C5.28023981 16.82260193 3.98946936 22.08881945 -0.24609375 25.67578125 C-5.21365126 28.61358408 -9.51614999 29.39028666 -15.1875 29.375 C-16.62996094 29.37886719 -16.62996094 29.37886719 -18.1015625 29.3828125 C-20.5625 29.25 -20.5625 29.25 -22.5625 28.25 C-22.5625 18.02 -22.5625 7.79 -22.5625 -2.75 C-14.41598195 -3.91378829 -7.02004224 -4.96508442 0 0 Z " fill="#FF0202" transform="translate(344.5625,366.75)"/>
<path d="M0 0 C-0.33 0.66 -0.66 1.32 -1 2 C-1.66 2 -2.32 2 -3 2 C-3 2.99 -3 3.98 -3 5 C16.4283584 7.6593115 34.55045694 6.3258399 53.9765625 4.0168457 C55.07613281 3.88624756 56.17570312 3.75564941 57.30859375 3.62109375 C58.28626709 3.5017749 59.26394043 3.38245605 60.27124023 3.25952148 C62.86765199 3.01258709 65.39389012 2.95282119 68 3 C63.3328699 10.00069516 56.25659509 12.33481307 48.37890625 14.33984375 C30.57215524 17.8188506 5.05984427 21.27830033 -11 11 C-11.66 10.34 -12.32 9.68 -13 9 C-13 6.625 -13 6.625 -12 4 C-4.83116883 -1.61038961 -4.83116883 -1.61038961 0 0 Z " fill="#FF0202" transform="translate(212,223)"/>
<path d="M0 0 C-0.67533121 5.18938717 -2.50267091 7.09480528 -6.484375 10.296875 C-35.79958781 30.14382032 -88.4313712 21.28711506 -121 16 C-121 15.34 -121 14.68 -121 14 C-119.46520996 14.00785522 -119.46520996 14.00785522 -117.89941406 14.01586914 C-93.58821491 14.12847552 -69.29167119 14.07660324 -45 13 C-43.52007568 12.93522461 -43.52007568 12.93522461 -42.01025391 12.86914062 C-27.60326443 12.11789764 -12.0327859 0 0 0 Z " fill="#FF0202" transform="translate(319,272)"/>
<path d="M0 0 C3.54946787 2.42569812 4.96102568 5.28091787 6.0234375 9.3828125 C6.82737524 14.79035161 6.77702339 19.99033311 3.57421875 24.66796875 C-4.5457496 33.64697658 -15.48772712 37.59233318 -26.9765625 40.3828125 C-27.9665625 40.0528125 -28.9565625 39.7228125 -29.9765625 39.3828125 C-26.88142813 36.08133584 -23.65564038 33.3602468 -20.0390625 30.6328125 C-15.32383566 26.87051324 -11.23366051 23.08798789 -8.9765625 17.3828125 C-8.80862546 14.22559618 -9.18264732 11.43577725 -9.9765625 8.3828125 C-17.73626959 5.06428506 -17.73626959 5.06428506 -25.9765625 3.3828125 C-25.6465625 2.3928125 -25.3165625 1.4028125 -24.9765625 0.3828125 C-16.58621167 -3.14461873 -8.28182767 -4.04198415 0 0 Z " fill="#FF0202" transform="translate(316.9765625,197.6171875)"/>
<path d="M0 0 C-0.33 1.32 -0.66 2.64 -1 4 C16.59520124 4.32362424 33.54762812 4.20710812 50.95800781 1.28125 C53.65062482 0.9103874 56.28750378 0.89466034 59 1 C56.77290139 5.98138482 53.85419829 8.53481513 49 11 C32.96579322 15.7973461 7.0349794 18.97999148 -8.625 12.5 C-11 11 -11 11 -12 10 C-11.9375 6.625 -11.9375 6.625 -11 3 C-7.34139468 0.42234625 -4.44339057 -0.39206387 0 0 Z " fill="#FF0202" transform="translate(217,244)"/>
</svg>
