<?xml version="1.0" encoding="UTF-8"?>
<svg version="1.1" xmlns="http://www.w3.org/2000/svg" width="512" height="512">
<path d="M0 0 C2.31123583 0.02685213 4.61761936 0.00007471 6.92871094 -0.03173828 C24.7631011 -0.07360305 41.02575271 5.96137971 54.15917969 18.38232422 C78.27226934 43.80828627 80.28167623 80.68522694 80.74121094 113.91943359 C80.91106909 120.88715674 81.4094527 126.30450589 84.31152344 132.65185547 C84.66920687 133.97886393 85.00866366 135.3112717 85.31152344 136.65185547 C85.97152344 136.65185547 86.63152344 136.65185547 87.31152344 136.65185547 C88.36230469 138.12841797 88.36230469 138.12841797 89.62402344 140.27685547 C93.45826108 146.26547912 98.3057105 151.19403719 103.19042969 156.31982422 C111.31152344 164.90583746 111.31152344 164.90583746 111.31152344 167.65185547 C112.30152344 167.98185547 113.29152344 168.31185547 114.31152344 168.65185547 C115.78417969 170.26123047 115.78417969 170.26123047 117.37402344 172.40185547 C117.97988281 173.20880859 118.58574219 174.01576172 119.20996094 174.84716797 C119.90347656 175.77271484 120.59699219 176.69826172 121.31152344 177.65185547 C122.15538445 178.73453248 123.0018599 179.81517549 123.85058594 180.89404297 C124.28878662 181.45381836 124.7269873 182.01359375 125.1784668 182.59033203 C126.03600074 183.68551496 126.89604977 184.77873491 127.7590332 185.86962891 C130.68599892 189.63797284 133.0021899 193.49407449 135.31152344 197.65185547 C136.05261583 198.7827432 136.80107912 199.90888882 137.56152344 201.02685547 C153.43125787 226.61375037 156.76289769 254.17364459 156.31152344 283.65185547 C156.93559082 283.92223633 157.5596582 284.19261719 158.20263672 284.47119141 C160.84324152 285.94953881 161.70760816 287.63858553 162.77539062 290.42724609 C163.88244912 295.02083307 163.57228453 299.70924386 163.43652344 304.40185547 C163.393187 306.45906154 163.35393598 308.51635891 163.31933594 310.57373047 C163.29500488 311.47704102 163.27067383 312.38035156 163.24560547 313.31103516 C163.20293831 315.80842999 163.20293831 315.80842999 164.31152344 318.65185547 C165.63344744 319.02789512 166.96988265 319.35371307 168.31152344 319.65185547 C169.82450697 320.55585637 171.30290972 321.51933777 172.74902344 322.52685547 C175.11983804 324.15896601 177.43625806 325.7231324 179.93652344 327.15185547 C187.05386569 331.647019 191.61073798 336.5494991 194.31152344 344.65185547 C194.70935628 349.9231407 194.1380288 353.16843317 191.31152344 357.65185547 C184.11900501 365.60344591 174.06292063 368.50213691 164.12402344 371.71435547 C152.36944218 375.5360901 144.31808118 380.03108109 135.31152344 388.65185547 C121.77002877 401.13027952 108.60163621 407.99919741 89.99902344 408.08935547 C88.81373047 408.12222656 87.6284375 408.15509766 86.40722656 408.18896484 C77.82910956 408.24129945 71.67506333 406.87884236 65.40795898 400.80786133 C62.63442938 397.82225575 61.21984928 395.63091862 60.31152344 391.65185547 C51.30358845 391.69034683 42.29610089 391.75031828 33.28848839 391.83575821 C29.10328256 391.87482295 24.91827425 391.90720747 20.73291016 391.92285156 C-17.96655113 390.77284374 -17.96655113 390.77284374 -51.68847656 406.65185547 C-66.20004864 411.48904616 -83.0326806 407.11417385 -96.68847656 401.65185547 C-97.54666992 401.30960937 -98.40486328 400.96736328 -99.2890625 400.61474609 C-106.54610529 397.70344431 -106.54610529 397.70344431 -109.66577148 396.36865234 C-118.7204775 392.56569472 -127.57913097 391.47954057 -137.32275391 390.6640625 C-173.83289677 387.59733962 -173.83289677 387.59733962 -184.22753906 377.09716797 C-187.87608046 372.67407589 -189.03727604 368.34060881 -188.68847656 362.65185547 C-188.17265114 360.37501315 -187.62795361 358.10462642 -187.06347656 355.83935547 C-185.20852317 347.5960424 -186.36997258 340.59515368 -187.92675781 332.37841797 C-189.15182048 325.57313865 -189.9171466 319.17742338 -185.93457031 313.21044922 C-176.7655758 301.74202035 -160.20222851 300.99290928 -146.68847656 298.65185547 C-146.5629541 298.06162598 -146.43743164 297.47139648 -146.30810547 296.86328125 C-144.09743797 286.6600402 -141.87005998 278.65366973 -132.68847656 272.65185547 C-132.02847656 272.65185547 -131.36847656 272.65185547 -130.68847656 272.65185547 C-130.57503906 271.52779297 -130.46160156 270.40373047 -130.34472656 269.24560547 C-129.7337304 264.40855252 -128.53951341 259.82962452 -127.18847656 255.15185547 C-126.93074463 254.25474854 -126.6730127 253.3576416 -126.4074707 252.43334961 C-120.59341792 232.77776226 -112.62010112 213.7287342 -103.97680664 195.16821289 C-103.1194904 193.32541348 -102.26807783 191.4799612 -101.41699219 189.63427734 C-98.71639117 183.819299 -95.96762276 178.15974374 -92.68847656 172.65185547 C-91.89472478 171.23128841 -91.1059953 169.80790787 -90.32128906 168.38232422 C-89.71003174 167.27546265 -89.71003174 167.27546265 -89.08642578 166.14624023 C-88.21527639 164.5675117 -87.34452732 162.98856222 -86.47412109 161.40942383 C-84.27278797 157.43468253 -82.0220427 153.53729073 -79.56347656 149.71435547 C-68.42859718 131.25139307 -65.66503439 113.25779879 -65.09423828 92.09545898 C-64.74679803 80.49176262 -63.52568848 69.11058354 -61.68847656 57.65185547 C-61.55602539 56.82331055 -61.42357422 55.99476562 -61.28710938 55.14111328 C-58.95380901 41.32774913 -54.48184184 27.04218041 -44.68847656 16.65185547 C-44.02847656 16.65185547 -43.36847656 16.65185547 -42.68847656 16.65185547 C-42.44484375 16.06275391 -42.20121094 15.47365234 -41.95019531 14.86669922 C-37.67066795 7.35434004 -27.77190152 4.08304144 -19.94897461 1.68383789 C-13.38219162 -0.07986888 -6.75865288 -0.09303525 0 0 Z " fill="#FCFCFC" transform="translate(254.6884765625,49.34814453125)"/>
<path d="M0 0 C2.31123583 0.02685213 4.61761936 0.00007471 6.92871094 -0.03173828 C24.7631011 -0.07360305 41.02575271 5.96137971 54.15917969 18.38232422 C78.27226934 43.80828627 80.28167623 80.68522694 80.74121094 113.91943359 C80.91106909 120.88715674 81.4094527 126.30450589 84.31152344 132.65185547 C84.66920687 133.97886393 85.00866366 135.3112717 85.31152344 136.65185547 C85.97152344 136.65185547 86.63152344 136.65185547 87.31152344 136.65185547 C88.36230469 138.12841797 88.36230469 138.12841797 89.62402344 140.27685547 C93.45826108 146.26547912 98.3057105 151.19403719 103.19042969 156.31982422 C111.31152344 164.90583746 111.31152344 164.90583746 111.31152344 167.65185547 C112.30152344 167.98185547 113.29152344 168.31185547 114.31152344 168.65185547 C115.78417969 170.26123047 115.78417969 170.26123047 117.37402344 172.40185547 C118.2828125 173.61228516 118.2828125 173.61228516 119.20996094 174.84716797 C119.90347656 175.77271484 120.59699219 176.69826172 121.31152344 177.65185547 C122.15538445 178.73453248 123.0018599 179.81517549 123.85058594 180.89404297 C124.28878662 181.45381836 124.7269873 182.01359375 125.1784668 182.59033203 C126.03600074 183.68551496 126.89604977 184.77873491 127.7590332 185.86962891 C130.68599892 189.63797284 133.0021899 193.49407449 135.31152344 197.65185547 C136.05261583 198.7827432 136.80107912 199.90888882 137.56152344 201.02685547 C153.18586707 226.21810489 156.77759767 253.56165288 156.31152344 282.65185547 C155.65152344 282.65185547 154.99152344 282.65185547 154.31152344 282.65185547 C154.28574219 283.46267578 154.25996094 284.27349609 154.23339844 285.10888672 C153.61041457 297.27123081 150.79539557 307.60929275 141.72167969 316.14794922 C133.44419131 322.71151059 123.4076583 323.15391063 113.24902344 323.08935547 C112.12947266 323.10933594 111.00992188 323.12931641 109.85644531 323.14990234 C101.44116204 323.14496669 95.80507868 321.26438759 88.62402344 317.08935547 C80.81036278 308.85333478 78.04749148 298.41785558 77.96777344 287.36669922 C77.93959045 285.77978416 77.91134932 284.19287014 77.88305664 282.60595703 C77.8718277 281.7867981 77.86059875 280.96763916 77.84902954 280.12365723 C77.78554854 275.83422195 77.67976425 271.54587552 77.57324219 267.25732422 C77.55239059 266.41545563 77.531539 265.57358704 77.51005554 264.70620728 C76.89580422 241.01107224 73.1730084 218.10219448 65.31152344 195.65185547 C65.02519043 194.8270166 64.73885742 194.00217773 64.44384766 193.15234375 C63.43207976 190.2521441 62.40590584 187.35745686 61.37402344 184.46435547 C61.04998535 183.54879883 60.72594727 182.63324219 60.39208984 181.68994141 C58.40557217 176.22085003 56.12631327 171.04863889 53.42724609 165.89257812 C52.33664383 163.70230513 51.45664242 161.51341824 50.62402344 159.21435547 C49.26236795 155.62349183 47.61106642 152.29898454 45.76855469 148.93701172 C45.07475708 147.66651978 45.07475708 147.66651978 44.36694336 146.37036133 C43.4215676 144.65629294 42.46227485 142.94981903 41.48852539 141.25170898 C41.05113037 140.45821045 40.61373535 139.66471191 40.16308594 138.84716797 C39.557146 137.78006592 39.557146 137.78006592 38.93896484 136.69140625 C38.31152344 134.65185547 38.31152344 134.65185547 39.09228516 132.47583008 C40.46270561 130.42568766 41.74448811 129.41628704 43.81152344 128.08935547 C46.50424082 126.34935801 47.44851474 125.44636851 49.31152344 122.65185547 C50.19380896 117.94323694 49.7568983 113.73304736 47.43652344 109.52685547 C44.08320109 104.68640756 39.2459225 101.71788984 34.31152344 98.65185547 C34.92282067 95.73049815 35.89701681 93.59970572 37.37402344 91.02685547 C39.54739359 86.2422567 39.75606351 81.76244607 39.81152344 76.58935547 C39.82965088 75.83380371 39.84777832 75.07825195 39.86645508 74.29980469 C39.80112663 68.10505187 38.19042729 62.62243236 33.79345703 58.08544922 C28.61090136 53.66350564 25.04594155 53.16933023 18.35839844 53.25732422 C14.41165287 53.76837717 12.49379818 54.84944526 9.78027344 57.70263672 C3.7213486 65.74360346 2.39353156 72.64574397 3.31152344 82.65185547 C3.61477359 84.32425741 3.93762229 85.99381843 4.31152344 87.65185547 C3.48394531 87.48814453 2.65636719 87.32443359 1.80371094 87.15576172 C-2.01041845 86.60540077 -5.72201157 86.54096492 -9.56347656 86.58935547 C-10.59601563 86.59612305 -10.59601563 86.59612305 -11.64941406 86.60302734 C-13.32913992 86.61469211 -15.00882031 86.63262276 -16.68847656 86.65185547 C-16.71425781 85.37310547 -16.74003906 84.09435547 -16.76660156 82.77685547 C-16.82292131 81.06848982 -16.88026774 79.3601578 -16.93847656 77.65185547 C-16.95265625 76.81267578 -16.96683594 75.97349609 -16.98144531 75.10888672 C-17.23366522 68.601613 -18.54318056 62.8907916 -23.20556641 58.08959961 C-28.70634901 53.38478509 -32.66569452 53.18662385 -39.68847656 53.65185547 C-42.53749724 54.47157263 -42.53749724 54.47157263 -44.68847656 55.65185547 C-46.17347656 56.14685547 -46.17347656 56.14685547 -47.68847656 56.65185547 C-48.8011146 58.49625503 -48.8011146 58.49625503 -49.68847656 60.65185547 C-50.04167969 61.25642578 -50.39488281 61.86099609 -50.75878906 62.48388672 C-54.52601211 69.55789445 -54.69109402 76.79801873 -53.68847656 84.65185547 C-52.65354819 87.53487022 -51.46472235 89.98676627 -49.87988281 92.60107422 C-48.69817019 94.63516972 -48.13936141 96.35597054 -47.68847656 98.65185547 C-48.36394531 99.15974609 -49.03941406 99.66763672 -49.73535156 100.19091797 C-58.83546642 107.1836365 -58.83546642 107.1836365 -63.03222656 117.59716797 C-63.48250518 123.87855475 -61.54508129 126.9894122 -57.51269531 131.70654297 C-55.74856276 133.63835343 -55.74856276 133.63835343 -53.95019531 135.23779297 C-52.68847656 136.65185547 -52.68847656 136.65185547 -52.81347656 139.40185547 C-54.87371856 147.05418288 -58.84081655 153.80493639 -62.62597656 160.71435547 C-63.19864258 161.7678418 -63.77130859 162.82132813 -64.36132812 163.90673828 C-67.1814341 169.08959385 -70.02197921 174.2601475 -72.89550781 179.41357422 C-79.47157351 191.24652343 -85.3676883 203.20398098 -90.68847656 215.65185547 C-91.40777344 217.31087891 -91.40777344 217.31087891 -92.14160156 219.00341797 C-95.32379882 226.47553937 -98.15046123 234.08178604 -100.96264648 241.69897461 C-101.47029067 243.06481579 -101.98397699 244.4284196 -102.50219727 245.7902832 C-103.93146626 249.54908345 -105.16089693 253.23876078 -106.08300781 257.15576172 C-106.93539304 260.66978854 -107.87725046 264.15946694 -108.81347656 267.65185547 C-108.99644287 268.33578369 -109.17940918 269.01971191 -109.36791992 269.72436523 C-109.8075536 271.36700978 -110.24793652 273.00945377 -110.68847656 274.65185547 C-111.70039063 274.32443359 -112.71230469 273.99701172 -113.75488281 273.65966797 C-117.43478703 272.60826676 -120.78807255 272.44772343 -124.62597656 272.52685547 C-125.769375 272.54490234 -126.91277344 272.56294922 -128.09082031 272.58154297 C-128.94804687 272.60474609 -129.80527344 272.62794922 -130.68847656 272.65185547 C-130.07800622 266.60264934 -128.87424339 260.9885785 -127.18847656 255.15185547 C-126.93074463 254.25474854 -126.6730127 253.3576416 -126.4074707 252.43334961 C-120.59341792 232.77776226 -112.62010112 213.7287342 -103.97680664 195.16821289 C-103.1194904 193.32541348 -102.26807783 191.4799612 -101.41699219 189.63427734 C-98.71639117 183.819299 -95.96762276 178.15974374 -92.68847656 172.65185547 C-91.89472478 171.23128841 -91.1059953 169.80790787 -90.32128906 168.38232422 C-89.91378418 167.6444165 -89.5062793 166.90650879 -89.08642578 166.14624023 C-88.21527639 164.5675117 -87.34452732 162.98856222 -86.47412109 161.40942383 C-84.27278797 157.43468253 -82.0220427 153.53729073 -79.56347656 149.71435547 C-68.42859718 131.25139307 -65.66503439 113.25779879 -65.09423828 92.09545898 C-64.74679803 80.49176262 -63.52568848 69.11058354 -61.68847656 57.65185547 C-61.55602539 56.82331055 -61.42357422 55.99476562 -61.28710938 55.14111328 C-58.95380901 41.32774913 -54.48184184 27.04218041 -44.68847656 16.65185547 C-44.02847656 16.65185547 -43.36847656 16.65185547 -42.68847656 16.65185547 C-42.44484375 16.06275391 -42.20121094 15.47365234 -41.95019531 14.86669922 C-37.67066795 7.35434004 -27.77190152 4.08304144 -19.94897461 1.68383789 C-13.38219162 -0.07986888 -6.75865288 -0.09303525 0 0 Z " fill="#343433" transform="translate(254.6884765625,49.34814453125)"/>
<path d="M0 0 C6.5468514 0.10150157 12.85753625 3.36454807 17.66015625 7.71484375 C22.88185095 13.4099721 26.63261308 19.96946916 29.9609375 26.89453125 C33.07483406 33.36265867 36.77633513 39.44937847 40.625 45.5 C40.99270508 46.08233398 41.36041016 46.66466797 41.73925781 47.26464844 C45.38120046 52.92237897 49.05617487 57.94285484 54.8125 61.625 C67.65938318 70.31722796 76.94792985 80.51562573 82.125 95.3125 C82.16806318 97.31203634 82.17410555 99.31310293 82.125 101.3125 C132.1586579 102.47142517 132.1586579 102.47142517 179.16186523 87.27880859 C181.125 86.3125 181.125 86.3125 183.125 86.3125 C183.09019531 85.00539063 183.05539062 83.69828125 183.01953125 82.3515625 C182.60697242 60.01023892 185.22766789 32.80783418 199.125 14.3125 C199.455 14.3125 199.785 14.3125 200.125 14.3125 C200.22296875 15.20710938 200.3209375 16.10171875 200.421875 17.0234375 C201.76920346 27.91821417 203.87126939 39.41827604 213 46.5625 C220.19822581 50.59350645 226.65862636 50.67831569 234.75 50.6875 C236.41869141 50.72423828 236.41869141 50.72423828 238.12109375 50.76171875 C247.97563941 50.79613509 258.33845883 49.2236972 265.66796875 42.0546875 C272.96719003 33.32693229 274.84132931 22.35206792 276.125 11.3125 C280.06572291 12.1882162 281.06492084 13.21917631 283.28515625 16.66796875 C285.84369131 22.05722345 285.53141438 27.27367826 285.3125 33.125 C285.26024663 35.17307714 285.21188883 37.22125846 285.16796875 39.26953125 C285.13727295 40.16647705 285.10657715 41.06342285 285.07495117 41.98754883 C285.01377893 44.47173198 285.01377893 44.47173198 286.125 47.3125 C287.446924 47.68853965 288.78335921 48.0143576 290.125 48.3125 C291.63798354 49.2165009 293.11638628 50.1799823 294.5625 51.1875 C296.9333146 52.81961054 299.24973462 54.38377693 301.75 55.8125 C308.86734225 60.30766353 313.42421454 65.21014363 316.125 73.3125 C316.52283285 78.58378523 315.95150536 81.8290777 313.125 86.3125 C305.93248157 94.26409044 295.87639719 97.16278144 285.9375 100.375 C274.18291875 104.19673463 266.13155774 108.69172562 257.125 117.3125 C243.58350533 129.79092406 230.41511277 136.65984194 211.8125 136.75 C210.62720703 136.78287109 209.44191406 136.81574219 208.22070312 136.84960938 C199.64258612 136.90194398 193.48853989 135.53948689 187.22143555 129.46850586 C184.44790594 126.48290028 183.03332584 124.29156315 182.125 120.3125 C173.11706501 120.35099136 164.10957746 120.41096281 155.10196495 120.49640274 C150.91675912 120.53546748 146.73175082 120.567852 142.54638672 120.58349609 C103.84692543 119.43348827 103.84692543 119.43348827 70.125 135.3125 C55.61342792 140.14969069 38.78079597 135.77481839 25.125 130.3125 C24.26680664 129.97025391 23.40861328 129.62800781 22.52441406 129.27539062 C15.26737127 126.36408884 15.26737127 126.36408884 12.14770508 125.02929688 C3.09299907 121.22633925 -5.76565441 120.1401851 -15.50927734 119.32470703 C-52.01942021 116.25798416 -52.01942021 116.25798416 -62.4140625 105.7578125 C-66.06260389 101.33472042 -67.22379948 97.00125334 -66.875 91.3125 C-66.35917458 89.03565768 -65.81447705 86.76527095 -65.25 84.5 C-63.39504661 76.25668693 -64.55649602 69.25579822 -66.11328125 61.0390625 C-67.33834392 54.23378318 -68.10367004 47.83806792 -64.12109375 41.87109375 C-54.95209924 30.40266488 -38.38875195 29.65355381 -24.875 27.3125 C-24.74947754 26.72227051 -24.62395508 26.13204102 -24.49462891 25.52392578 C-22.50047953 16.32001484 -20.64752863 8.64782291 -12.94921875 2.5859375 C-8.80679661 0.04275554 -4.70225659 0.37921424 0 0 Z " fill="#FCC038" transform="translate(132.875,320.6875)"/>
<path d="M0 0 C3.94072291 0.8757162 4.93992084 1.90667631 7.16015625 5.35546875 C9.71869131 10.74472345 9.40641438 15.96117826 9.1875 21.8125 C9.13524663 23.86057714 9.08688883 25.90875846 9.04296875 27.95703125 C9.01227295 28.85397705 8.98157715 29.75092285 8.94995117 30.67504883 C8.88877893 33.15923198 8.88877893 33.15923198 10 36 C11.321924 36.37603965 12.65835921 36.7018576 14 37 C15.51298354 37.9040009 16.99138628 38.8674823 18.4375 39.875 C20.8083146 41.50711054 23.12473462 43.07127693 25.625 44.5 C32.74234225 48.99516353 37.29921454 53.89764363 40 62 C40.39783285 67.27128523 39.82650536 70.5165777 37 75 C29.80748157 82.95159044 19.75139719 85.85028144 9.8125 89.0625 C-1.94208125 92.88423463 -9.99344226 97.37922562 -19 106 C-32.54149467 118.47842406 -45.70988723 125.34734194 -64.3125 125.4375 C-65.49779297 125.47037109 -66.68308594 125.50324219 -67.90429688 125.53710938 C-76.48241388 125.58944398 -82.63646011 124.22698689 -88.90356445 118.15600586 C-91.67709406 115.17040028 -93.09167416 112.97906315 -94 109 C-103.00793499 109.03849136 -112.01542254 109.09846281 -121.02303505 109.18390274 C-125.20824088 109.22296748 -129.39324918 109.255352 -133.57861328 109.27099609 C-163.48686403 108.90298622 -163.48686403 108.90298622 -192.38525391 115.63378906 C-196 117 -196 117 -199 117 C-198.5978125 116.01 -198.5978125 116.01 -198.1875 115 C-197.795625 114.01 -197.40375 113.02 -197 112 C-196.484375 110.865625 -195.96875 109.73125 -195.4375 108.5625 C-193.93718101 104.63479364 -193.66570808 100.89859233 -193.41015625 96.71484375 C-193.33031494 95.45663818 -193.25047363 94.19843262 -193.16821289 92.90209961 C-193.11270264 91.94440674 -193.05719238 90.98671387 -193 90 C-192.08114014 90.01571045 -191.16228027 90.0314209 -190.21557617 90.04760742 C-142.10776284 90.84466252 -142.10776284 90.84466252 -96.96313477 75.96630859 C-95 75 -95 75 -93 75 C-93.03480469 73.69289063 -93.06960938 72.38578125 -93.10546875 71.0390625 C-93.51802758 48.69773892 -90.89733211 21.49533418 -77 3 C-76.67 3 -76.34 3 -76 3 C-75.90203125 3.89460938 -75.8040625 4.78921875 -75.703125 5.7109375 C-74.35579654 16.60571417 -72.25373061 28.10577604 -63.125 35.25 C-55.92677419 39.28100645 -49.46637364 39.36581569 -41.375 39.375 C-39.70630859 39.41173828 -39.70630859 39.41173828 -38.00390625 39.44921875 C-28.14936059 39.48363509 -17.78654117 37.9111972 -10.45703125 30.7421875 C-3.15780997 22.01443229 -1.28367069 11.03956792 0 0 Z " fill="#F8B41D" transform="translate(409,332)"/>
<path d="M0 0 C5.78031881 5.10818872 9.54714018 9.90108817 10.1015625 17.80078125 C10.18068002 19.42928358 10.25077608 21.0582457 10.3125 22.6875 C10.37050781 23.94143555 10.37050781 23.94143555 10.4296875 25.22070312 C10.52345159 27.27179259 10.60654245 29.32336515 10.6875 31.375 C11.62851563 31.35179687 12.56953125 31.32859375 13.5390625 31.3046875 C15.40691406 31.27761719 15.40691406 31.27761719 17.3125 31.25 C18.54226562 31.22679687 19.77203125 31.20359375 21.0390625 31.1796875 C24.63066041 31.3719572 27.35411175 32.07241444 30.6875 33.375 C30.36652344 32.67761719 30.04554688 31.98023438 29.71484375 31.26171875 C27.27005306 24.39213578 27.67726561 16.61846148 30.6875 10 C33.52105212 5.16954347 36.63072681 0.97396553 41.6875 -1.625 C47.30115497 -2.69461888 51.94719653 -2.44768891 57.125 0 C62.59140429 5.06642349 66.57709437 9.74960598 67.05859375 17.44921875 C67.09846157 18.98662164 67.11989543 20.52458875 67.125 22.0625 C67.12886719 22.86179932 67.13273437 23.66109863 67.13671875 24.48461914 C67.02341489 30.30029395 65.9424518 34.54845092 62.78125 39.52734375 C61.43279831 41.44741066 61.43279831 41.44741066 61.6875 44.375 C63.63732535 45.78068804 65.64700578 47.1045036 67.6875 48.375 C71.92365177 51.29996193 74.90401807 54.50142104 76.6875 59.375 C77.4347 63.7751778 77.38222096 67.13029161 75.1875 71.0625 C70.16729663 75.70618812 64.99503225 79.47971894 58.79296875 82.3828125 C57.33912522 83.06792615 55.90457053 83.79497282 54.48828125 84.5546875 C47.82123846 88.10309705 40.87740975 90.45541401 33.70019531 92.73242188 C30.24886331 93.83430274 26.81245253 94.98071155 23.375 96.125 C22.14136719 96.53234375 20.90773437 96.9396875 19.63671875 97.359375 C16.80011305 98.26385455 16.80011305 98.26385455 14.6875 99.375 C0.37188291 101.37120159 -13.66905963 91.66968553 -25.3125 84.375 C-27.6875 82.25 -27.6875 82.25 -30.3125 79.375 C-30.92996094 78.71242188 -31.54742187 78.04984375 -32.18359375 77.3671875 C-35.4163349 73.63359913 -37.77524576 70.75154019 -37.9375 65.6875 C-37.35181669 59.07272379 -33.96741271 53.98052372 -29.3125 49.375 C-27.04293009 47.57727415 -24.72550777 45.98367185 -22.3125 44.375 C-22.94888352 41.13456438 -24.17220321 38.87138702 -25.875 36.0625 C-29.62837579 28.6542335 -29.86654075 20.25912807 -27.35546875 12.3671875 C-24.73007528 6.78301727 -21.4935761 2.28364566 -16.125 -0.9375 C-10.45604381 -2.32324485 -5.29986043 -2.59993153 0 0 Z " fill="#FABE3A" transform="translate(228.3125,103.625)"/>
<path d="M0 0 C0.99 0.495 0.99 0.495 2 1 C2 1.66 2 2.32 2 3 C2.99 3.495 2.99 3.495 4 4 C3.67 4.99 3.34 5.98 3 7 C2.24175022 11.29100443 2.21284899 14.65783367 4.45703125 18.484375 C6.71215778 21.3899275 9.01897007 24.10494797 11.73828125 26.5859375 C13 28 13 28 12.875 30.75 C10.814758 38.40232741 6.84766002 45.15308092 3.0625 52.0625 C2.48983398 53.11598633 1.91716797 54.16947266 1.32714844 55.25488281 C-1.49295754 60.43773838 -4.33350265 65.60829204 -7.20703125 70.76171875 C-13.78309694 82.59466796 -19.67921174 94.55212551 -25 107 C-25.71929687 108.65902344 -25.71929687 108.65902344 -26.453125 110.3515625 C-29.63532226 117.8236839 -32.46198467 125.42993057 -35.27416992 133.04711914 C-35.7818141 134.41296032 -36.29550043 135.77656413 -36.8137207 137.13842773 C-38.24298969 140.89722798 -39.47242037 144.58690531 -40.39453125 148.50390625 C-41.24691647 152.01793307 -42.1887739 155.50761147 -43.125 159 C-43.30796631 159.68392822 -43.49093262 160.36785645 -43.67944336 161.07250977 C-44.11907704 162.71515431 -44.55945996 164.3575983 -45 166 C-46.01191406 165.67257812 -47.02382812 165.34515625 -48.06640625 165.0078125 C-51.74631047 163.9564113 -55.09959599 163.79586796 -58.9375 163.875 C-60.08089844 163.89304687 -61.22429687 163.91109375 -62.40234375 163.9296875 C-63.25957031 163.95289063 -64.11679688 163.97609375 -65 164 C-64.38952966 157.95079387 -63.18576683 152.33672303 -61.5 146.5 C-61.24226807 145.60289307 -60.98453613 144.70578613 -60.71899414 143.78149414 C-54.90494135 124.12590679 -46.93162455 105.07687873 -38.28833008 86.51635742 C-37.43101384 84.67355801 -36.57960126 82.82810573 -35.72851562 80.98242188 C-33.0279146 75.16744353 -30.2791462 69.50788827 -27 64 C-26.20624822 62.57943295 -25.41751874 61.1560524 -24.6328125 59.73046875 C-24.22530762 58.99256104 -23.81780273 58.25465332 -23.39794922 57.49438477 C-22.52679983 55.91565623 -21.65605076 54.33670675 -20.78564453 52.75756836 C-18.5843114 48.78282707 -16.33356614 44.88543526 -13.875 41.0625 C-6.16583257 28.27977793 -1.81211564 14.74231579 0 0 Z " fill="#444444" transform="translate(189,158)"/>
<path d="M0 0 C0 10.89 0 21.78 0 33 C-7.41339844 33.03867187 -7.41339844 33.03867187 -14.9765625 33.078125 C-18.15759978 33.10337011 -21.33854906 33.12976131 -24.51953125 33.16015625 C-29.53922533 33.20801524 -34.55871504 33.25223267 -39.57861328 33.27099609 C-69.48686403 32.90298622 -69.48686403 32.90298622 -98.38525391 39.63378906 C-102 41 -102 41 -105 41 C-104.731875 40.34 -104.46375 39.68 -104.1875 39 C-103.795625 38.01 -103.40375 37.02 -103 36 C-102.484375 34.865625 -101.96875 33.73125 -101.4375 32.5625 C-99.93718101 28.63479364 -99.66570808 24.89859233 -99.41015625 20.71484375 C-99.33031494 19.45663818 -99.25047363 18.19843262 -99.16821289 16.90209961 C-99.11270264 15.94440674 -99.05719238 14.98671387 -99 14 C-98.08114014 14.01571045 -97.16228027 14.0314209 -96.21557617 14.04760742 C-50.05924974 15.07749654 -50.05924974 15.07749654 -6.44921875 1.77734375 C-3 0 -3 0 0 0 Z " fill="#2D2C2B" transform="translate(315,408)"/>
<path d="M0 0 C4.8524659 4.28822568 9.35725729 8.7634701 9.84375 15.55688477 C9.88414384 18.10346373 9.86187067 20.64111263 9.8125 23.1875 C9.80347656 24.07115234 9.79445312 24.95480469 9.78515625 25.86523438 C9.76169637 28.03527359 9.72582865 30.20517247 9.6875 32.375 C6.3875 33.035 3.0875 33.695 -0.3125 34.375 C-0.34988281 33.65054688 -0.38726562 32.92609375 -0.42578125 32.1796875 C-0.8750019 25.57350143 -1.42257397 20.26492603 -6.3125 15.375 C-8.72667872 14.79097867 -8.72667872 14.79097867 -11.3125 15.375 C-15.59023218 19.65273218 -16.45374712 23.31338456 -16.5 29.1875 C-16.46716117 33.62074156 -15.76451347 37.20046128 -14.3125 41.375 C-16.2925 42.035 -18.2725 42.695 -20.3125 43.375 C-27.35581735 35.57024294 -28.95008186 29.68608374 -28.73046875 19.11328125 C-27.87469422 11.45929784 -24.34746132 5.20296905 -18.3125 0.375 C-12.79298011 -2.93671194 -5.64627028 -2.76986844 0 0 Z " fill="#F8F8F8" transform="translate(228.3125,103.625)"/>
<path d="M0 0 C5.40993977 2.55742608 9.35687153 6.82905033 12.11328125 12.1484375 C14.66115228 20.34203155 14.43840638 31.28352693 10.6875 39 C8.95135837 42.00305579 7.97095572 43.01936285 5 45 C3.68 44.34 2.36 43.68 1 43 C1.165 42.2575 1.33 41.515 1.5 40.75 C2.52417318 33.06870114 3.57600742 24.64259142 -1 18 C-4.38875038 16.50391566 -4.38875038 16.50391566 -8 17 C-12.41761003 21.30135713 -13.15153391 24.63663697 -13.5625 30.625 C-13.64628906 31.81351563 -13.73007812 33.00203125 -13.81640625 34.2265625 C-13.87699219 35.14179688 -13.93757813 36.05703125 -14 37 C-15.46239815 36.79839367 -16.92011565 36.56262996 -18.375 36.3125 C-19.18710937 36.18488281 -19.99921875 36.05726563 -20.8359375 35.92578125 C-23 35 -23 35 -24.26171875 32.8046875 C-26.12246158 25.73583379 -26.04724254 18.32482956 -23 11.625 C-17.36746453 2.02301752 -11.31955626 -1.99569046 0 0 Z " fill="#F8F7F7" transform="translate(282,102)"/>
<path d="M0 0 C2.31123583 0.02685213 4.61761936 0.00007471 6.92871094 -0.03173828 C24.7631011 -0.07360305 41.02575271 5.96137971 54.15917969 18.38232422 C69.81621616 34.89183092 77.80534675 58.01195253 78.31152344 80.65185547 C77.98152344 80.65185547 77.65152344 80.65185547 77.31152344 80.65185547 C77.09238281 79.70568359 76.87324219 78.75951172 76.64746094 77.78466797 C72.48724029 60.26015899 67.81887891 42.86682399 56.31152344 28.65185547 C55.38919922 27.42402344 55.38919922 27.42402344 54.44824219 26.17138672 C44.62200822 14.58469402 29.03522048 8.55549136 14.31152344 6.65185547 C-6.41087396 5.50192838 -24.76411531 6.31072398 -41.22509766 20.26586914 C-54.21543036 32.56919225 -58.1133129 52.77269368 -60.68847656 69.65185547 C-60.82382813 70.52358398 -60.95917969 71.3953125 -61.09863281 72.29345703 C-61.99278727 78.07525311 -62.85195372 83.8614562 -63.68847656 89.65185547 C-64.01847656 89.65185547 -64.34847656 89.65185547 -64.68847656 89.65185547 C-64.36660219 65.8916747 -61.67905578 40.5384645 -47.68847656 20.65185547 C-47.13160156 19.82685547 -46.57472656 19.00185547 -46.00097656 18.15185547 C-45.56785156 17.65685547 -45.13472656 17.16185547 -44.68847656 16.65185547 C-44.02847656 16.65185547 -43.36847656 16.65185547 -42.68847656 16.65185547 C-42.44484375 16.06275391 -42.20121094 15.47365234 -41.95019531 14.86669922 C-37.67066795 7.35434004 -27.77190152 4.08304144 -19.94897461 1.68383789 C-13.38219162 -0.07986888 -6.75865288 -0.09303525 0 0 Z " fill="#626262" transform="translate(254.6884765625,49.34814453125)"/>
<path d="M0 0 C2 2 2 2 3.5625 5.25 C7.88432931 12.83686093 16.06486252 15.87457194 24.109375 18.12890625 C35.0320186 20.5744379 46.15372694 21.80854484 57.30151367 22.66308594 C66.79622506 23.40871242 74.30292635 24.9347956 83 29 C88.99194211 31.54609681 95.0447456 33.72757439 101.25 35.6875 C101.92393799 35.90212891 102.59787598 36.11675781 103.29223633 36.33789062 C112.95937912 39.33263584 127.11780063 41.8220499 136.75 37.375 C140.24368715 35.19732056 142.50366868 32.23054641 145 29 C145.66 29 146.32 29 147 29 C147.33 28.34 147.66 27.68 148 27 C147.41604644 33.228838 143.85353482 38.27886053 139.375 42.4375 C131.44266723 47.65613998 117.3546166 46.12683953 108.38134766 44.53564453 C102.7545436 43.15642589 97.37242266 41.14896907 92 39 C91.14180664 38.65775391 90.28361328 38.31550781 89.39941406 37.96289062 C82.14237127 35.05158884 82.14237127 35.05158884 79.02270508 33.71679688 C69.96799907 29.91383925 61.10934559 28.8276851 51.36572266 28.01220703 C14.85557979 24.94548416 14.85557979 24.94548416 4.4609375 14.4453125 C0.78910465 9.99398441 0.14134215 5.66653547 0 0 Z " fill="#E7AF32" transform="translate(66,412)"/>
<path d="M0 0 C0.66 0 1.32 0 2 0 C1.55996058 5.50049276 0.44152761 8.68407775 -3 13 C-5.4059237 14.56933152 -7.55278503 15.79936069 -10.125 17 C-10.81932129 17.33684814 -11.51364258 17.67369629 -12.22900391 18.02075195 C-18.2234351 20.83643946 -24.39142891 22.91243796 -30.68994141 24.9284668 C-41.52444927 28.41124025 -48.75792344 33.11096131 -57 41 C-70.54149467 53.47842406 -83.70988723 60.34734194 -102.3125 60.4375 C-103.49779297 60.47037109 -104.68308594 60.50324219 -105.90429688 60.53710938 C-113.4471496 60.58312789 -118.97487695 59.73775857 -125 55 C-131.95911081 48.04445933 -131.95911081 48.04445933 -132.0625 42.875 C-132.041875 41.92625 -132.02125 40.9775 -132 40 C-130 41 -130 41 -128.375 44.25 C-125.23712406 49.90979845 -120.28628256 52.17220804 -114.375 54.3125 C-99.53491555 57.37984029 -84.16572282 54.12018006 -71.3203125 46.38671875 C-66.29658879 42.90588942 -61.8796275 38.98254511 -57.4987793 34.74414062 C-46.95294175 24.56397012 -36.59241406 19.89258088 -22.64794922 15.62133789 C-14.37444035 13.03226936 -5.17203282 9.70965907 -0.75 1.75 C-0.37875 0.88375 -0.37875 0.88375 0 0 Z " fill="#E5A517" transform="translate(447,397)"/>
<path d="M0 0 C0.66 0.33 1.32 0.66 2 1 C2 1.66 2 2.32 2 3 C2.99 3.495 2.99 3.495 4 4 C3.34 7.3 2.68 10.6 2 14 C1.34 14 0.68 14 0 14 C-0.226875 15.216875 -0.45375 16.43375 -0.6875 17.6875 C-3.38179706 29.62434703 -9.01213441 40.28145821 -14.8125 50.9375 C-15.49350016 52.20472279 -16.17384045 53.47230043 -16.85351562 54.74023438 C-20.85653147 62.18240876 -24.98998758 69.54155558 -29.22045898 76.85668945 C-33.33441257 84.12341361 -36.94739757 91.53993004 -39.9453125 99.33203125 C-41.17626969 102.44589704 -42.52615571 105.49789782 -43.875 108.5625 C-46.50068707 114.63814046 -48.77314843 120.78697743 -50.90771484 127.05102539 C-52.00829595 130.26689412 -53.16374798 133.38094738 -54.5078125 136.5078125 C-56.11396682 140.26671816 -57.42582483 144.05337009 -58.6875 147.9375 C-58.91244141 148.62134766 -59.13738281 149.30519531 -59.36914062 150.00976562 C-59.91555523 151.67226111 -60.45818291 153.33600048 -61 155 C-61.33 155 -61.66 155 -62 155 C-61.07682548 143.73727082 -57.64203028 133.57327687 -53.625 123.0625 C-53.25117188 122.06798828 -52.87734375 121.07347656 -52.4921875 120.04882812 C-48.18598144 108.67130082 -43.42373681 97.54407681 -38.28833008 86.51635742 C-37.43101384 84.67355801 -36.57960126 82.82810573 -35.72851562 80.98242188 C-33.0279146 75.16744353 -30.2791462 69.50788827 -27 64 C-26.20624822 62.57943295 -25.41751874 61.1560524 -24.6328125 59.73046875 C-24.22530762 58.99256104 -23.81780273 58.25465332 -23.39794922 57.49438477 C-22.52679983 55.91565623 -21.65605076 54.33670675 -20.78564453 52.75756836 C-18.5843114 48.78282707 -16.33356614 44.88543526 -13.875 41.0625 C-6.16583257 28.27977793 -1.81211564 14.74231579 0 0 Z " fill="#626262" transform="translate(189,158)"/>
<path d="M0 0 C2.04912029 2.04912029 2.60188499 3.20941909 3.5625 5.875 C3.81128906 6.55304688 4.06007813 7.23109375 4.31640625 7.9296875 C4.97936586 9.93750802 5.5156191 11.94253445 6 14 C6.66 14 7.32 14 8 14 C9.05078125 15.4765625 9.05078125 15.4765625 10.3125 17.625 C14.14673765 23.61362365 18.99418706 28.54218172 23.87890625 33.66796875 C32 42.25398199 32 42.25398199 32 45 C32.99 45.33 33.98 45.66 35 46 C36.47265625 47.609375 36.47265625 47.609375 38.0625 49.75 C38.66835938 50.55695313 39.27421875 51.36390625 39.8984375 52.1953125 C40.59195313 53.12085938 41.28546875 54.04640625 42 55 C42.84386101 56.08267701 43.69033647 57.16332003 44.5390625 58.2421875 C45.19636353 59.08185059 45.19636353 59.08185059 45.86694336 59.93847656 C46.7244773 61.03365949 47.58452633 62.12687944 48.44750977 63.21777344 C51.37447548 66.98611737 53.69066646 70.84221902 56 75 C56.74109239 76.13088774 57.48955568 77.25703335 58.25 78.375 C60.91216451 82.60950543 63.08522035 87.06010592 65.25 91.5625 C65.60352539 92.2829248 65.95705078 93.00334961 66.32128906 93.74560547 C68.43330522 98.22058055 69.55913895 102.06624619 70 107 C69.01 107.495 69.01 107.495 68 108 C67.59910156 106.94683594 67.19820313 105.89367187 66.78515625 104.80859375 C62.77716992 94.53610439 58.08005357 85.19636239 52 76 C51.61473145 75.41653809 51.22946289 74.83307617 50.83251953 74.23193359 C43.15711586 62.76518101 34.1196943 52.47770621 24.73071289 42.39404297 C-0.5175577 15.26795215 -0.5175577 15.26795215 0 0 Z " fill="#515151" transform="translate(334,172)"/>
<path d="M0 0 C0.33 0 0.66 0 1 0 C1 4.29 1 8.58 1 13 C-6.9113502 17.17658026 -14.41558948 20.42099089 -23.0625 22.6875 C-24.18245361 22.98148682 -25.30240723 23.27547363 -26.45629883 23.57836914 C-48.32829202 29.03760645 -77.53877827 33.19979107 -100 28 C-100 26.68 -100 25.36 -100 24 C-99.04561035 24.01571045 -98.0912207 24.0314209 -97.10791016 24.04760742 C-65.30446478 24.5234325 -34.72721849 23.34226153 -5 11 C-4.20722656 10.70609375 -3.41445313 10.4121875 -2.59765625 10.109375 C-0.7800866 9.09832444 -0.7800866 9.09832444 -0.390625 6.8359375 C-0.34421875 6.02382813 -0.2978125 5.21171875 -0.25 4.375 C-0.16492188 3.14910156 -0.16492188 3.14910156 -0.078125 1.8984375 C-0.05234375 1.27195312 -0.0265625 0.64546875 0 0 Z " fill="#E2E1DE" transform="translate(315,394)"/>
<path d="M0 0 C4.25441511 1.32033572 4.25441511 1.32033572 6.0625 4.4375 C8.62203497 10.52326127 8.81902876 17.78445389 6.6015625 23.98828125 C6.27929688 24.69339844 5.95703125 25.39851563 5.625 26.125 C1.96327525 25.49821829 -1.2568995 24.48048154 -4.6875 23.0625 C-5.57050781 22.70027344 -6.45351563 22.33804688 -7.36328125 21.96484375 C-8.02714844 21.68769531 -8.69101562 21.41054687 -9.375 21.125 C-10.06394389 8.22643931 -10.06394389 8.22643931 -7.5 4.4375 C-3.54287565 0.13121762 -3.54287565 0.13121762 0 0 Z " fill="#2E2E2D" transform="translate(277.375,117.875)"/>
<path d="M0 0 C4.00730874 0.85870902 5.32763582 3.30790075 7.625 6.5625 C8.56242541 9.37477622 8.75970844 11.14996844 8.75 14.0625 C8.75386719 15.22265625 8.75386719 15.22265625 8.7578125 16.40625 C8.625 18.5625 8.625 18.5625 7.625 21.5625 C4.68359375 22.94921875 4.68359375 22.94921875 1.0625 24.25 C-0.73380859 24.90548828 -0.73380859 24.90548828 -2.56640625 25.57421875 C-3.95666016 26.06341797 -3.95666016 26.06341797 -5.375 26.5625 C-8.7083857 20.4865668 -9.65651795 15.23524572 -7.80078125 8.46875 C-6.08825454 4.19196373 -4.60177951 1.08989515 0 0 Z " fill="#343433" transform="translate(219.375,117.4375)"/>
<path d="M0 0 C6.54124976 0.10141473 12.83717747 3.35926791 17.64453125 7.6953125 C22.11303058 12.57647008 26.20706777 17.63662923 27.125 24.3125 C24.64113013 21.90875497 22.29261738 19.51262113 20.0703125 16.859375 C14.73349366 10.5438316 11.00763567 6.96188186 2.71875 6.046875 C-3.09282633 5.7957575 -8.76960079 6.36444922 -13.875 9.3125 C-17.60818108 13.00571126 -20.30355718 17.28388297 -21.875 22.3125 C-23.41547279 17.87471416 -22.0953976 15.033582 -20.3046875 10.859375 C-17.95703448 6.67721716 -14.94983003 3.81418473 -10.875 1.3125 C-7.17156369 0.32050813 -3.81473798 0.30764016 0 0 Z " fill="#F5C760" transform="translate(132.875,320.6875)"/>
<path d="M0 0 C-0.65429688 2.3984375 -0.65429688 2.3984375 -2 5 C-4.45507812 6.0390625 -4.45507812 6.0390625 -7.53125 6.625 C-8.65273437 6.85703125 -9.77421875 7.0890625 -10.9296875 7.328125 C-12.10789062 7.54984375 -13.28609375 7.7715625 -14.5 8 C-24.38216954 9.90981254 -32.58184548 12.38789699 -41 18 C-40.92207925 15.35069456 -40.44369444 13.5472698 -38.76171875 11.47265625 C-29.1145739 2.42414091 -12.79110111 -0.32797695 0 0 Z " fill="#FDCE5E" transform="translate(109,349)"/>
<path d="M0 0 C0.66 0.33 1.32 0.66 2 1 C2 1.66 2 2.32 2 3 C2.66 3.33 3.32 3.66 4 4 C3.34 7.3 2.68 10.6 2 14 C1.34 14 0.68 14 0 14 C-0.226875 15.216875 -0.45375 16.43375 -0.6875 17.6875 C-2.10266671 24.05073185 -4.50360839 29.99353048 -7 36 C-7.34289062 36.83789062 -7.68578125 37.67578125 -8.0390625 38.5390625 C-9.53073692 41.87410694 -10.49200688 43.72291284 -13.75 45.5 C-14.86375 45.7475 -14.86375 45.7475 -16 46 C-14.74315421 42.74933976 -13.35714505 39.65357565 -11.75 36.5625 C-10.82717546 34.71139042 -9.91104366 32.85693599 -9 31 C-8.48695313 29.95585937 -7.97390625 28.91171875 -7.4453125 27.8359375 C-3.21988029 18.6913454 -1.37018696 9.92784586 0 0 Z " fill="#616161" transform="translate(189,158)"/>
<path d="M0 0 C-0.1868335 0.60585937 -0.37366699 1.21171875 -0.56616211 1.8359375 C-4.71149154 15.44004798 -8.23202686 29.10417674 -9.36743164 43.31445312 C-9.67273225 46.95937723 -10.02480319 49.87057296 -12 53 C-11.84435665 41.51069096 -10.59360864 30.43939661 -8.5625 19.125 C-8.34505127 17.9071582 -8.12760254 16.68931641 -7.90356445 15.43457031 C-5.99265312 5.17123142 -5.99265312 5.17123142 -4 1 C-2 0 -2 0 0 0 Z " fill="#5B5B5B" transform="translate(202,86)"/>
<path d="M0 0 C5.93250702 7.41668788 7.85411056 16.62826779 9.75 25.75 C9.97042969 26.75160156 10.19085938 27.75320312 10.41796875 28.78515625 C11.44245366 33.58941777 12.30264787 38.05675151 12 43 C11.67 43 11.34 43 11 43 C10.78085937 42.05382812 10.56171875 41.10765625 10.3359375 40.1328125 C8.14179872 30.90042447 5.44555518 21.93595402 2.3671875 12.9609375 C2.13612305 12.28514648 1.90505859 11.60935547 1.66699219 10.91308594 C1.05405969 9.15505554 0.40750768 7.40884137 -0.2421875 5.6640625 C-1 3 -1 3 0 0 Z " fill="#585858" transform="translate(321,87)"/>
<path d="M0 0 C2.71706122 2.6053206 4.95535092 5.24337328 7.125 8.3125 C10.43833173 12.65189575 14.0779656 15.45020571 18.62109375 18.42578125 C21.6235508 20.41262886 24.28447928 22.64178464 27 25 C26.01 25.33 25.02 25.66 24 26 C21.65280405 24.69668053 19.59665529 23.38295217 17.4375 21.8125 C16.8192334 21.36632324 16.2009668 20.92014648 15.56396484 20.46044922 C9.43680673 15.86072333 4.12872021 10.4879889 0 4 C0 2.68 0 1.36 0 0 Z " fill="#F5C967" transform="translate(172,366)"/>
<path d="M0 0 C0.99 0.33 1.98 0.66 3 1 C1.40687496 7.24821382 -0.3755744 13.09504239 -3 19 C-4.05215762 21.98351544 -5.03658591 24.9867687 -6 28 C-6.33 28 -6.66 28 -7 28 C-6.19279381 18.15208443 -3.63149234 9.16519496 0 0 Z " fill="#555555" transform="translate(134,285)"/>
<path d="M0 0 C0.66 0.33 1.32 0.66 2 1 C2 1.66 2 2.32 2 3 C2.66 3.33 3.32 3.66 4 4 C3.34 7.3 2.68 10.6 2 14 C0.68 14 -0.64 14 -2 14 C-1.34 9.38 -0.68 4.76 0 0 Z " fill="#666156" transform="translate(189,158)"/>
<path d="M0 0 C0.99 0.33 1.98 0.66 3 1 C0.66666667 5.66666667 -1.66666667 10.33333333 -4 15 C-5.3480932 11.339671 -4.6336844 9.33449773 -3.125 5.8125 C-2.75632812 4.93207031 -2.38765625 4.05164063 -2.0078125 3.14453125 C-1 1 -1 1 0 0 Z " fill="#FDCD5A" transform="translate(115,328)"/>
<path d="M0 0 C2.81158409 2.49824489 4.44837831 5.278476 6.25 8.5625 C6.79140625 9.53316406 7.3328125 10.50382812 7.890625 11.50390625 C8.25671875 12.32761719 8.6228125 13.15132813 9 14 C8.67 14.66 8.34 15.32 8 16 C0 4 0 4 0 0 Z " fill="#F1CB75" transform="translate(160,345)"/>
<path d="M0 0 C0.66 0.33 1.32 0.66 2 1 C0.35 5.95 -1.3 10.9 -3 16 C-3.33 16 -3.66 16 -4 16 C-2.89320388 2.89320388 -2.89320388 2.89320388 0 0 Z " fill="#5D5D5D" transform="translate(131,297)"/>
<path d="M0 0 C1.90318884 2.85478326 2.4619099 4.41941308 3.125 7.6875 C3.29257812 8.49574219 3.46015625 9.30398438 3.6328125 10.13671875 C3.75398438 10.75160156 3.87515625 11.36648438 4 12 C3.01 12.495 3.01 12.495 2 13 C1.27249212 11.59308393 0.56859647 10.17393978 -0.125 8.75 C-0.51945312 7.96109375 -0.91390625 7.1721875 -1.3203125 6.359375 C-2 4 -2 4 -1.1171875 1.703125 C-0.74851562 1.14109375 -0.37984375 0.5790625 0 0 Z " fill="#464646" transform="translate(400,267)"/>
<path d="M0 0 C0.33 0 0.66 0 1 0 C3.0230476 4.93117852 3.71869817 9.71545462 3 15 C2.34 15.66 1.68 16.32 1 17 C0.67 11.39 0.34 5.78 0 0 Z " fill="#454545" transform="translate(331,125)"/>
<path d="M0 0 C3.53586014 3.17320782 5.58578031 5.16743695 6 10 C3.03595495 7.19195732 0.55500981 4.81684226 -1 1 C-0.67 0.67 -0.34 0.34 0 0 Z " fill="#F4CC75" transform="translate(154,335)"/>
<path d="M0 0 C0.66 0.33 1.32 0.66 2 1 C1.8125 3.375 1.8125 3.375 1 6 C-1.5625 7.3125 -1.5625 7.3125 -4 8 C-2.87548273 5.0280615 -1.77706209 2.66559313 0 0 Z " fill="#585858" transform="translate(177,196)"/>
<path d="M0 0 C0.66 0 1.32 0 2 0 C2 2.64 2 5.28 2 8 C1.01 8 0.02 8 -1 8 C-0.67 5.36 -0.34 2.72 0 0 Z " fill="#505050" transform="translate(125,314)"/>
<path d="M0 0 C0.66 0.33 1.32 0.66 2 1 C2 1.66 2 2.32 2 3 C2.66 3.33 3.32 3.66 4 4 C3.67 4.99 3.34 5.98 3 7 C1.68 6.67 0.36 6.34 -1 6 C-0.67 4.02 -0.34 2.04 0 0 Z " fill="#58554D" transform="translate(189,158)"/>
<path d="M0 0 C0.33 0.99 0.66 1.98 1 3 C-0.4375 5.6875 -0.4375 5.6875 -2 8 C-2.93423645 4.98968256 -3.04449911 4.13349732 -2 1 C-1.34 0.67 -0.68 0.34 0 0 Z " fill="#5B5B5B" transform="translate(138,279)"/>
</svg>
