<?xml version="1.0" encoding="UTF-8"?>
<svg version="1.1" xmlns="http://www.w3.org/2000/svg" width="512" height="512">
<path d="M0 0 C3 1 3 1 4.61328125 3.84375 C5.18697524 5.0590865 5.75294395 6.27808976 6.3125 7.5 C11.23796318 17.69567018 16.95023183 25.27513185 25.09765625 33.10546875 C27.9705204 35.91114263 30.54677823 38.81756369 33 42 C33 42.66 33 43.32 33 44 C33.66 44 34.32 44 35 44 C36.515625 45.87109375 36.515625 45.87109375 38.25 48.4375 C38.87519531 49.35917969 39.50039063 50.28085938 40.14453125 51.23046875 C40.75683594 52.14441406 41.36914062 53.05835938 42 54 C42.74830078 55.07701172 42.74830078 55.07701172 43.51171875 56.17578125 C64.38716467 86.54526559 77.21263848 122.94808018 77.25 159.875 C77.25100708 160.56530304 77.25201416 161.25560608 77.25305176 161.96682739 C77.24226353 172.91354607 76.49376114 183.32233757 74 194 C73.70663171 195.36970615 73.41366666 196.73949873 73.12109375 198.109375 C69.03924806 216.41008592 61.04398654 234.80057408 50 250 C49.40703125 250.85722656 48.8140625 251.71445312 48.203125 252.59765625 C39.6126215 264.81335223 29.5185045 275.17143417 17.7421875 284.3046875 C12.46858245 289.48814545 11.55302701 294.95155906 11.48828125 302.12109375 C11.47033005 302.86585464 11.45237885 303.61061554 11.43388367 304.37794495 C11.3801769 306.73107423 11.34601457 309.08400544 11.3125 311.4375 C11.27929171 313.04364713 11.24479885 314.64976824 11.20898438 316.25585938 C11.12447426 320.17042899 11.05747629 324.08494394 11 328 C9.741875 327.87625 8.48375 327.7525 7.1875 327.625 C6.47980469 327.55539062 5.77210938 327.48578125 5.04296875 327.4140625 C3 327 3 327 0 325 C-0.36889648 323.08325195 -0.36889648 323.08325195 -0.37109375 320.73828125 C-0.38567627 319.87323975 -0.40025879 319.00819824 -0.4152832 318.11694336 C-0.42261475 317.19147705 -0.42994629 316.26601074 -0.4375 315.3125 C-0.65979202 300.11913589 -0.65979202 300.11913589 -6.921875 286.78125 C-7.60765625 286.1934375 -8.2934375 285.605625 -9 285 C-9.57621094 284.49597656 -10.15242188 283.99195313 -10.74609375 283.47265625 C-11.30425781 283.00730469 -11.86242187 282.54195313 -12.4375 282.0625 C-15.44544432 279.50991612 -18.24516513 276.82733053 -21 274 C-21.78375 273.236875 -22.5675 272.47375 -23.375 271.6875 C-26.12358956 268.87346783 -28.69430566 265.95005922 -31.25390625 262.96484375 C-32.96996296 260.98024877 -32.96996296 260.98024877 -34.87109375 259.2109375 C-61.90382559 231.13657746 -72.56680457 190.47529049 -72.22265625 152.5859375 C-72.02421348 144.02668902 -70.90681149 135.69507828 -69.40576172 127.27636719 C-69.03960896 125.22221057 -68.70718991 123.16211026 -68.37890625 121.1015625 C-66.44582006 110.03134222 -62.75688362 99.56354863 -59 89 C-58.75958984 88.31502441 -58.51917969 87.63004883 -58.27148438 86.92431641 C-56.14229668 80.89946892 -53.89646662 75.33925234 -50.3203125 70.03125 C-48.70869853 67.5518439 -47.33222456 64.9822238 -45.9375 62.375 C-42.19504726 55.45193858 -37.77687842 49.23240989 -33 43 C-32.57702637 42.44086914 -32.15405273 41.88173828 -31.71826172 41.30566406 C-30.27862831 39.40576684 -28.82778771 37.51485214 -27.375 35.625 C-26.90763428 35.00560547 -26.44026855 34.38621094 -25.95874023 33.74804688 C-23.51592687 30.59580541 -21.58335119 28.67431693 -18 27 C-17.30251417 25.68252676 -16.6370622 24.34772919 -16 23 C-14.30078125 21.39453125 -14.30078125 21.39453125 -12.3125 19.8125 C-7.05458482 15.33175841 -1.10306443 10.09138043 -0.0625 2.9375 C-0.041875 1.968125 -0.02125 0.99875 0 0 Z " fill="#4EA940" transform="translate(254,49)"/>
<path d="M0 0 C5.58672194 -0.07436251 11.17315339 -0.12870254 16.76025391 -0.16479492 C18.65939353 -0.17984691 20.55849859 -0.20029316 22.45751953 -0.22631836 C25.19312081 -0.26285992 27.928261 -0.27976238 30.6640625 -0.29296875 C31.50804596 -0.30845261 32.35202942 -0.32393646 33.22158813 -0.33988953 C38.23981253 -0.34131023 41.65303276 0.2132169 46 3 C50.55365071 8.04593727 51.5 11.38589521 51.5 18.08984375 C50.66057403 22.97556524 47.60079401 25.79419104 44 29 C45.051875 29.33 46.10375 29.66 47.1875 30 C51.12437877 31.72038402 53.05616095 33.96379196 55.11328125 37.6953125 C57.04950751 42.72779486 56.81137166 47.27165133 55.2890625 52.390625 C52.40700148 58.76149672 47.36562905 62.60596179 41.02355957 65.35983276 C33.83927333 67.63263201 25.67702597 66.68168882 18.25 66.4375 C16.37766297 66.40231667 14.50526177 66.37039012 12.6328125 66.34179688 C8.08693133 66.26538148 3.54418957 66.14499343 -1 66 C-0.67 64.35 -0.34 62.7 0 61 C1.134375 60.71125 2.26875 60.4225 3.4375 60.125 C4.613125 59.75375 5.78875 59.3825 7 59 C8.21618998 56.56762005 8.12688905 55.00860217 8.12939453 52.29077148 C8.13254669 51.31313339 8.13569885 50.3354953 8.13894653 49.32823181 C8.1369223 48.26987625 8.13489807 47.21152069 8.1328125 46.12109375 C8.13376923 45.03868912 8.13472595 43.95628448 8.13571167 42.84107971 C8.13639298 40.55038393 8.13454211 38.25968623 8.13037109 35.96899414 C8.12501701 32.44868672 8.13032044 28.92850659 8.13671875 25.40820312 C8.13605806 23.18749972 8.13477709 20.96679639 8.1328125 18.74609375 C8.13584885 17.15552406 8.13584885 17.15552406 8.13894653 15.53282166 C8.13421829 14.07109276 8.13421829 14.07109276 8.12939453 12.57983398 C8.12859894 11.71760727 8.12780334 10.85538055 8.12698364 9.96702576 C8.21711433 7.99708611 8.21711433 7.99708611 7 7 C4.67182036 6.63239269 2.3381615 6.29758419 0 6 C-1.125 2.25 -1.125 2.25 0 0 Z M21 6 C21 12.93 21 19.86 21 27 C27.88794803 27.98399258 31.67017223 28.21988518 37.4375 24.375 C39.274459 21.58282232 39.62718767 19.36330679 39.453125 16.03125 C38.62164589 12.30392987 36.78320285 10.59765599 34 8 C29.4280536 5.28154539 26.85746028 6 21 6 Z M21 34 C20.97099545 37.6041498 20.95319982 41.20826962 20.9375 44.8125 C20.92912109 45.83666016 20.92074219 46.86082031 20.91210938 47.91601562 C20.90888672 48.89892578 20.90566406 49.88183594 20.90234375 50.89453125 C20.89710693 51.80050049 20.89187012 52.70646973 20.88647461 53.63989258 C20.90079019 56.15284039 20.90079019 56.15284039 22 59 C25.92533048 60.96266524 30.71067672 60.34140779 35 60 C38.26269829 58.70851526 39.5619688 57.51355382 41.8125 54.875 C43.49358748 50.80499873 43.77840233 47.33681301 43 43 C41.17448145 38.70800306 39.06493921 36.4802667 34.8125 34.5625 C31.67622996 34.09977163 28.91126318 33.94159035 25.76171875 33.96484375 C24.42113403 33.97245728 24.42113403 33.97245728 23.0534668 33.98022461 C22.37582275 33.98675049 21.69817871 33.99327637 21 34 Z " fill="#4EA940" transform="translate(412,376)"/>
<path d="M0 0 C0.86212601 -0.01929062 1.72425201 -0.03858124 2.61250305 -0.05845642 C6.60442021 -0.11637774 10.59615181 -0.16560108 14.58837891 -0.19628906 C16.68229804 -0.21773621 18.77613083 -0.25167801 20.86962891 -0.29882812 C34.574981 -0.60464913 45.06286141 -0.77813611 55.79760742 8.73608398 C56.67545898 9.92911133 56.67545898 9.92911133 57.57104492 11.14624023 C58.18206055 11.93901367 58.79307617 12.73178711 59.42260742 13.54858398 C62.83484509 19.50687591 63.30584967 25.38905998 63.25854492 32.08374023 C63.25334839 33.27410889 63.25334839 33.27410889 63.24804688 34.48852539 C63.11496099 41.64575171 62.28690549 48.86787966 56.94604492 54.20874023 C56.28604492 54.20874023 55.62604492 54.20874023 54.94604492 54.20874023 C54.56512695 55.11946289 54.56512695 55.11946289 54.17651367 56.04858398 C52.78310865 58.4947839 51.65644596 59.34380602 49.25854492 60.77124023 C48.29368164 61.36098633 48.29368164 61.36098633 47.30932617 61.96264648 C40.49211852 65.55717415 35.75671305 66.63647827 28.07495117 66.50170898 C27.15262192 66.49746414 26.23029266 66.4932193 25.28001404 66.48884583 C22.35588457 66.47215387 19.43246344 66.43451961 16.50854492 66.39624023 C14.51701847 66.38118113 12.52548113 66.36749487 10.53393555 66.35522461 C5.67103554 66.32228146 0.80866002 66.27056523 -4.05395508 66.20874023 C-3.42895508 63.33374023 -3.42895508 63.33374023 -2.05395508 60.20874023 C-0.07395508 59.54874023 1.90604492 58.88874023 3.94604492 58.20874023 C3.94604492 41.37874023 3.94604492 24.54874023 3.94604492 7.20874023 C0.97604492 6.87874023 -1.99395508 6.54874023 -5.05395508 6.20874023 C-5.09667608 4.54262118 -5.0945934 2.87491139 -5.05395508 1.20874023 C-3.52679425 -0.3184206 -2.13037502 0.04444536 0 0 Z M16.94604492 7.20874023 C16.83746416 8.65520962 16.79702482 10.1068846 16.78491211 11.55737305 C16.77530457 12.4821344 16.76569702 13.40689575 16.75579834 14.35968018 C16.75154846 15.36690125 16.74729858 16.37412231 16.74291992 17.41186523 C16.73721985 18.44180603 16.73151978 19.47174683 16.72564697 20.53289795 C16.7161789 22.71861742 16.70965585 24.90435129 16.70581055 27.09008789 C16.69612628 30.43067516 16.66512836 33.77064185 16.63354492 37.11108398 C16.62701307 39.23217407 16.62176331 41.35326857 16.61791992 43.47436523 C16.60557312 44.47348938 16.59322632 45.47261353 16.58050537 46.50201416 C16.57505845 53.35766997 16.57505845 53.35766997 19.94604492 59.20874023 C24.40230027 61.43686791 30.11065445 60.70191605 34.94604492 60.20874023 C38.14895383 59.05858132 40.42450814 57.47180514 42.94604492 55.20874023 C43.52225586 54.70084961 44.0984668 54.19295898 44.69213867 53.66967773 C50.19897928 48.09680786 50.65251481 41.84851358 51.25854492 34.33374023 C51.03521125 27.4662297 49.72293085 18.55921389 44.69995117 13.52124023 C38.9575304 9.22401667 23.6226618 0.53212336 16.94604492 7.20874023 Z " fill="#4EAA40" transform="translate(343.053955078125,375.791259765625)"/>
<path d="M0 0 C0 1.32 0 2.64 0 4 C0.54269531 3.72285156 1.08539063 3.44570313 1.64453125 3.16015625 C2.35996094 2.79792969 3.07539062 2.43570312 3.8125 2.0625 C4.52019531 1.70285156 5.22789063 1.34320313 5.95703125 0.97265625 C10.13016351 -1.01416963 13.40163137 -1.38969226 18 -1 C20.0360882 0.27754554 22.04109119 1.60699818 24 3 C27.90557317 3 28.9707264 2.69861654 32.25 1 C36.92205804 -1.13689212 39.87813383 -1.7434967 45 -1 C48.68997374 0.47155265 51.26865505 2.39800629 52.94335938 6.06640625 C54.96289799 12.78344702 55.53181174 19.13237292 55.6875 26.125 C55.72166016 27.176875 55.75582031 28.22875 55.79101562 29.3125 C55.87254632 31.87489313 55.94199728 34.43698497 56 37 C57.98 37.66 59.96 38.32 62 39 C61.67 40.65 61.34 42.3 61 44 C53.74 44 46.48 44 39 44 C39 42.35 39 40.7 39 39 C41.475 38.505 41.475 38.505 44 38 C44.08761663 34.45849107 44.14059739 30.91726367 44.1875 27.375 C44.21263672 26.37597656 44.23777344 25.37695312 44.26367188 24.34765625 C44.31890467 18.78755521 44.16488243 14.79914162 41 10 C39.42039731 8.42039731 37.80463184 8.83013456 35.625 8.8125 C34.83351562 8.79832031 34.04203125 8.78414063 33.2265625 8.76953125 C30.71268667 8.85492491 30.71268667 8.85492491 28 11 C27.58235618 13.81274752 27.58235618 13.81274752 27.70703125 17.1015625 C27.71669922 18.31328125 27.72636719 19.525 27.73632812 20.7734375 C27.76146484 22.04445313 27.78660156 23.31546875 27.8125 24.625 C27.82603516 25.90375 27.83957031 27.1825 27.85351562 28.5 C27.88896804 31.66708282 27.93838559 34.83333541 28 38 C28.804375 37.979375 29.60875 37.95875 30.4375 37.9375 C33 38 33 38 34 39 C34.04063832 40.66617115 34.042721 42.33388095 34 44 C30.5625177 44.02901394 27.12506688 44.04680335 23.6875 44.0625 C22.71103516 44.07087891 21.73457031 44.07925781 20.72851562 44.08789062 C19.79072266 44.09111328 18.85292969 44.09433594 17.88671875 44.09765625 C17.02264404 44.10289307 16.15856934 44.10812988 15.26831055 44.11352539 C13 44 13 44 10 43 C10 41.68 10 40.36 10 39 C11.98 38.34 13.96 37.68 16 37 C16.0582462 33.27089934 16.09367917 29.54191636 16.125 25.8125 C16.14175781 24.75740234 16.15851563 23.70230469 16.17578125 22.61523438 C16.18222656 21.59365234 16.18867187 20.57207031 16.1953125 19.51953125 C16.20578613 18.58214111 16.21625977 17.64475098 16.22705078 16.67895508 C15.97733991 13.73263531 15.36367376 11.62069308 14 9 C8.63031541 7.0822555 5.92197497 8.51950626 0 10 C0 19.24 0 28.48 0 38 C1.65 38 3.3 38 5 38 C6 39 6 39 6 44 C-1.59 44 -9.18 44 -17 44 C-17 39 -17 39 -16 38 C-14.35 38 -12.7 38 -11 38 C-11 28.76 -11 19.52 -11 10 C-13.31 9.01 -15.62 8.02 -18 7 C-17.67 5.35 -17.34 3.7 -17 2 C-14.73139163 1.4695592 -12.46001511 0.95094566 -10.1875 0.4375 C-8.29064453 0.00244141 -8.29064453 0.00244141 -6.35546875 -0.44140625 C-3 -1 -3 -1 0 0 Z " fill="#4EAA40" transform="translate(63,398)"/>
<path d="M0 0 C4.50060011 0.33951896 8.64452453 0.23175211 13 -1 C13.83927091 1.34995854 14.06091226 2.73350886 13.5 5.1875 C12 7 12 7 8.375 7.75 C7.26125 7.8325 6.1475 7.915 5 8 C5.05220703 9.08667969 5.05220703 9.08667969 5.10546875 10.1953125 C5.39522546 20.54376658 5.39522546 20.54376658 2 25 C-3.90154311 29.5122215 -8.51407168 31.14124393 -16 31 C-15.67 31.99 -15.34 32.98 -15 34 C-14.08504761 34.10489746 -14.08504761 34.10489746 -13.15161133 34.21191406 C-10.36956252 34.54073769 -7.59133749 34.8950991 -4.8125 35.25 C-3.85279297 35.35957031 -2.89308594 35.46914063 -1.90429688 35.58203125 C3.46295184 36.28775946 7.13289885 36.88774519 11 41 C13.22945368 44.64819692 13.23323201 47.75745077 12.5234375 51.953125 C10.75904202 58.85270136 7.19182774 62.17571479 1.28515625 65.77734375 C-5.72951092 69.53049046 -13.55558125 70.09625352 -21.30859375 68.53515625 C-26.44716796 66.89353235 -29.11554178 64.54520689 -32 60 C-32.91331235 56.46852556 -33.32893069 54.13630601 -32.3125 50.625 C-31 49 -31 49 -29 48.5625 C-26.74594221 48.17121083 -26.74594221 48.17121083 -25.5625 45.6875 C-25.376875 44.800625 -25.19125 43.91375 -25 43 C-26.36323743 40.9600281 -26.36323743 40.9600281 -28 39 C-28.5 36.5 -28.5 36.5 -28 34 C-25.5 31.6875 -25.5 31.6875 -23 30 C-23.763125 29.319375 -24.52625 28.63875 -25.3125 27.9375 C-28.70834045 24.22576741 -30.82302585 20.93568887 -31.1328125 15.796875 C-30.8572131 11.03062653 -29.72369717 7.24604404 -26.70703125 3.5078125 C-18.84939811 -3.43279709 -9.29265273 -3.09755091 0 0 Z M-20 7 C-21.17079775 10.78432047 -21.62769808 14.30808284 -20.23046875 18.07421875 C-18.76352182 20.69494417 -17.12198662 22.87801338 -15 25 C-12.0850745 25.5838196 -12.0850745 25.5838196 -9 25 C-6.42880787 22.35931619 -4.04993414 19.81546279 -3.9453125 16.01171875 C-4.27259439 11.77839866 -4.66496547 9.46904834 -7.1875 5.9375 C-11.67603266 2.84539973 -16.37096915 2.56451785 -20 7 Z M-22 49 C-22.79824768 51.8433932 -22.78866048 54.15498033 -22 57 C-18.19670372 61.12023763 -15.06670323 61.8440224 -9.6875 62.25 C-5.30538973 61.95290778 -2.86644844 61.04694329 1 59 C3.47666082 55.28500878 3.54886514 53.39092112 3 49 C-1.83365911 44.97195074 -7.43640462 44.63154652 -13.515625 44.73046875 C-17.36814666 45.14843101 -19.340629 46.20066211 -22 49 Z " fill="#4EA940" transform="translate(269,399)"/>
<path d="M0 0 C0.33 1.32 0.66 2.64 1 4 C2.11375 3.34 3.2275 2.68 4.375 2 C9.26448254 -0.44039892 13.62336104 -0.73360013 19 0 C23.61794634 1.60624221 25.10285961 4.42729111 27.13964844 8.62402344 C28.67880903 12.87462244 28.63977341 17.14506444 28.6875 21.625 C28.72992584 23.45059668 28.77541732 25.27612512 28.82421875 27.1015625 C28.84532715 27.94750977 28.86643555 28.79345703 28.88818359 29.66503906 C29.02373649 32.49566769 29.43300954 35.2249735 30 38 C31.98 38.66 33.96 39.32 36 40 C35.67 41.65 35.34 43.3 35 45 C27.41 45 19.82 45 12 45 C12 43.02 12 41.04 12 39 C14.475 38.505 14.475 38.505 17 38 C17.08741124 34.43765572 17.14052896 30.87558892 17.1875 27.3125 C17.21263672 26.30509766 17.23777344 25.29769531 17.26367188 24.25976562 C17.4080156 17.12256408 17.4080156 17.12256408 14 11 C12.42039731 9.42039731 10.80463184 9.83013456 8.625 9.8125 C7.43777344 9.79123047 7.43777344 9.79123047 6.2265625 9.76953125 C3.71268667 9.85492491 3.71268667 9.85492491 1 12 C0.48895078 14.80810144 0.48895078 14.80810144 0.48828125 18.1015625 C0.45283203 19.31328125 0.41738281 20.525 0.38085938 21.7734375 C0.35830078 23.04445313 0.33574219 24.31546875 0.3125 25.625 C0.27833984 26.90375 0.24417969 28.1825 0.20898438 29.5 C0.12627521 32.66657932 0.05719915 35.83287364 0 39 C1.98 39 3.96 39 6 39 C7.125 42.75 7.125 42.75 6 45 C-1.59 45 -9.18 45 -17 45 C-18 41 -18 41 -17 39 C-14.525 38.505 -14.525 38.505 -12 38 C-12 29.09 -12 20.18 -12 11 C-13.98 10.01 -15.96 9.02 -18 8 C-17.67 6.35 -17.34 4.7 -17 3 C-16.22914063 2.86722656 -15.45828125 2.73445313 -14.6640625 2.59765625 C-13.66117188 2.42105469 -12.65828125 2.24445313 -11.625 2.0625 C-10.62726563 1.88847656 -9.62953125 1.71445312 -8.6015625 1.53515625 C-1.13868613 0 -1.13868613 0 0 0 Z " fill="#4EAA40" transform="translate(199,397)"/>
<path d="M0 0 C3.76060662 3.07141178 5.5789417 6.31987241 6.33691406 11.14453125 C7.04052116 18.33957618 7.80461424 26.71866375 3.4375 32.875 C1.77734375 34.55859375 1.77734375 34.55859375 0 36 C-0.57621094 36.50660156 -1.15242188 37.01320313 -1.74609375 37.53515625 C-7.81227223 42.38539695 -14.4986004 42.47294288 -22 42 C-27.4866864 41.14861763 -30.78976114 39.194922 -34.484375 35.17578125 C-39.01991569 28.66470867 -39.53892152 21.10750791 -38.50390625 13.4375 C-37.23492014 7.29914858 -33.99108533 2.69427495 -29 -1 C-19.70371456 -5.75499658 -8.8890609 -5.52893479 0 0 Z M-25 5 C-28.04417626 10.24857976 -28.87872926 14.98558642 -28 21 C-26.66581775 25.87765553 -25.08250718 29.83203172 -21.625 33.5625 C-18.60087984 35.2185658 -16.44743305 35.85635696 -13 36 C-9.86643316 35.07417343 -8.31531305 34.31531305 -6 32 C-3.71522393 25.62898981 -3.75713824 16.17746354 -6.1875 9.875 C-9.02182349 5.37917653 -11.34159123 3.44421663 -16.5 2.0625 C-20.55280574 1.99012847 -21.98201554 2.31734715 -25 5 Z " fill="#4DA93F" transform="translate(169,401)"/>
<path d="M0 0 C4.82239362 3.13746091 7.48525437 8.12373187 9.26953125 13.4765625 C10.04475237 21.11439676 9.289499 27.83684048 5.26953125 34.4765625 C0.83519674 39.77421878 -3.84245286 42.76493513 -10.73046875 43.4765625 C-17.52747319 44.06363582 -23.18359311 43.17447959 -28.91796875 39.3515625 C-34.24512987 34.55141999 -36.44267636 27.81495421 -37.04296875 20.8515625 C-36.93175971 14.89075801 -35.00645342 9.22503007 -31.1875 4.61328125 C-22.32279598 -3.5617204 -10.93447944 -4.78706344 0 0 Z M-22.73046875 6.4765625 C-25.76373086 11.70632476 -26.63315443 16.47871765 -25.73046875 22.4765625 C-24.04691468 28.03410121 -21.63199314 33.17336128 -16.73046875 36.4765625 C-13.25970174 37.15942885 -10.19409295 37.2196035 -6.73046875 36.4765625 C-3.36081313 33.43565377 -1.90413947 30.57397042 -1.52734375 26.0234375 C-1.40033238 18.44509266 -2.36380049 14.02656489 -6.60546875 7.6640625 C-8.93289468 5.26818286 -10.52884966 4.35700775 -13.73046875 3.4765625 C-18.11843222 3.4765625 -19.36373042 3.80043716 -22.73046875 6.4765625 Z " fill="#4EA940" transform="translate(321.73046875,399.5234375)"/>
</svg>
