<?xml version="1.0" encoding="UTF-8"?>
<svg version="1.1" xmlns="http://www.w3.org/2000/svg" width="512" height="512">
<path d="M0 0 C21.4426849 9.55975242 21.4426849 9.55975242 28.13671875 15.3984375 C28.13671875 16.0584375 28.13671875 16.7184375 28.13671875 17.3984375 C30.98443825 18.9952633 33.16628402 19.67103949 36.41796875 19.85546875 C37.25013916 19.9131543 38.08230957 19.97083984 38.93969727 20.03027344 C39.82971436 20.08989258 40.71973145 20.14951172 41.63671875 20.2109375 C62.36885419 21.92192073 78.81355571 27.90659272 96.13671875 39.3984375 C97.09320313 40.01589844 98.0496875 40.63335937 99.03515625 41.26953125 C109.78400763 48.28026503 119.8166585 55.93507533 129.2109375 64.68359375 C131.03064444 66.45407689 131.03064444 66.45407689 133.13671875 67.3984375 C133.13671875 68.0584375 133.13671875 68.7184375 133.13671875 69.3984375 C134.12671875 69.7284375 135.11671875 70.0584375 136.13671875 70.3984375 C136.13671875 71.0584375 136.13671875 71.7184375 136.13671875 72.3984375 C136.75546875 72.6459375 137.37421875 72.8934375 138.01171875 73.1484375 C140.52382171 74.62614512 140.89779219 75.83798927 142.13671875 78.3984375 C143.12671875 78.7284375 144.11671875 79.0584375 145.13671875 79.3984375 C147.046875 81.4453125 147.046875 81.4453125 149.19921875 84.1484375 C149.99585938 85.14875 150.7925 86.1490625 151.61328125 87.1796875 C152.45448202 88.2525611 153.29562759 89.32547797 154.13671875 90.3984375 C154.94882812 91.419375 155.7609375 92.4403125 156.59765625 93.4921875 C168.62882606 108.74229596 179.24393705 124.75593443 185.78051758 143.13427734 C188.64598982 151.07340544 192.37933569 158.58859832 196.0625 166.17333984 C197.60006937 169.35820512 199.08728008 172.56459579 200.57421875 175.7734375 C201.43046752 177.60369419 202.28672045 179.43394893 203.14306641 181.26416016 C203.87562456 182.83763028 204.60381931 184.41313364 205.32958984 185.98974609 C206.63203194 188.81738395 207.94628033 191.63932575 209.26171875 194.4609375 C209.66962646 195.35409668 210.07753418 196.24725586 210.49780273 197.16748047 C214.42764156 205.75008979 214.42764156 205.75008979 221.5390625 211.61328125 C222.37566406 211.85175781 223.21226562 212.09023438 224.07421875 212.3359375 C230.00652458 214.25191195 235.40919219 216.90750759 240.9296875 219.75390625 C243.31477775 220.97695496 245.69701721 222.10863124 248.13671875 223.2109375 C253.91558537 226.10037081 259.03084283 230.20989378 264.22851562 234.01660156 C266.18769259 235.43535049 268.16600348 236.82270521 270.15234375 238.203125 C270.79864746 238.65478027 271.44495117 239.10643555 272.11083984 239.57177734 C273.36052545 240.4439571 274.61338086 241.31161571 275.86962891 242.17431641 C277.32802183 243.19959811 278.73803201 244.29309235 280.13671875 245.3984375 C280.13671875 246.0584375 280.13671875 246.7184375 280.13671875 247.3984375 C280.98169922 247.77162109 280.98169922 247.77162109 281.84375 248.15234375 C290.35917001 252.77997405 297.76064298 261.47716643 303.13671875 269.3984375 C303.13671875 270.3884375 303.13671875 271.3784375 303.13671875 272.3984375 C294.94454838 276.34429951 286.72052919 277.22237907 277.7878418 278.24658203 C270.78909814 279.0841749 264.39699804 280.44295632 257.68359375 282.62890625 C255.13671875 283.3984375 255.13671875 283.3984375 252.13671875 283.3984375 C254.00238363 287.02637748 254.00238363 287.02637748 257.13671875 289.3984375 C257.13671875 290.0584375 257.13671875 290.7184375 257.13671875 291.3984375 C258.23886719 291.80449219 258.23886719 291.80449219 259.36328125 292.21875 C262.02143004 293.3493992 264.14829579 294.62672042 266.51171875 296.2734375 C269.16920699 298.09471445 271.73843875 299.72664841 274.57421875 301.2734375 C287.0617519 308.33160841 297.58895282 319.95671197 306.77734375 330.828125 C308.23247925 332.56167259 308.23247925 332.56167259 310.44921875 334.5859375 C313.2427093 337.58635328 314.13671875 340.34048765 314.13671875 344.3984375 C310.20307043 343.84288808 308.37445517 341.99524885 305.57421875 339.2734375 C294.36093091 328.9264824 280.28211285 322.41320486 266.69921875 315.7109375 C259.79292364 312.27729925 253.45831715 309.0526358 248.13671875 303.3984375 C246.8690063 302.33221577 245.5977588 301.27019165 244.32421875 300.2109375 C238.37498787 295.02613293 230.93437154 287.36641205 229.13671875 279.3984375 C229.59375 276.859375 229.59375 276.859375 231.13671875 274.3984375 C233.61671811 273.08585248 235.75883549 272.15449198 238.38671875 271.2734375 C239.47134399 270.89505737 239.47134399 270.89505737 240.57788086 270.5090332 C255.07499174 265.59295339 268.92826011 264.75417942 284.13671875 264.3984375 C279.41747437 260.10176649 274.759125 256.30792866 269.32421875 252.9609375 C264.93241402 250.22332637 260.70725489 247.39738441 256.57421875 244.2734375 C247.77896715 237.80899196 238.7598394 233.26936888 228.265625 230.2890625 C223.44795555 228.91774086 218.79635257 227.22900793 214.13671875 225.3984375 C213.27046875 225.099375 212.40421875 224.8003125 211.51171875 224.4921875 C197.4439578 218.83077151 191.83821378 198.76658976 185.96411133 185.8125 C183.74464851 180.91827726 181.50710356 176.03381978 179.234375 171.1640625 C170.08607332 151.53798942 170.08607332 151.53798942 167.01171875 143.3984375 C160.15698852 125.823228 149.30643089 108.39725567 136.24609375 94.74609375 C135.13671875 93.3984375 135.13671875 93.3984375 135.13671875 91.3984375 C134.47671875 91.3984375 133.81671875 91.3984375 133.13671875 91.3984375 C131.7265625 89.96484375 131.7265625 89.96484375 130.07421875 87.9609375 C119.14094608 75.22400885 106.13572588 65.28026235 92.29296875 55.8671875 C90.89785754 54.91689435 89.52095295 53.93905667 88.16796875 52.9296875 C76.92226454 44.7981783 60.86885299 37.31330111 46.88671875 36.8359375 C26.5569021 35.77347472 26.5569021 35.77347472 20.13671875 30.3984375 C8.76595066 21.23274827 -6.76246022 11.51015391 -21.86328125 12.3984375 C-24.12343014 13.24070678 -24.12343014 13.24070678 -24.73828125 15.8359375 C-25.04578132 24.59968961 -19.98664872 31.00798451 -14.47265625 37.3671875 C-12.86328125 39.3984375 -12.86328125 39.3984375 -12.86328125 41.3984375 C-12.20328125 41.3984375 -11.54328125 41.3984375 -10.86328125 41.3984375 C-9.3125 43.5234375 -9.3125 43.5234375 -7.55078125 46.3984375 C-6.92816406 47.41035156 -6.30554688 48.42226562 -5.6640625 49.46484375 C-5.06980469 50.43292969 -4.47554687 51.40101562 -3.86328125 52.3984375 C-3.17298828 53.43291016 -3.17298828 53.43291016 -2.46875 54.48828125 C3.29790433 63.14741617 6.31112512 72.73332573 9.046875 82.6875 C12.4631739 94.32005896 16.66332 107.60082938 24.31640625 117.10546875 C26.13671875 119.3984375 26.13671875 119.3984375 26.13671875 121.3984375 C27.00296875 121.676875 27.00296875 121.676875 27.88671875 121.9609375 C31.19838675 124.07672539 32.88416031 126.75272271 34.13671875 130.3984375 C34.66782537 136.73466298 32.1639081 142.97493264 30.25390625 148.9140625 C29.09161977 152.53909587 28.00621901 156.1788709 26.94921875 159.8359375 C26.62566406 160.94839844 26.30210937 162.06085938 25.96875 163.20703125 C20.67230005 183.52252236 23.21889069 208.58736937 33.58203125 226.9609375 C36.05970098 231.48869519 36.05970098 231.48869519 40.234375 234.00561523 C40.86214844 234.13524658 41.48992187 234.26487793 42.13671875 234.3984375 C42.21188721 233.56820068 42.21188721 233.56820068 42.28857422 232.72119141 C43.98371415 214.25146953 45.40951764 198.94025908 58.13671875 184.3984375 C60.38671875 183.08203125 60.38671875 183.08203125 62.13671875 182.3984375 C64.57014864 184.83186739 65.07701795 187.19619809 66.1171875 190.4140625 C75.18733313 216.9642206 90.69989123 247.3534488 110.91796875 267.1171875 C113.13671875 269.3984375 113.13671875 269.3984375 113.13671875 271.3984375 C113.75546875 271.7078125 114.37421875 272.0171875 115.01171875 272.3359375 C116.38671875 273.0234375 117.76171875 273.7109375 119.13671875 274.3984375 C119.13671875 275.0584375 119.13671875 275.7184375 119.13671875 276.3984375 C119.79671875 276.3984375 120.45671875 276.3984375 121.13671875 276.3984375 C121.13671875 277.0584375 121.13671875 277.7184375 121.13671875 278.3984375 C115.94970418 278.08407298 112.54198285 275.09810483 109.13671875 271.3984375 C109.13671875 270.7384375 109.13671875 270.0784375 109.13671875 269.3984375 C108.14671875 269.0684375 107.15671875 268.7384375 106.13671875 268.3984375 C106.13671875 267.7384375 106.13671875 267.0784375 106.13671875 266.3984375 C105.57855469 266.14707031 105.02039063 265.89570313 104.4453125 265.63671875 C94.35625931 260.2251623 85.92665138 250.65335909 78.13671875 242.3984375 C77.45609375 241.68429687 76.77546875 240.97015625 76.07421875 240.234375 C69.68319142 232.80776454 66.09702937 223.26688317 62.13671875 214.3984375 C62.03649414 215.12434082 61.93626953 215.85024414 61.83300781 216.59814453 C61.36674572 219.90902831 60.87697674 223.21602538 60.38671875 226.5234375 C60.22945313 227.66554688 60.0721875 228.80765625 59.91015625 229.984375 C58.72570501 237.81997548 57.59039647 242.55874693 51.32421875 247.7109375 C47.64438462 249.65908498 45.31113329 250.3984375 41.13671875 250.3984375 C30.8344332 247.05609295 24.23554066 237.71736786 19.44921875 228.4609375 C9.14025511 206.69025071 7.72690968 179.53843631 14.13671875 156.3984375 C14.46800781 155.58117187 14.79929688 154.76390625 15.140625 153.921875 C16.38230025 150.7762977 17.02270434 147.64767036 17.69921875 144.3359375 C19.11621469 137.45653233 19.11621469 137.45653233 19.91015625 135.20703125 C20.34172005 133.29410143 20.34172005 133.29410143 18.984375 131.53125 C18.39527344 130.86867187 17.80617187 130.20609375 17.19921875 129.5234375 C3.93992352 113.38513195 -3.25573161 92.41482833 -8.80078125 72.5234375 C-10.47679079 66.85353287 -13.10338872 62.37744296 -16.47265625 57.54296875 C-17.86328125 55.3984375 -17.86328125 55.3984375 -17.86328125 53.3984375 C-18.52328125 53.3984375 -19.18328125 53.3984375 -19.86328125 53.3984375 C-21.37890625 51.4921875 -21.37890625 51.4921875 -23.11328125 48.8984375 C-25.3162033 45.64432857 -27.5507986 42.48002179 -29.98828125 39.3984375 C-36.91888445 30.02721865 -39.37636475 22.23530308 -37.86328125 10.3984375 C-36.82355547 7.52468899 -35.75924848 5.82764552 -33.86328125 3.3984375 C-33.20328125 3.3984375 -32.54328125 3.3984375 -31.86328125 3.3984375 C-31.53328125 2.4084375 -31.20328125 1.4184375 -30.86328125 0.3984375 C-22.01624104 -5.28130886 -9.43329223 -3.62917927 0 0 Z " fill="#186F94" transform="translate(148.86328125,57.6015625)"/>
<path d="M0 0 C5.836977 8.1717678 9.39113405 17.93766006 13.3125 27.125 C13.84226434 28.3522928 14.37221146 29.57950672 14.90234375 30.80664062 C17.62147334 37.15701289 20.1287592 43.46743034 22.1875 50.0625 C22.8475 50.0625 23.5075 50.0625 24.1875 50.0625 C24.27596191 49.41539062 24.36442383 48.76828125 24.45556641 48.1015625 C25.44949159 43.97468436 27.15250876 40.29658471 28.8984375 36.4375 C29.2672403 35.6129834 29.63604309 34.7884668 30.01602173 33.93896484 C30.79532709 32.19974045 31.57715204 30.46164311 32.36132812 28.72460938 C33.5571249 26.07441263 34.74400993 23.42036199 35.9296875 20.765625 C36.68957787 19.07268034 37.4499777 17.37996424 38.2109375 15.6875 C38.56417084 14.89778809 38.91740417 14.10807617 39.28134155 13.29443359 C42.09209539 7.0849471 44.45418341 2.07582161 50.1875 -1.9375 C55.95103399 -3.858678 60.80410637 -2.99262062 66.390625 -1.08203125 C68.94887727 0.54746422 69.82643703 2.36644885 71.1875 5.0625 C71.54826355 7.82771301 71.54826355 7.82771301 71.52807617 10.86254883 C71.52784958 12.00335403 71.52762299 13.14415924 71.52738953 14.3195343 C71.51190567 15.54053329 71.49642181 16.76153229 71.48046875 18.01953125 C71.47622391 19.27763107 71.47197906 20.5357309 71.46760559 21.83195496 C71.45367619 25.16452135 71.42675765 28.49646408 71.39349365 31.82885742 C71.36271552 35.23415763 71.3490838 38.63952244 71.33398438 42.04492188 C71.30092402 48.71764171 71.24914497 55.38998548 71.1875 62.0625 C66.2375 62.0625 61.2875 62.0625 56.1875 62.0625 C55.8575 46.2225 55.5275 30.3825 55.1875 14.0625 C50.89208678 23.63255495 50.89208678 23.63255495 46.60327148 33.20556641 C44.82381023 37.16985515 43.0130688 41.1192523 41.1875 45.0625 C40.72721405 46.06283264 40.72721405 46.06283264 40.25762939 47.08337402 C39.36477034 49.00822978 38.45337371 50.92307029 37.53515625 52.8359375 C36.74830444 54.49375244 36.74830444 54.49375244 35.94555664 56.18505859 C34.03372486 59.3141864 32.22744897 61.03816898 29.1875 63.0625 C26.28515625 63.62890625 26.28515625 63.62890625 23.25 63.625 C22.25097656 63.64691406 21.25195312 63.66882813 20.22265625 63.69140625 C16.23877156 62.86591663 13.86140852 61.02091194 11.1875 58.0625 C9.31510162 54.98777134 7.90178484 51.76024091 6.48046875 48.45703125 C6.06960526 47.53661545 5.65874176 46.61619965 5.23542786 45.66789246 C3.93381049 42.7432284 2.65412961 39.80955877 1.375 36.875 C0.49689181 34.89063416 -0.3826509 32.90690246 -1.26367188 30.92382812 C-3.19294972 26.57629923 -5.10825575 22.22291622 -7.01130676 17.86384583 C-7.58113214 16.58269103 -8.18543404 15.31663191 -8.8125 14.0625 C-9.1425 29.9025 -9.4725 45.7425 -9.8125 62.0625 C-14.7625 62.0625 -19.7125 62.0625 -24.8125 62.0625 C-24.88671602 54.19712382 -24.94113437 46.33195198 -24.97729492 38.46630859 C-24.99067551 35.79100279 -25.01283385 33.11617851 -25.03881836 30.44091797 C-25.07525084 26.59336249 -25.09223828 22.74613414 -25.10546875 18.8984375 C-25.12095261 17.70447357 -25.13643646 16.51050964 -25.15238953 15.28036499 C-25.15450516 4.81662719 -25.15450516 4.81662719 -21.8125 0.0625 C-15.49675349 -4.16091331 -6.19620404 -4.26849612 0 0 Z " fill="#0C688F" transform="translate(74.8125,383.9375)"/>
<path d="M0 0 C0.88444794 -0.00807175 1.76889587 -0.01614349 2.68014526 -0.02445984 C4.55464728 -0.03829194 6.42917439 -0.04901801 8.30371094 -0.05688477 C10.21036212 -0.06837647 12.11698185 -0.08878351 14.0234375 -0.1184082 C16.78667948 -0.16134399 19.54896469 -0.17729224 22.3125 -0.1875 C23.15346222 -0.20500809 23.99442444 -0.22251617 24.86087036 -0.24055481 C32.02554477 -0.21469293 37.9862202 1.70679573 43.5546875 6.30078125 C45.80368566 9.2057372 46.18143448 11.70465536 46.21582031 15.26318359 C46.22542786 16.06766937 46.2350354 16.87215515 46.24493408 17.70101929 C46.24918396 18.56667511 46.25343384 19.43233093 46.2578125 20.32421875 C46.26351257 21.21815338 46.26921265 22.11208801 46.27508545 23.03311157 C46.28453006 24.92440611 46.29106729 26.81571706 46.29492188 28.70703125 C46.30462723 31.595345 46.33565536 34.48294699 46.3671875 37.37109375 C46.37371786 39.2096312 46.3789682 41.04817373 46.3828125 42.88671875 C46.3951593 43.74832611 46.4075061 44.60993347 46.42022705 45.49765015 C46.39732118 51.68600162 45.19504355 54.97561914 40.8671875 59.55078125 C40.2690625 60.10765625 39.6709375 60.66453125 39.0546875 61.23828125 C40.30308249 62.34426225 41.55347984 63.44798326 42.8046875 64.55078125 C43.50078125 65.16566406 44.196875 65.78054688 44.9140625 66.4140625 C47.02447433 68.2674429 47.02447433 68.2674429 49.3203125 69.84375 C49.89265625 70.30394531 50.465 70.76414062 51.0546875 71.23828125 C51.0546875 71.89828125 51.0546875 72.55828125 51.0546875 73.23828125 C48.59011136 73.48596198 46.15094738 73.66102418 43.6796875 73.80078125 C43.00035156 73.87619141 42.32101562 73.95160156 41.62109375 74.02929688 C37.72569978 74.19312185 35.76311683 73.87387282 32.79174805 71.20800781 C32.00840088 70.38913086 31.22505371 69.57025391 30.41796875 68.7265625 C26.3271341 64.73292255 23.850472 63.59420929 18.12109375 63.46484375 C15.61777326 63.55166411 13.11569329 63.68546083 10.6171875 63.86328125 C-10.41412227 64.97305549 -10.41412227 64.97305549 -18.5078125 58.92578125 C-23.09919646 53.86348611 -23.2540252 48.38722365 -23.24609375 41.8046875 C-23.25037888 41.00852524 -23.254664 40.21236298 -23.25907898 39.39207458 C-23.26479808 37.71541287 -23.26534047 36.03872636 -23.26098633 34.36206055 C-23.25782628 31.81190239 -23.28131505 29.26290568 -23.30664062 26.71289062 C-23.30891404 25.07682437 -23.30961692 23.44075502 -23.30859375 21.8046875 C-23.3178035 21.05030899 -23.32701324 20.29593048 -23.33650208 19.51869202 C-23.29211689 14.38188669 -22.32339 10.81100427 -19.9453125 6.23828125 C-18.0078125 4.49609375 -18.0078125 4.49609375 -15.9453125 3.36328125 C-15.2646875 2.97398437 -14.5840625 2.5846875 -13.8828125 2.18359375 C-9.30772695 -0.04860525 -4.97930761 0.04311509 0 0 Z M-6.9453125 13.23828125 C-7.08352004 15.85774302 -7.1584378 18.44896657 -7.18359375 21.0703125 C-7.1916655 21.85846848 -7.19973724 22.64662445 -7.20805359 23.45866394 C-7.22191037 25.13070465 -7.23262537 26.80277383 -7.24047852 28.47485352 C-7.25767271 31.03000766 -7.30153982 33.58386174 -7.34570312 36.13867188 C-7.35583139 37.76170922 -7.36434708 39.38475758 -7.37109375 41.0078125 C-7.38860184 41.77148636 -7.40610992 42.53516022 -7.42414856 43.32197571 C-7.40962628 46.88218475 -7.25802086 48.83508057 -5.04370117 51.69018555 C-1.17829701 54.5419049 1.39025106 54.34432158 6.1796875 54.30078125 C7.46101563 54.29175781 8.74234375 54.28273438 10.0625 54.2734375 C11.54363281 54.25603516 11.54363281 54.25603516 13.0546875 54.23828125 C12.11878246 53.13276235 11.18088892 52.02892672 10.2421875 50.92578125 C9.72011719 50.31089844 9.19804687 49.69601562 8.66015625 49.0625 C7.18296281 47.38403446 5.65429619 45.79946091 4.0546875 44.23828125 C18.09594311 43.01137542 18.09594311 43.01137542 22.8984375 46.01953125 C24.82452353 48.00144586 26.50411338 49.95322465 28.0546875 52.23828125 C31.17666228 50.92932405 31.17666228 50.92932405 33.0546875 48.23828125 C33.1896373 45.81607198 33.26723676 43.42387675 33.29296875 41 C33.3010405 40.28221878 33.30911224 39.56443756 33.31742859 38.8249054 C33.33126536 37.30427462 33.34198935 35.78361284 33.34985352 34.26293945 C33.36704592 31.94487083 33.41092931 29.62823656 33.45507812 27.31054688 C33.46520727 25.83204172 33.47372269 24.35352446 33.48046875 22.875 C33.49797684 22.18524582 33.51548492 21.49549164 33.53352356 20.78483582 C33.51791816 17.29709629 33.10715291 15.32435855 31.27807617 12.32348633 C26.30426915 7.65880139 19.12915648 9.0176638 12.6796875 8.98828125 C11.555625 8.96765625 10.4315625 8.94703125 9.2734375 8.92578125 C0.44327605 8.77910717 0.44327605 8.77910717 -6.9453125 13.23828125 Z " fill="#E59209" transform="translate(323.9453125,382.76171875)"/>
<path d="M0 0 C4.62 0 9.24 0 14 0 C14.07417261 7.45643945 14.12861364 14.91266399 14.16479492 22.36938477 C14.17987863 24.90588115 14.20034831 27.44235148 14.22631836 29.97875977 C14.26271881 33.62522822 14.27973082 37.27135173 14.29296875 40.91796875 C14.30845261 42.05147263 14.32393646 43.1849765 14.33988953 44.35282898 C14.34011612 45.41355118 14.34034271 46.47427338 14.34057617 47.56713867 C14.35056892 48.96279305 14.35056892 48.96279305 14.36076355 50.38664246 C13.77022909 54.66445179 11.77285148 57.26892428 8.6875 60.1875 C2.19377744 64.56698731 -4.1831126 64.26725556 -11.7421875 64.1953125 C-13.42745041 64.19106766 -13.42745041 64.19106766 -15.14675903 64.18673706 C-18.72294927 64.17557303 -22.2988859 64.15047501 -25.875 64.125 C-28.30468387 64.11496533 -30.73437169 64.10584033 -33.1640625 64.09765625 C-39.10946102 64.07564604 -45.05471239 64.04220589 -51 64 C-51 61.03 -51 58.06 -51 55 C-49.03994019 54.970271 -49.03994019 54.970271 -47.0402832 54.93994141 C-42.1852718 54.86378281 -37.33055608 54.77508094 -32.47583008 54.68261719 C-30.37595463 54.64436986 -28.27601462 54.6095096 -26.17602539 54.578125 C-23.15487619 54.5323825 -20.13416984 54.47440277 -17.11328125 54.4140625 C-15.70832146 54.39673569 -15.70832146 54.39673569 -14.27497864 54.37905884 C-7.79530005 54.42132468 -7.79530005 54.42132468 -2 52 C-0.62032476 48.46485707 -0.62032476 48.46485707 0 45 C-1.00264893 45.02094727 -2.00529785 45.04189453 -3.03833008 45.06347656 C-6.80852606 45.13664934 -10.57866123 45.182076 -14.34936523 45.21972656 C-15.97186893 45.23966813 -17.59430242 45.26683174 -19.21655273 45.30175781 C-41.26170342 45.76400581 -41.26170342 45.76400581 -49.125 38.4375 C-52.2812126 34.33442362 -52.13499803 30.65920747 -52.09765625 25.70703125 C-52.0962413 25.00100266 -52.09482635 24.29497406 -52.09336853 23.56755066 C-52.08777764 21.31582374 -52.07522688 19.06419679 -52.0625 16.8125 C-52.05748382 15.28450665 -52.05292112 13.75651173 -52.04882812 12.22851562 C-52.0386627 8.48560772 -52.01908569 4.74291557 -52 1 C-47.05 1 -42.1 1 -37 1 C-36.96261719 3.28679687 -36.92523438 5.57359375 -36.88671875 7.9296875 C-36.840528 10.14056046 -36.78928575 12.35126243 -36.73754883 14.56201172 C-36.7042627 16.10031779 -36.67624222 17.63874707 -36.65356445 19.17724609 C-36.62008442 21.38692818 -36.5677769 23.59547735 -36.51171875 25.8046875 C-36.50532883 26.49432587 -36.4989389 27.18396423 -36.49235535 27.89450073 C-36.45974286 30.04685389 -36.45974286 30.04685389 -36 33 C-32.39406262 35.40395825 -29.66373858 35.34602766 -25.48828125 35.4140625 C-24.84258179 35.43170654 -24.19688232 35.44935059 -23.53161621 35.4675293 C-21.12549489 35.53047317 -18.71896072 35.576745 -16.3125 35.625 C-8.2378125 35.810625 -8.2378125 35.810625 0 36 C0 24.12 0 12.24 0 0 Z " fill="#06658C" transform="translate(208,401)"/>
<path d="M0 0 C1.61230751 0.00848969 1.61230751 0.00848969 3.25718689 0.01715088 C6.66020942 0.03938183 10.06214426 0.0895544 13.46484375 0.140625 C15.78448991 0.16070711 18.10415271 0.17895487 20.42382812 0.1953125 C26.08374672 0.23920325 31.74286139 0.30813913 37.40234375 0.390625 C37.40234375 3.360625 37.40234375 6.330625 37.40234375 9.390625 C35.52530762 9.42820923 35.52530762 9.42820923 33.61035156 9.46655273 C28.96604232 9.56075063 24.32187832 9.66094119 19.67773438 9.76293945 C17.66800332 9.80624144 15.6582366 9.84791988 13.6484375 9.88793945 C10.75900527 9.94575665 7.86975177 10.00941824 4.98046875 10.07421875 C4.08241516 10.09093124 3.18436157 10.10764374 2.25909424 10.12486267 C1.41852478 10.14480789 0.57795532 10.16475311 -0.28808594 10.18530273 C-1.3939505 10.20861916 -1.3939505 10.20861916 -2.52215576 10.23240662 C-4.67719391 10.39668827 -6.55065681 10.69179615 -8.59765625 11.390625 C-10.50149009 15.19829268 -10.10514407 19.86816155 -8.78515625 23.828125 C-7.58905416 25.70680439 -7.58905416 25.70680439 -4.59765625 26.390625 C-2.65032296 26.4944518 -0.69998869 26.54564421 1.25 26.56640625 C2.41337891 26.59025391 3.57675781 26.61410156 4.77539062 26.63867188 C7.20751194 26.68115997 9.63985343 26.71266758 12.07226562 26.73242188 C20.81203901 26.93902454 27.59691762 28.28165991 34.98046875 33.05859375 C37.24852224 36.77845071 37.16787449 40.42031774 37.15234375 44.703125 C37.15057129 45.56091553 37.14879883 46.41870605 37.14697266 47.30249023 C37.00083269 51.16333023 36.77605231 53.7462999 34.81640625 57.125 C27.94523124 63.2853638 20.35072447 63.6772015 11.53515625 63.5859375 C10.50043182 63.5831076 9.4657074 63.58027771 8.39962769 63.57736206 C5.10874661 63.56620548 1.81814197 63.54110897 -1.47265625 63.515625 C-3.70963147 63.50558937 -5.94661098 63.49646453 -8.18359375 63.48828125 C-13.65505373 63.4662809 -19.12630819 63.431782 -24.59765625 63.390625 C-24.59765625 60.420625 -24.59765625 57.450625 -24.59765625 54.390625 C-22.81935425 54.360896 -22.81935425 54.360896 -21.00512695 54.33056641 C-16.59736258 54.25436711 -12.18992215 54.16567177 -7.7824707 54.07324219 C-5.87661139 54.03501161 -3.97068138 54.00014845 -2.06469727 53.96875 C0.67847928 53.92297078 3.42117163 53.8649977 6.1640625 53.8046875 C7.43777962 53.78736069 7.43777962 53.78736069 8.73722839 53.76968384 C15.60757801 53.71320492 15.60757801 53.71320492 21.40234375 50.390625 C21.55326288 48.58249776 21.62403383 46.76731883 21.65234375 44.953125 C21.69101562 43.47005859 21.69101562 43.47005859 21.73046875 41.95703125 C21.6221875 41.11011719 21.51390625 40.26320313 21.40234375 39.390625 C18.11286177 37.19763701 17.00791209 37.12368979 13.17578125 37.046875 C12.14324219 37.01722656 11.11070312 36.98757813 10.046875 36.95703125 C8.96792969 36.93511719 7.88898438 36.91320312 6.77734375 36.890625 C-12.16985773 36.49733755 -12.16985773 36.49733755 -19.03515625 32.015625 C-19.99228516 31.41621094 -19.99228516 31.41621094 -20.96875 30.8046875 C-24.03467464 28.14314141 -24.54267481 25.95706167 -24.93359375 21.9296875 C-24.94648438 20.63804687 -24.959375 19.34640625 -24.97265625 18.015625 C-25.00101563 16.72914063 -25.029375 15.44265625 -25.05859375 14.1171875 C-24.50367886 9.63084168 -23.65168859 7.72656801 -20.59765625 4.390625 C-13.95580502 0.23395659 -7.65844116 -0.15419857 0 0 Z " fill="#E49006" transform="translate(256.59765625,382.609375)"/>
<path d="M0 0 C4.62 0 9.24 0 14 0 C14.01458252 1.46864502 14.02916504 2.93729004 14.04418945 4.45043945 C14.10208813 9.89063066 14.17932165 15.33040429 14.26245117 20.77026367 C14.2957402 23.12631461 14.32375961 25.48244606 14.34643555 27.83862305 C14.37990803 31.22219207 14.43222092 34.60502054 14.48828125 37.98828125 C14.49467117 39.04461258 14.5010611 40.10094391 14.50764465 41.18928528 C14.53733589 42.66047066 14.53733589 42.66047066 14.56762695 44.16137695 C14.57873001 45.02519485 14.58983307 45.88901276 14.60127258 46.77900696 C15.09222211 49.51369595 15.77290705 50.37123229 18 52 C20.68336574 52.93542067 23.20632266 53.14105279 26.03417969 53.20532227 C27.20494049 53.2352401 27.20494049 53.2352401 28.39935303 53.26576233 C29.23178528 53.28247482 30.06421753 53.29918732 30.921875 53.31640625 C31.78186096 53.33718735 32.64184692 53.35796844 33.52789307 53.37937927 C36.26851598 53.44463739 39.00923275 53.50364917 41.75 53.5625 C43.6106867 53.60570781 45.47136398 53.64932282 47.33203125 53.69335938 C51.88792523 53.80029442 56.4439134 53.90162851 61 54 C61 56.97 61 59.94 61 63 C54.75612963 63.07453656 48.5125222 63.12878447 42.26831055 63.16479492 C40.14717086 63.17981784 38.0260619 63.20024211 35.9050293 63.22631836 C32.84416081 63.26298838 29.78370546 63.27979175 26.72265625 63.29296875 C25.3158535 63.31619453 25.3158535 63.31619453 23.88063049 63.33988953 C16.53172563 63.34173924 10.26110898 62.15094422 4.0625 58.0625 C1.38423545 55.38423545 0.13222871 53.34980325 -0.24050903 49.54486084 C-0.23606781 48.62996887 -0.23162659 47.7150769 -0.22705078 46.77246094 C-0.22689972 45.73168396 -0.22674866 44.69090698 -0.22659302 43.61859131 C-0.21627045 42.50179993 -0.20594788 41.38500854 -0.1953125 40.234375 C-0.1924826 39.08584045 -0.18965271 37.93730591 -0.18673706 36.75396729 C-0.17554263 33.08587219 -0.15043904 29.4180213 -0.125 25.75 C-0.11496926 23.26302436 -0.10584358 20.77604489 -0.09765625 18.2890625 C-0.07560564 12.19261425 -0.04108052 6.09634853 0 0 Z " fill="#E48F02" transform="translate(378,383)"/>
<path d="M0 0 C2.88753734 2.73475759 5.18784203 5.21949107 6.875 8.875 C6.65957558 13.82114462 5.35082908 18.24117869 1.875 21.875 C0.05859375 21.73046875 0.05859375 21.73046875 -2.125 20.875 C-3.65234375 18.36328125 -3.65234375 18.36328125 -5.0625 15.1875 C-6.7520002 11.57265567 -8.27099472 8.35747845 -10.9375 5.375 C-12.97213457 3.04970335 -13.77734487 1.88801113 -14.125 -1.125 C-8.65289141 -2.41255496 -4.8376143 -3.28957772 0 0 Z " fill="#2B7C9E" transform="translate(195.125,116.125)"/>
<path d="M0 0 C2.69207751 1.68254844 3.65216939 2.83732147 4.55859375 5.8671875 C5.20356259 9.39124404 5.22407414 11.46929809 3.8125 14.8125 C0.83038672 18.41160223 -0.66300293 19.85414577 -5.4375 20.375 C-9.20656993 19.9782558 -11.02618388 19.29408672 -14 17 C-16.47361688 13.28957469 -16.54607278 10.30137325 -16 6 C-12.73394431 -1.5119281 -7.28113185 -1.80689853 0 0 Z M-9 2 C-6.66785852 3.20628008 -4.50357861 4.1654738 -2 5 C-1.67 6.65 -1.34 8.3 -1 10 C-1.66 10 -2.32 10 -3 10 C-2.34 11.65 -1.68 13.3 -1 15 C0.70735301 13.96431405 0.70735301 13.96431405 2 12 C1.9333964 8.27019856 1.80428591 5.92343938 -0.6875 3.0625 C-3.59086906 1.72851962 -5.84130576 1.78463448 -9 2 Z M-11 4 C-13.30019361 7.45029042 -13.43132515 8.94554358 -13 13 C-11.515 13.99 -11.515 13.99 -10 15 C-10 11.37 -10 7.74 -10 4 C-10.33 4 -10.66 4 -11 4 Z M-8 6 C-8 6.99 -8 7.98 -8 9 C-6.68 8.67 -5.36 8.34 -4 8 C-4 7.34 -4 6.68 -4 6 C-5.32 6 -6.64 6 -8 6 Z M-8 11 C-8.33 12.98 -8.66 14.96 -9 17 C-7.02 17 -5.04 17 -3 17 C-3.78130071 14.50447516 -3.78130071 14.50447516 -5 12 C-5.99 11.67 -6.98 11.34 -8 11 Z " fill="#E9A12A" transform="translate(461,427)"/>
<path d="M0 0 C6.15234375 -0.09765625 6.15234375 -0.09765625 8 0 C9 1 9 1 9.0625 3.5625 C9.041875 4.366875 9.02125 5.17125 9 6 C8.01 5.67 7.02 5.34 6 5 C6.33 4.01 6.66 3.02 7 2 C5.35 2 3.7 2 2 2 C2.185625 2.53625 2.37125 3.0725 2.5625 3.625 C3.11419324 6.61990614 2.60597444 9.03745829 2 12 C3.98 12.99 5.96 13.98 8 15 C8 15.33 8 15.66 8 16 C3.00245633 16.29397316 0.01581652 16.0979156 -4 13 C-6.67927341 8.98108988 -6.15601248 6.75838077 -6 2 C-5.01 1.67 -4.02 1.34 -3 1 C-2.77213542 3.05078125 -2.54427083 5.1015625 -2.31640625 7.15234375 C-2.18113386 9.01140229 -2.18113386 9.01140229 -1 10 C-0.67 6.7 -0.34 3.4 0 0 Z " fill="#EAA738" transform="translate(451,431)"/>
<path d="M0 0 C4.30828003 0 4.7438324 0.19000415 7.75 2.875 C8.67039062 3.67550781 8.67039062 3.67550781 9.609375 4.4921875 C11 6 11 6 11 8 C11.61875 8.309375 12.2375 8.61875 12.875 8.9375 C14.25 9.625 15.625 10.3125 17 11 C17 11.66 17 12.32 17 13 C17.66 13 18.32 13 19 13 C19 13.66 19 14.32 19 15 C13.81298543 14.68563548 10.4052641 11.69966733 7 8 C7 7.34 7 6.68 7 6 C6.01 5.67 5.02 5.34 4 5 C4 4.34 4 3.68 4 3 C2.68 2.34 1.36 1.68 0 1 C0 0.67 0 0.34 0 0 Z " fill="#72A7BE" transform="translate(251,321)"/>
<path d="M0 0 C0.79921875 0.11085938 1.5984375 0.22171875 2.421875 0.3359375 C3.32679688 0.47902344 3.32679688 0.47902344 4.25 0.625 C2.03764756 3.1702456 0.48452027 4.05274656 -2.8125 4.6875 C-5.76085462 5.26399392 -6.54708396 5.42208396 -8.75 7.625 C-9.41 7.295 -10.07 6.965 -10.75 6.625 C-9.28333333 1.98055556 -9.28333333 1.98055556 -6.96875 0.4375 C-4.35502983 -0.51963696 -2.73767192 -0.40259881 0 0 Z " fill="#EBAF48" transform="translate(456.75,426.375)"/>
<path d="M0 0 C6.15234375 -0.09765625 6.15234375 -0.09765625 8 0 C9 1 9 1 9.0625 3.5625 C9.041875 4.366875 9.02125 5.17125 9 6 C8.01 5.67 7.02 5.34 6 5 C6.33 4.01 6.66 3.02 7 2 C5.35 2 3.7 2 2 2 C2.185625 2.556875 2.37125 3.11375 2.5625 3.6875 C3.07551165 6.399133 2.6640724 8.34371039 2 11 C1.34 11 0.68 11 0 11 C0 7.37 0 3.74 0 0 Z " fill="#E59109" transform="translate(451,431)"/>
<path d="M0 0 C-0.56589844 0.32613281 -1.13179688 0.65226562 -1.71484375 0.98828125 C-2.44832031 1.42527344 -3.18179687 1.86226563 -3.9375 2.3125 C-5.03384766 2.95638672 -5.03384766 2.95638672 -6.15234375 3.61328125 C-8.29977412 4.95110254 -8.29977412 4.95110254 -9 8 C-9.33 8.99 -9.66 9.98 -10 11 C-10.66 9.02 -11.32 7.04 -12 5 C-8.44416617 1.04907352 -5.38741645 -1.79580548 0 0 Z " fill="#669FB8" transform="translate(390,330)"/>
<path d="M0 0 C0.103125 0.53625 0.20625 1.0725 0.3125 1.625 C1.18092697 4.62502044 2.55620296 7.2379535 4 10 C3.01 10.33 2.02 10.66 1 11 C0.54625 10.21625 0.0925 9.4325 -0.375 8.625 C-1.88428742 5.96301969 -1.88428742 5.96301969 -4 4 C-2.68 2.68 -1.36 1.36 0 0 Z " fill="#ECB04D" transform="translate(457,433)"/>
<path d="M0 0 C3.35914922 2.23943282 3.81681636 3.26842083 5 7 C5 7.99 5 8.98 5 10 C3.125 9.6875 3.125 9.6875 1 9 C0.34 8.01 -0.32 7.02 -1 6 C-0.34 6 0.32 6 1 6 C0.67 4.02 0.34 2.04 0 0 Z " fill="#7BAFC7" transform="translate(458,392)"/>
<path d="M0 0 C0.33 0.99 0.66 1.98 1 3 C-0.0625 4.5 -0.0625 4.5 -2 6 C-5.6875 6.1875 -5.6875 6.1875 -9 6 C-6.64046906 3.64046906 -5.22104383 3.50858587 -2 3 C-2 2.34 -2 1.68 -2 1 C-1.34 0.67 -0.68 0.34 0 0 Z " fill="#E59612" transform="translate(463,440)"/>
<path d="M0 0 C0 2.31 0 4.62 0 7 C-0.99 6.67 -1.98 6.34 -3 6 C-3 4.35 -3 2.7 -3 1 C-1 0 -1 0 0 0 Z " fill="#E69511" transform="translate(448,432)"/>
</svg>
