<?xml version="1.0" encoding="UTF-8"?>
<svg version="1.1" xmlns="http://www.w3.org/2000/svg" width="512" height="512">
<path d="M0 0 C17.16 0 34.32 0 52 0 C52 0.99 52 1.98 52 3 C53.65 3 55.3 3 57 3 C57 3.99 57 4.98 57 6 C58.32 6 59.64 6 61 6 C61 6.99 61 7.98 61 9 C61.66 9 62.32 9 63 9 C63.495 11.475 63.495 11.475 64 14 C64.66 14 65.32 14 66 14 C66 15.98 66 17.96 66 20 C66.66 20 67.32 20 68 20 C68 20.99 68 21.98 68 23 C68.66 23 69.32 23 70 23 C70.79725902 30.36040917 71.12886183 37.59760355 71 45 C71.66 45 72.32 45 73 45 C73 51.27 73 57.54 73 64 C72.34 64 71.68 64 71 64 C71.05220703 65.32451172 71.05220703 65.32451172 71.10546875 66.67578125 C71.28562942 74.66290428 70.59352511 81.43555175 68 89 C67.34 89 66.68 89 66 89 C66 89.99 66 90.98 66 92 C65.34 92 64.68 92 64 92 C64.061875 92.763125 64.12375 93.52625 64.1875 94.3125 C64 97 64 97 62.625 98.8125 C61 100 61 100 59 100 C59 100.99 59 101.98 59 103 C58.01 103 57.02 103 56 103 C55.505 104.485 55.505 104.485 55 106 C53.02 106 51.04 106 49 106 C48.505 107.485 48.505 107.485 48 109 C33.15 109 18.3 109 3 109 C3 108.01 3 107.02 3 106 C1.35 106 -0.3 106 -2 106 C-2.495 105.01 -2.495 105.01 -3 104 C-4.485 103.505 -4.485 103.505 -6 103 C-6 102.01 -6 101.02 -6 100 C-7.32 100 -8.64 100 -10 100 C-10.495 97.525 -10.495 97.525 -11 95 C-11.66 95 -12.32 95 -13 95 C-13 94.01 -13 93.02 -13 92 C-13.66 92 -14.32 92 -15 92 C-15 90.02 -15 88.04 -15 86 C-15.66 86 -16.32 86 -17 86 C-17.33 82.37 -17.66 78.74 -18 75 C-18.66 75 -19.32 75 -20 75 C-20 61.47 -20 47.94 -20 34 C-19.34 34 -18.68 34 -18 34 C-18.01160156 33.40832031 -18.02320312 32.81664062 -18.03515625 32.20703125 C-18.08322386 27.99768215 -18.06006883 24.1077667 -17 20 C-16.34 20 -15.68 20 -15 20 C-15 19.01 -15 18.02 -15 17 C-14.34 17 -13.68 17 -13 17 C-13 15.35 -13 13.7 -13 12 C-12.01 12 -11.02 12 -10 12 C-10 11.01 -10 10.02 -10 9 C-9.34 9 -8.68 9 -8 9 C-8 8.01 -8 7.02 -8 6 C-6.68 6 -5.36 6 -4 6 C-4 5.01 -4 4.02 -4 3 C-3.01 3 -2.02 3 -1 3 C-0.67 2.01 -0.34 1.02 0 0 Z M3 25 C3 25.99 3 26.98 3 28 C2.34 28 1.68 28 1 28 C1 28.99 1 29.98 1 31 C0.34 31 -0.32 31 -1 31 C-1 31.99 -1 32.98 -1 34 C-1.66 34 -2.32 34 -3 34 C-4.35439668 36.70879335 -4.06501451 39.00933268 -4 42 C-4.66 42 -5.32 42 -6 42 C-6 43.98 -6 45.96 -6 48 C-6.66 48 -7.32 48 -8 48 C-8 51.63 -8 55.26 -8 59 C-7.34 59 -6.68 59 -6 59 C-6 61.64 -6 64.28 -6 67 C-5.34 67 -4.68 67 -4 67 C-3.67 69.64 -3.34 72.28 -3 75 C-2.34 75 -1.68 75 -1 75 C-1 75.99 -1 76.98 -1 78 C-0.34 78 0.32 78 1 78 C1 78.99 1 79.98 1 81 C1.99 81.33 2.98 81.66 4 82 C4.33 82.66 4.66 83.32 5 84 C5.99 84 6.98 84 8 84 C8 84.66 8 85.32 8 86 C19.55 86 31.1 86 43 86 C43 85.34 43 84.68 43 84 C44.98 84 46.96 84 49 84 C49.33 82.02 49.66 80.04 50 78 C50.66 78 51.32 78 52 78 C52 77.01 52 76.02 52 75 C52.66 75 53.32 75 54 75 C54 74.34 54 73.68 54 73 C54.66 73 55.32 73 56 73 C56.33 70.03 56.66 67.06 57 64 C57.66 64 58.32 64 59 64 C59 57.73 59 51.46 59 45 C58.34 45 57.68 45 57 45 C56.505 40.545 56.505 40.545 56 36 C55.34 36 54.68 36 54 36 C54 35.34 54 34.68 54 34 C53.34 34 52.68 34 52 34 C52 33.01 52 32.02 52 31 C51.34 31 50.68 31 50 31 C49.505 28.03 49.505 28.03 49 25 C48.34 25 47.68 25 47 25 C47 24.34 47 23.68 47 23 C41.05518819 22.95065601 35.11049491 22.91430718 29.16552734 22.89013672 C27.14206873 22.88006329 25.11862472 22.86640405 23.09521484 22.84912109 C20.19104411 22.82493153 17.28706539 22.81353051 14.3828125 22.8046875 C13.47443634 22.79436493 12.56606018 22.78404236 11.63015747 22.77340698 C10.36907669 22.77318039 10.36907669 22.77318039 9.08251953 22.77294922 C8.34083527 22.768508 7.599151 22.76406677 6.83499146 22.75949097 C4.75069857 22.84315675 4.75069857 22.84315675 3 25 Z " fill="#FB0B0B" transform="translate(47,205)"/>
<path d="M0 0 C16.83 0 33.66 0 51 0 C51 3.63 51 7.26 51 11 C50.34 11 49.68 11 49 11 C49 11.99 49 12.98 49 14 C48.34 14 47.68 14 47 14 C47 15.98 47 17.96 47 20 C46.34 20 45.68 20 45 20 C45 20.99 45 21.98 45 23 C32.46 23 19.92 23 7 23 C7 23.66 7 24.32 7 25 C6.34 25 5.68 25 5 25 C5 25.99 5 26.98 5 28 C3.68 28 2.36 28 1 28 C0.67 29.98 0.34 31.96 0 34 C-0.66 34 -1.32 34 -2 34 C-2 34.66 -2 35.32 -2 36 C-2.66 36 -3.32 36 -4 36 C-4 37.98 -4 39.96 -4 42 C12.83 42 29.66 42 47 42 C47 45.63 47 49.26 47 53 C46.34 53 45.68 53 45 53 C44.67 56.63 44.34 60.26 44 64 C28.16 64 12.32 64 -4 64 C-4 65.98 -4 67.96 -4 70 C-3.34 70 -2.68 70 -2 70 C-2 70.99 -2 71.98 -2 73 C-1.34 73 -0.68 73 0 73 C0.33 74.65 0.66 76.3 1 78 C1.66 78 2.32 78 3 78 C3 78.99 3 79.98 3 81 C3.66 81 4.32 81 5 81 C5 81.99 5 82.98 5 84 C5.66 84 6.32 84 7 84 C7 84.66 7 85.32 7 86 C21.52 86 36.04 86 51 86 C51 89.63 51 93.26 51 97 C50.34 97 49.68 97 49 97 C49 98.98 49 100.96 49 103 C48.34 103 47.68 103 47 103 C47 104.98 47 106.96 47 109 C33.14 109 19.28 109 5 109 C5 108.01 5 107.02 5 106 C2.03 106 -0.94 106 -4 106 C-4 105.01 -4 104.02 -4 103 C-4.66 103 -5.32 103 -6 103 C-6 102.01 -6 101.02 -6 100 C-6.99 100 -7.98 100 -9 100 C-9 99.01 -9 98.02 -9 97 C-9.66 97 -10.32 97 -11 97 C-13.56616632 93.15075052 -13.55097676 90.5650696 -14 86 C-14.66 86 -15.32 86 -16 86 C-16 84.35 -16 82.7 -16 81 C-16.66 81 -17.32 81 -18 81 C-18.22786458 78.94921875 -18.45572917 76.8984375 -18.68359375 74.84765625 C-18.81886614 72.98859771 -18.81886614 72.98859771 -20 72 C-20.10091475 69.41810554 -20.13971499 66.863535 -20.1328125 64.28125 C-20.13376923 63.50817505 -20.13472595 62.7351001 -20.13571167 61.93859863 C-20.13639341 60.30102456 -20.13453957 58.66344781 -20.13037109 57.02587891 C-20.12502271 54.51068079 -20.13031626 51.99566127 -20.13671875 49.48046875 C-20.13605797 47.89322877 -20.1347768 46.3059889 -20.1328125 44.71875 C-20.13483673 43.96146606 -20.13686096 43.20418213 -20.13894653 42.4239502 C-20.11495132 37.11495132 -20.11495132 37.11495132 -19 36 C-18.76924918 34.65252916 -18.58846937 33.29622435 -18.4375 31.9375 C-18.293125 30.638125 -18.14875 29.33875 -18 28 C-17.34 28 -16.68 28 -16 28 C-16 26.35 -16 24.7 -16 23 C-15.34 23 -14.68 23 -14 23 C-14.061875 22.113125 -14.12375 21.22625 -14.1875 20.3125 C-13.97935526 16.63527631 -13.21793417 14.90037545 -11 12 C-10.34 12 -9.68 12 -9 12 C-9 11.01 -9 10.02 -9 9 C-8.34 9 -7.68 9 -7 9 C-6.855625 8.195625 -6.71125 7.39125 -6.5625 6.5625 C-6 4 -6 4 -5 3 C-3.33382885 2.95936168 -1.66611905 2.957279 0 3 C0 2.01 0 1.02 0 0 Z " fill="#FB0909" transform="translate(425,205)"/>
<path d="M0 0 C19.14 0 38.28 0 58 0 C58 0.99 58 1.98 58 3 C58.99 3 59.98 3 61 3 C61 3.99 61 4.98 61 6 C61.66 6 62.32 6 63 6 C63 6.99 63 7.98 63 9 C63.66 9 64.32 9 65 9 C65 9.99 65 10.98 65 12 C65.66 12 66.32 12 67 12 C68.10228696 16.40914783 68.07654536 20.48382401 68 25 C68.66 25 69.32 25 70 25 C70 33.25 70 41.5 70 50 C69.34 50 68.68 50 68 50 C68.01160156 50.62648437 68.02320313 51.25296875 68.03515625 51.8984375 C68.04417969 52.71570313 68.05320312 53.53296875 68.0625 54.375 C68.07410156 55.18710937 68.08570313 55.99921875 68.09765625 56.8359375 C68 59 68 59 67 61 C66.34 61 65.68 61 65 61 C65 62.98 65 64.96 65 67 C64.34 67 63.68 67 63 67 C63 67.99 63 68.98 63 70 C62.34 70 61.68 70 61 70 C60.505 71.485 60.505 71.485 60 73 C57.03 73 54.06 73 51 73 C51.495 76.96 51.495 76.96 52 81 C52.66 81 53.32 81 54 81 C54 81.99 54 82.98 54 84 C54.66 84 55.32 84 56 84 C57.2890625 85.64453125 57.2890625 85.64453125 58.625 87.8125 C59.07101563 88.52019531 59.51703125 89.22789062 59.9765625 89.95703125 C61 92 61 92 61 95 C61.66 95 62.32 95 63 95 C63 95.99 63 96.98 63 98 C63.66 98 64.32 98 65 98 C65 101.63 65 105.26 65 109 C59.06 109 53.12 109 47 109 C44 103 44 103 44 100 C43.34 100 42.68 100 42 100 C42 99.01 42 98.02 42 97 C41.34 97 40.68 97 40 97 C37.95830515 94.09451118 37 92.59857954 37 89 C36.34 89 35.68 89 35 89 C35 88.01 35 87.02 35 86 C34.34 86 33.68 86 33 86 C30.95830515 83.09451118 30 81.59857954 30 78 C29.34 78 28.68 78 28 78 C28 77.01 28 76.02 28 75 C27.34 75 26.68 75 26 75 C23.95830515 72.09451118 23 70.59857954 23 67 C22.34 67 21.68 67 21 67 C21 66.01 21 65.02 21 64 C20.34 64 19.68 64 19 64 C19 63.01 19 62.02 19 61 C18.34 61 17.68 61 17 61 C17 58.36 17 55.72 17 53 C27.56 53 38.12 53 49 53 C49 52.01 49 51.02 49 50 C49.66 50 50.32 50 51 50 C51 49.34 51 48.68 51 48 C51.66 48 52.32 48 53 48 C53.33 46.02 53.66 44.04 54 42 C54.66 42 55.32 42 56 42 C56 38.37 56 34.74 56 31 C55.34 31 54.68 31 54 31 C53.505 28.03 53.505 28.03 53 25 C52.34 25 51.68 25 51 25 C51 24.34 51 23.68 51 23 C38.79 23 26.58 23 14 23 C14 23.66 14 24.32 14 25 C13.34 25 12.68 25 12 25 C12 52.72 12 80.44 12 109 C8.04 109 4.08 109 0 109 C0 73.03 0 37.06 0 0 Z " fill="#FB0909" transform="translate(124,205)"/>
<path d="M0 0 C2.12438339 -0.08078641 4.2496323 -0.13909141 6.375 -0.1875 C7.55835938 -0.22230469 8.74171875 -0.25710937 9.9609375 -0.29296875 C11.46527344 -0.14794922 11.46527344 -0.14794922 13 0 C15 3 15 3 15 6 C15.66 6 16.32 6 17 6 C17 7.98 17 9.96 17 12 C17.66 12 18.32 12 19 12 C19 13.65 19 15.3 19 17 C19.66 17 20.32 17 21 17 C21.495 22.445 21.495 22.445 22 28 C22.66 28 23.32 28 24 28 C24 28.99 24 29.98 24 31 C24.66 31 25.32 31 26 31 C29.44419134 42.52164009 29.44419134 42.52164009 29 48 C29.66 48 30.32 48 31 48 C31 49.65 31 51.3 31 53 C31.66 53 32.32 53 33 53 C33 53.99 33 54.98 33 56 C33.66 56 34.32 56 35 56 C38.44419134 67.52164009 38.44419134 67.52164009 38 73 C38.66 73 39.32 73 40 73 C40 73.66 40 74.32 40 75 C40.66 75 41.32 75 42 75 C42 76.98 42 78.96 42 81 C42.66 81 43.32 81 44 81 C44.495 86.445 44.495 86.445 45 92 C45.66 92 46.32 92 47 92 C47 93.98 47 95.96 47 98 C47.66 98 48.32 98 49 98 C49 101.63 49 105.26 49 109 C43.72 109 38.44 109 33 109 C33 107.02 33 105.04 33 103 C32.34 103 31.68 103 31 103 C28.85714286 95.57142857 28.85714286 95.57142857 28 92 C27.34 92 26.68 92 26 92 C26 91.01 26 90.02 26 89 C16.76 89 7.52 89 -2 89 C-2 88.01 -2 87.02 -2 86 C-2.66 86 -3.32 86 -4 86 C-4 84.35 -4 82.7 -4 81 C-4.66 81 -5.32 81 -6 81 C-6.33 79.02 -6.66 77.04 -7 75 C-7.66 75 -8.32 75 -9 75 C-9 76.98 -9 78.96 -9 81 C-9.66 81 -10.32 81 -11 81 C-11 82.65 -11 84.3 -11 86 C-11.66 86 -12.32 86 -13 86 C-13 86.99 -13 87.98 -13 89 C-13.66 89 -14.32 89 -15 89 C-14.979375 90.258125 -14.95875 91.51625 -14.9375 92.8125 C-14.89113917 95.64051087 -15.08307039 97.24921116 -16 100 C-16.66 100 -17.32 100 -18 100 C-18 101.98 -18 103.96 -18 106 C-18.66 106 -19.32 106 -20 106 C-20 106.99 -20 107.98 -20 109 C-25.28 109 -30.56 109 -36 109 C-36 105.37 -36 101.74 -36 98 C-35.34 98 -34.68 98 -34 98 C-34 97.01 -34 96.02 -34 95 C-33.34 95 -32.68 95 -32 95 C-32 93.02 -32 91.04 -32 89 C-31.34 89 -30.68 89 -30 89 C-29.67 85.37 -29.34 81.74 -29 78 C-28.34 78 -27.68 78 -27 78 C-27 76.35 -27 74.7 -27 73 C-26.34 73 -25.68 73 -25 73 C-25 72.01 -25 71.02 -25 70 C-24.34 70 -23.68 70 -23 70 C-22.67 66.37 -22.34 62.74 -22 59 C-21.34 59 -20.68 59 -20 59 C-20 57.02 -20 55.04 -20 53 C-19.34 53 -18.68 53 -18 53 C-18 52.01 -18 51.02 -18 50 C-17.34 50 -16.68 50 -16 50 C-15.95101562 49.34773438 -15.90203125 48.69546875 -15.8515625 48.0234375 C-15.42757771 43.06720147 -14.84334427 38.66980549 -13 34 C-12.34 34 -11.68 34 -11 34 C-11 32.02 -11 30.04 -11 28 C-10.34 28 -9.68 28 -9 28 C-9 27.01 -9 26.02 -9 25 C-8.34 25 -7.68 25 -7 25 C-6.67 21.37 -6.34 17.74 -6 14 C-5.34 14 -4.68 14 -4 14 C-4 12.35 -4 10.7 -4 9 C-3.34 9 -2.68 9 -2 9 C-2 7.02 -2 5.04 -2 3 C-1.34 3 -0.68 3 0 3 C0 2.01 0 1.02 0 0 Z " fill="#FB0C0C" transform="translate(228,205)"/>
<path d="M0 0 C16.17 0 32.34 0 49 0 C49 3.63 49 7.26 49 11 C48.34 11 47.68 11 47 11 C46.67 13.97 46.34 16.94 46 20 C45.34 20 44.68 20 44 20 C44 20.99 44 21.98 44 23 C31.13 23 18.26 23 5 23 C5 23.66 5 24.32 5 25 C4.34 25 3.68 25 3 25 C2.67 26.98 2.34 28.96 2 31 C1.34 31 0.68 31 0 31 C0 31.99 0 32.98 0 34 C-0.66 34 -1.32 34 -2 34 C-2 34.66 -2 35.32 -2 36 C-2.66 36 -3.32 36 -4 36 C-4.33 38.97 -4.66 41.94 -5 45 C-5.66 45 -6.32 45 -7 45 C-7 52.26 -7 59.52 -7 67 C-6.34 67 -5.68 67 -5 67 C-4.67 68.98 -4.34 70.96 -4 73 C-3.34 73 -2.68 73 -2 73 C-2 73.66 -2 74.32 -2 75 C-1.34 75 -0.68 75 0 75 C0 75.99 0 76.98 0 78 C0.66 78 1.32 78 2 78 C2.33 79.98 2.66 81.96 3 84 C4.32 84 5.64 84 7 84 C7 84.66 7 85.32 7 86 C20.86 86 34.72 86 49 86 C49 90.62 49 95.24 49 100 C48.34 100 47.68 100 47 100 C46.855625 101.299375 46.71125 102.59875 46.5625 103.9375 C46.125 107.875 46.125 107.875 45 109 C41.97022196 109.08871273 38.96332978 109.1151935 35.93359375 109.09765625 C35.02497086 109.0962413 34.11634796 109.09482635 33.18019104 109.09336853 C30.26592779 109.08775193 27.35174019 109.07519665 24.4375 109.0625 C22.46679798 109.05748714 20.49609476 109.05292386 18.52539062 109.04882812 C13.68356441 109.03777711 8.84179505 109.02050138 4 109 C3.67 108.01 3.34 107.02 3 106 C0.36 106 -2.28 106 -5 106 C-5 105.01 -5 104.02 -5 103 C-5.66 103 -6.32 103 -7 103 C-7 102.01 -7 101.02 -7 100 C-7.66 100 -8.32 100 -9 100 C-10.625 98.8125 -10.625 98.8125 -12 97 C-12.1875 94.3125 -12.1875 94.3125 -12 92 C-12.66 92 -13.32 92 -14 92 C-14 91.01 -14 90.02 -14 89 C-14.66 89 -15.32 89 -16 89 C-16.309375 88.05125 -16.61875 87.1025 -16.9375 86.125 C-17.87394742 83.13919592 -17.87394742 83.13919592 -19 81 C-19.07116382 78.62597499 -19.08409085 76.24999323 -19.0625 73.875 C-19.05347656 72.59367187 -19.04445313 71.31234375 -19.03515625 69.9921875 C-19.02355469 69.00476563 -19.01195312 68.01734375 -19 67 C-19.66 67 -20.32 67 -21 67 C-21 58.75 -21 50.5 -21 42 C-20.34 42 -19.68 42 -19 42 C-19.01160156 41.29875 -19.02320313 40.5975 -19.03515625 39.875 C-19.08971184 34.13886898 -18.85618377 28.67221747 -18 23 C-17.34 23 -16.68 23 -16 23 C-16 21.02 -16 19.04 -16 17 C-15.34 17 -14.68 17 -14 17 C-14 16.01 -14 15.02 -14 14 C-13.34 14 -12.68 14 -12 14 C-11.67 12.35 -11.34 10.7 -11 9 C-10.34 9 -9.68 9 -9 9 C-9 8.01 -9 7.02 -9 6 C-7.68 6 -6.36 6 -5 6 C-5 5.01 -5 4.02 -5 3 C-3.35 3 -1.7 3 0 3 C0 2.01 0 1.02 0 0 Z " fill="#FB0A0A" transform="translate(291,205)"/>
<path d="M0 0 C3.96 0 7.92 0 12 0 C12 26.73 12 53.46 12 81 C12.66 81 13.32 81 14 81 C14.33 82.65 14.66 84.3 15 86 C30.84 86 46.68 86 63 86 C63 89.63 63 93.26 63 97 C62.34 97 61.68 97 61 97 C61 98.98 61 100.96 61 103 C60.34 103 59.68 103 59 103 C58.855625 103.804375 58.71125 104.60875 58.5625 105.4375 C58 108 58 108 57 109 C55.28134591 109.0935919 53.55884256 109.11744611 51.83764648 109.11352539 C50.73658066 109.11344986 49.63551483 109.11337433 48.50108337 109.11329651 C47.3031868 109.10813522 46.10529022 109.10297394 44.87109375 109.09765625 C43.65172623 109.0962413 42.4323587 109.09482635 41.17604065 109.09336853 C37.2631693 109.08774967 33.35035419 109.07519396 29.4375 109.0625 C26.79231853 109.05748743 24.14713617 109.0529241 21.50195312 109.04882812 C15.00128274 109.03777411 8.50064539 109.02101764 2 109 C-0.98350598 103.1881646 -1.42226544 98.5342891 -1.35644531 92.05737305 C-1.35848969 91.08420639 -1.36053406 90.11103973 -1.36264038 89.10838318 C-1.36563536 85.9093005 -1.34721428 82.71073969 -1.328125 79.51171875 C-1.32506592 77.28449125 -1.32319093 75.05726183 -1.32244873 72.83003235 C-1.31785424 68.17233918 -1.30345697 63.51481974 -1.28125 58.85717773 C-1.25288617 52.87700018 -1.2420293 46.89695883 -1.2375679 40.91672039 C-1.23341968 36.32292817 -1.22360854 31.72916364 -1.21169281 27.13538551 C-1.20598443 24.92929112 -1.20122761 22.72319407 -1.19742584 20.51709557 C-1.19057979 17.44323369 -1.17695734 14.36948139 -1.16113281 11.2956543 C-1.16001495 10.37876831 -1.15889709 9.46188232 -1.15774536 8.51721191 C-1.1146971 2.22939419 -1.1146971 2.22939419 0 0 Z " fill="#FB0808" transform="translate(346,205)"/>
<path d="M0 0 C0.99 0.33 1.98 0.66 3 1 C4.09765625 3.22265625 4.09765625 3.22265625 5.0625 6.0625 C5.57490234 7.56103516 5.57490234 7.56103516 6.09765625 9.08984375 C6.82352001 11.43083293 7.45509329 13.73801928 8 16.125 C8.68333629 19.11459626 9.70872078 21.71805285 11 24.5 C13.51316766 29.92956744 15 34.95160415 15 41 C6.09 41 -2.82 41 -12 41 C-12 39.68 -12 38.36 -12 37 C-11.34 37 -10.68 37 -10 37 C-9.99742187 36.42636719 -9.99484375 35.85273438 -9.9921875 35.26171875 C-9.57361845 26.06715197 -6.63408037 17.74042871 -3.70751953 9.09521484 C-3.07831307 7.23191261 -2.47298064 5.36058683 -1.87109375 3.48828125 C-1 1 -1 1 0 0 Z " fill="#FEF7F7" transform="translate(234,232)"/>
<path d="M0 0 C0.99 0 1.98 0 3 0 C3 3.63 3 7.26 3 11 C2.34 11 1.68 11 1 11 C1 11.99 1 12.98 1 14 C0.34 14 -0.32 14 -1 14 C-1 15.98 -1 17.96 -1 20 C-1.66 20 -2.32 20 -3 20 C-3 20.99 -3 21.98 -3 23 C-15.54 23 -28.08 23 -41 23 C-41 23.66 -41 24.32 -41 25 C-41.66 25 -42.32 25 -43 25 C-43 25.99 -43 26.98 -43 28 C-44.32 28 -45.64 28 -47 28 C-47.33 29.98 -47.66 31.96 -48 34 C-48.66 34 -49.32 34 -50 34 C-50 34.66 -50 35.32 -50 36 C-50.66 36 -51.32 36 -52 36 C-52 37.98 -52 39.96 -52 42 C-35.17 42 -18.34 42 -1 42 C-1 45.63 -1 49.26 -1 53 C-1.66 53 -2.32 53 -3 53 C-3.33 56.63 -3.66 60.26 -4 64 C-4.99 64 -5.98 64 -7 64 C-7.38787012 57.60014295 -5.00131938 52.00395814 -3 46 C-20.16 46 -37.32 46 -55 46 C-55 37 -55 37 -53 32 C-52.34 32 -51.68 32 -51 32 C-51 31.34 -51 30.68 -51 30 C-50.34 30 -49.68 30 -49 30 C-48.896875 29.236875 -48.79375 28.47375 -48.6875 27.6875 C-47.94460116 24.78344089 -47.43006017 23.71004234 -45 22 C-43.68 22 -42.36 22 -41 22 C-41 20.68 -41 19.36 -41 18 C-28.79 18 -16.58 18 -4 18 C-4 16.35 -4 14.7 -4 13 C-3.34 13 -2.68 13 -2 13 C-1.05675742 8.68803391 -0.51958285 4.37934119 0 0 Z " fill="#FD5F60" transform="translate(473,205)"/>
<path d="M0 0 C0.66 0 1.32 0 2 0 C2 0.66 2 1.32 2 2 C2.66 2 3.32 2 4 2 C4 2.99 4 3.98 4 5 C4.66 5 5.32 5 6 5 C6.33 6.98 6.66 8.96 7 11 C8.32 11 9.64 11 11 11 C11 11.66 11 12.32 11 13 C24.86 13 38.72 13 53 13 C53 17.62 53 22.24 53 27 C52.34 27 51.68 27 51 27 C50.855625 28.299375 50.71125 29.59875 50.5625 30.9375 C50.125 34.875 50.125 34.875 49 36 C45.97022196 36.08871273 42.96332978 36.1151935 39.93359375 36.09765625 C39.02497086 36.0962413 38.11634796 36.09482635 37.18019104 36.09336853 C34.26592779 36.08775193 31.35174019 36.07519665 28.4375 36.0625 C26.46679798 36.05748714 24.49609476 36.05292386 22.52539062 36.04882812 C17.68356441 36.03777711 12.84179505 36.02050138 8 36 C7.505 34.515 7.505 34.515 7 33 C7.33 32.34 7.66 31.68 8 31 C20.87 31 33.74 31 47 31 C47.33 28.36 47.66 25.72 48 23 C48.66 23 49.32 23 50 23 C50 21.35 50 19.7 50 18 C37.13 18 24.26 18 11 18 C11 17.01 11 16.02 11 15 C9.68 15 8.36 15 7 15 C3 8.25 3 8.25 3 6 C2.34 6 1.68 6 1 6 C0.67 4.02 0.34 2.04 0 0 Z " fill="#FC2425" transform="translate(287,278)"/>
<path d="M0 0 C0.99 0 1.98 0 3 0 C3.268125 0.928125 3.53625 1.85625 3.8125 2.8125 C4.98210956 5.95197829 5.64639946 6.82744565 8 9 C12 14.48571429 12 14.48571429 12 18 C12.66 18 13.32 18 14 18 C14.83439867 19.5202491 15.66741329 21.0412578 16.5 22.5625 C17.31597656 24.05330078 17.31597656 24.05330078 18.1484375 25.57421875 C19.46312233 28.00666304 20.76011669 30.44352038 22.0390625 32.89453125 C22.38517578 33.55445068 22.73128906 34.21437012 23.08789062 34.89428711 C23.76547949 36.18837337 24.43884849 37.48468033 25.10742188 38.78344727 C27.08018574 42.54040198 29.34399696 45.70655623 32 49 C32 49.66 32 50.32 32 51 C37.94 50.505 37.94 50.505 44 50 C43.35355339 45.11785113 43.35355339 45.11785113 41 42 C40.01 41.67 39.02 41.34 38 41 C38 40.01 38 39.02 38 38 C37.34 38 36.68 38 36 38 C35.54625 36.865625 35.0925 35.73125 34.625 34.5625 C33.42904194 30.95278308 33.42904194 30.95278308 31 30 C29.06669424 26.24079436 28.80508117 23.19075475 29 19 C30.65 19 32.3 19 34 19 C34.495 23.455 34.495 23.455 35 28 C35.66 28 36.32 28 37 28 C37 28.99 37 29.98 37 31 C37.66 31 38.32 31 39 31 C40.2890625 32.64453125 40.2890625 32.64453125 41.625 34.8125 C42.07101563 35.52019531 42.51703125 36.22789062 42.9765625 36.95703125 C44 39 44 39 44 42 C44.66 42 45.32 42 46 42 C46 42.99 46 43.98 46 45 C46.66 45 47.32 45 48 45 C48 48.63 48 52.26 48 56 C42.06 56 36.12 56 30 56 C27 50 27 50 27 47 C26.34 47 25.68 47 25 47 C25 46.01 25 45.02 25 44 C24.34 44 23.68 44 23 44 C20.95830515 41.09451118 20 39.59857954 20 36 C19.34 36 18.68 36 18 36 C18 35.01 18 34.02 18 33 C17.34 33 16.68 33 16 33 C13.95830515 30.09451118 13 28.59857954 13 25 C12.34 25 11.68 25 11 25 C11 24.01 11 23.02 11 22 C10.34 22 9.68 22 9 22 C6.95830515 19.09451118 6 17.59857954 6 14 C5.34 14 4.68 14 4 14 C4 13.01 4 12.02 4 11 C3.34 11 2.68 11 2 11 C2 10.01 2 9.02 2 8 C1.34 8 0.68 8 0 8 C0 5.36 0 2.72 0 0 Z " fill="#FA4445" transform="translate(141,258)"/>
<path d="M0 0 C17.16 0 34.32 0 52 0 C52 0.99 52 1.98 52 3 C53.65 3 55.3 3 57 3 C57 3.99 57 4.98 57 6 C58.32 6 59.64 6 61 6 C61 6.99 61 7.98 61 9 C61.66 9 62.32 9 63 9 C63.495 11.475 63.495 11.475 64 14 C64.66 14 65.32 14 66 14 C66 15.98 66 17.96 66 20 C66.66 20 67.32 20 68 20 C68 20.99 68 21.98 68 23 C68.66 23 69.32 23 70 23 C70 25.31 70 27.62 70 30 C69.34 30 68.68 30 68 30 C67.74605469 29.40832031 67.49210937 28.81664062 67.23046875 28.20703125 C65.37590221 23.94916874 63.40977263 19.97612484 61 16 C61 15.34 61 14.68 61 14 C60.01 13.67 59.02 13.34 58 13 C56.66666667 11.66666667 55.33333333 10.33333333 54 9 C53.01 8.67 52.02 8.34 51 8 C51 7.01 51 6.02 51 5 C33.84 4.67 16.68 4.34 -1 4 C-1 4.99 -1 5.98 -1 7 C-1.99 7 -2.98 7 -4 7 C-4.33 7.99 -4.66 8.98 -5 10 C-5.66 10 -6.32 10 -7 10 C-7 10.66 -7 11.32 -7 12 C-7.66 12 -8.32 12 -9 12 C-9 12.99 -9 13.98 -9 15 C-9.66 15 -10.32 15 -11 15 C-11.12117188 15.61488281 -11.24234375 16.22976562 -11.3671875 16.86328125 C-11.61855469 18.07564453 -11.61855469 18.07564453 -11.875 19.3125 C-12.03742187 20.11300781 -12.19984375 20.91351563 -12.3671875 21.73828125 C-13 24 -13 24 -15 27 C-15.54647822 29.31433675 -15.54647822 29.31433675 -15.8515625 31.88671875 C-15.98046875 32.82451172 -16.109375 33.76230469 -16.2421875 34.72851562 C-16.36851563 35.70498047 -16.49484375 36.68144531 -16.625 37.6875 C-16.7590625 38.67556641 -16.893125 39.66363281 -17.03125 40.68164062 C-17.3611102 43.12024997 -17.68373935 45.55959596 -18 48 C-18.66 48 -19.32 48 -20 48 C-20 43.38 -20 38.76 -20 34 C-19.34 34 -18.68 34 -18 34 C-18.01160156 33.40832031 -18.02320312 32.81664062 -18.03515625 32.20703125 C-18.08322386 27.99768215 -18.06006883 24.1077667 -17 20 C-16.34 20 -15.68 20 -15 20 C-15 19.01 -15 18.02 -15 17 C-14.34 17 -13.68 17 -13 17 C-13 15.35 -13 13.7 -13 12 C-12.01 12 -11.02 12 -10 12 C-10 11.01 -10 10.02 -10 9 C-9.34 9 -8.68 9 -8 9 C-8 8.01 -8 7.02 -8 6 C-6.68 6 -5.36 6 -4 6 C-4 5.01 -4 4.02 -4 3 C-3.01 3 -2.02 3 -1 3 C-0.67 2.01 -0.34 1.02 0 0 Z " fill="#FD3333" transform="translate(47,205)"/>
<path d="M0 0 C5.44428237 -0.09916726 10.88803448 -0.17160909 16.33300781 -0.21972656 C18.18368696 -0.23979339 20.03430309 -0.26705345 21.88476562 -0.30175781 C24.55093977 -0.35049433 27.21627287 -0.37301787 29.8828125 -0.390625 C30.70492218 -0.41127014 31.52703186 -0.43191528 32.37405396 -0.45318604 C37.82014216 -0.45529455 40.88077865 0.333504 45 4 C45 4.99 45 5.98 45 7 C45.66 7 46.32 7 47 7 C48.18203738 9.20124308 49.34540108 11.40941829 50.5 13.625 C50.83386719 14.24246094 51.16773437 14.85992187 51.51171875 15.49609375 C53.58469428 19.51512794 54.38860447 22.48941245 54 27 C52.515 27.495 52.515 27.495 51 28 C50.505 23.545 50.505 23.545 50 19 C49.34 19 48.68 19 48 19 C48 18.34 48 17.68 48 17 C47.34 17 46.68 17 46 17 C46 16.01 46 15.02 46 14 C45.34 14 44.68 14 44 14 C43.505 11.03 43.505 11.03 43 8 C42.34 8 41.68 8 41 8 C41 7.34 41 6.68 41 6 C20.21 6.495 20.21 6.495 -1 7 C-1.66 8.32 -2.32 9.64 -3 11 C-3.66 11 -4.32 11 -5 11 C-5 11.99 -5 12.98 -5 14 C-5.66 14 -6.32 14 -7 14 C-7 14.99 -7 15.98 -7 17 C-7.66 17 -8.32 17 -9 17 C-9.33 19.64 -9.66 22.28 -10 25 C-10.66 25 -11.32 25 -12 25 C-12 26.98 -12 28.96 -12 31 C-12.66 31 -13.32 31 -14 31 C-14.91426651 23.13730803 -11.68344066 15.16442817 -7.45703125 8.60546875 C-6.97621094 8.07566406 -6.49539062 7.54585937 -6 7 C-5.34 7 -4.68 7 -4 7 C-4 6.34 -4 5.68 -4 5 C-3.01 5 -2.02 5 -1 5 C-0.67 3.35 -0.34 1.7 0 0 Z " fill="#FC5E5E" transform="translate(53,222)"/>
<path d="M0 0 C0.98871094 -0.02578125 1.97742188 -0.0515625 2.99609375 -0.078125 C3.84300781 0.03015625 4.68992187 0.1384375 5.5625 0.25 C7.5625 3.25 7.5625 3.25 7.5625 6.25 C8.2225 6.25 8.8825 6.25 9.5625 6.25 C9.5625 10.87 9.5625 15.49 9.5625 20.25 C8.9025 20.25 8.2425 20.25 7.5625 20.25 C7.2325 22.89 6.9025 25.53 6.5625 28.25 C2.9325 28.25 -0.6975 28.25 -4.4375 28.25 C-4.4375 27.26 -4.4375 26.27 -4.4375 25.25 C-5.0975 25.25 -5.7575 25.25 -6.4375 25.25 C-6.46636984 21.27084841 -6.48425406 17.29172347 -6.5 13.3125 C-6.50837891 12.17619141 -6.51675781 11.03988281 -6.52539062 9.86914062 C-6.52861328 8.78955078 -6.53183594 7.70996094 -6.53515625 6.59765625 C-6.54039307 5.59742432 -6.54562988 4.59719238 -6.55102539 3.56665039 C-6.33611044 -0.81900122 -3.83191018 0.05979574 0 0 Z " fill="#FC6D6E" transform="translate(485.4375,204.75)"/>
<path d="M0 0 C0.95904856 3.83619425 0.91892116 5.32431536 0 9 C-0.66 9 -1.32 9 -2 9 C-2 10.32 -2 11.64 -2 13 C6.91 13 15.82 13 25 13 C25 13.33 25 13.66 25 14 C16.09 14 7.18 14 -2 14 C-1.67 16.64 -1.34 19.28 -1 22 C-0.34 22 0.32 22 1 22 C1.99 24.64 2.98 27.28 4 30 C18.85 30.495 18.85 30.495 34 31 C36.52962105 37.32405263 38.17205782 43.23847217 39 50 C43.62 50 48.24 50 53 50 C53 51.32 53 52.64 53 54 C47.72 54 42.44 54 37 54 C37 52.02 37 50.04 37 48 C36.34 48 35.68 48 35 48 C32.85714286 40.57142857 32.85714286 40.57142857 32 37 C31.34 37 30.68 37 30 37 C30 36.01 30 35.02 30 34 C20.76 34 11.52 34 2 34 C2 33.01 2 32.02 2 31 C1.34 31 0.68 31 0 31 C0 29.35 0 27.7 0 26 C-0.66 26 -1.32 26 -2 26 C-2.33 24.02 -2.66 22.04 -3 20 C-3.66 20 -4.32 20 -5 20 C-5 21.98 -5 23.96 -5 26 C-5.66 26 -6.32 26 -7 26 C-7 27.65 -7 29.3 -7 31 C-7.66 31 -8.32 31 -9 31 C-9 31.99 -9 32.98 -9 34 C-9.66 34 -10.32 34 -11 34 C-10.56728981 30.5383185 -9.85913033 27.47192992 -8.5625 24.25 C-6.733 19.62244118 -5.85145795 14.88837037 -5 10 C-4.34 10 -3.68 10 -3 10 C-2.01 6.7 -1.02 3.4 0 0 Z " fill="#FD3131" transform="translate(224,260)"/>
<path d="M0 0 C0.66 0 1.32 0 2 0 C2.33 0.99 2.66 1.98 3 3 C3.99 3.33 4.98 3.66 6 4 C6 5.65 6 7.3 6 9 C6.8971875 9.433125 6.8971875 9.433125 7.8125 9.875 C10 11 10 11 13 13 C13 13.66 13 14.32 13 15 C14.65 15 16.3 15 18 15 C18.33 15.99 18.66 16.98 19 18 C31.87 18 44.74 18 58 18 C58 17.01 58 16.02 58 15 C58.66 15 59.32 15 60 15 C60.33 14.01 60.66 13.02 61 12 C61.66 12 62.32 12 63 12 C63 13.65 63 15.3 63 17 C62.34 17 61.68 17 61 17 C61 18.98 61 20.96 61 23 C47.14 23 33.28 23 19 23 C19 22.01 19 21.02 19 20 C16.03 20 13.06 20 10 20 C10 19.01 10 18.02 10 17 C9.34 17 8.68 17 8 17 C8 16.01 8 15.02 8 14 C7.01 14 6.02 14 5 14 C5 13.01 5 12.02 5 11 C4.34 11 3.68 11 3 11 C0.43383368 7.15075052 0.44902324 4.5650696 0 0 Z " fill="#FC5757" transform="translate(411,291)"/>
<path d="M0 0 C19.14 0 38.28 0 58 0 C58 0.99 58 1.98 58 3 C58.99 3 59.98 3 61 3 C61 3.99 61 4.98 61 6 C61.66 6 62.32 6 63 6 C63 6.99 63 7.98 63 9 C63.66 9 64.32 9 65 9 C65 9.99 65 10.98 65 12 C65.66 12 66.32 12 67 12 C67.495 17.445 67.495 17.445 68 23 C67.01 23 66.02 23 65 23 C63.70074209 18.66914029 62.656379 14.48525648 62 10 C60.68 9.67 59.36 9.34 58 9 C57.505 7.02 57.505 7.02 57 5 C38.19 4.67 19.38 4.34 0 4 C0 2.68 0 1.36 0 0 Z " fill="#FD2B2B" transform="translate(124,205)"/>
<path d="M0 0 C0.85711578 -0.00570007 1.71423157 -0.01140015 2.59732056 -0.01727295 C4.41480265 -0.02673782 6.23230202 -0.03326281 8.04980469 -0.03710938 C10.83298676 -0.04681025 13.61542911 -0.07781714 16.3984375 -0.109375 C18.16145393 -0.11590521 19.92447566 -0.12115561 21.6875 -0.125 C22.93918472 -0.1435202 22.93918472 -0.1435202 24.21615601 -0.16241455 C30.0282594 -0.13997603 30.0282594 -0.13997603 32.22061157 1.53790283 C33.4765625 3.203125 33.4765625 3.203125 33.4765625 6.203125 C34.1365625 6.203125 34.7965625 6.203125 35.4765625 6.203125 C37.18623984 15.60635039 37.53554777 24.40865692 33.4765625 33.203125 C32.1565625 33.203125 30.8365625 33.203125 29.4765625 33.203125 C29.4765625 33.863125 29.4765625 34.523125 29.4765625 35.203125 C28.8165625 35.203125 28.1565625 35.203125 27.4765625 35.203125 C27.4765625 34.213125 27.4765625 33.223125 27.4765625 32.203125 C28.1365625 32.203125 28.7965625 32.203125 29.4765625 32.203125 C29.4765625 31.543125 29.4765625 30.883125 29.4765625 30.203125 C30.1365625 30.203125 30.7965625 30.203125 31.4765625 30.203125 C31.8065625 28.223125 32.1365625 26.243125 32.4765625 24.203125 C33.1365625 24.203125 33.7965625 24.203125 34.4765625 24.203125 C34.4765625 20.573125 34.4765625 16.943125 34.4765625 13.203125 C33.8165625 13.203125 33.1565625 13.203125 32.4765625 13.203125 C31.9815625 10.233125 31.9815625 10.233125 31.4765625 7.203125 C30.8165625 7.203125 30.1565625 7.203125 29.4765625 7.203125 C29.4765625 6.543125 29.4765625 5.883125 29.4765625 5.203125 C17.2665625 5.203125 5.0565625 5.203125 -7.5234375 5.203125 C-7.5234375 5.863125 -7.5234375 6.523125 -7.5234375 7.203125 C-8.5134375 7.203125 -9.5034375 7.203125 -10.5234375 7.203125 C-9.33770786 -0.75820256 -7.56671188 0.03835112 0 0 Z " fill="#FC6061" transform="translate(145.5234375,222.796875)"/>
<path d="M0 0 C0.66 0 1.32 0 2 0 C2 1.98 2 3.96 2 6 C1.34 6 0.68 6 0 6 C0 7.98 0 9.96 0 12 C-0.66 12 -1.32 12 -2 12 C-2.144375 12.804375 -2.28875 13.60875 -2.4375 14.4375 C-3 17 -3 17 -4 18 C-5.70755608 18.10926346 -7.41960943 18.14907402 -9.13061523 18.16113281 C-10.22522568 18.17074036 -11.31983612 18.1803479 -12.44761658 18.19024658 C-13.63923904 18.19449646 -14.83086151 18.19874634 -16.05859375 18.203125 C-17.88053001 18.21167511 -17.88053001 18.21167511 -19.73927307 18.22039795 C-22.31421024 18.22986467 -24.88915962 18.23638853 -27.46411133 18.24023438 C-31.41704259 18.24994972 -35.36945634 18.28096228 -39.32226562 18.3125 C-41.81770523 18.31902855 -44.31314857 18.3242796 -46.80859375 18.328125 C-47.99819199 18.3404718 -49.18779022 18.3528186 -50.41343689 18.36553955 C-51.51119949 18.36253845 -52.6089621 18.35953735 -53.73999023 18.35644531 C-54.7096019 18.36009094 -55.67921356 18.36373657 -56.6782074 18.36749268 C-57.44439896 18.24622009 -58.21059052 18.12494751 -59 18 C-61 15 -61 15 -61 11 C-60.34 11 -59.68 11 -59 11 C-59 11.99 -59 12.98 -59 14 C-40.85 14 -22.7 14 -4 14 C-3.67 12.02 -3.34 10.04 -3 8 C-2.12002311 5.27343949 -1.0573773 2.66642971 0 0 Z " fill="#FD6162" transform="translate(407,296)"/>
<path d="M0 0 C0.66 0 1.32 0 2 0 C1.67 1.98 1.34 3.96 1 6 C0.34 6 -0.32 6 -1 6 C-1.12117188 6.58007812 -1.24234375 7.16015625 -1.3671875 7.7578125 C-2.12091557 11.27134491 -2.88314739 14.66318955 -4.0625 18.0625 C-6.62175876 26.08151079 -6.15464496 34.55179289 -6.13037109 42.87866211 C-6.12507227 45.033114 -6.13030745 47.18735183 -6.13671875 49.34179688 C-6.14069369 58.60221334 -5.73682484 67.76787014 -5 77 C-5.66 77 -6.32 77 -7 77 C-7 75.35 -7 73.7 -7 72 C-7.66 72 -8.32 72 -9 72 C-9.22786458 69.94921875 -9.45572917 67.8984375 -9.68359375 65.84765625 C-9.81886614 63.98859771 -9.81886614 63.98859771 -11 63 C-11.10091475 60.41810554 -11.13971499 57.863535 -11.1328125 55.28125 C-11.13376923 54.50817505 -11.13472595 53.7351001 -11.13571167 52.93859863 C-11.13639341 51.30102456 -11.13453957 49.66344781 -11.13037109 48.02587891 C-11.12502271 45.51068079 -11.13031626 42.99566127 -11.13671875 40.48046875 C-11.13605797 38.89322877 -11.1347768 37.3059889 -11.1328125 35.71875 C-11.13483673 34.96146606 -11.13686096 34.20418213 -11.13894653 33.4239502 C-11.11495132 28.11495132 -11.11495132 28.11495132 -10 27 C-9.76924918 25.65252916 -9.58846937 24.29622435 -9.4375 22.9375 C-9.293125 21.638125 -9.14875 20.33875 -9 19 C-8.34 19 -7.68 19 -7 19 C-7 17.35 -7 15.7 -7 14 C-6.34 14 -5.68 14 -5 14 C-5.061875 13.113125 -5.12375 12.22625 -5.1875 11.3125 C-4.97935526 7.63527631 -4.21793417 5.90037545 -2 3 C-1.34 3 -0.68 3 0 3 C0 2.01 0 1.02 0 0 Z " fill="#FA5353" transform="translate(416,214)"/>
<path d="M0 0 C0.99 0 1.98 0 3 0 C3.33 1.65 3.66 3.3 4 5 C18.52 5 33.04 5 48 5 C48 6.65 48 8.3 48 10 C32.16 10 16.32 10 0 10 C0 6.7 0 3.4 0 0 Z " fill="#FC2325" transform="translate(357,286)"/>
<path d="M0 0 C0.99 0 1.98 0 3 0 C3 3.63 3 7.26 3 11 C2.34 11 1.68 11 1 11 C1 11.99 1 12.98 1 14 C0.34 14 -0.32 14 -1 14 C-1 15.98 -1 17.96 -1 20 C-1.66 20 -2.32 20 -3 20 C-3 20.99 -3 21.98 -3 23 C-15.54 23 -28.08 23 -41 23 C-41 21.35 -41 19.7 -41 18 C-28.79 18 -16.58 18 -4 18 C-4 16.35 -4 14.7 -4 13 C-3.34 13 -2.68 13 -2 13 C-1.05675742 8.68803391 -0.51958285 4.37934119 0 0 Z " fill="#FC4849" transform="translate(473,205)"/>
<path d="M0 0 C1.65 0 3.3 0 5 0 C5.33 2.97 5.66 5.94 6 9 C6.66 9 7.32 9 8 9 C8 9.99 8 10.98 8 12 C8.66 12 9.32 12 10 12 C11.2890625 13.64453125 11.2890625 13.64453125 12.625 15.8125 C13.07101563 16.52019531 13.51703125 17.22789062 13.9765625 17.95703125 C15 20 15 20 15 23 C15.66 23 16.32 23 17 23 C17 23.99 17 24.98 17 26 C17.66 26 18.32 26 19 26 C19 29.63 19 33.26 19 37 C14.05 37 9.1 37 4 37 C4 35.68 4 34.36 4 33 C3.34 33 2.68 33 2 33 C2.33 32.01 2.66 31.02 3 30 C3 30.66 3 31.32 3 32 C6.96 31.67 10.92 31.34 15 31 C14.35355339 26.11785113 14.35355339 26.11785113 12 23 C11.01 22.67 10.02 22.34 9 22 C9 21.01 9 20.02 9 19 C8.34 19 7.68 19 7 19 C6.54625 17.865625 6.0925 16.73125 5.625 15.5625 C4.42904194 11.95278308 4.42904194 11.95278308 2 11 C0.06669424 7.24079436 -0.19491883 4.19075475 0 0 Z " fill="#FC2A2B" transform="translate(170,277)"/>
<path d="M0 0 C15.51 0 31.02 0 47 0 C46.67 1.32 46.34 2.64 46 4 C44.8354126 4.01458252 43.6708252 4.02916504 42.47094727 4.04418945 C38.11517937 4.10253312 33.75990909 4.17976148 29.40454102 4.26245117 C27.52604296 4.29553184 25.64744954 4.32361527 23.76879883 4.34643555 C21.05509111 4.38029386 18.34224424 4.43262215 15.62890625 4.48828125 C14.38615685 4.49786613 14.38615685 4.49786613 13.11830139 4.50764465 C8.03069298 4.63350217 3.79260677 5.48174184 -0.97914124 7.26408386 C-2.96766845 7.98822614 -4.94008665 8.52151854 -7 9 C-6.125 4.125 -6.125 4.125 -5 3 C-3.33382885 2.95936168 -1.66611905 2.957279 0 3 C0 2.01 0 1.02 0 0 Z " fill="#FD2B2B" transform="translate(425,205)"/>
<path d="M0 0 C0.66 0 1.32 0 2 0 C1.33529262 4.32059796 0.44680251 8.55509496 -0.53125 12.8125 C-0.93420332 14.69294884 -1.22802724 16.59619066 -1.5 18.5 C-1.665 19.325 -1.83 20.15 -2 21 C-2.66 21.33 -3.32 21.66 -4 22 C-4.78623891 24.16072227 -5.48201226 26.35490875 -6.125 28.5625 C-6.47820312 29.76003906 -6.83140625 30.95757812 -7.1953125 32.19140625 C-7.46085938 33.11824219 -7.72640625 34.04507813 -8 35 C-4.04 35 -0.08 35 4 35 C4.2475 33.22625 4.495 31.4525 4.75 29.625 C5.171875 26.6015625 5.171875 26.6015625 6 24 C8.078125 22.6484375 8.078125 22.6484375 10 22 C9.67 24.64 9.34 27.28 9 30 C8.34 30 7.68 30 7 30 C7 31.98 7 33.96 7 36 C6.34 36 5.68 36 5 36 C5 36.99 5 37.98 5 39 C-0.28 39 -5.56 39 -11 39 C-11 35.37 -11 31.74 -11 28 C-10.34 28 -9.68 28 -9 28 C-9 27.01 -9 26.02 -9 25 C-8.34 25 -7.68 25 -7 25 C-7 23.02 -7 21.04 -7 19 C-6.34 19 -5.68 19 -5 19 C-4.67 15.37 -4.34 11.74 -4 8 C-3.34 8 -2.68 8 -2 8 C-2 6.35 -2 4.7 -2 3 C-1.34 3 -0.68 3 0 3 C0 2.01 0 1.02 0 0 Z " fill="#FB7476" transform="translate(203,275)"/>
<path d="M0 0 C14.19 0 28.38 0 43 0 C43 0.99 43 1.98 43 3 C29.47 3 15.94 3 2 3 C2 4.98 2 6.96 2 9 C2.66 9 3.32 9 4 9 C4 9.99 4 10.98 4 12 C4.66 12 5.32 12 6 12 C6.33 13.65 6.66 15.3 7 17 C7.66 17 8.32 17 9 17 C9 17.99 9 18.98 9 20 C9.66 20 10.32 20 11 20 C11 20.99 11 21.98 11 23 C11.66 23 12.32 23 13 23 C13 23.99 13 24.98 13 26 C12.34 26 11.68 26 11 26 C11 25.34 11 24.68 11 24 C10.23300781 23.773125 9.46601563 23.54625 8.67578125 23.3125 C5.35716166 21.68468075 4.70676404 20.31826559 3.1875 17 C2.76855469 16.113125 2.34960938 15.22625 1.91796875 14.3125 C1 12 1 12 1 10 C0.34 10 -0.32 10 -1 10 C-1.125 2.25 -1.125 2.25 0 0 Z " fill="#FD3333" transform="translate(419,266)"/>
<path d="M0 0 C1.65 0 3.3 0 5 0 C5.33 0.99 5.66 1.98 6 3 C20.52 3 35.04 3 50 3 C50 4.32 50 5.64 50 7 C35.15 7 20.3 7 5 7 C5 6.01 5 5.02 5 4 C3.35 4 1.7 4 0 4 C0 2.68 0 1.36 0 0 Z " fill="#FC6666" transform="translate(45,307)"/>
<path d="M0 0 C13.86 0 27.72 0 42 0 C42 3.63 42 7.26 42 11 C40.35 11.66 38.7 12.32 37 13 C37 12.01 37 11.02 37 10 C37.66 10 38.32 10 39 10 C39 8.02 39 6.04 39 4 C26.46 4 13.92 4 1 4 C0.67 2.68 0.34 1.36 0 0 Z " fill="#FC3232" transform="translate(434,291)"/>
<path d="M0 0 C21.78 0.495 21.78 0.495 44 1 C44 1.66 44 2.32 44 3 C42.26713745 3.03758423 42.26713745 3.03758423 40.49926758 3.07592773 C36.20342371 3.17026945 31.90773146 3.27042437 27.61206055 3.37231445 C25.75467481 3.41556221 23.89725192 3.45724428 22.03979492 3.49731445 C19.36625992 3.5552637 16.69291019 3.61888652 14.01953125 3.68359375 C13.19226028 3.70030624 12.36498932 3.71701874 11.51264954 3.73423767 C7.56096105 3.8352296 3.85881731 4.04295881 0 5 C0 5.66 0 6.32 0 7 C-1.65 7 -3.3 7 -5 7 C-5 7.66 -5 8.32 -5 9 C-6.375 10.625 -6.375 10.625 -8 12 C-8.66 12 -9.32 12 -10 12 C-10 12.99 -10 13.98 -10 15 C-10.66 15 -11.32 15 -12 15 C-12.12375 15.639375 -12.2475 16.27875 -12.375 16.9375 C-13.1979822 20.97011276 -14.09885975 24.98423907 -15 29 C-15.99 29 -16.98 29 -18 29 C-18 27.02 -18 25.04 -18 23 C-17.34 23 -16.68 23 -16 23 C-16 21.02 -16 19.04 -16 17 C-15.34 17 -14.68 17 -14 17 C-14 16.01 -14 15.02 -14 14 C-13.34 14 -12.68 14 -12 14 C-11.67 12.35 -11.34 10.7 -11 9 C-10.34 9 -9.68 9 -9 9 C-9 8.01 -9 7.02 -9 6 C-7.68 6 -6.36 6 -5 6 C-5 5.01 -5 4.02 -5 3 C-3.35 3 -1.7 3 0 3 C0 2.01 0 1.02 0 0 Z " fill="#FC3131" transform="translate(291,205)"/>
<path d="M0 0 C13.86 0 27.72 0 42 0 C41.67 1.32 41.34 2.64 41 4 C27.47 4 13.94 4 0 4 C0 2.68 0 1.36 0 0 Z " fill="#FC6869" transform="translate(295,310)"/>
<path d="M0 0 C12.87 0 25.74 0 39 0 C39.495 0.99 39.495 0.99 40 2 C27.13 2 14.26 2 1 2 C1 3.32 1 4.64 1 6 C0.01 6.66 -0.98 7.32 -2 8 C-2.33 8.99 -2.66 9.98 -3 11 C-3.66 11 -4.32 11 -5 11 C-5 11.99 -5 12.98 -5 14 C-5.66 14 -6.32 14 -7 14 C-7 14.99 -7 15.98 -7 17 C-7.66 17 -8.32 17 -9 17 C-9.33 19.64 -9.66 22.28 -10 25 C-10.66 25 -11.32 25 -12 25 C-12 26.98 -12 28.96 -12 31 C-12.66 31 -13.32 31 -14 31 C-14.91426651 23.13730803 -11.68344066 15.16442817 -7.45703125 8.60546875 C-6.97621094 8.07566406 -6.49539062 7.54585937 -6 7 C-5.34 7 -4.68 7 -4 7 C-4 6.34 -4 5.68 -4 5 C-3.01 5 -2.02 5 -1 5 C-0.67 3.35 -0.34 1.7 0 0 Z " fill="#FB2122" transform="translate(53,222)"/>
<path d="M0 0 C0.66 0 1.32 0 2 0 C1.67 2.97 1.34 5.94 1 9 C0.34 9 -0.32 9 -1 9 C-1 9.99 -1 10.98 -1 12 C-12.88 12 -24.76 12 -37 12 C-37 10.68 -37 9.36 -37 8 C-25.45 8 -13.9 8 -2 8 C-1.67 6.35 -1.34 4.7 -1 3 C-0.67 2.01 -0.34 1.02 0 0 Z " fill="#FC6061" transform="translate(336,216)"/>
<path d="M0 0 C13.53 0 27.06 0 41 0 C41 1.32 41 2.64 41 4 C27.47 4 13.94 4 0 4 C0 2.68 0 1.36 0 0 Z " fill="#FC2E2E" transform="translate(299,291)"/>
<path d="M0 0 C0.66 0 1.32 0 2 0 C2 8.25 2 16.5 2 25 C1.34 25 0.68 25 0 25 C0.01160156 25.62648437 0.02320313 26.25296875 0.03515625 26.8984375 C0.04869141 28.12433594 0.04869141 28.12433594 0.0625 29.375 C0.07410156 30.18710937 0.08570313 30.99921875 0.09765625 31.8359375 C0 34 0 34 -1 36 C-1.66 36 -2.32 36 -3 36 C-3 37.98 -3 39.96 -3 42 C-3.66 42 -4.32 42 -5 42 C-5 42.99 -5 43.98 -5 45 C-5.66 45 -6.32 45 -7 45 C-7.33 45.99 -7.66 46.98 -8 48 C-8.66 47.67 -9.32 47.34 -10 47 C-9.2105187 43.62608463 -8.06685139 40.46694506 -6.828125 37.23046875 C-5.68157359 34.1423515 -4.66376131 31.01612362 -3.6484375 27.8828125 C-3 26 -3 26 -2 24 C-1.85910218 22.27273078 -1.77417312 20.54071368 -1.71875 18.80859375 C-1.68136719 17.78185547 -1.64398438 16.75511719 -1.60546875 15.69726562 C-1.53503 13.52018637 -1.46471795 11.34310302 -1.39453125 9.16601562 C-1.35714844 8.14056641 -1.31976563 7.11511719 -1.28125 6.05859375 C-1.25095703 5.11298584 -1.22066406 4.16737793 -1.18945312 3.19311523 C-1 1 -1 1 0 0 Z " fill="#FC4C4D" transform="translate(192,230)"/>
<path d="M0 0 C1.65 0 3.3 0 5 0 C5 1.32 5 2.64 5 4 C3.02 4 1.04 4 -1 4 C-1 4.99 -1 5.98 -1 7 C-1.99 7 -2.98 7 -4 7 C-4.33 7.99 -4.66 8.98 -5 10 C-5.66 10 -6.32 10 -7 10 C-7 10.66 -7 11.32 -7 12 C-7.66 12 -8.32 12 -9 12 C-9 12.99 -9 13.98 -9 15 C-9.66 15 -10.32 15 -11 15 C-11.12117188 15.61488281 -11.24234375 16.22976562 -11.3671875 16.86328125 C-11.61855469 18.07564453 -11.61855469 18.07564453 -11.875 19.3125 C-12.03742187 20.11300781 -12.19984375 20.91351563 -12.3671875 21.73828125 C-13 24 -13 24 -15 27 C-15.54647822 29.31433675 -15.54647822 29.31433675 -15.8515625 31.88671875 C-15.98046875 32.82451172 -16.109375 33.76230469 -16.2421875 34.72851562 C-16.36851563 35.70498047 -16.49484375 36.68144531 -16.625 37.6875 C-16.7590625 38.67556641 -16.893125 39.66363281 -17.03125 40.68164062 C-17.3611102 43.12024997 -17.68373935 45.55959596 -18 48 C-18.66 48 -19.32 48 -20 48 C-20 43.38 -20 38.76 -20 34 C-19.34 34 -18.68 34 -18 34 C-18.01160156 33.40832031 -18.02320312 32.81664062 -18.03515625 32.20703125 C-18.08322386 27.99768215 -18.06006883 24.1077667 -17 20 C-16.34 20 -15.68 20 -15 20 C-15 19.01 -15 18.02 -15 17 C-14.34 17 -13.68 17 -13 17 C-13 15.35 -13 13.7 -13 12 C-12.01 12 -11.02 12 -10 12 C-10 11.01 -10 10.02 -10 9 C-9.34 9 -8.68 9 -8 9 C-8 8.01 -8 7.02 -8 6 C-6.68 6 -5.36 6 -4 6 C-4 5.01 -4 4.02 -4 3 C-3.01 3 -2.02 3 -1 3 C-0.67 2.01 -0.34 1.02 0 0 Z " fill="#F89293" transform="translate(47,205)"/>
<path d="M0 0 C1.65 0 3.3 0 5 0 C4.67 1.32 4.34 2.64 4 4 C3.01 4 2.02 4 1 4 C1 4.66 1 5.32 1 6 C-10.55 6 -22.1 6 -34 6 C-34 4.68 -34 3.36 -34 2 C-22.78 2 -11.56 2 0 2 C0 1.34 0 0.68 0 0 Z " fill="#FC3737" transform="translate(90,289)"/>
<path d="M0 0 C0.66 0 1.32 0 2 0 C2 0.99 2 1.98 2 3 C1.34 3 0.68 3 0 3 C-0.33 4.98 -0.66 6.96 -1 9 C-1.66 9 -2.32 9 -3 9 C-3 9.99 -3 10.98 -3 12 C-3.66 12 -4.32 12 -5 12 C-5 12.66 -5 13.32 -5 14 C-5.66 14 -6.32 14 -7 14 C-7.33 16.97 -7.66 19.94 -8 23 C-8.66 23 -9.32 23 -10 23 C-10 27.95 -10 32.9 -10 38 C-10.99 38 -11.98 38 -13 38 C-13.02714434 35.2915983 -13.04690846 32.58347279 -13.0625 29.875 C-13.07087891 29.11445313 -13.07925781 28.35390625 -13.08789062 27.5703125 C-13.10646509 23.2610356 -12.86117265 19.24483526 -12 15 C-11.34 15 -10.68 15 -10 15 C-10 13.35 -10 11.7 -10 10 C-9.34 10 -8.68 10 -8 10 C-8 9.01 -8 8.02 -8 7 C-7.34 7 -6.68 7 -6 7 C-5.731875 6.360625 -5.46375 5.72125 -5.1875 5.0625 C-4 3 -4 3 -1 2 C-0.67 1.34 -0.34 0.68 0 0 Z " fill="#FB4748" transform="translate(294,227)"/>
<path d="M0 0 C13.2 0 26.4 0 40 0 C40 1.65 40 3.3 40 5 C25.48 5.33 10.96 5.66 -4 6 C-4 6.66 -4 7.32 -4 8 C-4.99 8 -5.98 8 -7 8 C-7 8.66 -7 9.32 -7 10 C-8.98 10.66 -10.96 11.32 -13 12 C-12.67 11.01 -12.34 10.02 -12 9 C-11.34 9 -10.68 9 -10 9 C-10 8.34 -10 7.68 -10 7 C-8.35 7 -6.7 7 -5 7 C-5 6.34 -5 5.68 -5 5 C-0.32263818 2.61384366 3.90166354 2.74082747 9.01953125 2.8046875 C10.30738777 2.80893234 10.30738777 2.80893234 11.6212616 2.81326294 C14.35181875 2.8244193 17.0820427 2.84951541 19.8125 2.875 C21.66861504 2.88503568 23.52473524 2.8941605 25.38085938 2.90234375 C29.92070046 2.92434374 34.46029381 2.95884219 39 3 C39 2.34 39 1.68 39 1 C26.13 1 13.26 1 0 1 C0 0.67 0 0.34 0 0 Z " fill="#FC2323" transform="translate(296,205)"/>
<path d="M0 0 C0.99 0.33 1.98 0.66 3 1 C3.33 2.65 3.66 4.3 4 6 C4.66 6 5.32 6 6 6 C6 10.62 6 15.24 6 20 C5.34 20 4.68 20 4 20 C3.67 22.64 3.34 25.28 3 28 C-0.63 28 -4.26 28 -8 28 C-8 27.01 -8 26.02 -8 25 C-8.66 25 -9.32 25 -10 25 C-10 23.35 -10 21.7 -10 20 C-9.01 20.33 -8.02 20.66 -7 21 C-7 21.99 -7 22.98 -7 24 C-5.68 24 -4.36 24 -3 24 C-3.33 21.69 -3.66 19.38 -4 17 C-3.34 17 -2.68 17 -2 17 C-2 18.98 -2 20.96 -2 23 C-1.01 22.67 -0.02 22.34 1 22 C2.2062252 18.38132441 2.10816918 15.07493749 2.0625 11.3125 C2.05798828 10.61060547 2.05347656 9.90871094 2.04882812 9.18554688 C2.03706927 7.45699462 2.01913454 5.72848635 2 4 C1.34 4 0.68 4 0 4 C0 2.68 0 1.36 0 0 Z " fill="#FC9798" transform="translate(489,205)"/>
<path d="M0 0 C0.99 0.33 1.98 0.66 3 1 C3.33 2.65 3.66 4.3 4 6 C4.66 6 5.32 6 6 6 C6 7.98 6 9.96 6 12 C6.66 12 7.32 12 8 12 C8 13.65 8 15.3 8 17 C8.66 17 9.32 17 10 17 C10.33 20.63 10.66 24.26 11 28 C11.66 28 12.32 28 13 28 C13 28.99 13 29.98 13 31 C13.66 31 14.32 31 15 31 C15.50636607 32.74816858 16.00484619 34.49862263 16.5 36.25 C16.7784375 37.22453125 17.056875 38.1990625 17.34375 39.203125 C18 42 18 42 18 46 C17.34 46 16.68 46 16 46 C13.28608722 41.22642128 11.43438854 37.65611463 12 32 C11.34 32 10.68 32 10 32 C6.84373662 22.8468362 3.75650165 13.53529469 2 4 C1.34 4 0.68 4 0 4 C0 2.68 0 1.36 0 0 Z " fill="#F9797A" transform="translate(239,205)"/>
<path d="M0 0 C0.66 0 1.32 0 2 0 C2.33885038 2.52019972 2.67120335 5.04098516 3 7.5625 C3.09539063 8.26697266 3.19078125 8.97144531 3.2890625 9.69726562 C3.86666417 14.17367855 4.09489383 18.48661238 4 23 C4.66 23 5.32 23 6 23 C6 24.32 6 25.64 6 27 C6.66 27 7.32 27 8 27 C8.33 29.97 8.66 32.94 9 36 C10.32 36.33 11.64 36.66 13 37 C15.25 38.8125 15.25 38.8125 17 41 C17 42.32 17 43.64 17 45 C16.01 45 15.02 45 14 45 C14 44.01 14 43.02 14 42 C12.68 42 11.36 42 10 42 C9.67 40.35 9.34 38.7 9 37 C8.34 37 7.68 37 7 37 C7 36.01 7 35.02 7 34 C6.34 34 5.68 34 5 34 C5 32.02 5 30.04 5 28 C4.34 28 3.68 28 3 28 C2.67 24.37 2.34 20.74 2 17 C1.34 17 0.68 17 0 17 C0 11.39 0 5.78 0 0 Z " fill="#FC9FA0" transform="translate(27,263)"/>
<path d="M0 0 C0.66 0 1.32 0 2 0 C2 3.3 2 6.6 2 10 C0.68 10 -0.64 10 -2 10 C-2.144375 10.5775 -2.28875 11.155 -2.4375 11.75 C-2.95833333 13.83333333 -3.47916667 15.91666667 -4 18 C-15.55 18 -27.1 18 -39 18 C-39 19.32 -39 20.64 -39 22 C-40.65 21.67 -42.3 21.34 -44 21 C-44.33 21.99 -44.66 22.98 -45 24 C-45.66 23.67 -46.32 23.34 -47 23 C-46.67 21.68 -46.34 20.36 -46 19 C-45.01 19 -44.02 19 -43 19 C-43 18.34 -43 17.68 -43 17 C-39.30459598 15.76819866 -35.89696622 15.87587888 -32.05078125 15.90234375 C-31.27816452 15.9037587 -30.50554779 15.90517365 -29.70951843 15.90663147 C-27.24380611 15.91222534 -24.77818485 15.92477667 -22.3125 15.9375 C-20.63997527 15.94251579 -18.96744912 15.94707856 -17.29492188 15.95117188 C-13.19657954 15.96219276 -9.09830521 15.97945316 -5 16 C-4.855625 15.401875 -4.71125 14.80375 -4.5625 14.1875 C-4.1127561 12.43849596 -3.57107659 10.71322977 -3 9 C-2.34 9 -1.68 9 -1 9 C-0.67 6.03 -0.34 3.06 0 0 Z " fill="#FA3031" transform="translate(338,206)"/>
<path d="M0 0 C0.95904856 3.83619425 0.91892116 5.32431536 0 9 C-0.66 9 -1.32 9 -2 9 C-2 10.32 -2 11.64 -2 13 C6.91 13 15.82 13 25 13 C25 13.33 25 13.66 25 14 C16.09 14 7.18 14 -2 14 C-1.34 17.96 -0.68 21.92 0 26 C-0.66 26 -1.32 26 -2 26 C-2.33 24.02 -2.66 22.04 -3 20 C-3.66 20 -4.32 20 -5 20 C-5 21.98 -5 23.96 -5 26 C-5.66 26 -6.32 26 -7 26 C-7 27.65 -7 29.3 -7 31 C-7.66 31 -8.32 31 -9 31 C-9 31.99 -9 32.98 -9 34 C-9.66 34 -10.32 34 -11 34 C-10.56728981 30.5383185 -9.85913033 27.47192992 -8.5625 24.25 C-6.733 19.62244118 -5.85145795 14.88837037 -5 10 C-4.34 10 -3.68 10 -3 10 C-2.01 6.7 -1.02 3.4 0 0 Z " fill="#FAB3B3" transform="translate(224,260)"/>
<path d="M0 0 C0.99 0 1.98 0 3 0 C3.33 1.98 3.66 3.96 4 6 C18.19 6 32.38 6 47 6 C47 6.66 47 7.32 47 8 C42.71768898 8.1707967 38.43513488 8.33092253 34.15209961 8.48217773 C32.70245258 8.53475561 31.25289889 8.58999056 29.8034668 8.64819336 C19.78105791 9.0482548 9.99833997 8.87159422 0 8 C0 5.36 0 2.72 0 0 Z " fill="#FC4545" transform="translate(357,286)"/>
<path d="M0 0 C1.32 0 2.64 0 4 0 C4.8394882 2.10171867 5.67139656 4.20646625 6.5 6.3125 C7.19609375 8.07013672 7.19609375 8.07013672 7.90625 9.86328125 C9 13 9 13 9 16 C13.62 16 18.24 16 23 16 C23 17.32 23 18.64 23 20 C17.72 20 12.44 20 7 20 C7 18.02 7 16.04 7 14 C6.34 14 5.68 14 5 14 C2.85714286 6.57142857 2.85714286 6.57142857 2 3 C1.34 3 0.68 3 0 3 C0 2.01 0 1.02 0 0 Z " fill="#F89797" transform="translate(254,294)"/>
<path d="M0 0 C0.99 0.495 0.99 0.495 2 1 C2 2.32 2 3.64 2 5 C2.66 5 3.32 5 4 5 C4.50615298 6.26839526 5.00469099 7.53983102 5.5 8.8125 C5.91765625 9.87404297 5.91765625 9.87404297 6.34375 10.95703125 C7 13 7 13 7 16 C7.66 16 8.32 16 9 16 C9 16.66 9 17.32 9 18 C9.66 18 10.32 18 11 18 C11.66 19.98 12.32 21.96 13 24 C13.99 24 14.98 24 16 24 C16 24.99 16 25.98 16 27 C16.99 27.33 17.98 27.66 19 28 C19 28.99 19 29.98 19 31 C17.35 31 15.7 31 14 31 C14 30.01 14 29.02 14 28 C13.34 28 12.68 28 12 28 C12 27.01 12 26.02 12 25 C11.34 25 10.68 25 10 25 C8.375 23.8125 8.375 23.8125 7 22 C6.8125 19.3125 6.8125 19.3125 7 17 C6.34 17 5.68 17 5 17 C5 16.01 5 15.02 5 14 C4.34 14 3.68 14 3 14 C2.690625 13.05125 2.38125 12.1025 2.0625 11.125 C1.12605258 8.13919592 1.12605258 8.13919592 0 6 C-0.039992 4.00039988 -0.04346799 1.99952758 0 0 Z " fill="#FB7777" transform="translate(272,280)"/>
<path d="M0 0 C0.99 0 1.98 0 3 0 C3 0.99 3 1.98 3 3 C4.32 3 5.64 3 7 3 C7 3.99 7 4.98 7 6 C7.66 6 8.32 6 9 6 C9.33 7.65 9.66 9.3 10 11 C10.66 11 11.32 11 12 11 C12 12.98 12 14.96 12 17 C12.66 17 13.32 17 14 17 C14 17.99 14 18.98 14 20 C14.66 20 15.32 20 16 20 C16 22.31 16 24.62 16 27 C15.34 27 14.68 27 14 27 C13.74605469 26.40832031 13.49210937 25.81664062 13.23046875 25.20703125 C11.37590221 20.94916874 9.40977263 16.97612484 7 13 C7 12.34 7 11.68 7 11 C6.01 10.67 5.02 10.34 4 10 C4 8.68 4 7.36 4 6 C2.68 5.34 1.36 4.68 0 4 C0 2.68 0 1.36 0 0 Z " fill="#FC6E6F" transform="translate(101,208)"/>
<path d="M0 0 C1.32 0 2.64 0 4 0 C4 3.63 4 7.26 4 11 C-0.95 11 -5.9 11 -11 11 C-11 9.68 -11 8.36 -11 7 C-11.66 7 -12.32 7 -13 7 C-12.67 6.01 -12.34 5.02 -12 4 C-12 4.66 -12 5.32 -12 6 C-6.06 5.505 -6.06 5.505 0 5 C0 3.35 0 1.7 0 0 Z " fill="#FC6061" transform="translate(185,303)"/>
<path d="M0 0 C1.65 0 3.3 0 5 0 C5 0.99 5 1.98 5 3 C5.99 3 6.98 3 8 3 C8 3.99 8 4.98 8 6 C8.66 6 9.32 6 10 6 C10 6.99 10 7.98 10 9 C10.66 9 11.32 9 12 9 C12 9.99 12 10.98 12 12 C12.66 12 13.32 12 14 12 C14.33 15.63 14.66 19.26 15 23 C14.01 23 13.02 23 12 23 C10.70074209 18.66914029 9.656379 14.48525648 9 10 C7.68 9.67 6.36 9.34 5 9 C4.67 7.68 4.34 6.36 4 5 C2.68 4.67 1.36 4.34 0 4 C0 2.68 0 1.36 0 0 Z " fill="#FC6A6B" transform="translate(177,205)"/>
<path d="M0 0 C2.16874252 0.50603992 3.99967627 0.99983813 6 2 C8.04284337 11.19279517 7.96302718 20.41344111 4 29 C2.68 29 1.36 29 0 29 C0 29.66 0 30.32 0 31 C-0.66 31 -1.32 31 -2 31 C-2 30.01 -2 29.02 -2 28 C-1.34 28 -0.68 28 0 28 C0 27.34 0 26.68 0 26 C0.66 26 1.32 26 2 26 C2.33 24.02 2.66 22.04 3 20 C3.66 20 4.32 20 5 20 C5 16.37 5 12.74 5 9 C4.34 9 3.68 9 3 9 C2.67 7.02 2.34 5.04 2 3 C1.34 3 0.68 3 0 3 C0 2.01 0 1.02 0 0 Z " fill="#FB7474" transform="translate(175,227)"/>
<path d="M0 0 C0.80052795 0.00007553 1.60105591 0.00015106 2.42584229 0.00022888 C3.70730133 0.00797081 3.70730133 0.00797081 5.01464844 0.01586914 C5.89683044 0.01728409 6.77901245 0.01869904 7.68792725 0.02015686 C10.49999409 0.02574538 13.31198074 0.03829578 16.12402344 0.05102539 C18.03287645 0.05604187 19.94173072 0.06060452 21.85058594 0.06469727 C26.52509591 0.07571105 31.19954609 0.09296781 35.87402344 0.11352539 C35.87402344 0.44352539 35.87402344 0.77352539 35.87402344 1.11352539 C34.71878174 1.13334473 33.56354004 1.15316406 32.37329102 1.17358398 C28.07733783 1.2497948 23.78171651 1.33848828 19.48608398 1.4309082 C17.62872888 1.46913405 15.77130136 1.50399802 13.91381836 1.53540039 C11.24013431 1.58119 8.56694602 1.63916118 5.89355469 1.69946289 C5.06628372 1.7110141 4.23901276 1.72256531 3.38667297 1.73446655 C-0.95101895 1.84490363 -4.11504597 2.32641059 -8.12597656 4.11352539 C-9.44597656 4.11352539 -10.76597656 4.11352539 -12.12597656 4.11352539 C-12.12597656 4.77352539 -12.12597656 5.43352539 -12.12597656 6.11352539 C-13.11597656 6.77352539 -14.10597656 7.43352539 -15.12597656 8.11352539 C-16.3304796 10.66535943 -16.3304796 10.66535943 -17.12597656 13.11352539 C-17.78597656 13.11352539 -18.44597656 13.11352539 -19.12597656 13.11352539 C-19.27035156 13.87665039 -19.41472656 14.63977539 -19.56347656 15.42602539 C-20.12597656 18.11352539 -20.12597656 18.11352539 -21.12597656 21.11352539 C-21.78597656 20.78352539 -22.44597656 20.45352539 -23.12597656 20.11352539 C-22.13597656 17.14352539 -21.14597656 14.17352539 -20.12597656 11.11352539 C-19.46597656 11.11352539 -18.80597656 11.11352539 -18.12597656 11.11352539 C-18.14660156 10.20602539 -18.16722656 9.29852539 -18.18847656 8.36352539 C-17.12597656 5.11352539 -17.12597656 5.11352539 -15.19628906 3.85961914 C-10.2049648 1.64216197 -5.49644198 -0.0173938 0 0 Z " fill="#FB1A1B" transform="translate(435.1259765625,208.886474609375)"/>
<path d="M0 0 C0.66 0 1.32 0 2 0 C2 0.66 2 1.32 2 2 C2.66 2 3.32 2 4 2 C4 3.98 4 5.96 4 8 C4.66 8 5.32 8 6 8 C6.33 11.63 6.66 15.26 7 19 C7.66 19 8.32 19 9 19 C9 20.98 9 22.96 9 25 C9.66 25 10.32 25 11 25 C11 26.32 11 27.64 11 29 C10.01 29 9.02 29 8 29 C3.5078125 15.5234375 3.5078125 15.5234375 2.72705078 13.17138672 C2.10292976 11.30740673 1.45959143 9.44988069 0.8125 7.59375 C-0.0261385 4.91655786 -0.16395433 2.78722356 0 0 Z " fill="#FC8788" transform="translate(266,278)"/>
<path d="M0 0 C0.66 0 1.32 0 2 0 C2 2.64 2 5.28 2 8 C2.66 8 3.32 8 4 8 C4.33 10.64 4.66 13.28 5 16 C5.66 16 6.32 16 7 16 C7 16.99 7 17.98 7 19 C7.66 19 8.32 19 9 19 C9 19.99 9 20.98 9 22 C10.32 22.33 11.64 22.66 13 23 C13 23.66 13 24.32 13 25 C13.99 25 14.98 25 16 25 C16 25.99 16 26.98 16 28 C13.75 28.3125 13.75 28.3125 11 28 C8.6875 25.6875 8.6875 25.6875 7 23 C7 22.01 7 21.02 7 20 C6.34 20 5.68 20 5 20 C5 19.01 5 18.02 5 17 C4.34 17 3.68 17 3 17 C0.70657253 11.10261508 -0.34548714 6.33393082 0 0 Z " fill="#FA797A" transform="translate(39,264)"/>
<path d="M0 0 C0.66 0 1.32 0 2 0 C2 1.32 2 2.64 2 4 C1.34 4 0.68 4 0 4 C0 4.99 0 5.98 0 7 C-18.315 6.505 -18.315 6.505 -37 6 C-37 5.34 -37 4.68 -37 4 C-24.79 3.67 -12.58 3.34 0 3 C0 2.01 0 1.02 0 0 Z " fill="#FB7172" transform="translate(470,221)"/>
<path d="M0 0 C0.66 0 1.32 0 2 0 C1.67 1.98 1.34 3.96 1 6 C0.34 6 -0.32 6 -1 6 C-1.4021875 7.85625 -1.4021875 7.85625 -1.8125 9.75 C-3.09357816 15.52867629 -4.54399417 21.26333702 -6 27 C-6.99 27 -7.98 27 -9 27 C-9 24.36 -9 21.72 -9 19 C-8.34 19 -7.68 19 -7 19 C-7 17.35 -7 15.7 -7 14 C-6.34 14 -5.68 14 -5 14 C-5.061875 13.113125 -5.12375 12.22625 -5.1875 11.3125 C-4.97935526 7.63527631 -4.21793417 5.90037545 -2 3 C-1.34 3 -0.68 3 0 3 C0 2.01 0 1.02 0 0 Z " fill="#FC6767" transform="translate(416,214)"/>
<path d="M0 0 C0.66 0 1.32 0 2 0 C2.33 0.99 2.66 1.98 3 3 C3.99 3.33 4.98 3.66 6 4 C6 5.65 6 7.3 6 9 C6.99 9.33 7.98 9.66 9 10 C9 10.99 9 11.98 9 13 C9.66 13 10.32 13 11 13 C11 13.99 11 14.98 11 16 C11.99 16.33 12.98 16.66 14 17 C14 17.99 14 18.98 14 20 C12.68 20 11.36 20 10 20 C10 19.01 10 18.02 10 17 C9.34 17 8.68 17 8 17 C8 16.01 8 15.02 8 14 C7.01 14 6.02 14 5 14 C5 13.01 5 12.02 5 11 C4.34 11 3.68 11 3 11 C0.43383368 7.15075052 0.44902324 4.5650696 0 0 Z " fill="#F78F8F" transform="translate(411,291)"/>
<path d="M0 0 C1.32 0 2.64 0 4 0 C3.99476318 0.98170166 3.98952637 1.96340332 3.98413086 2.97485352 C3.96573262 6.69310558 3.95444376 10.41135384 3.94506836 14.12963867 C3.94010631 15.72469769 3.93333452 17.31975232 3.92456055 18.91479492 C3.86880694 29.32760111 4.14620782 39.61877268 5 50 C4.34 50 3.68 50 3 50 C3 48.35 3 46.7 3 45 C2.34 45 1.68 45 1 45 C0.67 42.03 0.34 39.06 0 36 C0.66 36 1.32 36 2 36 C2 24.45 2 12.9 2 1 C1.34 0.67 0.68 0.34 0 0 Z " fill="#FB1B1B" transform="translate(406,241)"/>
<path d="M0 0 C0.66 0 1.32 0 2 0 C1.67 1.98 1.34 3.96 1 6 C0.34 6 -0.32 6 -1 6 C-1 6.99 -1 7.98 -1 9 C-1.66 9 -2.32 9 -3 9 C-3 9.99 -3 10.98 -3 12 C-3.66 12 -4.32 12 -5 12 C-5.33 14.64 -5.66 17.28 -6 20 C-6.66 20 -7.32 20 -8 20 C-8 21.98 -8 23.96 -8 26 C-8.66 26 -9.32 26 -10 26 C-10.91426651 18.13730803 -7.68344066 10.16442817 -3.45703125 3.60546875 C-2.97621094 3.07566406 -2.49539062 2.54585937 -2 2 C-1.34 2 -0.68 2 0 2 C0 1.34 0 0.68 0 0 Z " fill="#FA9697" transform="translate(49,227)"/>
<path d="M0 0 C1.65 0 3.3 0 5 0 C5 1.32 5 2.64 5 4 C5.66 4 6.32 4 7 4 C7 5.65 7 7.3 7 9 C6.01 9 5.02 9 4 9 C4 10.98 4 12.96 4 15 C2.68 15.33 1.36 15.66 0 16 C0.875 10.125 0.875 10.125 2 9 C1.01 8.34 0.02 7.68 -1 7 C-0.67 4.69 -0.34 2.38 0 0 Z " fill="#FC2F2F" transform="translate(484,205)"/>
<path d="M0 0 C0.66 0 1.32 0 2 0 C2 1.32 2 2.64 2 4 C1.34 4 0.68 4 0 4 C0 4.66 0 5.32 0 6 C-1.375 7.625 -1.375 7.625 -3 9 C-3.66 9 -4.32 9 -5 9 C-5 9.99 -5 10.98 -5 12 C-5.66 12 -6.32 12 -7 12 C-7.12375 12.639375 -7.2475 13.27875 -7.375 13.9375 C-8.1979822 17.97011276 -9.09885975 21.98423907 -10 26 C-10.99 26 -11.98 26 -13 26 C-13 24.02 -13 22.04 -13 20 C-12.34 20 -11.68 20 -11 20 C-11 18.02 -11 16.04 -11 14 C-10.34 14 -9.68 14 -9 14 C-9 13.01 -9 12.02 -9 11 C-8.34 11 -7.68 11 -7 11 C-6.67 9.35 -6.34 7.7 -6 6 C-5.34 6 -4.68 6 -4 6 C-4 5.01 -4 4.02 -4 3 C-2.68 3 -1.36 3 0 3 C0 2.01 0 1.02 0 0 Z " fill="#F9ADAE" transform="translate(286,208)"/>
<path d="M0 0 C0 0.99 0 1.98 0 3 C-0.66 3 -1.32 3 -2 3 C-2.33 4.98 -2.66 6.96 -3 9 C-3.66 9 -4.32 9 -5 9 C-5 9.99 -5 10.98 -5 12 C-5.66 12 -6.32 12 -7 12 C-7 12.66 -7 13.32 -7 14 C-7.66 14 -8.32 14 -9 14 C-9.33 16.97 -9.66 19.94 -10 23 C-10.99 22.67 -11.98 22.34 -13 22 C-13 20.02 -13 18.04 -13 16 C-12.34 16 -11.68 16 -11 16 C-10.855625 15.4225 -10.71125 14.845 -10.5625 14.25 C-10.04166667 12.16666667 -9.52083333 10.08333333 -9 8 C-8.34 8 -7.68 8 -7 8 C-6.731875 7.236875 -6.46375 6.47375 -6.1875 5.6875 C-4.80876015 2.56719402 -3.66285015 0 0 0 Z " fill="#FBE6E6" transform="translate(296,227)"/>
<path d="M0 0 C0.66 0 1.32 0 2 0 C2 1.98 2 3.96 2 6 C2.66 6 3.32 6 4 6 C4 6.99 4 7.98 4 9 C4.66 9 5.32 9 6 9 C6.33 10.65 6.66 12.3 7 14 C7.66 14 8.32 14 9 14 C9 14.99 9 15.98 9 17 C9.66 17 10.32 17 11 17 C11 17.99 11 18.98 11 20 C11.66 20 12.32 20 13 20 C13 20.99 13 21.98 13 23 C12.34 23 11.68 23 11 23 C11 22.34 11 21.68 11 21 C10.24332031 20.78730469 9.48664063 20.57460938 8.70703125 20.35546875 C3.61906541 17.80781486 1.93598031 12.11698499 0 7 C-0.41894473 4.40427028 -0.35744985 2.62129891 0 0 Z " fill="#FB9899" transform="translate(419,269)"/>
<path d="M0 0 C0.99 0.33 1.98 0.66 3 1 C3 8.59 3 16.18 3 24 C2.01 24.33 1.02 24.66 0 25 C0 16.75 0 8.5 0 0 Z " fill="#FC5455" transform="translate(270,247)"/>
<path d="M0 0 C1.32 0 2.64 0 4 0 C3.938125 1.11375 3.87625 2.2275 3.8125 3.375 C3.874375 4.57125 3.93625 5.7675 4 7 C4.99 7.66 5.98 8.32 7 9 C6.01 11.64 5.02 14.28 4 17 C3.34 17 2.68 17 2 17 C1.67 14.69 1.34 12.38 1 10 C0.34 10 -0.32 10 -1 10 C-1.02689216 8.52093108 -1.04634621 7.04172517 -1.0625 5.5625 C-1.07410156 4.73878906 -1.08570313 3.91507813 -1.09765625 3.06640625 C-1 1 -1 1 0 0 Z " fill="#FB7778" transform="translate(480,205)"/>
<path d="M0 0 C2.13586678 3.20380017 2.23132175 4.01939967 2.125 7.6875 C2.10695312 8.49574219 2.08890625 9.30398438 2.0703125 10.13671875 C2.04710937 10.75160156 2.02390625 11.36648438 2 12 C0.83428467 12.029729 0.83428467 12.029729 -0.35498047 12.06005859 C-3.86200691 12.15507009 -7.36841794 12.26484559 -10.875 12.375 C-12.70998047 12.42140625 -12.70998047 12.42140625 -14.58203125 12.46875 C-15.74863281 12.50742187 -16.91523438 12.54609375 -18.1171875 12.5859375 C-19.19597168 12.6173584 -20.27475586 12.6487793 -21.38623047 12.68115234 C-24.15761654 12.74676322 -24.15761654 12.74676322 -26 15 C-26 13.35 -26 11.7 -26 10 C-17.09 10 -8.18 10 1 10 C0.505 5.05 0.505 5.05 0 0 Z " fill="#FC5E5F" transform="translate(248,264)"/>
<path d="M0 0 C0.66 0 1.32 0 2 0 C2 0.66 2 1.32 2 2 C2.99 2 3.98 2 5 2 C5.433125 2.9075 5.86625 3.815 6.3125 4.75 C7.82885236 7.92341843 7.82885236 7.92341843 9.6875 10.125 C11 12 11 12 11 16 C11.66 16 12.32 16 13 16 C13 17.32 13 18.64 13 20 C12.01 20 11.02 20 10 20 C7 14.375 7 14.375 7 11 C6.34 11 5.68 11 5 11 C5 10.01 5 9.02 5 8 C4.34 8 3.68 8 3 8 C0.95830515 5.09451118 0 3.59857954 0 0 Z " fill="#F38A8B" transform="translate(161,294)"/>
<path d="M0 0 C0.66 0 1.32 0 2 0 C1.91276622 1.77174819 1.80458345 3.54247377 1.6875 5.3125 C1.62949219 6.29863281 1.57148438 7.28476562 1.51171875 8.30078125 C0.93565564 11.33940421 0.23381485 12.00042149 -2 14 C-2.73075648 16.3140622 -3.40138258 18.64828869 -4 21 C-4.33 21.66 -4.66 22.32 -5 23 C-5.66 23 -6.32 23 -7 23 C-6.505 18.545 -6.505 18.545 -6 14 C-5.34 14 -4.68 14 -4 14 C-4 12.02 -4 10.04 -4 8 C-3.34 8 -2.68 8 -2 8 C-2 7.01 -2 6.02 -2 5 C-1.34 5 -0.68 5 0 5 C0 3.35 0 1.7 0 0 Z " fill="#FA7D7D" transform="translate(212,250)"/>
<path d="M0 0 C0.66 0 1.32 0 2 0 C1.67 3.63 1.34 7.26 1 11 C0.34 11 -0.32 11 -1 11 C-1.13277344 11.56203125 -1.26554688 12.1240625 -1.40234375 12.703125 C-2.02437111 15.09366153 -2.77115041 17.41035775 -3.5625 19.75 C-3.83191406 20.54921875 -4.10132813 21.3484375 -4.37890625 22.171875 C-4.58386719 22.77515625 -4.78882813 23.3784375 -5 24 C-5.66 24 -6.32 24 -7 24 C-6.67 20.7 -6.34 17.4 -6 14 C-5.34 14 -4.68 14 -4 14 C-4 12.35 -4 10.7 -4 9 C-3.34 9 -2.68 9 -2 9 C-2 7.02 -2 5.04 -2 3 C-1.34 3 -0.68 3 0 3 C0 2.01 0 1.02 0 0 Z " fill="#F98B8B" transform="translate(228,205)"/>
<path d="M0 0 C0.99 0.33 1.98 0.66 3 1 C3 2.65 3 4.3 3 6 C2.34 6 1.68 6 1 6 C0.8453125 7.299375 0.8453125 7.299375 0.6875 8.625 C-0.23237253 13.14073786 -1.72117287 16.72117287 -5 20 C-5.99 20 -6.98 20 -8 20 C-7.67 18.02 -7.34 16.04 -7 14 C-6.34 14 -5.68 14 -5 14 C-5 13.01 -5 12.02 -5 11 C-4.34 11 -3.68 11 -3 11 C-3 10.34 -3 9.68 -3 9 C-2.34 9 -1.68 9 -1 9 C-0.67 6.03 -0.34 3.06 0 0 Z " fill="#FB9696" transform="translate(104,269)"/>
<path d="M0 0 C2 0 2 0 4.375 2 C8.2511941 6.42993612 10.82561886 10.55866404 11.25 16.5 C11.1675 17.325 11.085 18.15 11 19 C10.01 19.33 9.02 19.66 8 20 C7.67 17.03 7.34 14.06 7 11 C6.34 11 5.68 11 5 11 C5 10.34 5 9.68 5 9 C4.34 9 3.68 9 3 9 C3 8.01 3 7.02 3 6 C2.34 6 1.68 6 1 6 C0.67 4.02 0.34 2.04 0 0 Z " fill="#F4C6C7" transform="translate(96,230)"/>
<path d="M0 0 C16.17 0 32.34 0 49 0 C49 0.33 49 0.66 49 1 C47.77482666 1.01981934 46.54965332 1.03963867 45.28735352 1.06005859 C40.7080556 1.13657763 36.12905641 1.22522098 31.55004883 1.31738281 C29.57452323 1.35548235 27.59893274 1.39036713 25.62329102 1.421875 C22.77076142 1.46794159 19.91867125 1.52586417 17.06640625 1.5859375 C15.75803551 1.60326431 15.75803551 1.60326431 14.42323303 1.62094116 C8.70087351 1.7562692 3.55380978 2.6023525 -2 4 C-2 4.66 -2 5.32 -2 6 C-2.66 5.67 -3.32 5.34 -4 5 C-3.67 4.34 -3.34 3.68 -3 3 C-2.01 3 -1.02 3 0 3 C0 2.01 0 1.02 0 0 Z " fill="#FB1C1C" transform="translate(46,209)"/>
<path d="M0 0 C0.99 0.33 1.98 0.66 3 1 C3 1.99 3 2.98 3 4 C20.49 4 37.98 4 56 4 C56 4.33 56 4.66 56 5 C38.18 5 20.36 5 2 5 C2 4.34 2 3.68 2 3 C1.34 3 0.68 3 0 3 C0 2.01 0 1.02 0 0 Z " fill="#FB1516" transform="translate(346,304)"/>
<path d="M0 0 C1.98 0 3.96 0 6 0 C6 1.65 6 3.3 6 5 C4.58398286 5.48108275 3.16715563 5.95978141 1.75 6.4375 C0.96109375 6.70433594 0.1721875 6.97117188 -0.640625 7.24609375 C-2.74821988 7.91954708 -4.84753973 8.49150595 -7 9 C-6.125 4.125 -6.125 4.125 -5 3 C-3.33382885 2.95936168 -1.66611905 2.957279 0 3 C0 2.01 0 1.02 0 0 Z " fill="#FD6E6E" transform="translate(425,205)"/>
<path d="M0 0 C0.66 0 1.32 0 2 0 C2 1.65 2 3.3 2 5 C2.66 5 3.32 5 4 5 C4 5.99 4 6.98 4 8 C4.66 8 5.32 8 6 8 C6.50471197 9.76949612 7.00360685 11.54065223 7.5 13.3125 C7.7784375 14.29863281 8.056875 15.28476562 8.34375 16.30078125 C9 19 9 19 9 22 C8.34 22 7.68 22 7 22 C7 21.01 7 20.02 7 19 C6.34 19 5.68 19 5 19 C5 17.35 5 15.7 5 14 C4.34 14 3.68 14 3 14 C3 12.35 3 10.7 3 9 C2.34 9 1.68 9 1 9 C0.67 6.03 0.34 3.06 0 0 Z " fill="#FD9A9B" transform="translate(257,253)"/>
<path d="M0 0 C0.99 0.33 1.98 0.66 3 1 C3.33 2.65 3.66 4.3 4 6 C4.66 6 5.32 6 6 6 C6 7.98 6 9.96 6 12 C6.66 12 7.32 12 8 12 C8 13.65 8 15.3 8 17 C8.66 17 9.32 17 10 17 C10 18.65 10 20.3 10 22 C9.01 21.67 8.02 21.34 7 21 C5.8671875 18.453125 5.8671875 18.453125 4.875 15.25 C4.54242188 14.20328125 4.20984375 13.1565625 3.8671875 12.078125 C3.11066567 9.39281328 2.49786329 6.74332836 2 4 C1.34 4 0.68 4 0 4 C0 2.68 0 1.36 0 0 Z " fill="#FA9292" transform="translate(239,205)"/>
<path d="M0 0 C3.96 0 7.92 0 12 0 C12 1.65 12 3.3 12 5 C8.04 5 4.08 5 0 5 C0 3.35 0 1.7 0 0 Z " fill="#FD5859" transform="translate(124,309)"/>
<path d="M0 0 C3.96 0 7.92 0 12 0 C12 1.65 12 3.3 12 5 C8.04 5 4.08 5 0 5 C0 3.35 0 1.7 0 0 Z " fill="#FD2929" transform="translate(346,205)"/>
<path d="M0 0 C0.66 0 1.32 0 2 0 C0.18421053 14.22368421 0.18421053 14.22368421 -3 19 C-3.99 19 -4.98 19 -6 19 C-5.33333333 15.66666667 -4.66666667 12.33333333 -4 9 C-3.34 9 -2.68 9 -2 9 C-2 7.02 -2 5.04 -2 3 C-1.34 3 -0.68 3 0 3 C0 2.01 0 1.02 0 0 Z " fill="#FB8D8D" transform="translate(219,230)"/>
<path d="M0 0 C4.62 0 9.24 0 14 0 C14 1.32 14 2.64 14 4 C9.71 4 5.42 4 1 4 C0.67 2.68 0.34 1.36 0 0 Z " fill="#FC6464" transform="translate(263,310)"/>
<path d="M0 0 C0.66 0 1.32 0 2 0 C2 1.98 2 3.96 2 6 C3.32 5.67 4.64 5.34 6 5 C6 5.66 6 6.32 6 7 C5.01 7.33 4.02 7.66 3 8 C2.67 8.99 2.34 9.98 2 11 C0.02 11 -1.96 11 -4 11 C-4 10.01 -4 9.02 -4 8 C-4.66 8 -5.32 8 -6 8 C-6 6.35 -6 4.7 -6 3 C-5.01 3.33 -4.02 3.66 -3 4 C-3 4.99 -3 5.98 -3 7 C-1.68 7 -0.36 7 1 7 C0.67 4.69 0.34 2.38 0 0 Z " fill="#FC7D7E" transform="translate(485,222)"/>
<path d="M0 0 C0.66 0 1.32 0 2 0 C1.67 1.98 1.34 3.96 1 6 C0.34 6 -0.32 6 -1 6 C-1 7.98 -1 9.96 -1 12 C-1.66 12 -2.32 12 -3 12 C-3 12.99 -3 13.98 -3 15 C-3.66 15 -4.32 15 -5 15 C-5.33 15.99 -5.66 16.98 -6 18 C-6.66 17.67 -7.32 17.34 -8 17 C-7.31113213 13.61108678 -6.01283514 10.81988387 -4.4375 7.75 C-3.98246094 6.85796875 -3.52742187 5.9659375 -3.05859375 5.046875 C-2.70925781 4.37140625 -2.35992187 3.6959375 -2 3 C-1.34 3 -0.68 3 0 3 C0 2.01 0 1.02 0 0 Z " fill="#F3CBCB" transform="translate(190,260)"/>
<path d="M0 0 C0.99 0 1.98 0 3 0 C3 5.61 3 11.22 3 17 C2.01 17.33 1.02 17.66 0 18 C0 12.06 0 6.12 0 0 Z " fill="#FC3E3E" transform="translate(106,252)"/>
<path d="M0 0 C3.71163209 2.6993688 4.29847125 6.7000414 5 11 C5 12.32 5 13.64 5 15 C-3.91 15 -12.82 15 -22 15 C-22 14.67 -22 14.34 -22 14 C-13.75 14 -5.5 14 3 14 C2.34 11.03 1.68 8.06 1 5 C0.66013333 3.33465333 0.32297514 1.66870487 0 0 Z " fill="#FACDCD" transform="translate(244,258)"/>
<path d="M0 0 C5.49923749 -0.07411371 10.99818479 -0.12858464 16.49780273 -0.16479492 C18.36894799 -0.17988873 20.24005783 -0.20036589 22.11108398 -0.22631836 C24.79940526 -0.26267593 27.48725913 -0.27972015 30.17578125 -0.29296875 C31.43217155 -0.31619453 31.43217155 -0.31619453 32.71394348 -0.33988953 C38.60815592 -0.34160054 38.60815592 -0.34160054 40.74504089 1.52128601 C41.1591774 2.00926163 41.5733139 2.49723724 42 3 C41.67 3.66 41.34 4.32 41 5 C39.68 5 38.36 5 37 5 C37 3.68 37 2.36 37 1 C24.79 1 12.58 1 0 1 C0 0.67 0 0.34 0 0 Z " fill="#FC3031" transform="translate(137,223)"/>
<path d="M0 0 C0.66 0 1.32 0 2 0 C2 0.99 2 1.98 2 3 C2.66 3 3.32 3 4 3 C5.2890625 4.64453125 5.2890625 4.64453125 6.625 6.8125 C7.07101563 7.52019531 7.51703125 8.22789062 7.9765625 8.95703125 C9 11 9 11 9 14 C9.66 14 10.32 14 11 14 C11 14.99 11 15.98 11 17 C10.01 17 9.02 17 8 17 C7.67 15.35 7.34 13.7 7 12 C6.34 12 5.68 12 5 12 C5 11.01 5 10.02 5 9 C4.34 9 3.68 9 3 9 C2.67 7.35 2.34 5.7 2 4 C1.34 4 0.68 4 0 4 C0 2.68 0 1.36 0 0 Z " fill="#FC8487" transform="translate(176,286)"/>
<path d="M0 0 C0.66 0 1.32 0 2 0 C1.34 5.28 0.68 10.56 0 16 C-0.66 16 -1.32 16 -2 16 C-2 17.65 -2 19.3 -2 21 C-2.66 21 -3.32 21 -4 21 C-4 21.99 -4 22.98 -4 24 C-4.66 24 -5.32 24 -6 24 C-5.56728981 20.5383185 -4.85913033 17.47192992 -3.5625 14.25 C-1.733 9.62244118 -0.85145795 4.88837037 0 0 Z " fill="#FA8D8D" transform="translate(219,270)"/>
<path d="M0 0 C0.66 0 1.32 0 2 0 C2 0.66 2 1.32 2 2 C2.66 2 3.32 2 4 2 C4 2.99 4 3.98 4 5 C4.66 5 5.32 5 6 5 C6.33 6.98 6.66 8.96 7 11 C8.32 11 9.64 11 11 11 C11 11.99 11 12.98 11 14 C8.6875 13.8125 8.6875 13.8125 6 13 C3 8.96551724 3 8.96551724 3 6 C2.34 6 1.68 6 1 6 C0.67 4.02 0.34 2.04 0 0 Z " fill="#FC9090" transform="translate(287,278)"/>
<path d="M0 0 C0 0.99 0 1.98 0 3 C-0.66 3 -1.32 3 -2 3 C-2 3.99 -2 4.98 -2 6 C-3.32 6 -4.64 6 -6 6 C-6.33 7.98 -6.66 9.96 -7 12 C-7.66 12 -8.32 12 -9 12 C-9 12.66 -9 13.32 -9 14 C-9.66 14 -10.32 14 -11 14 C-11 13.01 -11 12.02 -11 11 C-10.34 11 -9.68 11 -9 11 C-8.9175 10.113125 -8.835 9.22625 -8.75 8.3125 C-7.49650521 2.77623134 -5.84775718 0 0 0 Z " fill="#FA7A7A" transform="translate(432,227)"/>
<path d="M0 0 C1.32 0 2.64 0 4 0 C4 3.63 4 7.26 4 11 C3.34 11 2.68 11 2 11 C2 9.68 2 8.36 2 7 C-2.95 7 -7.9 7 -13 7 C-12.67 6.01 -12.34 5.02 -12 4 C-12 4.66 -12 5.32 -12 6 C-6.06 5.505 -6.06 5.505 0 5 C0 3.35 0 1.7 0 0 Z " fill="#FB2E2E" transform="translate(185,303)"/>
<path d="M0 0 C0.66 0 1.32 0 2 0 C1.28547412 4.76350585 0.20465156 9.34201396 -1 14 C-1.66 14 -2.32 14 -3 14 C-3 15.65 -3 17.3 -3 19 C-3.66 19 -4.32 19 -5 19 C-4.67 15.37 -4.34 11.74 -4 8 C-3.34 8 -2.68 8 -2 8 C-2 6.35 -2 4.7 -2 3 C-1.34 3 -0.68 3 0 3 C0 2.01 0 1.02 0 0 Z " fill="#F7A0A1" transform="translate(203,275)"/>
<path d="M0 0 C0.99 0 1.98 0 3 0 C3.20413361 5.73842251 3.27141454 10.60539047 1 16 C0.34 15.67 -0.32 15.34 -1 15 C-0.67 10.05 -0.34 5.1 0 0 Z " fill="#FC5152" transform="translate(115,273)"/>
<path d="M0 0 C0.66 0 1.32 0 2 0 C2.66 6.27 3.32 12.54 4 19 C3.34 19 2.68 19 2 19 C2 18.34 2 17.68 2 17 C1.34 17 0.68 17 0 17 C0 11.39 0 5.78 0 0 Z " fill="#FC4E4F" transform="translate(27,263)"/>
<path d="M0 0 C0.66 0 1.32 0 2 0 C2.33 2.64 2.66 5.28 3 8 C3.99 8 4.98 8 6 8 C6.33 9.98 6.66 11.96 7 14 C5.68 14 4.36 14 3 14 C2.67 13.01 2.34 12.02 2 11 C1.34 10.67 0.68 10.34 0 10 C0 6.7 0 3.4 0 0 Z " fill="#FD5757" transform="translate(479,215)"/>
<path d="M0 0 C0.66 0 1.32 0 2 0 C1.45118943 6.35219042 0.83488387 12.67873638 0 19 C-0.66 19 -1.32 19 -2 19 C-2 14.38 -2 9.76 -2 5 C-1.34 5 -0.68 5 0 5 C0 3.35 0 1.7 0 0 Z " fill="#FC5051" transform="translate(29,234)"/>
<path d="M0 0 C0.66 0.33 1.32 0.66 2 1 C1.54762239 2.91808109 1.08785537 4.83442033 0.625 6.75 C0.36976563 7.81734375 0.11453125 8.8846875 -0.1484375 9.984375 C-0.88015462 12.57559342 -1.79673874 14.61875608 -3 17 C-3.165 18.216875 -3.33 19.43375 -3.5 20.6875 C-3.665 21.780625 -3.83 22.87375 -4 24 C-4.66 24.33 -5.32 24.66 -6 25 C-5.67 21.37 -5.34 17.74 -5 14 C-4.34 14 -3.68 14 -3 14 C-3.020625 13.05125 -3.04125 12.1025 -3.0625 11.125 C-3 8 -3 8 -2 6 C-1.34 6 -0.68 6 0 6 C0 4.02 0 2.04 0 0 Z " fill="#FC3334" transform="translate(217,273)"/>
<path d="M0 0 C0.66 0 1.32 0 2 0 C2.33 2.64 2.66 5.28 3 8 C3.66 8 4.32 8 5 8 C5 9.98 5 11.96 5 14 C5.66 14 6.32 14 7 14 C7.33 16.31 7.66 18.62 8 21 C2.34686361 14.76205639 0.73179855 8.19614375 0 0 Z " fill="#FB4445" transform="translate(240,242)"/>
<path d="M0 0 C0.66 0 1.32 0 2 0 C2 2.31 2 4.62 2 7 C1.34 7 0.68 7 0 7 C-0.33 8.32 -0.66 9.64 -1 11 C-1.99 11 -2.98 11 -4 11 C-3.67 8.36 -3.34 5.72 -3 3 C-2.34 3 -1.68 3 -1 3 C-0.67 2.01 -0.34 1.02 0 0 Z " fill="#FB2E2E" transform="translate(338,298)"/>
<path d="M0 0 C0.66 0 1.32 0 2 0 C2 1.98 2 3.96 2 6 C1.34 6 0.68 6 0 6 C0 7.98 0 9.96 0 12 C-0.66 12 -1.32 12 -2 12 C-2 12.99 -2 13.98 -2 15 C-2.66 15 -3.32 15 -4 15 C-3.43179252 9.54520815 -2.05362055 5.08940744 0 0 Z " fill="#F98F8F" transform="translate(407,296)"/>
<path d="M0 0 C0.66 0.33 1.32 0.66 2 1 C1.505 1.7425 1.01 2.485 0.5 3.25 C-1.31923475 6.06318188 -1.31923475 6.06318188 -1 10 C-3.97 9.505 -3.97 9.505 -7 9 C-6.67 7.35 -6.34 5.7 -6 4 C-4.68 4 -3.36 4 -2 4 C-2 3.34 -2 2.68 -2 2 C-1.34 2 -0.68 2 0 2 C0 1.34 0 0.68 0 0 Z " fill="#FC4647" transform="translate(184,268)"/>
<path d="M0 0 C2.97 0.495 2.97 0.495 6 1 C6.33 2.32 6.66 3.64 7 5 C7.66 5 8.32 5 9 5 C9.33 6.65 9.66 8.3 10 10 C9.01 9.34 8.02 8.68 7 8 C7 7.34 7 6.68 7 6 C5.68 6 4.36 6 3 6 C3 5.34 3 4.68 3 4 C2.01 4 1.02 4 0 4 C0 2.68 0 1.36 0 0 Z " fill="#FB4849" transform="translate(91,224)"/>
<path d="M0 0 C0.99 0 1.98 0 3 0 C3 3.63 3 7.26 3 11 C2.34 11 1.68 11 1 11 C1 11.99 1 12.98 1 14 C0.34 14 -0.32 14 -1 14 C-0.67 9.38 -0.34 4.76 0 0 Z " fill="#FA898A" transform="translate(473,205)"/>
<path d="M0 0 C0.66 0 1.32 0 2 0 C2 0.66 2 1.32 2 2 C2.66 2 3.32 2 4 2 C5.05771739 3.63064764 6.05273046 5.30280873 7 7 C7.99 8.485 7.99 8.485 9 10 C9 11.32 9 12.64 9 14 C8.34 14 7.68 14 7 14 C7 13.01 7 12.02 7 11 C6.34 11 5.68 11 5 11 C2.95830515 8.09451118 2 6.59857954 2 3 C1.34 3 0.68 3 0 3 C0 2.01 0 1.02 0 0 Z " fill="#F2C8C8" transform="translate(152,280)"/>
<path d="M0 0 C1.65 0 3.3 0 5 0 C5.33 2.97 5.66 5.94 6 9 C5.34 9 4.68 9 4 9 C4 8.34 4 7.68 4 7 C2.68 6.67 1.36 6.34 0 6 C0 4.02 0 2.04 0 0 Z " fill="#FB8687" transform="translate(170,277)"/>
<path d="M0 0 C0.99 0 1.98 0 3 0 C3 0.99 3 1.98 3 3 C2.34 3 1.68 3 1 3 C1 3.99 1 4.98 1 6 C0.01 6 -0.98 6 -2 6 C-2.33 6.99 -2.66 7.98 -3 9 C-3.99 9 -4.98 9 -6 9 C-6 7.68 -6 6.36 -6 5 C-5.01 5 -4.02 5 -3 5 C-3 4.01 -3 3.02 -3 2 C-2.01 2 -1.02 2 0 2 C0 1.34 0 0.68 0 0 Z " fill="#FD8787" transform="translate(105,302)"/>
<path d="M0 0 C2.97 0 5.94 0 9 0 C9 1.32 9 2.64 9 4 C5.62182575 4.84454356 3.32534757 5.10844919 0 4 C0 2.68 0 1.36 0 0 Z " fill="#FA1B1B" transform="translate(158,258)"/>
<path d="M0 0 C1.65 0 3.3 0 5 0 C5 1.32 5 2.64 5 4 C3.02 4 1.04 4 -1 4 C-1 4.99 -1 5.98 -1 7 C-1.99 7 -2.98 7 -4 7 C-4.33 7.66 -4.66 8.32 -5 9 C-4.67 7.02 -4.34 5.04 -4 3 C-3.01 3 -2.02 3 -1 3 C-0.67 2.01 -0.34 1.02 0 0 Z " fill="#FD6C6E" transform="translate(47,205)"/>
<path d="M0 0 C0.33 0.99 0.66 1.98 1 3 C1.66 3 2.32 3 3 3 C3 3.66 3 4.32 3 5 C3.66 5 4.32 5 5 5 C5 6.98 5 8.96 5 11 C5.66 11 6.32 11 7 11 C7 12.32 7 13.64 7 15 C6.01 15 5.02 15 4 15 C3.32532438 13.25307205 2.66055844 11.50231475 2 9.75 C1.62875 8.77546875 1.2575 7.8009375 0.875 6.796875 C0 4 0 4 0 0 Z " fill="#FC5A5A" transform="translate(270,292)"/>
<path d="M0 0 C-0.33 2.64 -0.66 5.28 -1 8 C-1.66 8 -2.32 8 -3 8 C-3 9.98 -3 11.96 -3 14 C-3.66 14 -4.32 14 -5 14 C-4.9131252 12.04082341 -4.80495488 10.08258129 -4.6875 8.125 C-4.62949219 7.03445313 -4.57148438 5.94390625 -4.51171875 4.8203125 C-4.34285156 3.88960938 -4.17398438 2.95890625 -4 2 C-1 0 -1 0 0 0 Z " fill="#FC8888" transform="translate(213,297)"/>
<path d="M0 0 C0.99 0 1.98 0 3 0 C5.43425238 4.96993194 6.34615998 8.34605369 6 14 C4.47700477 11.06279492 3.19899698 8.0831351 2 5 C0.68 5.33 -0.64 5.66 -2 6 C-1.125 1.125 -1.125 1.125 0 0 Z " fill="#FB3B3C" transform="translate(234,228)"/>
<path d="M0 0 C0 3.69418201 -1.28179295 5.77836178 -3 9 C-3.66 9 -4.32 9 -5 9 C-5.144375 9.763125 -5.28875 10.52625 -5.4375 11.3125 C-6 14 -6 14 -7 17 C-7.66 16.67 -8.32 16.34 -9 16 C-8.01 13.03 -7.02 10.06 -6 7 C-5.34 7 -4.68 7 -4 7 C-3.67 5.02 -3.34 3.04 -3 1 C-2.01 0.67 -1.02 0.34 0 0 Z " fill="#FC2F30" transform="translate(421,213)"/>
<path d="M0 0 C1.65 0 3.3 0 5 0 C5 0.99 5 1.98 5 3 C5.99 3 6.98 3 8 3 C8 3.99 8 4.98 8 6 C8.66 6 9.32 6 10 6 C10 6.99 10 7.98 10 9 C9.34 9 8.68 9 8 9 C8 8.34 8 7.68 8 7 C7.01 6.67 6.02 6.34 5 6 C5 5.34 5 4.68 5 4 C3.35 4 1.7 4 0 4 C0 2.68 0 1.36 0 0 Z " fill="#FB8D8E" transform="translate(177,205)"/>
<path d="M0 0 C0.99 0.33 1.98 0.66 3 1 C2.67 1.66 2.34 2.32 2 3 C1.34 2.67 0.68 2.34 0 2 C-0.04898438 2.68707031 -0.09796875 3.37414062 -0.1484375 4.08203125 C-0.22320312 4.98308594 -0.29796875 5.88414062 -0.375 6.8125 C-0.44460937 7.70582031 -0.51421875 8.59914062 -0.5859375 9.51953125 C-1 12 -1 12 -3 15 C-3.66 15 -4.32 15 -5 15 C-4.55065113 12.87308203 -4.09023527 10.74849961 -3.625 8.625 C-3.36976563 7.44164062 -3.11453125 6.25828125 -2.8515625 5.0390625 C-2 2 -2 2 0 0 Z " fill="#F9B1B1" transform="translate(234,232)"/>
<path d="M0 0 C0.33 0 0.66 0 1 0 C1 1.65 1 3.3 1 5 C0.01 5 -0.98 5 -2 5 C-2 6.98 -2 8.96 -2 11 C-3.32 11.33 -4.64 11.66 -6 12 C-5.125 6.125 -5.125 6.125 -4 5 C-4.66 4.34 -5.32 3.68 -6 3 C-4.02 3 -2.04 3 0 3 C0 2.01 0 1.02 0 0 Z " fill="#FC494A" transform="translate(490,209)"/>
<path d="M0 0 C0.66 0.33 1.32 0.66 2 1 C1.625 3.9375 1.625 3.9375 1 7 C0.01 7.495 0.01 7.495 -1 8 C-1.91031272 10.34386809 -1.91031272 10.34386809 -2.625 13.0625 C-2.88539063 13.98160156 -3.14578125 14.90070313 -3.4140625 15.84765625 C-3.60742188 16.55792969 -3.80078125 17.26820313 -4 18 C-4.96661363 14.87819599 -4.98988909 12.47916205 -4.5625 9.25 C-4.46066406 8.45078125 -4.35882813 7.6515625 -4.25390625 6.828125 C-4.17011719 6.22484375 -4.08632812 5.6215625 -4 5 C-2.68 5 -1.36 5 0 5 C0 3.35 0 1.7 0 0 Z " fill="#FC4F50" transform="translate(200,289)"/>
<path d="M0 0 C0.66 0 1.32 0 2 0 C1.67 1.98 1.34 3.96 1 6 C0.34 6 -0.32 6 -1 6 C-1.144375 6.61875 -1.28875 7.2375 -1.4375 7.875 C-2 10 -2 10 -3 12 C-3.66 12 -4.32 12 -5 12 C-4.5020163 8.26512223 -4.12508244 6.18762365 -2 3 C-1.34 3 -0.68 3 0 3 C0 2.01 0 1.02 0 0 Z " fill="#FC9091" transform="translate(416,214)"/>
<path d="M0 0 C1.32 0 2.64 0 4 0 C4 1.65 4 3.3 4 5 C2.68 5 1.36 5 0 5 C0 5.66 0 6.32 0 7 C-0.99 7 -1.98 7 -3 7 C-3 5.68 -3 4.36 -3 3 C-2.01 3 -1.02 3 0 3 C0 2.01 0 1.02 0 0 Z " fill="#FC6767" transform="translate(291,205)"/>
<path d="M0 0 C0.99 0 1.98 0 3 0 C3 0.99 3 1.98 3 3 C2.34 3 1.68 3 1 3 C1 3.99 1 4.98 1 6 C0.34 6 -0.32 6 -1 6 C-1 7.65 -1 9.3 -1 11 C-1.66 11 -2.32 11 -3 11 C-2.67 8.03 -2.34 5.06 -2 2 C-1.34 2 -0.68 2 0 2 C0 1.34 0 0.68 0 0 Z " fill="#F99494" transform="translate(112,291)"/>
<path d="M0 0 C0.66 0 1.32 0 2 0 C2 1.32 2 2.64 2 4 C2.66 4 3.32 4 4 4 C4 5.32 4 6.64 4 8 C4.66 8 5.32 8 6 8 C6 8.99 6 9.98 6 11 C5.01 11 4.02 11 3 11 C3 10.34 3 9.68 3 9 C2.34 9 1.68 9 1 9 C0.67 6.03 0.34 3.06 0 0 Z " fill="#FD6B6B" transform="translate(29,282)"/>
<path d="M0 0 C2.61273988 1.30636994 2.97236124 2.28409758 4 5 C4.125 8.25 4.125 8.25 4 11 C3.01 11.33 2.02 11.66 1 12 C0.67 8.04 0.34 4.08 0 0 Z " fill="#FB8A8A" transform="translate(103,238)"/>
<path d="M0 0 C0.66 0 1.32 0 2 0 C4.84450614 3.71973879 5.3227506 6.37390802 5 11 C4.34 11 3.68 11 3 11 C0.43383368 7.15075052 0.44902324 4.5650696 0 0 Z " fill="#FAA4A5" transform="translate(411,291)"/>
<path d="M0 0 C0.66 0 1.32 0 2 0 C2 0.66 2 1.32 2 2 C2.66 2 3.32 2 4 2 C4 2.99 4 3.98 4 5 C4.66 5 5.32 5 6 5 C6.33 6.98 6.66 8.96 7 11 C6.34 11 5.68 11 5 11 C2.95830515 8.09451118 2 6.59857954 2 3 C1.34 3 0.68 3 0 3 C0 2.01 0 1.02 0 0 Z " fill="#F9AEAE" transform="translate(145,269)"/>
<path d="M0 0 C0.66 0 1.32 0 2 0 C1.67 2.97 1.34 5.94 1 9 C-0.32 9 -1.64 9 -3 9 C-3 9.66 -3 10.32 -3 11 C-3.66 11 -4.32 11 -5 11 C-5 10.01 -5 9.02 -5 8 C-4.34 8 -3.68 8 -3 8 C-3 7.34 -3 6.68 -3 6 C-2.34 6 -1.68 6 -1 6 C-0.67 4.02 -0.34 2.04 0 0 Z " fill="#F3BABA" transform="translate(178,247)"/>
<path d="M0 0 C0.66 0 1.32 0 2 0 C2 0.99 2 1.98 2 3 C2.66 3 3.32 3 4 3 C4.33 4.65 4.66 6.3 5 8 C5.66 8 6.32 8 7 8 C7 9.32 7 10.64 7 12 C6.34 12 5.68 12 5 12 C5 11.01 5 10.02 5 9 C4.34 9 3.68 9 3 9 C3 8.01 3 7.02 3 6 C2.34 6 1.68 6 1 6 C0.67 4.02 0.34 2.04 0 0 Z " fill="#F2D2D2" transform="translate(106,211)"/>
<path d="M0 0 C0.33 0.99 0.66 1.98 1 3 C1.66 3 2.32 3 3 3 C3 3.66 3 4.32 3 5 C4.32 5 5.64 5 7 5 C7 5.99 7 6.98 7 8 C7.66 8 8.32 8 9 8 C9 8.99 9 9.98 9 11 C8.34 11 7.68 11 7 11 C7 10.34 7 9.68 7 9 C6.21625 8.731875 5.4325 8.46375 4.625 8.1875 C2 7 2 7 0 4 C0 2.68 0 1.36 0 0 Z " fill="#FB7275" transform="translate(423,281)"/>
<path d="M0 0 C0.99 0 1.98 0 3 0 C3.33 3.63 3.66 7.26 4 11 C3.34 11 2.68 11 2 11 C2 9.35 2 7.7 2 6 C1.34 6 0.68 6 0 6 C0 4.02 0 2.04 0 0 Z " fill="#FC9090" transform="translate(407,280)"/>
<path d="M0 0 C1.98 0 3.96 0 6 0 C5.67 1.65 5.34 3.3 5 5 C3.68 5.33 2.36 5.66 1 6 C0.67 4.02 0.34 2.04 0 0 Z " fill="#FB1212" transform="translate(144,258)"/>
<path d="M0 0 C0.66 0 1.32 0 2 0 C1.67 3.63 1.34 7.26 1 11 C0.01 11 -0.98 11 -2 11 C-2.24042276 6.91281305 -1.42258812 3.82320557 0 0 Z " fill="#FC9090" transform="translate(468,258)"/>
<path d="M0 0 C0.66 0 1.32 0 2 0 C2 1.65 2 3.3 2 5 C2.66 5 3.32 5 4 5 C4 7.97 4 10.94 4 14 C3.67 14 3.34 14 3 14 C3 12.35 3 10.7 3 9 C2.34 9 1.68 9 1 9 C0.67 6.03 0.34 3.06 0 0 Z " fill="#FD6A6B" transform="translate(257,253)"/>
<path d="M0 0 C0.33 0 0.66 0 1 0 C0.67 3.63 0.34 7.26 0 11 C-0.99 10.67 -1.98 10.34 -3 10 C-3 8.02 -3 6.04 -3 4 C-2.34 4 -1.68 4 -1 4 C-0.67 2.68 -0.34 1.36 0 0 Z " fill="#FB8989" transform="translate(286,239)"/>
<path d="M0 0 C0.66 0 1.32 0 2 0 C2 0.66 2 1.32 2 2 C2.66 2 3.32 2 4 2 C4 2.99 4 3.98 4 5 C4.66 5 5.32 5 6 5 C6 6.32 6 7.64 6 9 C5.01 9 4.02 9 3 9 C0 3.375 0 3.375 0 0 Z " fill="#DEBCBC" transform="translate(168,305)"/>
<path d="M0 0 C0.66 0 1.32 0 2 0 C2 1.65 2 3.3 2 5 C1.34 5 0.68 5 0 5 C0 6.98 0 8.96 0 11 C-0.66 11 -1.32 11 -2 11 C-2.28571429 3.57142857 -2.28571429 3.57142857 0 0 Z " fill="#FD9393" transform="translate(472,303)"/>
<path d="M0 0 C0.99 0.33 1.98 0.66 3 1 C3.33 1.99 3.66 2.98 4 4 C4.66 4.33 5.32 4.66 6 5 C6 5.99 6 6.98 6 8 C4.68 8 3.36 8 2 8 C2 7.01 2 6.02 2 5 C1.34 5 0.68 5 0 5 C0 3.35 0 1.7 0 0 Z " fill="#F3BEBE" transform="translate(479,225)"/>
<path d="M0 0 C1.32 0 2.64 0 4 0 C4 1.32 4 2.64 4 4 C1 6 1 6 -2 6 C-1.125 1.125 -1.125 1.125 0 0 Z " fill="#F5B0B0" transform="translate(420,208)"/>
<path d="M0 0 C1.98 0.99 1.98 0.99 4 2 C4 2.66 4 3.32 4 4 C5.32 4.33 6.64 4.66 8 5 C8 6.32 8 7.64 8 9 C7.01 9 6.02 9 5 9 C4.67 8.01 4.34 7.02 4 6 C3.34 5.67 2.68 5.34 2 5 C2 4.01 2 3.02 2 2 C1.34 2 0.68 2 0 2 C0 1.34 0 0.68 0 0 Z " fill="#FB4748" transform="translate(420,302)"/>
<path d="M0 0 C0.66 0 1.32 0 2 0 C2.50833591 1.24663331 3.00631145 2.49749387 3.5 3.75 C3.7784375 4.44609375 4.056875 5.1421875 4.34375 5.859375 C5 8 5 8 5 12 C4.34 12 3.68 12 3 12 C3 11.01 3 10.02 3 9 C2.34 9 1.68 9 1 9 C0.67 6.03 0.34 3.06 0 0 Z " fill="#FC6161" transform="translate(223,282)"/>
<path d="M0 0 C0.66 0 1.32 0 2 0 C3.32421875 1.609375 3.32421875 1.609375 4.6875 3.75 C5.14511719 4.44609375 5.60273438 5.1421875 6.07421875 5.859375 C7.16906025 8.39090725 6.9435441 9.46100862 6 12 C5.67 11.01 5.34 10.02 5 9 C4.34 9 3.68 9 3 9 C2.67 7.02 2.34 5.04 2 3 C1.34 3 0.68 3 0 3 C0 2.01 0 1.02 0 0 Z " fill="#FC2D2D" transform="translate(146,265)"/>
<path d="M0 0 C0.66 0 1.32 0 2 0 C1.67 2.31 1.34 4.62 1 7 C-0.65 7 -2.3 7 -4 7 C-3.67 5.68 -3.34 4.36 -3 3 C-2.01 3 -1.02 3 0 3 C0 2.01 0 1.02 0 0 Z " fill="#F1C9C9" transform="translate(491,226)"/>
<path d="M0 0 C0.66 0 1.32 0 2 0 C2 0.66 2 1.32 2 2 C3.65 2.33 5.3 2.66 7 3 C7 3.99 7 4.98 7 6 C5.35 6 3.7 6 2 6 C2 5.01 2 4.02 2 3 C1.34 3 0.68 3 0 3 C0 2.01 0 1.02 0 0 Z " fill="#F6ABAC" transform="translate(284,305)"/>
<path d="M0 0 C3.16115776 1.36983503 3.9927092 1.9890638 6 5 C6 6.32 6 7.64 6 9 C5.01 9 4.02 9 3 9 C2.67 7.02 2.34 5.04 2 3 C1.34 3 0.68 3 0 3 C0 2.01 0 1.02 0 0 Z " fill="#FD5555" transform="translate(38,299)"/>
<path d="M0 0 C0.33 0.66 0.66 1.32 1 2 C1.66 2 2.32 2 3 2 C3.33 4.64 3.66 7.28 4 10 C3.01 10 2.02 10 1 10 C0.67 6.7 0.34 3.4 0 0 Z " fill="#FA2E30" transform="translate(114,233)"/>
<path d="M0 0 C0.66 0 1.32 0 2 0 C1.67 1.98 1.34 3.96 1 6 C-0.32 6 -1.64 6 -3 6 C-3 6.66 -3 7.32 -3 8 C-3.66 8 -4.32 8 -5 8 C-4.1875 5.5625 -4.1875 5.5625 -3 3 C-2.01 2.67 -1.02 2.34 0 2 C0 1.34 0 0.68 0 0 Z " fill="#FC686D" transform="translate(49,227)"/>
<path d="M0 0 C0.99 0 1.98 0 3 0 C3 0.99 3 1.98 3 3 C3.66 3 4.32 3 5 3 C5.33 4.98 5.66 6.96 6 9 C5.34 8.67 4.68 8.34 4 8 C4 7.34 4 6.68 4 6 C2.68 5.34 1.36 4.68 0 4 C0 2.68 0 1.36 0 0 Z " fill="#FB8788" transform="translate(101,208)"/>
<path d="M0 0 C0.99 0 1.98 0 3 0 C3 3.63 3 7.26 3 11 C2.34 9.68 1.68 8.36 1 7 C0.67 6.67 0.34 6.34 0 6 C-0.04080783 4.00041636 -0.04254356 1.99954746 0 0 Z " fill="#FC4546" transform="translate(272,274)"/>
<path d="M0 0 C0.33 0 0.66 0 1 0 C1 1.65 1 3.3 1 5 C1.66 5 2.32 5 3 5 C3 5.99 3 6.98 3 8 C3.66 8 4.32 8 5 8 C5 9.98 5 11.96 5 14 C4.67 13.01 4.34 12.02 4 11 C3.34 11 2.68 11 2 11 C2 9.68 2 8.36 2 7 C1.34 7 0.68 7 0 7 C0 4.69 0 2.38 0 0 Z " fill="#FB3333" transform="translate(261,267)"/>
<path d="M0 0 C0.99 0 1.98 0 3 0 C3.33 2.97 3.66 5.94 4 9 C3.34 9 2.68 9 2 9 C0.14223235 5.86501708 -0.20140476 3.62528568 0 0 Z " fill="#FC8F8F" transform="translate(253,242)"/>
<path d="M0 0 C0.66 0 1.32 0 2 0 C1.67 2.97 1.34 5.94 1 9 C0.01 9 -0.98 9 -2 9 C-2 7.02 -2 5.04 -2 3 C-1.34 3 -0.68 3 0 3 C0 2.01 0 1.02 0 0 Z " fill="#FB8787" transform="translate(275,225)"/>
<path d="M0 0 C1.98 0.99 1.98 0.99 4 2 C4 4.97 4 7.94 4 11 C0.85041169 7.57653445 0.43820891 4.55737263 0 0 Z " fill="#FC4343" transform="translate(246,226)"/>
<path d="M0 0 C1.32 0 2.64 0 4 0 C4 0.66 4 1.32 4 2 C3.01 2 2.02 2 1 2 C0.67 2.99 0.34 3.98 0 5 C-0.66 5 -1.32 5 -2 5 C-2.33 6.65 -2.66 8.3 -3 10 C-3.33 10 -3.66 10 -4 10 C-4 8.02 -4 6.04 -4 4 C-2.68 3.67 -1.36 3.34 0 3 C0 2.01 0 1.02 0 0 Z " fill="#FB2626" transform="translate(427,225)"/>
<path d="M0 0 C0.28875 0.804375 0.5775 1.60875 0.875 2.4375 C1.73262568 5.1326468 1.73262568 5.1326468 4 6 C3.67 6.66 3.34 7.32 3 8 C1.02 7.01 -0.96 6.02 -3 5 C-3 4.01 -3 3.02 -3 2 C-3.99 1.67 -4.98 1.34 -6 1 C-3.92446352 0.4465236 -2.15634036 0 0 0 Z " fill="#FB3233" transform="translate(101,208)"/>
<path d="M0 0 C1.65 0 3.3 0 5 0 C5 1.32 5 2.64 5 4 C3.35 4 1.7 4 0 4 C0 2.68 0 1.36 0 0 Z " fill="#FD4E4E" transform="translate(45,307)"/>
<path d="M0 0 C0.66 0.33 1.32 0.66 2 1 C0.92598892 3.91517292 0.22189824 5.77810176 -2 8 C-2.99 8 -3.98 8 -5 8 C-5 7.01 -5 6.02 -5 5 C-4.01 5 -3.02 5 -2 5 C-2 4.34 -2 3.68 -2 3 C-1.34 3 -0.68 3 0 3 C0 2.01 0 1.02 0 0 Z " fill="#FB6B6C" transform="translate(101,281)"/>
<path d="M0 0 C1.32 0 2.64 0 4 0 C4 0.99 4 1.98 4 3 C3.34 3 2.68 3 2 3 C2 3.99 2 4.98 2 6 C1.01 6 0.02 6 -1 6 C-0.67 4.02 -0.34 2.04 0 0 Z " fill="#F49F9F" transform="translate(428,227)"/>
<path d="M0 0 C0.66 0 1.32 0 2 0 C2 0.66 2 1.32 2 2 C2.66 2 3.32 2 4 2 C4.33 3.98 4.66 5.96 5 8 C4.34 8 3.68 8 3 8 C0.95830515 5.09451118 0 3.59857954 0 0 Z " fill="#EACACB" transform="translate(161,294)"/>
<path d="M0 0 C0.99 0.33 1.98 0.66 3 1 C3 1.66 3 2.32 3 3 C3.99 3 4.98 3 6 3 C6 3.99 6 4.98 6 6 C4.68 6 3.36 6 2 6 C0 3 0 3 0 0 Z " fill="#FC8C8C" transform="translate(49,286)"/>
<path d="M0 0 C0 0.99 0 1.98 0 3 C-0.66 3 -1.32 3 -2 3 C-2 3.99 -2 4.98 -2 6 C-2.99 6 -3.98 6 -5 6 C-5 6.66 -5 7.32 -5 8 C-5.66 8 -6.32 8 -7 8 C-4.18918919 0 -4.18918919 0 0 0 Z " fill="#FBA5A5" transform="translate(296,227)"/>
<path d="M0 0 C0.66 0 1.32 0 2 0 C2 2.64 2 5.28 2 8 C1.34 8 0.68 8 0 8 C-0.38063221 5.6739143 -0.71269945 3.33944736 -1 1 C-0.67 0.67 -0.34 0.34 0 0 Z " fill="#FBAEAF" transform="translate(482,214)"/>
<path d="M0 0 C1.98 0 3.96 0 6 0 C6.33 1.65 6.66 3.3 7 5 C5.68 5 4.36 5 3 5 C2.67 4.01 2.34 3.02 2 2 C1.34 1.34 0.68 0.68 0 0 Z " fill="#FB3131" transform="translate(288,306)"/>
<path d="M0 0 C0.33 0.99 0.66 1.98 1 3 C0.01 3 -0.98 3 -2 3 C-2 4.32 -2 5.64 -2 7 C-2.99 7 -3.98 7 -5 7 C-5 5.35 -5 3.7 -5 2 C-3.35 2 -1.7 2 0 2 C0 1.34 0 0.68 0 0 Z " fill="#FC2E2F" transform="translate(101,304)"/>
<path d="M0 0 C0.66 0 1.32 0 2 0 C2 1.65 2 3.3 2 5 C1.34 5 0.68 5 0 5 C0 5.99 0 6.98 0 8 C-0.66 8 -1.32 8 -2 8 C-1.125 2.25 -1.125 2.25 0 0 Z " fill="#F49999" transform="translate(338,300)"/>
<path d="M0 0 C0.66 0 1.32 0 2 0 C1.67 1.98 1.34 3.96 1 6 C0.34 6 -0.32 6 -1 6 C-1 6.66 -1 7.32 -1 8 C-1.66 8 -2.32 8 -3 8 C-2.67 6.35 -2.34 4.7 -2 3 C-1.34 3 -0.68 3 0 3 C0 2.01 0 1.02 0 0 Z " fill="#FC9495" transform="translate(190,260)"/>
<path d="M0 0 C0.33 0.99 0.66 1.98 1 3 C0.01 4.485 0.01 4.485 -1 6 C-1.99 6 -2.98 6 -4 6 C-3.67 4.35 -3.34 2.7 -3 1 C-2.01 0.67 -1.02 0.34 0 0 Z " fill="#FC6363" transform="translate(217,243)"/>
<path d="M0 0 C2.475 0.495 2.475 0.495 5 1 C5.33 2.98 5.66 4.96 6 7 C5.34 6.67 4.68 6.34 4 6 C4 5.01 4 4.02 4 3 C2.68 3 1.36 3 0 3 C0 2.01 0 1.02 0 0 Z " fill="#FC4C4D" transform="translate(254,291)"/>
<path d="M0 0 C0 3 0 3 -1.1875 4.6875 C-3.55741722 6.40364695 -5.14025666 6.23187108 -8 6 C-7.01 5.34 -6.02 4.68 -5 4 C-4.67 3.01 -4.34 2.02 -4 1 C-1.9375 0.3125 -1.9375 0.3125 0 0 Z " fill="#FB2424" transform="translate(99,288)"/>
<path d="M0 0 C2 1.75 2 1.75 4 4 C4 5.32 4 6.64 4 8 C3.34 8 2.68 8 2 8 C2 7.01 2 6.02 2 5 C1.34 5 0.68 5 0 5 C0 3.35 0 1.7 0 0 Z " fill="#F0BDBE" transform="translate(157,286)"/>
<path d="M0 0 C0.66 0 1.32 0 2 0 C2 0.66 2 1.32 2 2 C2.66 2 3.32 2 4 2 C4 3.32 4 4.64 4 6 C4.66 6 5.32 6 6 6 C5.67 6.66 5.34 7.32 5 8 C2.5 6.25 2.5 6.25 0 4 C0 2.68 0 1.36 0 0 Z " fill="#FC4344" transform="translate(172,284)"/>
<path d="M0 0 C0.66 0 1.32 0 2 0 C2.33 1.65 2.66 3.3 3 5 C3.66 5 4.32 5 5 5 C5 5.99 5 6.98 5 8 C4.34 8 3.68 8 3 8 C3 7.34 3 6.68 3 6 C2.34 6 1.68 6 1 6 C0.67 4.02 0.34 2.04 0 0 Z " fill="#F3E1E1" transform="translate(423,278)"/>
<path d="M0 0 C0.66 0 1.32 0 2 0 C2 2.31 2 4.62 2 7 C0.68 6.67 -0.64 6.34 -2 6 C-1.34 4.02 -0.68 2.04 0 0 Z " fill="#FC5E5E" transform="translate(470,251)"/>
<path d="M0 0 C1.2077558 3.62326739 0.54311128 4.64146369 -1 8 C-1.99 8 -2.98 8 -4 8 C-4 7.01 -4 6.02 -4 5 C-3.34 5 -2.68 5 -2 5 C-2 4.01 -2 3.02 -2 2 C-1.34 2 -0.68 2 0 2 C0 1.34 0 0.68 0 0 Z " fill="#FAC7C7" transform="translate(279,217)"/>
<path d="M0 0 C3 0 3 0 4.6875 1.375 C6 3 6 3 6 5 C6.66 5 7.32 5 8 5 C7.67 5.99 7.34 6.98 7 8 C7 7.34 7 6.68 7 6 C5.68 5.67 4.36 5.34 3 5 C2.87625 4.360625 2.7525 3.72125 2.625 3.0625 C2.315625 2.0415625 2.315625 2.0415625 2 1 C1.34 0.67 0.68 0.34 0 0 Z " fill="#FC4445" transform="translate(179,209)"/>
<path d="M0 0 C0.99 0 1.98 0 3 0 C3 0.99 3 1.98 3 3 C2.34 3 1.68 3 1 3 C1 3.99 1 4.98 1 6 C0.34 6 -0.32 6 -1 6 C-1 5.01 -1 4.02 -1 3 C-1.66 2.67 -2.32 2.34 -3 2 C-2.01 2 -1.02 2 0 2 C0 1.34 0 0.68 0 0 Z " fill="#FA8E8E" transform="translate(105,302)"/>
<path d="M0 0 C1.32 0 2.64 0 4 0 C4 1.98 4 3.96 4 6 C3.34 6 2.68 6 2 6 C2 5.01 2 4.02 2 3 C1.34 3 0.68 3 0 3 C0 2.01 0 1.02 0 0 Z " fill="#FBCDCD" transform="translate(254,294)"/>
<path d="M0 0 C0.99 0.33 1.98 0.66 3 1 C3.33 2.98 3.66 4.96 4 7 C3.34 7 2.68 7 2 7 C2 6.01 2 5.02 2 4 C1.34 4 0.68 4 0 4 C0 2.68 0 1.36 0 0 Z " fill="#F3AFAF" transform="translate(141,262)"/>
<path d="M0 0 C0.66 0 1.32 0 2 0 C1.67 2.64 1.34 5.28 1 8 C0.34 8 -0.32 8 -1 8 C-1.93065133 5.39417629 -2.14917407 4.35801776 -1.0625 1.75 C-0.711875 1.1725 -0.36125 0.595 0 0 Z " fill="#FD6D6E" transform="translate(336,216)"/>
<path d="M0 0 C0.66 0 1.32 0 2 0 C3.4606285 2.64738916 4 3.89448334 4 7 C3.01 6.67 2.02 6.34 1 6 C0.67 4.02 0.34 2.04 0 0 Z " fill="#FB9292" transform="translate(346,307)"/>
<path d="M0 0 C1.32 0 2.64 0 4 0 C4 1.65 4 3.3 4 5 C3.01 5 2.02 5 1 5 C0.67 3.35 0.34 1.7 0 0 Z " fill="#FB5152" transform="translate(185,303)"/>
<path d="M0 0 C0.33 0 0.66 0 1 0 C0.67 2.64 0.34 5.28 0 8 C-0.66 8 -1.32 8 -2 8 C-1.125 1.125 -1.125 1.125 0 0 Z " fill="#FDC1C1" transform="translate(212,297)"/>
<path d="M0 0 C0.66 0.33 1.32 0.66 2 1 C1.67 3.31 1.34 5.62 1 8 C0.01 7.67 -0.98 7.34 -2 7 C-2 5.68 -2 4.36 -2 3 C-1.34 3 -0.68 3 0 3 C0 2.01 0 1.02 0 0 Z " fill="#FB3B3C" transform="translate(108,295)"/>
<path d="M0 0 C0.99 0.495 0.99 0.495 2 1 C2.59355614 3.64860427 2.74209269 6.29197322 3 9 C1.5 7.875 1.5 7.875 0 6 C-0.1875 2.8125 -0.1875 2.8125 0 0 Z " fill="#F8B1B1" transform="translate(272,280)"/>
</svg>
