<?xml version="1.0" encoding="UTF-8"?>
<svg version="1.1" xmlns="http://www.w3.org/2000/svg" width="512" height="512">
<path d="M0 0 C0.66 0 1.32 0 2 0 C3.89009423 5.32825088 5.77365662 10.65875531 7.65185547 15.99121094 C8.28819697 17.79518961 8.92615153 19.5986003 9.56591797 21.40136719 C13.58475551 32.73005883 17.31386 44.09592387 20.70458984 55.62841797 C21.95635272 59.88377788 23.31159788 64.09843373 24.71118164 68.30737305 C28.57184568 79.95627857 31.54047306 91.74279751 34.25292969 103.70556641 C35.02543355 107.11215697 35.81336131 110.51497922 36.6015625 113.91796875 C48.4538649 165.53610283 52.88493149 222.78958281 33.70556641 273.12451172 C33.05051602 274.86572177 32.43561855 276.62189353 31.82421875 278.37890625 C28.80337711 286.83933902 24.63463033 294.3980943 20.09912109 302.11474609 C19.09250089 303.84133899 18.11687543 305.5859058 17.14453125 307.33203125 C13.33552157 314.12200503 9.00393971 320.04911808 4 326 C2.47809234 327.87412809 0.95727824 329.74914469 -0.5625 331.625 C-2.04044761 333.4176724 -3.51952843 335.20941144 -5 337 C-5.57363281 337.7115625 -6.14726562 338.423125 -6.73828125 339.15625 C-10.79158666 344.031825 -15.36484021 347.91615183 -20.32421875 351.85546875 C-22.54271939 353.63350795 -24.6518471 355.45969267 -26.75 357.375 C-30.5100185 360.69220641 -34.47729563 363.69962892 -38.5 366.6875 C-39.11713867 367.15140137 -39.73427734 367.61530273 -40.37011719 368.09326172 C-44.07215199 370.80867393 -47.7853649 372.99907331 -51.92431641 374.97924805 C-54.13451726 376.0661511 -56.26417544 377.25041086 -58.40234375 378.47265625 C-59.14806641 378.89740234 -59.89378906 379.32214844 -60.66210938 379.75976562 C-62.17778595 380.62753925 -63.69082527 381.49993564 -65.20117188 382.37695312 C-69.61296215 384.87785581 -73.88538537 386.79143147 -78.72924805 388.29125977 C-81.05759226 389.01797552 -83.33429973 389.8356652 -85.62109375 390.68359375 C-129.88437055 406.90355961 -180.06034956 406.49555045 -224.12451172 389.70556641 C-225.86572177 389.05051602 -227.62189353 388.43561855 -229.37890625 387.82421875 C-237.83933902 384.80337711 -245.3980943 380.63463033 -253.11474609 376.09912109 C-254.84133899 375.09250089 -256.5859058 374.11687543 -258.33203125 373.14453125 C-265.12200503 369.33552157 -271.04911808 365.00393971 -277 360 C-278.87412809 358.47809234 -280.74914469 356.95727824 -282.625 355.4375 C-284.4176724 353.95955239 -286.20941144 352.48047157 -288 351 C-288.7115625 350.42636719 -289.423125 349.85273438 -290.15625 349.26171875 C-295.05154457 345.1920195 -298.95933726 340.59413817 -302.91796875 335.6171875 C-304.54760998 333.56867038 -306.20591907 331.58583249 -307.9375 329.625 C-314.52453681 321.95541397 -320.74022883 314.17325692 -325.36328125 305.15234375 C-326.68532604 302.60606656 -328.0567974 300.1183368 -329.48046875 297.62890625 C-329.92583984 296.84604248 -330.37121094 296.06317871 -330.83007812 295.2565918 C-331.71035592 293.71214757 -332.595487 292.17045554 -333.48632812 290.63208008 C-335.94466732 286.28029871 -337.80527225 282.04981742 -339.28686523 277.27734375 C-340.01644748 274.94747618 -340.83504846 272.66793817 -341.68359375 270.37890625 C-357.90355961 226.11562945 -357.49555045 175.93965044 -340.70556641 131.87548828 C-340.05051602 130.13427823 -339.43561855 128.37810647 -338.82421875 126.62109375 C-335.80337711 118.16066098 -331.63463033 110.6019057 -327.09912109 102.88525391 C-326.09250089 101.15866101 -325.11687543 99.4140942 -324.14453125 97.66796875 C-320.33552157 90.87799497 -316.00393971 84.95088192 -311 79 C-309.47809234 77.12587191 -307.95727824 75.25085531 -306.4375 73.375 C-304.95955239 71.5823276 -303.48047157 69.79058856 -302 68 C-301.13955078 66.93265625 -301.13955078 66.93265625 -300.26171875 65.84375 C-296.20841334 60.968175 -291.63515979 57.08384817 -286.67578125 53.14453125 C-284.45728061 51.36649205 -282.3481529 49.54030733 -280.25 47.625 C-276.4899815 44.30779359 -272.52270437 41.30037108 -268.5 38.3125 C-267.88286133 37.84859863 -267.26572266 37.38469727 -266.62988281 36.90673828 C-262.92784801 34.19132607 -259.2146351 32.00092669 -255.07568359 30.02075195 C-252.86548274 28.9338489 -250.73582456 27.74958914 -248.59765625 26.52734375 C-247.85193359 26.10259766 -247.10621094 25.67785156 -246.33789062 25.24023438 C-244.82221405 24.37246075 -243.30917473 23.50006436 -241.79882812 22.62304688 C-237.38703785 20.12214419 -233.11461463 18.20856853 -228.27075195 16.70874023 C-225.94240774 15.98202448 -223.66570027 15.1643348 -221.37890625 14.31640625 C-176.36558966 -2.17840641 -125.64141163 -1.37960217 -81.08056641 16.19189453 C-79.20556141 16.92015862 -77.31258151 17.60172938 -75.41796875 18.27734375 C-67.00724391 21.29788217 -59.6275333 25.41802529 -52 30 C-51.11441406 30.5053125 -50.22882813 31.010625 -49.31640625 31.53125 C-40.62452951 36.537771 -32.80009119 42.72014516 -25 49 C-19.14958904 38.88697228 -13.82415729 28.72216176 -9.13525391 18.01757812 C-6.40549665 11.80833288 -3.42734629 5.86009012 0 0 Z " fill="#8BC34A" transform="translate(407,51)"/>
<path d="M0 0 C2.53237791 2.53237791 3.01329646 4.6604087 4.09375 8.07421875 C4.48433594 9.29947266 4.87492187 10.52472656 5.27734375 11.78710938 C5.6849471 13.08722351 6.09249876 14.38735385 6.5 15.6875 C6.90701035 16.96827124 7.3145567 18.24887228 7.72265625 19.52929688 C12.97265549 36.08498754 12.97265549 36.08498754 13.8125 42.25 C14.65637913 47.59899766 15.94441148 52.7244654 17.375 57.9375 C20.16338386 68.19248751 22.21447919 78.52740041 24 89 C24.2165625 90.25941406 24.433125 91.51882812 24.65625 92.81640625 C26.42797411 104.47591421 26.73588434 116.22600174 27 128 C27.01673767 128.68455261 27.03347534 129.36910522 27.05072021 130.07440186 C28.06262624 172.1529256 21.57482941 212.87080656 -8.4375 244.8125 C-41.4957388 276.0256278 -89.87944768 277.57226652 -132.7421875 277.29296875 C-135.34489696 277.28734963 -137.94760967 277.28309055 -140.55032349 277.28010559 C-146.60554505 277.26997853 -152.66056892 277.24655208 -158.71571743 277.21605712 C-165.63282293 277.18201025 -172.54993853 277.16590354 -179.46710753 277.15097082 C-193.64482854 277.1199794 -207.82240812 277.0675406 -222 277 C-219.10057878 274.10057878 -215.50944249 273.35179635 -211.6875 272.125 C-210.94693359 271.88136719 -210.20636719 271.63773437 -209.44335938 271.38671875 C-203.89684248 269.57388596 -198.32012741 267.86211111 -192.74145508 266.15136719 C-185.98642607 264.07262547 -179.24084346 261.9639958 -172.49804688 259.84594727 C-170.83319271 259.32380917 -169.16782684 258.80329986 -167.50195312 258.28442383 C-142.6847433 250.55219614 -119.69454051 241.00566791 -99 225 C-97.48019531 223.82630859 -97.48019531 223.82630859 -95.9296875 222.62890625 C-81.63375046 211.20437537 -68.25579312 198.43518923 -57 184 C-56.54367187 183.42540039 -56.08734375 182.85080078 -55.6171875 182.25878906 C-47.83867615 172.43685862 -41.28908789 162.20303421 -35.23876953 151.23608398 C-34.39791886 149.71827726 -33.54424165 148.20751963 -32.67919922 146.70336914 C-30.00220615 142.01838145 -27.80368158 137.39489689 -26 132.3125 C-25.75217773 131.631875 -25.50435547 130.95125 -25.24902344 130.25 C-24.74141561 128.8522957 -24.23715206 127.45337208 -23.73632812 126.05322266 C-23.02760058 124.07696316 -22.30503186 122.10635287 -21.578125 120.13671875 C-19.38770105 114.13882257 -17.37253399 108.23879084 -16 102 C-16.66 102 -17.32 102 -18 102 C-18.22042969 103.25941406 -18.44085938 104.51882812 -18.66796875 105.81640625 C-19.97868353 111.66834205 -22.51270264 116.66616355 -25.3125 121.9375 C-25.84012939 122.9380542 -26.36775879 123.9386084 -26.91137695 124.96948242 C-34.28396827 138.61121761 -43.35585628 150.74339563 -54 162 C-55.13049144 163.30777305 -56.25566302 164.6201671 -57.375 165.9375 C-69.31230487 179.58013414 -83.22720238 190.61022091 -98 201 C-98.64146973 201.45133301 -99.28293945 201.90266602 -99.94384766 202.36767578 C-115.89048054 213.44449837 -133.57911742 222.78855524 -152 229 C-153.59251918 229.55578542 -155.18496011 230.11179511 -156.77734375 230.66796875 C-170.7178714 235.47638441 -184.79703244 239.54947178 -199.24121094 242.54174805 C-201.01389207 242.84523278 -201.01389207 242.84523278 -202 244 C-204.20218574 244.42871683 -206.4124862 244.81574361 -208.625 245.1875 C-216.83894961 246.61829243 -224.82758395 248.72500679 -232.84033203 251.01831055 C-239.6640203 252.89811285 -246.29181835 254.70283605 -252.96875 251.63671875 C-264.06040131 243.09546257 -272.58623601 232.81747872 -276.625 219.3125 C-276.94247192 218.26050415 -276.94247192 218.26050415 -277.26635742 217.18725586 C-282.63825136 198.88356594 -281.91275969 182.21347374 -277 164 C-276.68804687 162.79988281 -276.37609375 161.59976563 -276.0546875 160.36328125 C-269.20676203 136.05026857 -251.52228427 116.49908303 -230 104 C-216.2657232 96.61844849 -203.52564428 91.85184229 -188 90 C-186.98537689 89.87443726 -186.98537689 89.87443726 -185.95025635 89.74633789 C-173.619531 88.22680044 -161.26868308 87.32352315 -148.875 86.5 C-132.33545396 85.39898126 -115.93436266 84.20969854 -100.17553711 78.71069336 C-98 78 -98 78 -94.12890625 77.12890625 C-88.74496671 75.83181185 -83.89578482 73.35226246 -78.9375 70.9375 C-77.92324951 70.44652832 -76.90899902 69.95555664 -75.86401367 69.44970703 C-59.7827123 61.561634 -45.36349893 52.18609917 -32.16796875 39.9765625 C-30 38 -30 38 -26.9375 35.625 C-16.13400832 25.97081595 -7.41363501 12.35605836 0 0 Z " fill="#FEFEFD" transform="translate(405,106)"/>
<path d="M0 0 C3.54004807 1.99342513 5.91890496 3.60420972 7.8125 7.3125 C8.75793732 12.20110273 8.96597514 16.42799126 6.30859375 20.76953125 C0.84546166 27.0994651 0.84546166 27.0994651 -3.796875 27.5859375 C-13.32348641 27.894012 -13.32348641 27.894012 -16.75 25.1875 C-20.77154964 20.44413376 -22.79316507 16.50061109 -22.54296875 10.26953125 C-21.77679733 6.05137872 -19.25501547 3.25061965 -16.125 0.5 C-10.87437521 -2.71812487 -5.47167712 -2.5316715 0 0 Z " fill="#FBFDF8" transform="translate(166.1875,374.6875)"/>
<path d="M0 0 C0.66 0 1.32 0 2 0 C1.71682074 1.60568666 1.42312209 3.20952047 1.125 4.8125 C0.96257812 5.70582031 0.80015625 6.59914062 0.6328125 7.51953125 C0 10 0 10 -2 13 C-3.18771723 9.57056481 -2.80226223 7.62215325 -1.5625 4.25 C-1.27503906 3.45078125 -0.98757813 2.6515625 -0.69140625 1.828125 C-0.46324219 1.22484375 -0.23507812 0.6215625 0 0 Z " fill="#B5D98D" transform="translate(387,208)"/>
<path d="M0 0 C0.66 0 1.32 0 2 0 C1.67 2.64 1.34 5.28 1 8 C-0.32 8 -1.64 8 -3 8 C-1.125 2.25 -1.125 2.25 0 0 Z " fill="#9ACA61" transform="translate(383,219)"/>
<path d="M0 0 C0.66 0.33 1.32 0.66 2 1 C1.0479279 2.00596297 0.08812654 3.00461563 -0.875 4 C-1.40867188 4.556875 -1.94234375 5.11375 -2.4921875 5.6875 C-4 7 -4 7 -6 7 C-4.60667426 3.63279613 -3.0210714 2.0140476 0 0 Z " fill="#E6F2D8" transform="translate(152,374)"/>
</svg>
