<?xml version="1.0" encoding="UTF-8"?>
<svg version="1.1" xmlns="http://www.w3.org/2000/svg" width="512" height="512">
<path d="M0 0 C1.21865389 0.00566899 1.21865389 0.00566899 2.46192706 0.0114525 C3.75270126 0.00571418 3.75270126 0.00571418 5.06955171 -0.00014007 C7.9699867 -0.01050733 10.87022509 -0.00647088 13.77067339 -0.0025093 C15.8432715 -0.00685374 17.915868 -0.01203599 19.98846209 -0.01799697 C25.63101226 -0.0314278 31.27349561 -0.03196105 36.91605866 -0.02943367 C41.62051388 -0.02836659 46.32495543 -0.03324061 51.02940774 -0.03803909 C62.12562771 -0.04914866 73.22181383 -0.04956371 84.31803668 -0.04352492 C95.77762983 -0.03748439 107.23710023 -0.0497949 118.69667244 -0.07109499 C128.52345351 -0.08869079 138.35019545 -0.0947155 148.1769917 -0.09145725 C154.05130476 -0.08964082 159.92553028 -0.09231614 165.79982913 -0.10617179 C171.32375437 -0.11871246 176.84748784 -0.11684173 182.37141001 -0.1037609 C184.4015544 -0.10138725 186.43171212 -0.10415785 188.46184123 -0.11238402 C191.22812678 -0.12278675 193.99376116 -0.11480308 196.76002276 -0.10207289 C197.56799724 -0.10944718 198.37597173 -0.11682146 199.20843029 -0.12441921 C202.32239468 -0.09416427 204.8600787 0.1095372 207.73608363 1.34715825 C209.96583721 4.20508919 209.79086804 6.9704332 209.74589312 10.44622117 C209.75213308 11.18170717 209.75837305 11.91719318 209.7648021 12.67496663 C209.78079338 15.14648618 209.76810463 17.61702781 209.75553668 20.08855516 C209.7609551 21.85751244 209.76807618 23.62646522 209.77677691 25.39540941 C209.79504658 30.20530922 209.78792775 35.01486669 209.77526057 39.82477266 C209.76515173 44.85224423 209.77452034 49.87968598 209.78080523 54.90715867 C209.78808782 63.35081587 209.7784779 71.79433324 209.75944293 80.23796922 C209.73767303 90.00775846 209.74472396 99.77721384 209.76674855 109.54699498 C209.78488514 117.92667995 209.7874694 126.30626425 209.77699387 134.6859625 C209.77074935 139.69449349 209.76994957 144.70286743 209.78313982 149.71138841 C209.79467241 154.41956709 209.78672023 159.12731425 209.7635628 163.83544618 C209.7582618 165.56606785 209.75981315 167.29672567 209.76861346 169.02733308 C209.77949825 171.38474223 209.76589294 173.74075706 209.74589312 176.09807664 C209.75481601 176.78766245 209.76373889 177.47724826 209.77293217 178.18773061 C209.72100687 181.32950732 209.60947219 182.88382066 207.39566576 185.19782335 C200.3277992 188.71692439 190.04145904 186.26158349 182.56608355 184.84246141 C178.4702503 184.14059327 174.36974039 183.70243592 170.23795855 183.27214891 C164.25100357 182.64083772 158.35465972 181.82622912 152.42545855 180.77214891 C148.37503439 180.13678826 144.31450326 179.70267508 140.23795855 179.27214891 C135.20613882 178.7407356 130.22256156 178.15830055 125.23795855 177.27214891 C120.64833683 176.46477296 116.05799299 175.88675351 111.42545855 175.39714891 C101.62251349 174.35809249 91.85176972 173.08332638 82.07731402 171.80828172 C80.73633652 171.63343431 79.39535346 171.45862947 78.0543648 171.28386766 C77.06354907 171.15469453 77.06354907 171.15469453 76.05271685 171.02291185 C69.72236526 170.20019855 63.38659242 169.42374206 57.05045855 168.64714891 C50.41429548 167.83147074 43.83329636 166.90564338 37.2496773 165.73308641 C33.25833812 165.12221997 29.25520441 164.7337452 25.23795855 164.33464891 C18.26576868 163.62343067 11.30776914 162.8412091 4.36295855 161.89714891 C3.52506793 161.79539354 2.6871773 161.69363816 1.82389605 161.5887993 C-3.07982739 160.89120057 -6.20997347 159.99137303 -9.76204145 156.27214891 C-10.82991558 153.0685265 -10.89309711 150.77035652 -10.90248334 147.40230638 C-10.90819349 146.17694169 -10.91390363 144.95157701 -10.91978681 143.68908006 C-10.92103214 142.3289117 -10.92215725 140.96874323 -10.92317426 139.60857469 C-10.92780296 138.17783812 -10.93282769 136.74710278 -10.93821943 135.31636888 C-10.95133954 131.42790553 -10.9577875 127.53945945 -10.96223009 123.65097743 C-10.96516114 121.22186152 -10.96926599 118.79275033 -10.97373426 116.36363679 C-10.9874075 108.76412622 -10.99707529 101.16462644 -11.00093615 93.56510442 C-11.00541812 84.79119807 -11.02297313 76.0174474 -11.05193675 67.24358839 C-11.07354643 60.46218628 -11.08364003 53.68082801 -11.08497727 46.89939183 C-11.08602571 42.84876973 -11.09194193 38.79829401 -11.10979688 34.74770814 C-11.12626556 30.93753349 -11.12843905 27.12761546 -11.11965787 23.31741792 C-11.11888688 21.91980885 -11.12323854 20.52218605 -11.13311613 19.12461168 C-11.14581941 17.21510257 -11.13817299 15.30549054 -11.12953413 13.39595872 C-11.13100069 12.32780994 -11.13246725 11.25966115 -11.13397825 10.15914422 C-10.23046438 3.14601641 -6.84015956 0.05416496 0 0 Z " fill="#FFC006" transform="translate(245.7620414495468,258.7278510928154)"/>
<path d="M0 0 C2.67730782 2.77823172 2.41019378 5.44096124 2.36286163 9.09892273 C2.3691016 9.83440873 2.37534156 10.56989473 2.38177061 11.32766819 C2.39776189 13.79918773 2.38507314 16.26972936 2.37250519 18.74125671 C2.37792361 20.510214 2.38504469 22.27916677 2.39374542 24.04811096 C2.4120151 28.85801077 2.40489627 33.66756825 2.39222908 38.47747421 C2.38212024 43.50494579 2.39148886 48.53238754 2.39777374 53.55986023 C2.40505633 62.00351743 2.39544642 70.4470348 2.37641144 78.89067078 C2.35464154 88.66046002 2.36169248 98.42991539 2.38371706 108.19969654 C2.40185365 116.57938151 2.40443791 124.95896581 2.39396238 133.33866405 C2.38771786 138.34719505 2.38691809 143.35556899 2.40010834 148.36408997 C2.41164093 153.07226865 2.40368874 157.7800158 2.38053131 162.48814774 C2.37523031 164.2187694 2.37678167 165.94942723 2.38558197 167.68003464 C2.39646676 170.03744379 2.38286145 172.39345861 2.36286163 174.7507782 C2.37178452 175.44036401 2.38070741 176.12994982 2.38990068 176.84043217 C2.34190708 179.74431846 2.1638384 181.52958915 0.35179043 183.84815884 C-3.26422143 185.40744708 -6.73335019 185.3482945 -10.60282135 185.32598877 C-11.89510048 185.33618377 -11.89510048 185.33618377 -13.21348625 185.34658474 C-16.10543603 185.36560236 -18.99696396 185.36311698 -21.88896942 185.36064148 C-23.9602437 185.36961608 -26.03151295 185.37982363 -28.10277557 185.39117432 C-33.73288692 185.41770693 -39.36286154 185.4247091 -44.99302936 185.42662168 C-49.69004391 185.42946809 -54.38702651 185.44050181 -59.08402878 185.45113796 C-70.1630684 185.4755757 -81.24203486 185.48289022 -92.32109833 185.48075867 C-103.75812109 185.47895547 -115.19471973 185.51062664 -126.63163513 185.55798966 C-136.44489655 185.59718379 -146.25801914 185.61331176 -156.07135826 185.61139244 C-161.93517175 185.6106266 -167.79860831 185.61922855 -173.66234398 185.65092659 C-179.17580148 185.67991705 -184.68852032 185.68024484 -190.20200348 185.65837669 C-192.22690214 185.65523262 -194.25184636 185.66236684 -196.27666664 185.68045807 C-199.03876633 185.70354085 -201.79829838 185.68974491 -204.56034088 185.66656494 C-205.36403829 185.68199563 -206.16773569 185.69742632 -206.99578756 185.71332461 C-209.89825856 185.65939272 -212.35770308 185.49191397 -214.76248991 183.75998729 C-218.00172235 180.26396813 -218.76961988 177.30079425 -218.7665329 172.65628052 C-218.7777417 171.41837769 -218.7889505 170.18047485 -218.80049896 168.90505981 C-218.78758994 167.54633622 -218.77417589 166.18761734 -218.76030731 164.8289032 C-218.76381094 163.38786669 -218.76947224 161.94683406 -218.7771225 160.5058136 C-218.79134456 156.60280699 -218.77433572 152.70050707 -218.75083733 148.79756808 C-218.73069978 144.70930698 -218.73660932 140.62107439 -218.73894501 136.53277588 C-218.73889147 129.66896436 -218.7191556 122.80542847 -218.68706512 115.94169617 C-218.65015918 108.00950318 -218.64139196 100.07767097 -218.64836264 92.14540333 C-218.65467016 84.50900625 -218.6439097 76.8727327 -218.62439728 69.23636055 C-218.61622878 65.98885905 -218.61351271 62.74142074 -218.61508942 59.49390984 C-218.61596908 55.66967596 -218.60173057 51.84578434 -218.57586288 48.02164078 C-218.56870797 46.61921536 -218.56661423 45.21675352 -218.56998062 43.81431389 C-218.57370213 41.89833149 -218.55708832 39.98234188 -218.53948212 38.06643677 C-218.5357534 36.99481009 -218.53202469 35.92318342 -218.52818298 34.81908321 C-218.08554174 31.47511768 -217.14580239 29.62138838 -215.14507294 26.92485046 C-211.96529756 24.80500021 -210.2973137 24.46125998 -206.57866669 23.92485046 C-204.88773895 23.67735046 -204.88773895 23.67735046 -203.16265106 23.42485046 C-201.98122528 23.25985046 -200.7997995 23.09485046 -199.58257294 22.92485046 C-197.89744598 22.67735046 -197.89744598 22.67735046 -196.17827606 22.42485046 C-189.66274359 21.48725838 -183.14207702 20.68756657 -176.59819794 19.98344421 C-167.13838876 18.96289734 -157.71908098 17.6879597 -148.29515839 16.38078308 C-143.45286073 15.70939613 -138.60941229 15.04638913 -133.76616669 14.38188171 C-132.82903839 14.25308624 -131.8919101 14.12429077 -130.92638397 13.99159241 C-116.70571283 12.03793922 -102.4870497 10.14458749 -88.21294403 8.62309265 C-83.26019262 8.08344935 -78.38367325 7.32431475 -73.48125458 6.44950867 C-69.63578991 5.84475905 -65.78098865 5.42984345 -61.91069794 5.02641296 C-55.58927193 4.34621226 -49.29499826 3.55867143 -43.00444794 2.63578796 C-42.25344818 2.52647949 -41.50244843 2.41717102 -40.7286911 2.30455017 C-37.68260028 1.85968614 -34.63700883 1.41222684 -31.59331512 0.95121765 C-5.84583283 -2.93003764 -5.84583283 -2.93003764 0 0 Z " fill="#4BAE4F" transform="translate(453.1450729370117,58.07514953613281)"/>
<path d="M0 0 C0.65396381 -0.00467997 1.30792763 -0.00935994 1.98170853 -0.01418173 C4.1712807 -0.02614021 6.36022796 -0.0166717 8.54980469 -0.00723267 C10.12024297 -0.01129801 11.6906784 -0.01663968 13.2611084 -0.02316284 C17.52553817 -0.03684676 21.78975035 -0.0315334 26.05418396 -0.02202559 C30.51529531 -0.01443455 34.97638793 -0.02147305 39.4375 -0.02618408 C46.92939603 -0.03164326 54.42120337 -0.02444578 61.91308594 -0.01016235 C70.57686598 0.00616449 79.24043423 0.00087609 87.90420914 -0.01564157 C95.34040262 -0.02925183 102.77653231 -0.03117836 110.21273422 -0.02332556 C114.65508242 -0.01864651 119.09733104 -0.01803056 123.53967285 -0.02793503 C127.71594669 -0.03659574 131.89194724 -0.0305993 136.06819153 -0.01325226 C137.60166469 -0.00928261 139.13516082 -0.01042965 140.66862488 -0.01704025 C142.7605144 -0.02522731 144.85152593 -0.01496982 146.94335938 0 C148.11437195 0.00113108 149.28538452 0.00226215 150.49188232 0.00342751 C153.78264601 0.4203486 155.1505077 1.04685684 157.47167969 3.38095093 C158.52909871 6.553208 158.60263752 8.80428289 158.61212158 12.13690186 C158.61783173 13.33702408 158.62354187 14.5371463 158.62942505 15.77363586 C158.63110184 17.7514077 158.63110184 17.7514077 158.6328125 19.76913452 C158.63744129 21.17031485 158.64246603 22.57149391 158.64785767 23.97267151 C158.6609769 27.7805589 158.66742557 31.58842866 158.67186832 35.39633512 C158.67479952 37.77519817 158.6789044 40.1540564 158.6833725 42.53291702 C158.69704552 49.97545041 158.70671341 57.41797278 158.71057439 64.86051786 C158.71505628 73.45274402 158.73261101 82.04481119 158.76157498 90.636989 C158.78318578 97.27826494 158.79327833 103.91949613 158.79461551 110.56080687 C158.79566387 114.52759323 158.80157843 118.4942301 158.81943512 122.46097946 C158.83590572 126.19236128 158.83807637 129.92348105 158.82929611 133.65488625 C158.82815784 135.67567981 158.84188259 137.69646463 158.85604858 139.71720886 C158.84769485 141.52585167 158.84769485 141.52585167 158.83917236 143.37103271 C158.84063892 144.41705847 158.84210548 145.46308422 158.84361649 146.54080772 C158.40918227 149.85818688 157.45280508 151.70373906 155.47167969 154.38095093 C143.35663728 162.45764586 109.60012699 151.57576363 95.17837524 149.55004883 C84.6781182 148.07683289 74.1746439 146.70010467 63.64208984 145.47470093 C54.28093581 144.37936129 44.94241461 143.13014334 35.6027832 141.86557007 C29.5655931 141.05066492 23.52800278 140.25603426 17.47949219 139.52938843 C16.38902588 139.39790405 15.29855957 139.26641968 14.17504883 139.13095093 C12.14877763 138.8890269 10.12194916 138.65170467 8.09448242 138.42001343 C-5.97302847 136.73776993 -5.97302847 136.73776993 -10.52832031 132.38095093 C-11.03168488 130.00554657 -11.03168488 130.00554657 -11.03625488 127.14303589 C-11.04753418 126.0578215 -11.05881348 124.97260712 -11.07043457 123.85450745 C-11.06233765 122.66376114 -11.05424072 121.47301483 -11.04589844 120.2461853 C-11.05290771 118.9923555 -11.05991699 117.7385257 -11.06713867 116.44670105 C-11.08174413 113.00636645 -11.07829814 109.56699202 -11.06562233 106.12671089 C-11.05550356 102.52862368 -11.06488486 98.93057782 -11.07116699 95.33248901 C-11.07844672 89.28981143 -11.06884733 83.24732931 -11.04980469 77.2046814 C-11.0280351 70.21595708 -11.03508626 63.2276995 -11.05711031 56.23898649 C-11.07525521 50.24143586 -11.07782716 44.24402583 -11.06735563 38.24645662 C-11.0611156 34.66313303 -11.06029878 31.0800289 -11.07350159 27.49671936 C-11.08718883 23.50286682 -11.06822507 19.50953816 -11.04589844 15.51571655 C-11.05399536 14.32497025 -11.06209229 13.13422394 -11.07043457 11.90739441 C-11.05915527 10.82218002 -11.04787598 9.73696564 -11.03625488 8.61886597 C-11.03474678 7.67423744 -11.03323868 6.72960892 -11.03168488 5.75635529 C-10.52832031 3.38095093 -10.52832031 3.38095093 -8.90459442 1.57739067 C-5.7897902 0.00910545 -3.48718484 0.00336826 0 0 Z " fill="#2095F3" transform="translate(61.5283203125,258.6190490722656)"/>
<path d="M0 0 C3.0429668 3.0429668 2.75386104 6.3115366 2.76544189 10.38095093 C2.77115204 11.58107315 2.77686218 12.78119537 2.78274536 14.01768494 C2.78442215 15.99545677 2.78442215 15.99545677 2.78613281 18.01318359 C2.7907616 19.41436392 2.79578635 20.81554298 2.80117798 22.21672058 C2.81429721 26.02460797 2.82074588 29.83247774 2.82518864 33.6403842 C2.82811984 36.01924724 2.83222471 38.39810547 2.83669281 40.77696609 C2.85036583 48.21949948 2.86003372 55.66202186 2.8638947 63.10456693 C2.8683766 71.69679309 2.88593133 80.28886026 2.9148953 88.88103807 C2.93650609 95.52231402 2.94659864 102.16354521 2.94793582 108.80485594 C2.94898419 112.77164231 2.95489874 116.73827918 2.97275543 120.70502853 C2.98922603 124.43641035 2.99139668 128.16753012 2.98261642 131.89893532 C2.98147815 133.91972888 2.9952029 135.94051371 3.0093689 137.96125793 C3.00101517 139.76990074 3.00101517 139.76990074 2.99249268 141.61508179 C2.99395924 142.66110754 2.9954258 143.70713329 2.9969368 144.7848568 C2.56589755 148.07631168 1.57602917 149.96171508 -0.375 152.625 C-3.18579608 154.03039804 -5.51753066 153.75746466 -8.66281128 153.76544189 C-9.64119373 153.76989858 -9.64119373 153.76989858 -10.63934147 153.7744453 C-12.83493189 153.78314856 -15.03046789 153.7846419 -17.22607422 153.78613281 C-18.79621498 153.79075982 -20.36635461 153.79578432 -21.93649292 153.80117798 C-26.20923364 153.81431485 -30.48195863 153.82074937 -34.7547164 153.82518864 C-37.42252026 153.82811713 -40.0903198 153.8322215 -42.75812149 153.83669281 C-51.10033838 153.85037079 -59.44254542 153.86003612 -67.78477275 153.8638947 C-77.42352085 153.86837713 -87.06212725 153.88593231 -96.70083225 153.9148953 C-104.14546243 153.93649102 -111.59005268 153.94659784 -119.03471386 153.94793582 C-123.4838188 153.94898532 -127.9327906 153.95492374 -132.38186264 153.97275543 C-136.56628779 153.98919986 -140.7504792 153.9914094 -144.93492508 153.98261642 C-146.47163264 153.98184411 -148.00835257 153.9862143 -149.54502869 153.99607468 C-151.64137332 154.0087385 -153.73688314 154.00294867 -155.83322144 153.99249268 C-157.00683165 153.99395924 -158.18044186 153.9954258 -159.38961601 153.9969368 C-162.72569579 153.58130824 -164.12853301 153.12085438 -166.375 150.625 C-166.88395119 148.25238895 -166.88395119 148.25238895 -166.89639282 145.39381409 C-166.91764725 143.76816025 -166.91764725 143.76816025 -166.93933105 142.10966492 C-166.93437622 140.92048965 -166.92942139 139.73131439 -166.92431641 138.50610352 C-166.93453827 137.25388 -166.94476013 136.00165649 -166.95529175 134.71148682 C-166.97835673 131.27523728 -166.98322703 127.83995144 -166.97816515 124.40369153 C-166.97602717 121.53581313 -166.98578869 118.66802395 -166.99537599 115.80016464 C-167.01757437 109.03459605 -167.01843685 102.26924952 -167.00634766 95.50366211 C-166.99426556 88.52275506 -167.01889279 81.54265397 -167.06148779 74.56188446 C-167.0967087 68.56940206 -167.10872443 62.57717631 -167.10221231 56.58459419 C-167.09858422 53.00500612 -167.10388027 49.42599291 -167.13164139 45.84649849 C-167.16143808 41.855107 -167.14286932 37.86474342 -167.11962891 33.87329102 C-167.13491638 32.68613998 -167.15020386 31.49898895 -167.16595459 30.27586365 C-167.12714789 27.2700855 -167.04693598 24.55466001 -166.375 21.625 C-162.85891061 18.31019526 -159.79575661 17.1438873 -155.0625 16.5 C-153.50402344 16.27957031 -153.50402344 16.27957031 -151.9140625 16.0546875 C-147.18534777 15.48056099 -142.45642125 14.90994082 -137.72314453 14.37451172 C-133.44207041 13.88718072 -129.19216131 13.31262203 -124.9375 12.625 C-119.99186092 11.83736118 -115.04080938 11.22302628 -110.0625 10.6875 C-88.6371194 8.37955623 -88.6371194 8.37955623 -67.34765625 5.08984375 C-62.61004954 4.34900906 -57.84422745 3.88010813 -53.07666016 3.37475586 C-48.65384526 2.89918936 -44.26771787 2.33583172 -39.875 1.625 C-33.81658368 0.64484857 -27.74274385 -0.03950256 -21.640625 -0.67773438 C-18.42190569 -1.01790098 -15.25761626 -1.39537238 -12.06640625 -1.94921875 C-7.66537661 -2.64546292 -3.87661349 -2.24435518 0 0 Z " fill="#F44235" transform="translate(217.375,89.375)"/>
</svg>
